# Blender 4.5.1 LTS
# www.blender.org
mtllib Generic Quadcopter.mtl
o Quadcopter_Stand.003
v 0.009276 0.217797 -0.189953
v -0.063416 0.217797 -0.175494
v -0.125042 0.217797 -0.134317
v -0.166218 0.217797 -0.072692
v -0.180678 0.217797 0.000000
v -0.166218 0.217797 0.072692
v -0.125042 0.217797 0.134317
v -0.063416 0.217797 0.175494
v 0.009276 0.217797 0.189953
v 0.081968 0.217797 0.175494
v 0.143593 0.217797 0.134317
v 0.184770 0.217797 0.072692
v 0.199229 0.217797 0.000000
v 0.184770 0.217797 -0.072692
v 0.143593 0.217797 -0.134317
v 0.081968 0.217797 -0.175494
v 0.009276 2.733280 -0.177366
v -0.060167 2.733280 -0.163553
v -0.119038 2.733280 -0.124216
v -0.158375 2.733280 -0.065345
v -0.172188 2.733280 0.004098
v -0.158375 2.733280 0.073541
v -0.119038 2.733280 0.132412
v -0.060167 2.733280 0.171748
v 0.009276 2.733280 0.205265
v 0.078719 2.733280 0.171748
v 0.137590 2.733280 0.132412
v 0.176926 2.733280 0.073541
v 0.190739 2.733280 0.004098
v 0.176926 2.733280 -0.065345
v 0.137590 2.733280 -0.124216
v 0.078719 2.733280 -0.163553
v 0.009276 0.187580 -0.466549
v -0.169265 0.187580 -0.431035
v -0.320624 0.187580 -0.329900
v -0.421759 0.187580 -0.178541
v -0.457273 0.187580 -0.000000
v -0.421759 0.187580 0.178541
v -0.320624 0.187580 0.329900
v -0.169265 0.187580 0.431035
v 0.009276 0.187580 0.466549
v 0.187816 0.187580 0.431035
v 0.339176 0.187580 0.329900
v 0.440311 0.187580 0.178541
v 0.475825 0.187580 -0.000000
v 0.440311 0.187580 -0.178541
v 0.339176 0.187580 -0.329900
v 0.187816 0.187580 -0.431035
v 0.009276 0.187580 -0.989811
v -0.369509 0.187580 -0.914466
v -0.690626 0.187580 -0.699902
v -0.905190 0.187580 -0.378784
v -0.980535 0.187580 -0.000000
v -0.905190 0.187580 0.378784
v -0.690626 0.187580 0.699902
v -0.369509 0.187580 0.914466
v 0.009276 0.187580 0.989811
v 0.388060 0.187580 0.914466
v 0.709178 0.187580 0.699902
v 0.923742 0.187580 0.378784
v 0.999087 0.187580 -0.000000
v 0.923742 0.187580 -0.378784
v 0.709178 0.187580 -0.699902
v 0.388060 0.187580 -0.914466
v 0.009276 0.000000 -0.860159
v -0.319893 0.000000 -0.794683
v -0.598949 0.000000 -0.608224
v -0.785407 0.000000 -0.329169
v -0.850883 0.000000 -0.000000
v -0.785407 0.000000 0.329169
v -0.598949 0.000000 0.608224
v -0.319893 0.000000 0.794683
v 0.009276 0.000000 0.860159
v 0.338444 0.000000 0.794683
v 0.617500 0.000000 0.608224
v 0.803959 0.000000 0.329169
v 0.869435 0.000000 -0.000000
v 0.803959 0.000000 -0.329169
v 0.617500 0.000000 -0.608224
v 0.338444 0.000000 -0.794683
v -0.369509 0.000000 -0.914466
v 0.009276 0.000000 -0.989811
v -0.690626 0.000000 -0.699902
v -0.905190 0.000000 -0.378784
v -0.980535 0.000000 -0.000000
v -0.905190 0.000000 0.378784
v -0.690626 0.000000 0.699902
v -0.369509 0.000000 0.914466
v 0.009276 0.000000 0.989811
v 0.388060 0.000000 0.914466
v 0.709178 0.000000 0.699902
v 0.923742 0.000000 0.378784
v 0.999087 0.000000 -0.000000
v 0.923742 0.000000 -0.378784
v 0.709178 0.000000 -0.699902
v 0.388060 0.000000 -0.914466
v 0.120141 1.895738 -0.045922
v 0.094129 1.895738 -0.084853
v -0.075577 1.895738 0.084853
v -0.036646 1.895738 0.110866
v 0.055198 1.895738 -0.110866
v 0.009276 1.895738 0.120000
v 0.009276 1.895738 -0.120000
v -0.036646 1.895738 -0.110866
v 0.055198 1.895738 0.110866
v -0.075577 1.895738 -0.084853
v 0.094129 1.895738 0.084853
v -0.101590 1.895738 -0.045922
v 0.120141 1.895738 0.045922
v -0.110724 1.895738 0.000000
v 0.129276 1.895738 0.000000
v -0.101590 1.895738 0.045922
v 0.094129 0.253680 -0.084853
v -0.036646 0.253680 0.110866
v 0.055198 0.253680 -0.110866
v 0.009276 0.253680 0.120000
v -0.036646 0.253680 -0.110866
v 0.055198 0.253680 0.110866
v -0.075577 0.253680 -0.084853
v 0.094129 0.253680 0.084853
v -0.101590 0.253680 -0.045922
v 0.120141 0.253680 0.045922
v -0.110724 0.253680 0.000000
v 0.129276 0.253680 0.000000
v -0.101590 0.253680 0.045922
v 0.120141 0.253680 -0.045922
v -0.075577 0.253680 0.084853
v 0.009276 0.253680 -0.120000
v -0.388768 2.711208 0.000000
v -0.388768 2.972540 0.000000
v 0.000000 2.711208 0.388768
v 0.000000 2.972540 0.388768
v 0.000000 3.101786 0.000000
v 0.000000 2.501295 0.000000
v -0.564690 2.803458 0.405125
v -0.564690 2.918000 0.405125
v -0.405125 2.918000 0.564690
v -0.405125 2.803458 0.564690
v -0.406899 2.964125 0.221896
v -0.221896 2.964125 0.406899
v -0.221896 2.757333 0.406899
v -0.406899 2.757333 0.221896
v 0.000000 3.060329 0.254000
v -0.254000 3.058300 0.000000
v -0.488768 2.860729 0.000000
v 0.000000 2.860729 0.488768
v -0.614194 2.860729 0.354629
v -0.354629 2.860729 0.614194
v -0.506899 2.860729 0.221896
v -0.221896 2.860729 0.506899
v -0.140822 2.987187 0.367959
v -0.140822 2.734271 0.367959
v -0.367959 2.734271 0.140822
v -0.367959 2.987187 0.140822
v -0.151235 2.860729 0.457546
v -0.457546 2.860729 0.151235
v -0.625336 2.782542 0.250358
v -0.747131 2.782542 0.274585
v -0.850385 2.782542 0.343576
v -0.919377 2.782542 0.446830
v -0.943604 2.782542 0.568626
v -0.919377 2.782542 0.690422
v -0.850385 2.782542 0.793675
v -0.747131 2.782542 0.862667
v -0.625336 2.782542 0.886894
v -0.503540 2.782542 0.862667
v -0.400286 2.782542 0.793675
v -0.331294 2.782542 0.690422
v -0.307068 2.782542 0.568626
v -0.331294 2.782542 0.446830
v -0.400286 2.782542 0.343576
v -0.503540 2.782542 0.274585
v -0.625336 2.937700 0.250358
v -0.747131 2.937700 0.274585
v -0.850385 2.937700 0.343576
v -0.919377 2.937700 0.446830
v -0.943604 2.937700 0.568626
v -0.919377 2.937700 0.690422
v -0.850385 2.937700 0.793675
v -0.747131 2.937700 0.862667
v -0.625336 2.937700 0.886894
v -0.503540 2.937700 0.862667
v -0.400286 2.937700 0.793675
v -0.331294 2.937700 0.690422
v -0.307068 2.937700 0.568626
v -0.331294 2.937700 0.446830
v -0.400286 2.937700 0.343576
v -0.503540 2.937700 0.274585
v 0.388768 2.711208 0.000000
v 0.388768 2.972540 0.000000
v 0.564690 2.803458 0.405125
v 0.564690 2.918000 0.405125
v 0.405125 2.918000 0.564690
v 0.405125 2.803458 0.564690
v 0.406899 2.964125 0.221896
v 0.221896 2.964125 0.406899
v 0.221896 2.757333 0.406899
v 0.406899 2.757333 0.221896
v 0.254000 3.058300 0.000000
v 0.488768 2.860729 0.000000
v 0.614194 2.860729 0.354629
v 0.354629 2.860729 0.614194
v 0.506899 2.860729 0.221896
v 0.221896 2.860729 0.506899
v 0.140822 2.987187 0.367959
v 0.140822 2.734271 0.367959
v 0.367959 2.734271 0.140822
v 0.367959 2.987187 0.140822
v 0.151235 2.860729 0.457546
v 0.457546 2.860729 0.151235
v 0.625336 2.782542 0.250358
v 0.747131 2.782542 0.274585
v 0.850385 2.782542 0.343576
v 0.919377 2.782542 0.446830
v 0.943604 2.782542 0.568626
v 0.919377 2.782542 0.690422
v 0.850385 2.782542 0.793675
v 0.747131 2.782542 0.862667
v 0.625336 2.782542 0.886894
v 0.503540 2.782542 0.862667
v 0.400286 2.782542 0.793675
v 0.331294 2.782542 0.690422
v 0.307068 2.782542 0.568626
v 0.331294 2.782542 0.446830
v 0.400286 2.782542 0.343576
v 0.503540 2.782542 0.274585
v 0.625336 2.937700 0.250358
v 0.747131 2.937700 0.274585
v 0.850385 2.937700 0.343576
v 0.919377 2.937700 0.446830
v 0.943604 2.937700 0.568626
v 0.919377 2.937700 0.690422
v 0.850385 2.937700 0.793675
v 0.747131 2.937700 0.862667
v 0.625336 2.937700 0.886894
v 0.503540 2.937700 0.862667
v 0.400286 2.937700 0.793675
v 0.331294 2.937700 0.690422
v 0.307068 2.937700 0.568626
v 0.331294 2.937700 0.446830
v 0.400286 2.937700 0.343576
v 0.503540 2.937700 0.274585
v 0.000000 2.711208 -0.388768
v 0.000000 2.972540 -0.388768
v -0.564690 2.803458 -0.405125
v -0.564690 2.918000 -0.405125
v -0.405125 2.918000 -0.564690
v -0.405125 2.803458 -0.564690
v -0.406899 2.964125 -0.221896
v -0.221896 2.964125 -0.406899
v -0.221896 2.757333 -0.406899
v -0.406899 2.757333 -0.221896
v 0.000000 3.060329 -0.254000
v 0.000000 2.860729 -0.488768
v -0.614194 2.860729 -0.354629
v -0.354629 2.860729 -0.614194
v -0.506899 2.860729 -0.221896
v -0.221896 2.860729 -0.506899
v -0.140822 2.987187 -0.367959
v -0.140822 2.734271 -0.367959
v -0.367959 2.734271 -0.140822
v -0.367959 2.987187 -0.140822
v -0.151235 2.860729 -0.457546
v -0.457546 2.860729 -0.151235
v -0.625336 2.782542 -0.250358
v -0.747131 2.782542 -0.274585
v -0.850385 2.782542 -0.343576
v -0.919377 2.782542 -0.446830
v -0.943604 2.782542 -0.568626
v -0.919377 2.782542 -0.690422
v -0.850385 2.782542 -0.793675
v -0.747131 2.782542 -0.862667
v -0.625336 2.782542 -0.886894
v -0.503540 2.782542 -0.862667
v -0.400286 2.782542 -0.793675
v -0.331294 2.782542 -0.690422
v -0.307068 2.782542 -0.568626
v -0.331294 2.782542 -0.446830
v -0.400286 2.782542 -0.343576
v -0.503540 2.782542 -0.274585
v -0.625336 2.937700 -0.250358
v -0.747131 2.937700 -0.274585
v -0.850385 2.937700 -0.343576
v -0.919377 2.937700 -0.446830
v -0.943604 2.937700 -0.568626
v -0.919377 2.937700 -0.690422
v -0.850385 2.937700 -0.793675
v -0.747131 2.937700 -0.862667
v -0.625336 2.937700 -0.886894
v -0.503540 2.937700 -0.862667
v -0.400286 2.937700 -0.793675
v -0.331294 2.937700 -0.690422
v -0.307068 2.937700 -0.568626
v -0.331294 2.937700 -0.446830
v -0.400286 2.937700 -0.343576
v -0.503540 2.937700 -0.274585
v 0.564690 2.803458 -0.405125
v 0.564690 2.918000 -0.405125
v 0.405125 2.918000 -0.564690
v 0.405125 2.803458 -0.564690
v 0.406899 2.964125 -0.221896
v 0.221896 2.964125 -0.406899
v 0.221896 2.757333 -0.406899
v 0.406899 2.757333 -0.221896
v 0.614194 2.860729 -0.354629
v 0.354629 2.860729 -0.614194
v 0.506899 2.860729 -0.221896
v 0.221896 2.860729 -0.506899
v 0.140822 2.987187 -0.367959
v 0.140822 2.734271 -0.367959
v 0.367959 2.734271 -0.140822
v 0.367959 2.987187 -0.140822
v 0.151235 2.860729 -0.457546
v 0.457546 2.860729 -0.151235
v 0.625336 2.782542 -0.250358
v 0.747131 2.782542 -0.274585
v 0.850385 2.782542 -0.343576
v 0.919377 2.782542 -0.446830
v 0.943604 2.782542 -0.568626
v 0.919377 2.782542 -0.690422
v 0.850385 2.782542 -0.793675
v 0.747131 2.782542 -0.862667
v 0.625336 2.782542 -0.886894
v 0.503540 2.782542 -0.862667
v 0.400286 2.782542 -0.793675
v 0.331294 2.782542 -0.690422
v 0.307068 2.782542 -0.568626
v 0.331294 2.782542 -0.446830
v 0.400286 2.782542 -0.343576
v 0.503540 2.782542 -0.274585
v 0.625336 2.937700 -0.250358
v 0.747131 2.937700 -0.274585
v 0.850385 2.937700 -0.343576
v 0.919377 2.937700 -0.446830
v 0.943604 2.937700 -0.568626
v 0.919377 2.937700 -0.690422
v 0.850385 2.937700 -0.793675
v 0.747131 2.937700 -0.862667
v 0.625336 2.937700 -0.886894
v 0.503540 2.937700 -0.862667
v 0.400286 2.937700 -0.793675
v 0.331294 2.937700 -0.690422
v 0.307068 2.937700 -0.568626
v 0.331294 2.937700 -0.446830
v 0.400286 2.937700 -0.343576
v 0.503540 2.937700 -0.274585
v -0.157545 2.642751 0.458597
v -0.069521 2.898991 0.577745
v -0.157545 2.811156 0.096426
v -0.069521 3.023604 0.309752
v 0.157545 2.642751 0.458597
v 0.069521 2.898991 0.577745
v 0.157545 2.811156 0.096426
v 0.069521 3.023604 0.309752
v -0.157545 2.770871 0.518171
v -0.157545 2.939276 0.156000
v 0.157545 2.939276 0.156000
v 0.157545 2.770871 0.518171
v 0.000000 2.932054 0.346898
v -0.045773 2.923828 0.342995
v -0.084577 2.900403 0.331881
v -0.110505 2.865344 0.315248
v -0.119610 2.823990 0.295628
v -0.110505 2.782635 0.276008
v -0.084577 2.747576 0.259375
v -0.045773 2.724151 0.248262
v 0.000000 2.715925 0.244359
v 0.045773 2.724151 0.248262
v 0.084577 2.747576 0.259375
v 0.110505 2.782635 0.276008
v 0.119610 2.823990 0.295628
v 0.110505 2.865344 0.315248
v 0.084577 2.900403 0.331881
v 0.045773 2.923828 0.342995
v -0.045773 2.793059 0.618625
v 0.000000 2.801285 0.622528
v -0.084577 2.769634 0.607511
v -0.110505 2.734576 0.590878
v -0.119610 2.693221 0.571258
v -0.110505 2.651867 0.551638
v -0.084577 2.616808 0.535005
v -0.045773 2.593383 0.523892
v 0.000000 2.585157 0.519989
v 0.045773 2.593383 0.523892
v 0.084577 2.616808 0.535005
v 0.110505 2.651867 0.551638
v 0.119610 2.693221 0.571258
v 0.110505 2.734576 0.590878
v 0.084577 2.769634 0.607511
v 0.045773 2.793059 0.618625
vn 0.5438 0.6396 -0.5433
vn 0.9232 -0.0358 -0.3827
vn 0.7065 -0.0351 -0.7068
vn -0.3825 -0.0391 0.9231
vn -0.5448 0.6370 0.5453
vn -0.7067 -0.0385 0.7064
vn 0.2942 0.6400 -0.7098
vn 0.3823 -0.0345 -0.9234
vn -0.0000 -0.0399 0.9992
vn -0.3692 0.6610 0.6532
vn -0.3823 -0.0345 -0.9234
vn -0.0000 0.6402 -0.7682
vn -0.0000 -0.0343 -0.9994
vn 0.3692 0.6610 0.6532
vn 0.3825 -0.0391 0.9231
vn -0.7065 -0.0351 -0.7068
vn -0.2942 0.6400 -0.7098
vn 0.5448 0.6370 0.5453
vn 0.7067 -0.0385 0.7064
vn -0.9232 -0.0358 -0.3827
vn -0.5438 0.6396 -0.5433
vn 0.7115 0.6376 0.2952
vn 0.9233 -0.0377 0.3821
vn -0.9993 -0.0368 -0.0003
vn -0.7108 0.6390 -0.2940
vn 0.7698 0.6383 0.0005
vn 0.9993 -0.0368 -0.0003
vn -0.9233 -0.0377 0.3821
vn -0.7698 0.6383 0.0005
vn 0.7108 0.6390 -0.2940
vn -0.7115 0.6376 0.2952
vn -0.0000 0.5827 0.8127
vn -0.1019 0.9639 0.2459
vn -0.0000 0.9989 0.0476
vn -0.0000 0.9639 0.2662
vn -0.0000 1.0000 -0.0000
vn 0.0476 0.9989 -0.0000
vn 0.0440 0.9989 0.0182
vn -0.0000 0.9989 -0.0476
vn -0.1019 0.9639 -0.2459
vn -0.0000 0.9639 -0.2662
vn 0.0182 0.9989 -0.0440
vn 0.1019 0.9639 -0.2459
vn 0.0182 0.9989 0.0440
vn 0.1019 0.9639 0.2459
vn -0.0182 0.9989 -0.0440
vn -0.1882 0.9639 -0.1882
vn 0.1882 0.9639 0.1882
vn -0.0440 0.9989 -0.0182
vn -0.2459 0.9639 -0.1019
vn 0.0337 0.9989 0.0337
vn 0.2459 0.9639 0.1019
vn -0.2662 0.9639 -0.0000
vn 0.2662 0.9639 -0.0000
vn -0.0440 0.9989 0.0182
vn -0.2459 0.9639 0.1019
vn 0.0440 0.9989 -0.0182
vn 0.2459 0.9639 -0.1019
vn -0.1882 0.9639 0.1882
vn 0.0337 0.9989 -0.0337
vn 0.1882 0.9639 -0.1882
vn -0.0337 0.9989 0.0337
vn -0.3827 -0.0000 -0.9239
vn -0.7071 -0.0000 -0.7071
vn -0.0476 0.9989 -0.0000
vn -0.0182 0.9989 0.0440
vn -0.0337 0.9989 -0.0337
vn -0.0000 -1.0000 -0.0000
vn 0.3827 -0.0000 0.9239
vn 0.7071 -0.0000 0.7071
vn -0.9239 -0.0000 -0.3827
vn 0.9239 -0.0000 0.3827
vn -1.0000 -0.0000 -0.0000
vn 1.0000 -0.0000 -0.0000
vn -0.9239 -0.0000 0.3827
vn 0.9239 -0.0000 -0.3827
vn -0.7071 -0.0000 0.7071
vn 0.7071 -0.0000 -0.7071
vn -0.3827 -0.0000 0.9239
vn 0.3827 -0.0000 -0.9239
vn -0.0000 -0.0000 1.0000
vn -0.0000 -0.0000 -1.0000
vn -0.7701 0.5524 0.3190
vn -0.5894 0.5524 0.5894
vn 0.8336 0.5524 -0.0000
vn 0.7701 0.5524 -0.3190
vn -0.8336 0.5524 -0.0000
vn 0.7701 0.5524 0.3190
vn -0.7701 0.5524 -0.3190
vn 0.5894 0.5524 0.5894
vn -0.5894 0.5524 -0.5894
vn 0.3190 0.5524 0.7701
vn -0.3190 0.5524 -0.7701
vn -0.0000 0.5524 0.8336
vn 0.3190 0.5524 -0.7701
vn -0.0000 0.5524 -0.8336
vn -0.3190 0.5524 0.7701
vn 0.5894 0.5524 -0.5894
vn 0.0776 0.8774 0.4734
vn -0.3697 0.9180 -0.1435
vn 0.1435 0.9180 0.3697
vn -0.0000 0.8132 0.5820
vn -0.4393 0.8984 -0.0000
vn -0.5803 0.8144 -0.0000
vn -0.6254 -0.7803 -0.0000
vn -0.0000 -0.7803 0.6254
vn -0.7071 -0.0123 0.7071
vn 0.4215 0.6529 0.6294
vn 0.3973 0.7750 0.4914
vn 0.0776 -0.8774 0.4734
vn -0.3697 -0.9180 -0.1435
vn -0.4734 -0.8774 -0.0776
vn -0.6294 -0.6529 -0.4215
vn -0.4914 -0.7750 -0.3973
vn -0.7745 -0.6167 -0.1408
vn -0.1301 -0.8634 0.4874
vn -0.4874 -0.8634 0.1301
vn 0.1662 0.6316 0.7573
vn -0.3596 0.9322 -0.0405
vn 0.0405 0.9322 0.3596
vn -0.0000 0.8971 0.4419
vn 0.1408 -0.6167 0.7745
vn -0.7573 0.6316 -0.1662
vn -0.4734 0.8774 -0.0776
vn -0.6294 0.6529 -0.4215
vn 0.4215 -0.6529 0.6294
vn 0.1435 -0.9180 0.3697
vn -0.7071 0.0123 0.7071
vn -0.0000 -0.5724 0.8199
vn -0.0000 0.6666 0.7454
vn -0.8199 -0.5724 -0.0000
vn -0.1435 0.9180 0.3697
vn 0.4734 0.8774 -0.0776
vn -0.0776 0.8774 0.4734
vn 0.4393 0.8984 -0.0000
vn 0.6254 -0.7803 -0.0000
vn 0.7071 -0.0123 0.7071
vn -0.4215 0.6529 0.6294
vn 0.4734 -0.8774 -0.0776
vn -0.1435 -0.9180 0.3697
vn -0.0776 -0.8774 0.4734
vn 0.6294 -0.6529 -0.4215
vn 0.3697 -0.9180 -0.1435
vn 0.7745 -0.6167 -0.1408
vn 0.4874 -0.8634 0.1301
vn 0.1301 -0.8634 0.4874
vn -0.1662 0.6316 0.7573
vn -0.0405 0.9322 0.3596
vn 0.3596 0.9322 -0.0405
vn -0.1408 -0.6167 0.7745
vn 0.7573 0.6316 -0.1662
vn 0.3697 0.9180 -0.1435
vn 0.6294 0.6529 -0.4215
vn -0.4215 -0.6529 0.6294
vn 0.7071 0.0123 0.7071
vn 0.5803 0.8144 -0.0000
vn 0.7454 0.6666 -0.0000
vn 0.8199 -0.5724 -0.0000
vn 0.1435 0.9180 -0.3697
vn -0.4734 0.8774 0.0776
vn 0.0776 0.8774 -0.4734
vn -0.0000 0.8132 -0.5820
vn -0.0000 0.8971 -0.4419
vn -0.0000 -0.7803 -0.6254
vn -0.7071 -0.0123 -0.7071
vn 0.4215 0.6529 -0.6294
vn -0.4734 -0.8774 0.0776
vn 0.1435 -0.9180 -0.3697
vn 0.0776 -0.8774 -0.4734
vn -0.6294 -0.6529 0.4215
vn -0.3697 -0.9180 0.1435
vn -0.7745 -0.6167 0.1408
vn -0.4874 -0.8634 -0.1301
vn -0.1301 -0.8634 -0.4874
vn 0.1662 0.6316 -0.7573
vn 0.0405 0.9322 -0.3596
vn -0.3596 0.9322 0.0405
vn 0.1408 -0.6167 -0.7745
vn -0.7573 0.6316 0.1662
vn -0.3697 0.9180 0.1435
vn -0.6294 0.6529 0.4215
vn 0.4215 -0.6529 -0.6294
vn -0.7071 0.0123 -0.7071
vn -0.7454 0.6666 -0.0000
vn -0.0000 -0.5724 -0.8199
vn -0.0000 0.6666 -0.7454
vn -0.0776 0.8774 -0.4734
vn 0.3697 0.9180 0.1435
vn -0.1435 0.9180 -0.3697
vn 0.7071 -0.0123 -0.7071
vn -0.4215 0.6529 -0.6294
vn -0.3973 0.7750 -0.4914
vn -0.0776 -0.8774 -0.4734
vn 0.3697 -0.9180 0.1435
vn 0.4734 -0.8774 0.0776
vn 0.6294 -0.6529 0.4215
vn 0.4914 -0.7750 0.3973
vn 0.7745 -0.6167 0.1408
vn 0.1301 -0.8634 -0.4874
vn 0.4874 -0.8634 -0.1301
vn -0.1662 0.6316 -0.7573
vn 0.3596 0.9322 0.0405
vn -0.0405 0.9322 -0.3596
vn -0.1408 -0.6167 -0.7745
vn 0.7573 0.6316 0.1662
vn 0.4734 0.8774 0.0776
vn 0.6294 0.6529 0.4215
vn -0.4215 -0.6529 -0.6294
vn -0.1435 -0.9180 -0.3697
vn 0.7071 0.0123 -0.7071
vn -0.8488 0.4795 0.2229
vn -0.0000 0.8768 -0.4809
vn 0.8488 0.4795 0.2229
vn -0.0000 -0.4216 0.9068
vn -0.0000 -0.9068 -0.4216
vn -0.0000 0.9068 0.4216
vn -0.0000 0.4216 -0.9068
vn -0.0000 0.4286 -0.9035
vn -0.0000 -0.4286 0.9035
vn -0.7071 0.6389 0.3031
vn -0.3827 0.8347 0.3960
vn 0.7071 -0.6389 -0.3031
vn 0.3827 -0.8347 -0.3960
vn -0.9239 0.3457 0.1640
vn 0.9239 -0.3457 -0.1640
vn -0.9239 -0.3457 -0.1640
vn 0.9239 0.3457 0.1640
vn -0.7071 -0.6389 -0.3031
vn 0.7071 0.6388 0.3031
vn -0.3827 -0.8347 -0.3960
vn 0.3827 0.8347 0.3960
vn 0.7071 0.6389 0.3031
vn -0.0000 -0.9035 -0.4286
vn -0.0000 0.9035 0.4286
vn -0.4914 0.7750 -0.3973
vn 0.3973 -0.7750 0.4914
vn -0.3973 0.7750 0.4914
vn 0.4914 -0.7750 -0.3973
vn 0.4914 0.7750 -0.3973
vn -0.3973 -0.7750 0.4914
vn 0.3973 0.7750 -0.4914
vn -0.4914 -0.7750 0.3973
vn -0.4914 0.7750 0.3973
vn 0.3973 -0.7750 -0.4914
vn 0.4914 0.7750 0.3973
vn -0.3973 -0.7750 -0.4914
vt 0.175294 0.429473
vt 0.140043 0.287776
vt 0.147993 0.286936
vt 0.091377 0.290065
vt 0.075784 0.436961
vt 0.083225 0.289915
vt 0.187190 0.426963
vt 0.155867 0.285982
vt 0.099542 0.290078
vt 0.088032 0.437524
vt 0.043076 0.287227
vt 0.003396 0.426605
vt 0.035250 0.286337
vt 0.198993 0.424141
vt 0.163653 0.284919
vt 0.114756 0.437183
vt 0.107702 0.289886
vt 0.050985 0.288006
vt 0.015283 0.429131
vt 0.126974 0.436310
vt 0.115845 0.289556
vt 0.058966 0.288670
vt 0.027253 0.431343
vt 0.139147 0.435095
vt 0.123957 0.289091
vt 0.067007 0.289213
vt 0.039298 0.433237
vt 0.151264 0.433545
vt 0.132027 0.288496
vt 0.075098 0.289629
vt 0.051407 0.434810
vt 0.163316 0.431669
vt 0.063573 0.436054
vt 0.429366 0.771349
vt 0.440447 0.727552
vt 0.482419 0.735900
vt 0.393965 0.536774
vt 0.444111 0.539078
vt 0.398663 0.548130
vt 0.459517 0.691583
vt 0.382948 0.630608
vt 0.411013 0.618989
vt 0.291414 0.569456
vt 0.336873 0.548116
vt 0.336868 0.560409
vt 0.303032 0.597518
vt 0.341567 0.571770
vt 0.444109 0.569453
vt 0.398658 0.560418
vt 0.291417 0.539082
vt 0.341583 0.536763
vt 0.393959 0.571774
vt 0.324517 0.489536
vt 0.350271 0.528067
vt 0.432492 0.597516
vt 0.385264 0.580461
vt 0.361631 0.523367
vt 0.373909 0.585156
vt 0.382951 0.477916
vt 0.373924 0.523372
vt 0.352573 0.630612
vt 0.361621 0.585161
vt 0.385278 0.528080
vt 0.324510 0.618991
vt 0.350263 0.580461
vt 0.411012 0.489539
vt 0.499386 0.357180
vt 0.423429 0.353501
vt 0.481684 0.329881
vt 0.352578 0.477915
vt 0.399985 0.392287
vt 0.335542 0.716242
vt 0.276007 0.691584
vt 0.459518 0.416948
vt 0.432489 0.511017
vt 0.230442 0.646020
vt 0.505082 0.462513
vt 0.205784 0.586487
vt 0.529740 0.522046
vt 0.205786 0.522047
vt 0.303044 0.511020
vt 0.505082 0.646019
vt 0.276013 0.416945
vt 0.778106 0.673434
vt 0.579153 0.633860
vt 0.618727 0.434908
vt 0.293515 0.031548
vt 0.369574 0.035435
vt 0.311183 0.058851
vt 0.429605 0.385495
vt 0.360406 0.353116
vt 0.363419 0.003399
vt 0.432599 0.035777
vt 0.353890 0.385495
vt 0.302155 0.328495
vt 0.439105 0.003396
vt 0.490876 0.060359
vt 0.282279 0.356671
vt 0.259434 0.281886
vt 0.510732 0.032161
vt 0.533655 0.106926
vt 0.231143 0.298879
vt 0.238019 0.222647
vt 0.561944 0.089901
vt 0.555168 0.166145
vt 0.205784 0.227654
vt 0.240251 0.159831
vt 0.587398 0.161156
vt 0.552779 0.228995
vt 0.208598 0.152459
vt 0.265891 0.102449
vt 0.553589 0.305040
vt 0.527018 0.286330
vt 0.584433 0.236421
vt 0.239301 0.083770
vt 0.726400 0.413491
vt 0.666216 0.392286
vt 0.730617 0.392286
vt 0.670433 0.413491
vt 0.561177 0.462471
vt 0.606716 0.416931
vt 0.557736 0.526188
vt 0.579153 0.474482
vt 0.536531 0.586372
vt 0.536531 0.521970
vt 0.557736 0.582154
vt 0.618727 0.673434
vt 0.561177 0.645872
vt 0.670433 0.694852
vt 0.606716 0.691411
vt 0.726400 0.694852
vt 0.666215 0.716056
vt 0.790117 0.691411
vt 0.730617 0.716056
vt 0.817680 0.633860
vt 0.839097 0.582154
vt 0.835656 0.645872
vt 0.839097 0.526188
vt 0.860302 0.586372
vt 0.835656 0.462471
vt 0.860302 0.521970
vt 0.817680 0.474482
vt 0.790117 0.416932
vt 0.778106 0.434908
vt 0.075619 0.013549
vt 0.082851 0.013698
vt 0.125565 0.013473
vt 0.132845 0.013448
vt 0.068307 0.013479
vt 0.118349 0.013718
vt 0.060948 0.013506
vt 0.111245 0.013892
vt 0.053474 0.013525
vt 0.104184 0.013965
vt 0.046127 0.014039
vt 0.097118 0.013943
vt 0.147536 0.013704
vt 0.154399 0.014376
vt 0.039246 0.014876
vt 0.090014 0.013844
vt 0.140242 0.013347
vt 0.140363 0.003396
vt 0.132412 0.004226
vt 0.083603 0.004878
vt 0.090685 0.005233
vt 0.149037 0.003764
vt 0.097646 0.005463
vt 0.035468 0.006404
vt 0.044323 0.004036
vt 0.157886 0.005852
vt 0.104527 0.005561
vt 0.053095 0.003396
vt 0.111347 0.005492
vt 0.061258 0.003991
vt 0.118161 0.005178
vt 0.068864 0.004234
vt 0.125133 0.004538
vt 0.076302 0.004440
vt 0.782103 0.150540
vt 0.736586 0.190619
vt 0.750815 0.160807
vt 0.830302 0.110856
vt 0.834692 0.184943
vt 0.811785 0.205271
vt 0.073280 0.781399
vt 0.074138 0.713652
vt 0.142047 0.713652
vt 0.755028 0.156040
vt 0.724847 0.209886
vt 0.760013 0.141509
vt 0.727898 0.139589
vt 0.740417 0.198317
vt 0.726540 0.202891
vt 0.750043 0.201428
vt 0.763634 0.209895
vt 0.140086 0.740459
vt 0.112973 0.794454
vt 0.097530 0.782451
vt 0.770447 0.122175
vt 0.791494 0.189776
vt 0.803544 0.140977
vt 0.844216 0.127851
vt 0.867829 0.156564
vt 0.724847 0.089677
vt 0.773902 0.187705
vt 0.752052 0.164934
vt 0.806403 0.082183
vt 0.766126 0.033510
vt 0.795178 0.229816
vt 0.735446 0.238894
vt 0.659518 0.044812
vt 0.685391 0.065520
vt 0.659518 0.065520
vt 0.659518 0.189768
vt 0.685391 0.210476
vt 0.659518 0.210476
vt 0.659518 0.024104
vt 0.685391 0.044812
vt 0.659518 0.169060
vt 0.685391 0.189768
vt 0.659518 0.003396
vt 0.685391 0.024104
vt 0.659518 0.148352
vt 0.685391 0.169060
vt 0.659518 0.314017
vt 0.685391 0.334725
vt 0.659518 0.334725
vt 0.659518 0.127644
vt 0.685391 0.148352
vt 0.659518 0.272600
vt 0.685391 0.293309
vt 0.659518 0.293309
vt 0.685391 0.314017
vt 0.659518 0.106936
vt 0.685391 0.127644
vt 0.659518 0.251892
vt 0.685391 0.272600
vt 0.659518 0.086228
vt 0.685391 0.106936
vt 0.659518 0.231184
vt 0.685391 0.251892
vt 0.685391 0.086228
vt 0.685391 0.231184
vt 0.412864 0.804573
vt 0.339249 0.819215
vt 0.324607 0.745601
vt 0.823916 0.745415
vt 0.897530 0.730772
vt 0.912173 0.804387
vt 0.893464 0.042281
vt 0.916122 0.069841
vt 0.877768 0.071163
vt 0.901919 0.129405
vt 0.073280 0.645906
vt 0.946882 0.025016
vt 0.887890 0.045833
vt 0.873090 0.047822
vt 0.940399 0.026674
vt 0.897160 0.045135
vt 0.877666 0.015730
vt 0.934138 0.048878
vt 0.932949 0.037267
vt 0.939933 0.064098
vt 0.973820 0.042256
vt 0.112973 0.632486
vt 0.139964 0.686887
vt 0.097408 0.644448
vt 0.852263 0.054371
vt 0.864187 0.090440
vt 0.914996 0.087471
vt 0.829025 0.003396
vt 0.925646 0.033333
vt 0.926135 0.110754
vt 0.953421 0.098994
vt 0.995533 0.085268
vt 0.620062 0.272601
vt 0.594189 0.293309
vt 0.594189 0.272601
vt 0.620062 0.127644
vt 0.594189 0.148352
vt 0.594189 0.127644
vt 0.620062 0.293309
vt 0.594189 0.314017
vt 0.620062 0.148352
vt 0.594189 0.169060
vt 0.620062 0.314017
vt 0.594189 0.334725
vt 0.620062 0.169060
vt 0.594189 0.189768
vt 0.620062 0.003396
vt 0.594189 0.024104
vt 0.594189 0.003396
vt 0.620062 0.189768
vt 0.594189 0.210476
vt 0.620062 0.044812
vt 0.594189 0.065520
vt 0.594189 0.044812
vt 0.620062 0.024104
vt 0.620062 0.210476
vt 0.594189 0.231185
vt 0.620062 0.065520
vt 0.594189 0.086228
vt 0.620062 0.231184
vt 0.594189 0.251893
vt 0.620062 0.086228
vt 0.594189 0.106936
vt 0.620062 0.251893
vt 0.620062 0.106936
vt 0.809200 0.896152
vt 0.746793 0.937852
vt 0.705094 0.875444
vt 0.594196 0.764547
vt 0.656603 0.722847
vt 0.698303 0.785255
vt 0.868539 0.240856
vt 0.844677 0.226875
vt 0.873993 0.223800
vt 0.903019 0.199276
vt 0.890491 0.184057
vt 0.007946 0.713652
vt 0.850729 0.243671
vt 0.871742 0.240890
vt 0.880352 0.238892
vt 0.844759 0.265181
vt 0.868970 0.241807
vt 0.881796 0.259178
vt 0.841329 0.243877
vt 0.853629 0.244338
vt 0.827936 0.241894
vt 0.817451 0.278239
vt 0.034486 0.784545
vt 0.010691 0.738185
vt 0.048862 0.777767
vt 0.892003 0.234216
vt 0.881207 0.211760
vt 0.835865 0.215519
vt 0.907870 0.263150
vt 0.853939 0.242540
vt 0.918081 0.217391
vt 0.941460 0.245686
vt 0.773559 0.268554
vt 0.626853 0.065520
vt 0.652727 0.044812
vt 0.652727 0.065520
vt 0.626854 0.210476
vt 0.652727 0.189768
vt 0.652727 0.210476
vt 0.626853 0.044812
vt 0.652727 0.024104
vt 0.626854 0.189768
vt 0.652727 0.169060
vt 0.626853 0.024104
vt 0.652727 0.003396
vt 0.626854 0.169060
vt 0.652727 0.148352
vt 0.626854 0.334725
vt 0.652727 0.314017
vt 0.652727 0.334725
vt 0.626854 0.148352
vt 0.652727 0.127644
vt 0.626854 0.293309
vt 0.652727 0.272601
vt 0.652727 0.293309
vt 0.626854 0.314017
vt 0.626854 0.127644
vt 0.652727 0.106936
vt 0.626854 0.272601
vt 0.652727 0.251893
vt 0.626854 0.106936
vt 0.652727 0.086228
vt 0.626854 0.251893
vt 0.652727 0.231184
vt 0.626853 0.086228
vt 0.626854 0.231184
vt 0.309891 0.764733
vt 0.268192 0.827140
vt 0.205784 0.785441
vt 0.767501 0.826954
vt 0.705094 0.785255
vt 0.746793 0.722848
vt 0.932666 0.175079
vt 0.954799 0.158710
vt 0.950603 0.172820
vt 0.950175 0.176005
vt 0.956386 0.155699
vt 0.946403 0.184233
vt 0.965994 0.189686
vt 0.956311 0.158493
vt 0.978539 0.154379
vt 0.958403 0.146762
vt 0.959026 0.133355
vt 0.010691 0.689119
vt 0.034486 0.642760
vt 0.048862 0.649538
vt 0.939533 0.194860
vt 0.931799 0.136072
vt 0.919359 0.179884
vt 0.964945 0.215992
vt 0.941198 0.146843
vt 0.951855 0.173445
vt 0.996604 0.130117
vt 0.718056 0.293309
vt 0.692183 0.272600
vt 0.718056 0.272600
vt 0.718056 0.148352
vt 0.692182 0.127644
vt 0.718056 0.127644
vt 0.718056 0.314017
vt 0.692183 0.293309
vt 0.718056 0.169060
vt 0.692183 0.148352
vt 0.718056 0.334725
vt 0.692183 0.314017
vt 0.718056 0.189768
vt 0.692183 0.169060
vt 0.718056 0.024104
vt 0.692182 0.003396
vt 0.718056 0.003396
vt 0.718056 0.210476
vt 0.692182 0.189768
vt 0.718056 0.065520
vt 0.692182 0.044812
vt 0.718056 0.044812
vt 0.692182 0.024104
vt 0.718056 0.231184
vt 0.692183 0.210476
vt 0.718056 0.086228
vt 0.692182 0.065520
vt 0.718056 0.251892
vt 0.692183 0.231184
vt 0.718056 0.106936
vt 0.692183 0.086228
vt 0.692183 0.251892
vt 0.692182 0.106936
vt 0.003396 0.842945
vt 0.065803 0.801245
vt 0.107502 0.863653
vt 0.698302 0.896152
vt 0.635895 0.937852
vt 0.594196 0.875444
vt 0.025544 0.555726
vt 0.067604 0.591750
vt 0.046303 0.618014
vt 0.102420 0.542655
vt 0.133138 0.501231
vt 0.134245 0.557858
vt 0.062102 0.473030
vt 0.025002 0.509196
vt 0.040804 0.450314
vt 0.048816 0.518705
vt 0.777390 0.285030
vt 0.724847 0.351634
vt 0.724847 0.285030
vt 0.101932 0.517666
vt 0.003396 0.559230
vt 0.003396 0.506729
vt 0.018906 0.444827
vt 0.158531 0.500734
vt 0.159638 0.557362
vt 0.022872 0.625695
vt 0.602670 0.377663
vt 0.597167 0.349997
vt 0.624832 0.344494
vt 0.178934 0.632486
vt 0.194606 0.655940
vt 0.171152 0.671611
vt 0.587405 0.800671
vt 0.536531 0.792889
vt 0.587405 0.792889
vt 0.587405 0.738412
vt 0.536531 0.730630
vt 0.587405 0.730630
vt 0.536531 0.808454
vt 0.536531 0.800671
vt 0.587405 0.746195
vt 0.536531 0.738412
vt 0.587405 0.816236
vt 0.587405 0.808454
vt 0.587405 0.753977
vt 0.536531 0.746195
vt 0.587405 0.824019
vt 0.536531 0.816236
vt 0.587405 0.761759
vt 0.536531 0.753977
vt 0.587405 0.831801
vt 0.536531 0.824019
vt 0.587405 0.769542
vt 0.536531 0.761759
vt 0.536531 0.839583
vt 0.536531 0.831801
vt 0.587405 0.777324
vt 0.536531 0.769542
vt 0.587405 0.839583
vt 0.536531 0.847366
vt 0.536531 0.785107
vt 0.587405 0.785107
vt 0.536531 0.777324
vt 0.536531 0.722848
vt 0.587405 0.722848
vt 0.101407 0.438036
vt 0.486937 0.746809
vt 0.486937 0.758616
vt 0.482419 0.769524
vt 0.474070 0.777872
vt 0.463162 0.782391
vt 0.451355 0.782391
vt 0.440447 0.777872
vt 0.427580 0.758615
vt 0.427580 0.746809
vt 0.432098 0.735900
vt 0.451355 0.723033
vt 0.463162 0.723033
vt 0.474070 0.727552
vt 0.399982 0.716242
vt 0.335546 0.392286
vt 0.529740 0.586485
vt 0.230447 0.462512
vt 0.148690 0.756757
vt 0.685391 0.003396
vt 0.339249 0.730958
vt 0.358381 0.723033
vt 0.379089 0.723033
vt 0.398221 0.730958
vt 0.412864 0.745601
vt 0.420789 0.764733
vt 0.420789 0.785441
vt 0.398221 0.819215
vt 0.379089 0.827140
vt 0.358381 0.827140
vt 0.324607 0.804573
vt 0.316682 0.785441
vt 0.316682 0.764733
vt 0.897530 0.819029
vt 0.878399 0.826954
vt 0.857691 0.826954
vt 0.838559 0.819029
vt 0.823916 0.804387
vt 0.815991 0.785255
vt 0.815991 0.764547
vt 0.838559 0.730772
vt 0.857690 0.722848
vt 0.878398 0.722848
vt 0.912173 0.745415
vt 0.920098 0.764547
vt 0.920098 0.785255
vt 0.148690 0.670548
vt 0.620062 0.334725
vt 0.713018 0.856313
vt 0.727661 0.841670
vt 0.746793 0.833745
vt 0.767501 0.833745
vt 0.786633 0.841670
vt 0.801275 0.856313
vt 0.809200 0.875444
vt 0.801275 0.915284
vt 0.786633 0.929927
vt 0.767501 0.937852
vt 0.727661 0.929927
vt 0.713018 0.915284
vt 0.705094 0.896153
vt 0.690378 0.804387
vt 0.675735 0.819029
vt 0.656603 0.826954
vt 0.635895 0.826954
vt 0.616763 0.819029
vt 0.602121 0.804387
vt 0.594196 0.785255
vt 0.602121 0.745415
vt 0.616763 0.730772
vt 0.635895 0.722847
vt 0.675735 0.730772
vt 0.690378 0.745415
vt 0.698303 0.764547
vt 0.003395 0.752307
vt 0.626853 0.003396
vt 0.205784 0.764733
vt 0.213709 0.745601
vt 0.228352 0.730958
vt 0.247484 0.723033
vt 0.268192 0.723033
vt 0.287324 0.730958
vt 0.301966 0.745601
vt 0.309891 0.785441
vt 0.301966 0.804572
vt 0.287324 0.819215
vt 0.247484 0.827140
vt 0.228352 0.819215
vt 0.213709 0.804572
vt 0.767501 0.722848
vt 0.786633 0.730772
vt 0.801275 0.745415
vt 0.809200 0.764547
vt 0.809200 0.785255
vt 0.801275 0.804387
vt 0.786633 0.819029
vt 0.746793 0.826954
vt 0.727661 0.819029
vt 0.713018 0.804387
vt 0.705094 0.764547
vt 0.713018 0.745415
vt 0.727661 0.730772
vt 0.003395 0.674998
vt 0.692183 0.334725
vt 0.099577 0.882784
vt 0.084935 0.897427
vt 0.065803 0.905352
vt 0.045095 0.905352
vt 0.025963 0.897427
vt 0.011320 0.882785
vt 0.003396 0.863653
vt 0.011320 0.823813
vt 0.025963 0.809170
vt 0.045095 0.801245
vt 0.084935 0.809170
vt 0.099577 0.823813
vt 0.107502 0.842945
vt 0.602121 0.856313
vt 0.616763 0.841670
vt 0.635895 0.833745
vt 0.656603 0.833745
vt 0.675735 0.841670
vt 0.690378 0.856313
vt 0.698302 0.875444
vt 0.690378 0.915284
vt 0.675735 0.929927
vt 0.656603 0.937852
vt 0.616763 0.929927
vt 0.602121 0.915284
vt 0.594196 0.896152
vt 0.049305 0.543694
vt 0.777390 0.351634
vt 0.630335 0.349997
vt 0.633314 0.357187
vt 0.633314 0.364970
vt 0.630335 0.372160
vt 0.624832 0.377663
vt 0.617642 0.380641
vt 0.609860 0.380641
vt 0.597167 0.372160
vt 0.594189 0.364970
vt 0.594189 0.357187
vt 0.602670 0.344494
vt 0.609860 0.341516
vt 0.617642 0.341516
vt 0.163962 0.668633
vt 0.158459 0.663130
vt 0.155481 0.655940
vt 0.155481 0.648157
vt 0.158459 0.640967
vt 0.163962 0.635464
vt 0.171152 0.632486
vt 0.186124 0.635464
vt 0.191627 0.640967
vt 0.194606 0.648157
vt 0.191627 0.663130
vt 0.186124 0.668633
vt 0.178934 0.671611
vt 0.587405 0.847366
s 1
usemtl Generic_Quadcopter
f 31/1/1 97/2/2 98/3/3
f 100/4/4 23/5/5 99/6/6
f 32/7/7 98/3/3 101/8/8
f 102/9/9 24/10/10 100/4/4
f 104/11/11 17/12/12 103/13/13
f 17/14/12 101/8/8 103/15/13
f 26/16/14 102/9/9 105/17/15
f 106/18/16 18/19/17 104/11/11
f 27/20/18 105/17/15 107/21/19
f 108/22/20 19/23/21 106/18/16
f 28/24/22 107/21/19 109/25/23
f 110/26/24 20/27/25 108/22/20
f 29/28/26 109/25/23 111/29/27
f 112/30/28 21/31/29 110/26/24
f 30/32/30 111/29/27 97/2/2
f 99/6/6 22/33/31 112/30/28
f 25/34/32 29/35/26 17/36/12
f 8/37/33 41/38/34 9/39/35
f 60/40/36 45/41/37 44/42/38
f 33/43/39 2/44/40 1/45/41
f 48/46/42 1/45/41 16/47/43
f 9/39/35 42/48/44 10/49/45
f 34/50/46 3/51/47 2/44/40
f 42/48/44 11/52/48 10/49/45
f 3/51/47 36/53/49 4/54/50
f 43/55/51 12/56/52 11/52/48
f 36/53/49 5/57/53 4/54/50
f 44/42/38 13/58/54 12/56/52
f 5/57/53 38/59/55 6/60/56
f 13/58/54 46/61/57 14/62/58
f 38/59/55 7/63/59 6/60/56
f 14/62/58 47/64/60 15/65/61
f 39/66/62 8/37/33 7/63/59
f 15/65/61 48/46/42 16/47/43
f 81/67/63 51/68/64 50/69/63
f 37/70/65 54/71/36 38/59/55
f 45/41/37 62/72/36 46/61/57
f 54/71/36 39/66/62 38/59/55
f 46/61/57 63/73/36 47/64/60
f 55/74/36 40/75/66 39/66/62
f 47/64/60 64/76/36 48/46/42
f 56/77/36 41/38/34 40/75/66
f 49/78/36 34/50/46 33/43/39
f 64/76/36 33/43/39 48/46/42
f 57/79/36 42/48/44 41/38/34
f 50/80/36 35/81/67 34/50/46
f 42/48/44 59/82/36 43/55/51
f 35/81/67 52/83/36 36/53/49
f 59/82/36 44/42/38 43/55/51
f 52/83/36 37/70/65 36/53/49
f 75/84/68 71/85/68 67/86/68
f 90/87/69 59/88/70 58/89/69
f 83/90/64 52/91/71 51/68/64
f 91/92/70 60/93/72 59/88/70
f 84/94/71 53/95/73 52/91/71
f 92/96/72 61/97/74 60/93/72
f 85/98/73 54/99/75 53/95/73
f 93/100/74 62/101/76 61/97/74
f 86/102/75 55/103/77 54/99/75
f 94/104/76 63/105/78 62/101/76
f 87/106/77 56/107/79 55/103/77
f 95/108/78 64/109/80 63/105/78
f 88/110/79 57/111/81 56/107/79
f 82/112/82 50/69/63 49/113/82
f 96/114/80 49/113/82 64/109/80
f 89/115/81 58/89/69 57/111/81
f 65/116/68 81/117/68 82/118/68
f 67/86/68 81/117/68 66/119/68
f 67/86/68 84/120/68 83/121/68
f 69/122/68 84/120/68 68/123/68
f 69/122/68 86/124/68 85/125/68
f 71/85/68 86/124/68 70/126/68
f 72/127/68 87/128/68 71/85/68
f 73/129/68 88/130/68 72/127/68
f 74/131/68 89/132/68 73/129/68
f 74/131/68 91/133/68 90/134/68
f 76/135/68 91/133/68 75/84/68
f 77/136/68 92/137/68 76/135/68
f 78/138/68 93/139/68 77/136/68
f 78/138/68 95/140/68 94/141/68
f 79/142/68 96/143/68 95/140/68
f 65/116/68 96/143/68 80/144/68
f 99/6/6 125/145/83 127/146/84
f 97/2/2 124/147/85 126/148/86
f 112/30/28 123/149/87 125/145/83
f 111/29/27 122/150/88 124/147/85
f 110/26/24 121/151/89 123/149/87
f 109/25/23 120/152/90 122/150/88
f 108/22/20 119/153/91 121/151/89
f 107/21/19 118/154/92 120/152/90
f 106/18/16 117/155/93 119/153/91
f 105/17/15 116/156/94 118/154/92
f 103/15/13 115/157/95 128/158/96
f 104/11/11 128/159/96 117/155/93
f 102/9/9 114/160/97 116/156/94
f 101/8/8 113/161/98 115/157/95
f 100/4/4 127/146/84 114/160/97
f 98/3/3 126/148/86 113/161/98
f 15/162/61 126/148/86 14/163/58
f 114/160/97 7/164/59 8/165/33
f 16/166/43 113/161/98 15/162/61
f 116/156/94 8/165/33 9/167/35
f 117/155/93 1/168/41 2/169/40
f 1/170/41 115/157/95 16/166/43
f 118/154/92 9/167/35 10/171/45
f 119/153/91 2/169/40 3/172/47
f 120/152/90 10/171/45 11/173/48
f 4/174/50 119/153/91 3/172/47
f 122/150/88 11/173/48 12/175/52
f 5/176/53 121/151/89 4/174/50
f 124/147/85 12/175/52 13/177/54
f 125/145/83 5/176/53 6/178/56
f 126/148/86 13/177/54 14/163/58
f 127/146/84 6/178/56 7/164/59
f 140/179/99 136/180/100 137/181/101
f 132/182/102 144/183/103 130/184/104
f 129/185/105 134/186/68 131/187/106
f 148/188/77 136/180/107 147/189/77
f 150/190/108 137/181/101 148/188/109
f 141/191/110 135/192/111 142/193/112
f 149/194/113 135/192/111 147/189/114
f 156/195/115 142/193/112 149/194/113
f 152/196/116 142/197/112 153/198/117
f 155/199/118 140/179/99 150/190/108
f 154/200/119 140/179/99 151/201/120
f 144/183/103 143/202/121 133/203/36
f 155/199/122 141/191/110 152/204/116
f 156/195/123 139/205/124 154/200/119
f 149/194/125 136/180/100 139/205/124
f 150/190/126 138/206/127 141/191/110
f 148/188/77 135/192/128 138/206/128
f 130/184/104 156/195/123 154/200/119
f 146/207/129 152/204/116 131/208/106
f 130/184/104 151/201/120 132/182/102
f 132/182/102 155/199/118 146/207/130
f 131/187/106 153/198/117 129/185/105
f 145/209/131 153/210/117 156/195/115
f 169/211/74 184/212/72 168/213/72
f 162/214/75 177/215/73 161/216/73
f 170/217/76 185/218/74 169/211/74
f 163/219/77 178/220/75 162/214/75
f 171/221/78 186/222/76 170/217/76
f 164/223/79 179/224/77 163/219/77
f 172/225/80 187/226/78 171/227/78
f 165/228/81 180/229/79 164/223/79
f 158/230/63 173/231/82 157/232/82
f 157/232/82 188/233/80 172/225/80
f 166/234/69 181/235/81 165/228/81
f 159/236/64 174/237/63 158/230/63
f 167/238/70 182/239/69 166/234/69
f 160/240/71 175/241/64 159/236/64
f 168/213/72 183/242/70 167/238/70
f 161/216/73 176/243/71 160/240/71
f 167/244/68 163/245/68 159/246/68
f 181/247/36 185/248/36 173/249/36
f 193/250/132 195/251/133 196/252/134
f 132/182/102 199/253/135 143/202/121
f 189/254/136 131/187/106 134/186/68
f 201/255/70 193/250/137 202/256/70
f 204/257/138 193/250/132 196/252/134
f 198/258/139 194/259/140 197/260/141
f 203/261/142 191/262/143 198/258/139
f 210/263/144 198/258/139 207/264/145
f 198/265/139 206/266/146 207/267/145
f 209/268/147 196/252/134 205/269/148
f 196/252/134 208/270/149 205/269/148
f 199/253/135 133/203/36 143/202/121
f 197/260/141 209/268/150 206/271/146
f 195/251/133 210/263/151 208/270/149
f 192/272/152 203/261/153 195/251/133
f 194/259/140 204/257/154 197/260/141
f 191/262/155 202/256/70 194/259/155
f 190/273/156 210/263/151 200/274/157
f 206/271/146 146/207/129 131/208/106
f 205/269/148 190/273/156 132/182/102
f 209/268/147 132/182/102 146/207/130
f 207/267/145 131/187/106 189/254/136
f 200/274/158 207/264/145 189/275/136
f 238/276/75 223/277/73 222/278/75
f 231/279/74 216/280/72 215/281/74
f 239/282/73 224/283/71 223/277/73
f 232/284/72 217/285/70 216/280/72
f 240/286/71 225/287/64 224/283/71
f 233/288/70 218/289/69 217/285/70
f 241/290/64 226/291/63 225/292/64
f 234/293/69 219/294/81 218/289/69
f 227/295/82 212/296/80 211/297/82
f 242/298/63 211/297/82 226/291/63
f 235/299/81 220/300/79 219/294/81
f 228/301/80 213/302/78 212/296/80
f 236/303/79 221/304/77 220/300/79
f 229/305/78 214/306/76 213/302/78
f 237/307/77 222/278/75 221/304/77
f 230/308/76 215/281/74 214/306/76
f 219/309/68 223/310/68 211/311/68
f 237/312/36 233/313/36 229/314/36
f 247/315/159 249/316/160 250/317/161
f 244/318/162 144/183/103 253/319/163
f 129/185/105 243/320/164 134/186/68
f 255/321/64 247/315/165 256/322/64
f 258/323/166 247/315/159 250/317/161
f 252/324/167 248/325/168 251/326/169
f 257/327/170 245/328/171 252/324/167
f 264/329/172 252/324/167 261/330/173
f 252/331/167 260/332/174 261/333/173
f 263/334/175 250/317/161 259/335/176
f 250/317/161 262/336/177 259/335/176
f 144/183/103 133/203/36 253/319/163
f 251/326/169 263/334/178 260/337/174
f 249/316/160 264/329/179 262/336/177
f 246/338/180 257/327/181 249/316/160
f 248/325/168 258/323/182 251/326/169
f 245/328/183 256/322/64 248/325/183
f 130/184/104 264/329/179 145/209/184
f 260/337/174 254/339/185 243/340/164
f 259/335/176 130/184/104 244/318/162
f 263/334/175 244/318/162 254/339/186
f 261/333/173 243/320/164 129/185/105
f 145/209/131 261/330/173 129/341/105
f 292/342/76 277/343/74 276/344/76
f 285/345/73 270/346/71 269/347/73
f 293/348/74 278/349/72 277/343/74
f 286/350/71 271/351/64 270/346/71
f 294/352/72 279/353/70 278/349/72
f 287/354/64 272/355/63 271/351/64
f 295/356/70 280/357/69 279/358/70
f 288/359/63 273/360/82 272/355/63
f 281/361/81 266/362/79 265/363/81
f 296/364/69 265/363/81 280/357/69
f 289/365/82 274/366/80 273/360/82
f 282/367/79 267/368/77 266/362/79
f 290/369/80 275/370/78 274/366/80
f 283/371/77 268/372/75 267/368/77
f 291/373/78 276/344/76 275/370/78
f 284/374/75 269/347/73 268/372/75
f 273/375/68 277/376/68 265/377/68
f 291/378/36 287/379/36 283/380/36
f 302/381/187 298/382/188 299/383/189
f 244/318/162 199/253/135 190/273/156
f 189/254/136 134/186/68 243/320/164
f 306/384/78 298/382/190 305/385/78
f 308/386/191 299/383/189 306/384/192
f 303/387/193 297/388/194 304/389/195
f 307/390/196 297/388/194 305/385/197
f 314/391/198 304/389/195 307/390/196
f 310/392/199 304/393/195 311/394/200
f 313/395/201 302/381/187 308/386/191
f 312/396/202 302/381/187 309/397/203
f 199/253/135 253/319/163 133/203/36
f 313/395/204 303/387/193 310/398/199
f 314/391/205 301/399/206 312/396/202
f 307/390/207 298/382/188 301/399/206
f 308/386/208 300/400/209 303/387/193
f 306/384/78 297/388/210 300/400/210
f 190/273/156 314/391/205 312/396/202
f 254/339/185 310/398/199 243/340/164
f 190/273/156 309/397/203 244/318/162
f 244/318/162 313/395/201 254/339/186
f 243/320/164 311/394/200 189/254/136
f 200/274/158 311/401/200 314/391/198
f 327/402/73 342/403/71 326/404/71
f 320/405/76 335/406/74 319/407/74
f 328/408/75 343/409/73 327/402/73
f 321/410/78 336/411/76 320/405/76
f 329/412/77 344/413/75 328/408/75
f 322/414/80 337/415/78 321/410/78
f 330/416/79 345/417/77 329/418/77
f 323/419/82 338/420/80 322/414/80
f 316/421/69 331/422/81 315/423/81
f 315/423/81 346/424/79 330/416/79
f 324/425/63 339/426/82 323/419/82
f 317/427/70 332/428/69 316/421/69
f 325/429/64 340/430/63 324/425/63
f 318/431/72 333/432/70 317/427/70
f 326/404/71 341/433/64 325/429/64
f 319/407/74 334/434/72 318/431/72
f 325/435/68 321/436/68 317/437/68
f 339/438/36 343/439/36 331/440/36
f 355/441/211 350/442/211 356/443/211
f 350/444/212 357/445/212 356/446/212
f 354/447/213 358/448/213 357/449/213
f 352/450/214 355/441/214 358/448/214
f 353/451/215 347/452/215 349/453/215
f 350/444/216 352/450/216 354/454/216
f 358/448/214 347/455/214 351/456/214
f 357/449/74 351/456/74 353/457/74
f 356/446/217 353/458/217 349/459/217
f 355/441/73 349/460/73 347/455/73
f 369/461/218 365/462/218 361/463/218
f 383/464/219 387/465/219 376/466/219
f 361/467/220 375/468/221 360/469/221
f 369/470/222 384/471/223 368/472/223
f 361/467/220 378/473/224 377/474/220
f 370/475/225 385/476/222 369/470/222
f 363/477/73 378/473/224 362/478/224
f 371/479/74 386/480/225 370/475/225
f 364/481/226 379/482/73 363/477/73
f 372/483/227 387/484/74 371/479/74
f 365/485/228 380/486/226 364/481/226
f 373/487/229 388/488/227 372/483/227
f 365/485/228 382/489/230 381/490/228
f 374/491/231 389/492/232 373/487/229
f 366/493/230 383/494/233 382/489/230
f 360/469/221 376/495/234 359/496/234
f 374/491/231 376/495/234 390/497/231
f 368/472/223 383/498/233 367/499/233
f 31/1/1 30/32/30 97/2/2
f 100/4/4 24/10/10 23/5/5
f 32/7/7 31/1/1 98/3/3
f 102/9/9 25/500/32 24/10/10
f 104/11/11 18/19/17 17/12/12
f 17/14/12 32/7/7 101/8/8
f 26/16/14 25/500/32 102/9/9
f 106/18/16 19/23/21 18/19/17
f 27/20/18 26/16/14 105/17/15
f 108/22/20 20/27/25 19/23/21
f 28/24/22 27/20/18 107/21/19
f 110/26/24 21/31/29 20/27/25
f 29/28/26 28/24/22 109/25/23
f 112/30/28 22/33/31 21/31/29
f 30/32/30 29/28/26 111/29/27
f 99/6/6 23/5/5 22/33/31
f 17/36/12 18/501/17 19/502/21
f 19/502/21 20/503/25 21/504/29
f 21/504/29 22/505/31 23/506/5
f 23/506/5 24/507/10 25/34/32
f 25/34/32 26/508/14 27/509/18
f 27/509/18 28/510/22 29/35/26
f 29/35/26 30/511/30 31/512/1
f 31/512/1 32/513/7 17/36/12
f 17/36/12 19/502/21 21/504/29
f 21/504/29 23/506/5 25/34/32
f 25/34/32 27/509/18 29/35/26
f 29/35/26 31/512/1 17/36/12
f 17/36/12 21/504/29 25/34/32
f 8/37/33 40/75/66 41/38/34
f 60/40/36 61/514/36 45/41/37
f 33/43/39 34/50/46 2/44/40
f 48/46/42 33/43/39 1/45/41
f 9/39/35 41/38/34 42/48/44
f 34/50/46 35/81/67 3/51/47
f 42/48/44 43/55/51 11/52/48
f 3/51/47 35/81/67 36/53/49
f 43/55/51 44/42/38 12/56/52
f 36/53/49 37/70/65 5/57/53
f 44/42/38 45/41/37 13/58/54
f 5/57/53 37/70/65 38/59/55
f 13/58/54 45/41/37 46/61/57
f 38/59/55 39/66/62 7/63/59
f 14/62/58 46/61/57 47/64/60
f 39/66/62 40/75/66 8/37/33
f 15/65/61 47/64/60 48/46/42
f 81/67/63 83/90/64 51/68/64
f 37/70/65 53/515/36 54/71/36
f 45/41/37 61/514/36 62/72/36
f 54/71/36 55/74/36 39/66/62
f 46/61/57 62/72/36 63/73/36
f 55/74/36 56/77/36 40/75/66
f 47/64/60 63/73/36 64/76/36
f 56/77/36 57/79/36 41/38/34
f 49/78/36 50/80/36 34/50/46
f 64/76/36 49/78/36 33/43/39
f 57/79/36 58/516/36 42/48/44
f 50/80/36 51/517/36 35/81/67
f 42/48/44 58/516/36 59/82/36
f 35/81/67 51/517/36 52/83/36
f 59/82/36 60/40/36 44/42/38
f 52/83/36 53/515/36 37/70/65
f 67/86/68 66/119/68 65/116/68
f 65/116/68 80/144/68 79/142/68
f 79/142/68 78/138/68 77/136/68
f 77/136/68 76/135/68 75/84/68
f 75/84/68 74/131/68 73/129/68
f 73/129/68 72/127/68 71/85/68
f 71/85/68 70/126/68 69/122/68
f 69/122/68 68/123/68 67/86/68
f 67/86/68 65/116/68 79/142/68
f 79/142/68 77/136/68 75/84/68
f 75/84/68 73/129/68 71/85/68
f 71/85/68 69/122/68 67/86/68
f 67/86/68 79/142/68 75/84/68
f 90/87/69 91/92/70 59/88/70
f 83/90/64 84/94/71 52/91/71
f 91/92/70 92/96/72 60/93/72
f 84/94/71 85/98/73 53/95/73
f 92/96/72 93/100/74 61/97/74
f 85/98/73 86/102/75 54/99/75
f 93/100/74 94/104/76 62/101/76
f 86/102/75 87/106/77 55/103/77
f 94/104/76 95/108/78 63/105/78
f 87/106/77 88/110/79 56/107/79
f 95/108/78 96/114/80 64/109/80
f 88/110/79 89/115/81 57/111/81
f 82/112/82 81/67/63 50/69/63
f 96/114/80 82/112/82 49/113/82
f 89/115/81 90/87/69 58/89/69
f 65/116/68 66/119/68 81/117/68
f 67/86/68 83/121/68 81/117/68
f 67/86/68 68/123/68 84/120/68
f 69/122/68 85/125/68 84/120/68
f 69/122/68 70/126/68 86/124/68
f 71/85/68 87/128/68 86/124/68
f 72/127/68 88/130/68 87/128/68
f 73/129/68 89/132/68 88/130/68
f 74/131/68 90/134/68 89/132/68
f 74/131/68 75/84/68 91/133/68
f 76/135/68 92/137/68 91/133/68
f 77/136/68 93/139/68 92/137/68
f 78/138/68 94/141/68 93/139/68
f 78/138/68 79/142/68 95/140/68
f 79/142/68 80/144/68 96/143/68
f 65/116/68 82/118/68 96/143/68
f 99/6/6 112/30/28 125/145/83
f 97/2/2 111/29/27 124/147/85
f 112/30/28 110/26/24 123/149/87
f 111/29/27 109/25/23 122/150/88
f 110/26/24 108/22/20 121/151/89
f 109/25/23 107/21/19 120/152/90
f 108/22/20 106/18/16 119/153/91
f 107/21/19 105/17/15 118/154/92
f 106/18/16 104/11/11 117/155/93
f 105/17/15 102/9/9 116/156/94
f 103/15/13 101/8/8 115/157/95
f 104/11/11 103/13/13 128/159/96
f 102/9/9 100/4/4 114/160/97
f 101/8/8 98/3/3 113/161/98
f 100/4/4 99/6/6 127/146/84
f 98/3/3 97/2/2 126/148/86
f 15/162/61 113/161/98 126/148/86
f 114/160/97 127/146/84 7/164/59
f 16/166/43 115/157/95 113/161/98
f 116/156/94 114/160/97 8/165/33
f 117/155/93 128/159/96 1/168/41
f 1/170/41 128/158/96 115/157/95
f 118/154/92 116/156/94 9/167/35
f 119/153/91 117/155/93 2/169/40
f 120/152/90 118/154/92 10/171/45
f 4/174/50 121/151/89 119/153/91
f 122/150/88 120/152/90 11/173/48
f 5/176/53 123/149/87 121/151/89
f 124/147/85 122/150/88 12/175/52
f 125/145/83 123/149/87 5/176/53
f 126/148/86 124/147/85 13/177/54
f 127/146/84 125/145/83 6/178/56
f 140/179/99 139/205/124 136/180/100
f 132/182/102 143/202/121 144/183/103
f 148/188/77 137/181/107 136/180/107
f 150/190/108 140/179/99 137/181/101
f 141/191/110 138/206/127 135/192/111
f 149/194/113 142/193/112 135/192/111
f 156/195/115 153/210/117 142/193/112
f 152/196/116 141/518/110 142/197/112
f 155/199/118 151/201/120 140/179/99
f 154/200/119 139/205/124 140/179/99
f 155/199/122 150/190/126 141/191/110
f 156/195/123 149/194/125 139/205/124
f 149/194/125 147/189/235 136/180/100
f 150/190/126 148/188/236 138/206/127
f 148/188/77 147/189/77 135/192/128
f 130/184/104 145/209/184 156/195/123
f 146/207/129 155/199/122 152/204/116
f 130/184/104 154/200/119 151/201/120
f 132/182/102 151/201/120 155/199/118
f 131/187/106 152/196/116 153/198/117
f 145/209/131 129/341/105 153/210/117
f 169/211/74 185/218/74 184/212/72
f 162/214/75 178/220/75 177/215/73
f 170/217/76 186/222/76 185/218/74
f 163/219/77 179/224/77 178/220/75
f 171/221/78 187/519/78 186/222/76
f 164/223/79 180/229/79 179/224/77
f 172/225/80 188/233/80 187/226/78
f 165/228/81 181/235/81 180/229/79
f 158/230/63 174/237/63 173/231/82
f 157/232/82 173/231/82 188/233/80
f 166/234/69 182/239/69 181/235/81
f 159/236/64 175/241/64 174/237/63
f 167/238/70 183/242/70 182/239/69
f 160/240/71 176/243/71 175/241/64
f 168/213/72 184/212/72 183/242/70
f 161/216/73 177/215/73 176/243/71
f 159/246/68 158/520/68 157/521/68
f 157/521/68 172/522/68 171/523/68
f 171/523/68 170/524/68 169/525/68
f 169/525/68 168/526/68 167/244/68
f 167/244/68 166/527/68 165/528/68
f 165/528/68 164/529/68 163/245/68
f 163/245/68 162/530/68 161/531/68
f 161/531/68 160/532/68 159/246/68
f 159/246/68 157/521/68 171/523/68
f 171/523/68 169/525/68 167/244/68
f 167/244/68 165/528/68 163/245/68
f 163/245/68 161/531/68 159/246/68
f 159/246/68 171/523/68 167/244/68
f 173/249/36 174/533/36 175/534/36
f 175/534/36 176/535/36 177/536/36
f 177/536/36 178/537/36 179/538/36
f 179/538/36 180/539/36 181/247/36
f 181/247/36 182/540/36 183/541/36
f 183/541/36 184/542/36 185/248/36
f 185/248/36 186/543/36 187/544/36
f 187/544/36 188/545/36 173/249/36
f 173/249/36 175/534/36 177/536/36
f 177/536/36 179/538/36 181/247/36
f 181/247/36 183/541/36 185/248/36
f 185/248/36 187/544/36 173/249/36
f 173/249/36 177/536/36 181/247/36
f 193/250/132 192/272/152 195/251/133
f 132/182/102 190/273/156 199/253/135
f 201/255/70 192/272/137 193/250/137
f 204/257/138 202/256/237 193/250/132
f 198/258/139 191/262/143 194/259/140
f 203/261/142 201/255/238 191/262/143
f 210/263/144 203/261/142 198/258/139
f 198/265/139 197/546/141 206/266/146
f 209/268/147 204/257/138 196/252/134
f 196/252/134 195/251/133 208/270/149
f 197/260/141 204/257/154 209/268/150
f 195/251/133 203/261/153 210/263/151
f 192/272/152 201/255/239 203/261/153
f 194/259/140 202/256/240 204/257/154
f 191/262/155 201/255/70 202/256/70
f 190/273/156 208/270/149 210/263/151
f 206/271/146 209/268/150 146/207/129
f 205/269/148 208/270/149 190/273/156
f 209/268/147 205/269/148 132/182/102
f 207/267/145 206/266/146 131/187/106
f 200/274/158 210/263/144 207/264/145
f 238/276/75 239/282/73 223/277/73
f 231/279/74 232/284/72 216/280/72
f 239/282/73 240/286/71 224/283/71
f 232/284/72 233/288/70 217/285/70
f 240/286/71 241/547/64 225/287/64
f 233/288/70 234/293/69 218/289/69
f 241/290/64 242/298/63 226/291/63
f 234/293/69 235/299/81 219/294/81
f 227/295/82 228/301/80 212/296/80
f 242/298/63 227/295/82 211/297/82
f 235/299/81 236/303/79 220/300/79
f 228/301/80 229/305/78 213/302/78
f 236/303/79 237/307/77 221/304/77
f 229/305/78 230/308/76 214/306/76
f 237/307/77 238/276/75 222/278/75
f 230/308/76 231/279/74 215/281/74
f 211/311/68 212/548/68 213/549/68
f 213/549/68 214/550/68 215/551/68
f 215/551/68 216/552/68 217/553/68
f 217/553/68 218/554/68 219/309/68
f 219/309/68 220/555/68 221/556/68
f 221/556/68 222/557/68 223/310/68
f 223/310/68 224/558/68 225/559/68
f 225/559/68 226/560/68 211/311/68
f 211/311/68 213/549/68 215/551/68
f 215/551/68 217/553/68 219/309/68
f 219/309/68 221/556/68 223/310/68
f 223/310/68 225/559/68 211/311/68
f 211/311/68 215/551/68 219/309/68
f 229/314/36 228/561/36 227/562/36
f 227/562/36 242/563/36 241/564/36
f 241/564/36 240/565/36 239/566/36
f 239/566/36 238/567/36 237/312/36
f 237/312/36 236/568/36 235/569/36
f 235/569/36 234/570/36 233/313/36
f 233/313/36 232/571/36 231/572/36
f 231/572/36 230/573/36 229/314/36
f 229/314/36 227/562/36 241/564/36
f 241/564/36 239/566/36 237/312/36
f 237/312/36 235/569/36 233/313/36
f 233/313/36 231/572/36 229/314/36
f 229/314/36 241/564/36 237/312/36
f 247/315/159 246/338/180 249/316/160
f 244/318/162 130/184/104 144/183/103
f 255/321/64 246/338/165 247/315/165
f 258/323/166 256/322/241 247/315/159
f 252/324/167 245/328/171 248/325/168
f 257/327/170 255/321/242 245/328/171
f 264/329/172 257/327/170 252/324/167
f 252/331/167 251/574/169 260/332/174
f 263/334/175 258/323/166 250/317/161
f 250/317/161 249/316/160 262/336/177
f 251/326/169 258/323/182 263/334/178
f 249/316/160 257/327/181 264/329/179
f 246/338/180 255/321/243 257/327/181
f 248/325/168 256/322/244 258/323/182
f 245/328/183 255/321/64 256/322/64
f 130/184/104 262/336/177 264/329/179
f 260/337/174 263/334/178 254/339/185
f 259/335/176 262/336/177 130/184/104
f 263/334/175 259/335/176 244/318/162
f 261/333/173 260/332/174 243/320/164
f 145/209/131 264/329/172 261/330/173
f 292/342/76 293/348/74 277/343/74
f 285/345/73 286/350/71 270/346/71
f 293/348/74 294/352/72 278/349/72
f 286/350/71 287/354/64 271/351/64
f 294/352/72 295/575/70 279/353/70
f 287/354/64 288/359/63 272/355/63
f 295/356/70 296/364/69 280/357/69
f 288/359/63 289/365/82 273/360/82
f 281/361/81 282/367/79 266/362/79
f 296/364/69 281/361/81 265/363/81
f 289/365/82 290/369/80 274/366/80
f 282/367/79 283/371/77 267/368/77
f 290/369/80 291/373/78 275/370/78
f 283/371/77 284/374/75 268/372/75
f 291/373/78 292/342/76 276/344/76
f 284/374/75 285/345/73 269/347/73
f 265/377/68 266/576/68 267/577/68
f 267/577/68 268/578/68 269/579/68
f 269/579/68 270/580/68 271/581/68
f 271/581/68 272/582/68 273/375/68
f 273/375/68 274/583/68 275/584/68
f 275/584/68 276/585/68 277/376/68
f 277/376/68 278/586/68 279/587/68
f 279/587/68 280/588/68 265/377/68
f 265/377/68 267/577/68 269/579/68
f 269/579/68 271/581/68 273/375/68
f 273/375/68 275/584/68 277/376/68
f 277/376/68 279/587/68 265/377/68
f 265/377/68 269/579/68 273/375/68
f 283/380/36 282/589/36 281/590/36
f 281/590/36 296/591/36 295/592/36
f 295/592/36 294/593/36 293/594/36
f 293/594/36 292/595/36 291/378/36
f 291/378/36 290/596/36 289/597/36
f 289/597/36 288/598/36 287/379/36
f 287/379/36 286/599/36 285/600/36
f 285/600/36 284/601/36 283/380/36
f 283/380/36 281/590/36 295/592/36
f 295/592/36 293/594/36 291/378/36
f 291/378/36 289/597/36 287/379/36
f 287/379/36 285/600/36 283/380/36
f 283/380/36 295/592/36 291/378/36
f 302/381/187 301/399/206 298/382/188
f 244/318/162 253/319/163 199/253/135
f 306/384/78 299/383/190 298/382/190
f 308/386/191 302/381/187 299/383/189
f 303/387/193 300/400/209 297/388/194
f 307/390/196 304/389/195 297/388/194
f 314/391/198 311/401/200 304/389/195
f 310/392/199 303/602/193 304/393/195
f 313/395/201 309/397/203 302/381/187
f 312/396/202 301/399/206 302/381/187
f 313/395/204 308/386/208 303/387/193
f 314/391/205 307/390/207 301/399/206
f 307/390/207 305/385/245 298/382/188
f 308/386/208 306/384/246 300/400/209
f 306/384/78 305/385/78 297/388/210
f 190/273/156 200/274/157 314/391/205
f 254/339/185 313/395/204 310/398/199
f 190/273/156 312/396/202 309/397/203
f 244/318/162 309/397/203 313/395/201
f 243/320/164 310/392/199 311/394/200
f 200/274/158 189/275/136 311/401/200
f 327/402/73 343/409/73 342/403/71
f 320/405/76 336/411/76 335/406/74
f 328/408/75 344/413/75 343/409/73
f 321/410/78 337/415/78 336/411/76
f 329/412/77 345/603/77 344/413/75
f 322/414/80 338/420/80 337/415/78
f 330/416/79 346/424/79 345/417/77
f 323/419/82 339/426/82 338/420/80
f 316/421/69 332/428/69 331/422/81
f 315/423/81 331/422/81 346/424/79
f 324/425/63 340/430/63 339/426/82
f 317/427/70 333/432/70 332/428/69
f 325/429/64 341/433/64 340/430/63
f 318/431/72 334/434/72 333/432/70
f 326/404/71 342/403/71 341/433/64
f 319/407/74 335/406/74 334/434/72
f 317/437/68 316/604/68 315/605/68
f 315/605/68 330/606/68 329/607/68
f 329/607/68 328/608/68 327/609/68
f 327/609/68 326/610/68 325/435/68
f 325/435/68 324/611/68 323/612/68
f 323/612/68 322/613/68 321/436/68
f 321/436/68 320/614/68 319/615/68
f 319/615/68 318/616/68 317/437/68
f 317/437/68 315/605/68 329/607/68
f 329/607/68 327/609/68 325/435/68
f 325/435/68 323/612/68 321/436/68
f 321/436/68 319/615/68 317/437/68
f 317/437/68 329/607/68 325/435/68
f 331/440/36 332/617/36 333/618/36
f 333/618/36 334/619/36 335/620/36
f 335/620/36 336/621/36 337/622/36
f 337/622/36 338/623/36 339/438/36
f 339/438/36 340/624/36 341/625/36
f 341/625/36 342/626/36 343/439/36
f 343/439/36 344/627/36 345/628/36
f 345/628/36 346/629/36 331/440/36
f 331/440/36 333/618/36 335/620/36
f 335/620/36 337/622/36 339/438/36
f 339/438/36 341/625/36 343/439/36
f 343/439/36 345/628/36 331/440/36
f 331/440/36 335/620/36 339/438/36
f 355/441/211 348/630/211 350/442/211
f 350/444/212 354/454/212 357/445/212
f 354/447/213 352/450/213 358/448/213
f 352/450/214 348/630/214 355/441/214
f 353/451/215 351/631/215 347/452/215
f 350/444/216 348/630/216 352/450/216
f 358/448/214 355/441/214 347/455/214
f 357/449/74 358/448/74 351/456/74
f 356/446/217 357/445/217 353/458/217
f 355/441/73 356/443/73 349/460/73
f 361/463/218 360/632/218 359/633/218
f 359/633/218 374/634/218 373/635/218
f 373/635/218 372/636/218 371/637/218
f 371/637/218 370/638/218 369/461/218
f 369/461/218 368/639/218 367/640/218
f 367/640/218 366/641/218 365/462/218
f 365/462/218 364/642/218 363/643/218
f 363/643/218 362/644/218 361/463/218
f 361/463/218 359/633/218 373/635/218
f 373/635/218 371/637/218 369/461/218
f 369/461/218 367/640/218 365/462/218
f 365/462/218 363/643/218 361/463/218
f 361/463/218 373/635/218 369/461/218
f 376/466/219 375/645/219 377/646/219
f 377/646/219 378/647/219 379/648/219
f 379/648/219 380/649/219 381/650/219
f 381/650/219 382/651/219 383/464/219
f 383/464/219 384/652/219 385/653/219
f 385/653/219 386/654/219 387/465/219
f 387/465/219 388/655/219 389/656/219
f 389/656/219 390/657/219 376/466/219
f 376/466/219 377/646/219 379/648/219
f 379/648/219 381/650/219 383/464/219
f 383/464/219 385/653/219 387/465/219
f 387/465/219 389/656/219 376/466/219
f 376/466/219 379/648/219 383/464/219
f 361/467/220 377/474/220 375/468/221
f 369/470/222 385/476/222 384/471/223
f 361/467/220 362/478/224 378/473/224
f 370/475/225 386/480/225 385/476/222
f 363/477/73 379/482/73 378/473/224
f 371/479/74 387/484/74 386/480/225
f 364/481/226 380/486/226 379/482/73
f 372/483/227 388/488/227 387/484/74
f 365/485/228 381/490/228 380/486/226
f 373/487/229 389/492/232 388/488/227
f 365/485/228 366/493/230 382/489/230
f 374/491/231 390/497/231 389/492/232
f 366/493/230 367/658/233 383/494/233
f 360/469/221 375/468/221 376/495/234
f 374/491/231 359/496/234 376/495/234
f 368/472/223 384/471/223 383/498/233
