# Converted from a binary STL for the private Down Range Unity tactical resolver.
# Source: MOUT Small Roof.stl
o MOUT Small Roof
v 3.500000 0.500000 4.000000
v 3.500000 0.500000 0.000000
v 0.000000 0.500000 0.000000
v 0.000000 0.500000 4.100000
v 0.000000 0.500000 4.600000
v 3.000000 0.500000 4.500000
v -3.500000 0.500000 0.000000
v -3.500000 0.500000 4.000000
v -3.000000 0.500000 4.500000
v 3.500000 0.500000 -4.000000
v 3.000000 0.500000 -4.500000
v 0.000000 0.500000 -4.600000
v 0.000000 0.500000 -4.100000
v -3.500000 0.500000 -4.000000
v -3.000000 0.500000 -4.500000
v 3.985857 0.020000 4.485858
v 3.981577 0.010217 4.477411
v 3.990912 0.010550 4.484278
v 3.993027 0.020000 4.489845
v 3.979446 0.002946 4.464999
v 3.989651 0.005164 4.475014
v 3.979999 0.000000 4.451716
v 3.989784 0.002946 4.460717
v 3.997055 0.010217 4.471000
v 3.995309 0.010550 4.482456
v 4.000000 0.020000 4.480000
v 3.997749 0.020000 4.487888
v 3.485857 0.020000 4.985858
v 3.489844 0.020000 4.993027
v 3.484277 0.010550 4.990910
v 3.477409 0.010217 4.981577
v 3.487888 0.020000 4.997749
v 3.482454 0.010550 4.995309
v 3.479999 0.020000 5.000000
v 3.470999 0.010217 4.997054
v 3.460716 0.002946 4.989783
v 3.475014 0.005165 4.989650
v 3.451715 0.000000 4.980000
v 3.464998 0.002946 4.979446
v 3.500000 0.500000 4.971716
v 3.506941 0.502968 4.978657
v 3.499138 0.500000 4.986132
v 3.493059 0.497032 4.978657
v 3.512042 0.510184 4.983759
v 3.502760 0.505624 4.990806
v 3.514143 0.520000 4.985858
v 3.504309 0.513654 4.992760
v 3.491833 0.506346 4.997928
v 3.494577 0.499902 4.995551
v 3.479999 0.500000 5.000000
v 3.487761 0.493542 4.997864
v 3.489835 0.486459 4.992856
v 3.493307 0.494453 4.990903
v 3.485857 0.480000 4.985858
v 3.487958 0.489816 4.983759
v 3.017990 0.019245 4.489707
v 3.013466 0.020418 4.499059
v 3.004625 0.010614 4.499890
v 3.005057 0.009848 4.494734
v 3.013721 0.020691 4.509527
v 3.004967 0.010738 4.504941
v 3.018698 0.020000 4.518697
v 3.006189 0.010231 4.510342
v 2.989053 0.002937 4.503523
v 2.996619 0.005121 4.501375
v 2.971716 0.000000 4.500000
v 2.988167 0.002823 4.498490
v 3.489706 0.019245 4.017991
v 3.494734 0.009848 4.005056
v 3.499890 0.010614 4.004625
v 3.499060 0.020418 4.013466
v 3.498489 0.002824 3.988167
v 3.501375 0.005121 3.996618
v 3.500000 0.000000 3.971716
v 3.503523 0.002937 3.989055
v 3.510342 0.010231 4.006190
v 3.504941 0.010738 4.004966
v 3.518698 0.020000 4.018697
v 3.509528 0.020691 4.013721
v 3.985857 0.520000 4.514142
v 3.983759 0.510184 4.512043
v 3.990807 0.505624 4.502760
v 3.992760 0.513655 4.504310
v 3.978656 0.502968 4.506941
v 3.986131 0.500000 4.499139
v 3.971716 0.500000 4.500000
v 3.978656 0.497032 4.493059
v 3.983759 0.489816 4.487957
v 3.990904 0.494453 4.493308
v 3.985857 0.480000 4.485858
v 3.992856 0.486459 4.489835
v 3.997864 0.493541 4.487761
v 3.995551 0.499902 4.494579
v 4.000000 0.500000 4.480000
v 3.997928 0.506346 4.491834
v 3.500000 1.020000 4.272894
v 3.497043 1.010201 4.278322
v 3.495746 1.010503 4.287331
v 3.497926 1.020000 4.284731
v 3.489799 1.002956 4.284491
v 3.491327 1.005151 4.291230
v 3.479999 1.000000 4.289919
v 3.484009 1.002914 4.297094
v 3.486142 1.010126 4.303298
v 3.492279 1.010439 4.295282
v 3.485857 1.020000 4.307035
v 3.492761 1.020000 4.297200
v 3.307036 1.020000 4.485858
v 3.304330 1.010120 4.485136
v 3.295854 1.010433 4.491734
v 3.297198 1.020000 4.492762
v 3.299207 1.002914 4.482006
v 3.292290 1.005167 4.490357
v 3.292892 1.000000 4.477238
v 3.286043 1.002982 4.488434
v 3.278792 1.010249 4.496672
v 3.287729 1.010543 4.495399
v 3.272894 1.020000 4.500000
v 3.284731 1.020000 4.497927
v 4.000000 1.480000 4.480000
v 3.997040 1.489807 4.483740
v 3.995761 1.489503 4.493465
v 3.997926 1.480000 4.491837
v 3.989807 1.497039 4.487976
v 3.991434 1.494818 4.496452
v 3.979999 1.500000 4.491716
v 3.984290 1.497039 4.501294
v 3.986407 1.489807 4.509403
v 3.992383 1.489503 4.501624
v 3.985857 1.480000 4.514142
v 3.992761 1.480000 4.504307
v 3.514143 1.480000 4.985858
v 3.509406 1.489807 4.986408
v 3.501625 1.489503 4.992382
v 3.504306 1.480000 4.992762
v 3.501295 1.497039 4.984290
v 3.496452 1.494818 4.991434
v 3.491716 1.500000 4.980000
v 3.487976 1.497039 4.989807
v 3.483740 1.489806 4.997038
v 3.493466 1.489503 4.995761
v 3.479999 1.480000 5.000000
v 3.491837 1.480000 4.997927
v 3.485857 1.480000 4.307035
v 3.494305 1.489783 4.302754
v 3.497795 1.489485 4.295932
v 3.492761 1.480000 4.297200
v 3.506717 1.497055 4.300624
v 3.503513 1.494836 4.294349
v 3.520001 1.500000 4.301178
v 3.510216 1.497055 4.292177
v 3.502945 1.489783 4.281894
v 3.500589 1.489485 4.289186
v 3.500000 1.480000 4.272894
v 3.497926 1.480000 4.284731
v 3.272894 1.480000 4.500000
v 3.281894 1.489783 4.502946
v 3.289186 1.489485 4.500590
v 3.284731 1.480000 4.497927
v 3.292177 1.497054 4.510217
v 3.294348 1.494835 4.503513
v 3.301178 1.500000 4.520000
v 3.300626 1.497054 4.506717
v 3.302753 1.489783 4.494305
v 3.295932 1.489485 4.497795
v 3.307036 1.480000 4.485858
v 3.297198 1.480000 4.492762
v 3.128284 0.500000 4.600000
v 3.120836 0.497191 4.606675
v 3.113799 0.494832 4.599039
v 3.120634 0.497567 4.592350
v 3.114380 0.489849 4.610601
v 3.109253 0.489664 4.601803
v 3.110696 0.480000 4.610697
v 3.105396 0.480239 4.601618
v 3.105247 0.480516 4.591087
v 3.109148 0.489859 4.594390
v 3.110292 0.480755 4.582009
v 3.114030 0.490503 4.585746
v 3.610696 0.480000 4.110697
v 3.610602 0.489849 4.114380
v 3.601804 0.489664 4.109253
v 3.601617 0.480239 4.105396
v 3.606676 0.497191 4.120836
v 3.599039 0.494832 4.113798
v 3.600000 0.500000 4.128284
v 3.592349 0.497567 4.120634
v 3.585747 0.490503 4.114030
v 3.594391 0.489859 4.109148
v 3.582008 0.480755 4.110293
v 3.591087 0.480516 4.105248
v -3.985858 0.020000 4.485858
v -3.993027 0.020000 4.489845
v -3.990909 0.010550 4.484278
v -3.981573 0.010217 4.477410
v -3.997748 0.020000 4.487888
v -3.995306 0.010550 4.482455
v -4.000000 0.020000 4.480000
v -3.997055 0.010217 4.470999
v -3.989783 0.002946 4.460716
v -3.989651 0.005165 4.475013
v -3.979999 0.000000 4.451716
v -3.979446 0.002946 4.464998
v -3.485858 0.020000 4.985858
v -3.477411 0.010217 4.981577
v -3.484277 0.010550 4.990910
v -3.489844 0.020000 4.993027
v -3.464999 0.002946 4.979446
v -3.475012 0.005165 4.989650
v -3.451715 0.000000 4.980000
v -3.460718 0.002946 4.989783
v -3.470999 0.010217 4.997054
v -3.482455 0.010550 4.995309
v -3.479999 0.020000 5.000000
v -3.487888 0.020000 4.997749
v -3.500000 0.500000 4.971716
v -3.493060 0.497032 4.978657
v -3.499139 0.500000 4.986132
v -3.506940 0.502968 4.978657
v -3.487958 0.489816 4.983759
v -3.493311 0.494453 4.990903
v -3.485858 0.480000 4.985858
v -3.489835 0.486459 4.992856
v -3.487759 0.493541 4.997864
v -3.494580 0.499902 4.995551
v -3.479999 0.500000 5.000000
v -3.491833 0.506346 4.997928
v -3.504309 0.513655 4.992760
v -3.502759 0.505624 4.990806
v -3.514142 0.520000 4.985858
v -3.512042 0.510184 4.983760
v -3.017990 0.019245 4.489707
v -3.005057 0.009848 4.494734
v -3.004626 0.010614 4.499890
v -3.013464 0.020418 4.499059
v -2.988165 0.002824 4.498490
v -2.996619 0.005121 4.501375
v -2.971716 0.000000 4.500000
v -2.989053 0.002937 4.503523
v -3.006192 0.010231 4.510342
v -3.004968 0.010738 4.504941
v -3.018698 0.020000 4.518697
v -3.013721 0.020691 4.509527
v -3.489709 0.019245 4.017991
v -3.499057 0.020418 4.013465
v -3.499890 0.010614 4.004624
v -3.494733 0.009848 4.005056
v -3.509528 0.020691 4.013721
v -3.504941 0.010738 4.004966
v -3.518698 0.020000 4.018697
v -3.510342 0.010231 4.006190
v -3.503522 0.002937 3.989054
v -3.501376 0.005121 3.996618
v -3.500000 0.000000 3.971716
v -3.498489 0.002823 3.988167
v -4.000000 0.500000 4.480000
v -3.997864 0.493541 4.487761
v -3.995551 0.499902 4.494579
v -3.997928 0.506346 4.491833
v -3.992856 0.486458 4.489835
v -3.990903 0.494453 4.493308
v -3.985858 0.480000 4.485858
v -3.983759 0.489816 4.487956
v -3.978656 0.497032 4.493059
v -3.986130 0.500000 4.499139
v -3.971716 0.500000 4.500000
v -3.978656 0.502968 4.506941
v -3.983762 0.510184 4.512043
v -3.990805 0.505624 4.502760
v -3.985858 0.520000 4.514142
v -3.992761 0.513655 4.504310
v -3.500000 1.020000 4.272894
v -3.497928 1.020000 4.284731
v -3.495746 1.010503 4.287331
v -3.497043 1.010201 4.278323
v -3.492761 1.020000 4.297200
v -3.492279 1.010439 4.295284
v -3.485858 1.020000 4.307035
v -3.486142 1.010126 4.303299
v -3.484009 1.002914 4.297094
v -3.491330 1.005151 4.291230
v -3.479999 1.000000 4.289919
v -3.489801 1.002956 4.284491
v -3.307034 1.020000 4.485858
v -3.297198 1.020000 4.492762
v -3.295856 1.010433 4.491734
v -3.304330 1.010120 4.485136
v -3.284732 1.020000 4.497927
v -3.287729 1.010543 4.495399
v -3.272894 1.020000 4.500000
v -3.278790 1.010249 4.496672
v -3.286044 1.002982 4.488434
v -3.292291 1.005167 4.490358
v -3.292892 1.000000 4.477238
v -3.299207 1.002914 4.482006
v -4.000000 1.480000 4.480000
v -3.997928 1.480000 4.491837
v -3.995761 1.489503 4.493465
v -3.997040 1.489806 4.483740
v -3.992761 1.480000 4.504307
v -3.992383 1.489503 4.501624
v -3.985858 1.480000 4.514142
v -3.986407 1.489807 4.509404
v -3.984290 1.497039 4.501295
v -3.991431 1.494818 4.496452
v -3.979999 1.500000 4.491716
v -3.989807 1.497039 4.487976
v -3.514142 1.480000 4.985858
v -3.504306 1.480000 4.992762
v -3.501624 1.489503 4.992382
v -3.509402 1.489807 4.986409
v -3.491837 1.480000 4.997927
v -3.493466 1.489503 4.995761
v -3.479999 1.480000 5.000000
v -3.483740 1.489807 4.997038
v -3.487976 1.497039 4.989806
v -3.496454 1.494818 4.991434
v -3.491718 1.500000 4.980000
v -3.501294 1.497039 4.984290
v -3.485858 1.480000 4.307035
v -3.492761 1.480000 4.297200
v -3.497797 1.489485 4.295932
v -3.494305 1.489783 4.302754
v -3.497928 1.480000 4.284731
v -3.500589 1.489485 4.289187
v -3.500000 1.480000 4.272894
v -3.502948 1.489783 4.281895
v -3.510217 1.497055 4.292177
v -3.503513 1.494836 4.294349
v -3.520001 1.500000 4.301178
v -3.506717 1.497055 4.300624
v -3.272894 1.480000 4.500000
v -3.284732 1.480000 4.497926
v -3.289188 1.489485 4.500590
v -3.281894 1.489783 4.502946
v -3.297198 1.480000 4.492762
v -3.295932 1.489485 4.497795
v -3.307034 1.480000 4.485858
v -3.302753 1.489783 4.494305
v -3.300626 1.497054 4.506718
v -3.294348 1.494836 4.503513
v -3.301178 1.500000 4.520000
v -3.292178 1.497054 4.510217
v -3.128284 0.500000 4.600000
v -3.120633 0.497567 4.592350
v -3.113797 0.494832 4.599039
v -3.120837 0.497191 4.606675
v -3.114032 0.490503 4.585746
v -3.109149 0.489859 4.594390
v -3.110294 0.480755 4.582009
v -3.105249 0.480516 4.591087
v -3.105396 0.480239 4.601618
v -3.109253 0.489664 4.601803
v -3.110696 0.480000 4.610697
v -3.114380 0.489849 4.610601
v -3.610696 0.480000 4.110697
v -3.601617 0.480239 4.105396
v -3.601804 0.489664 4.109253
v -3.610602 0.489849 4.114380
v -3.591089 0.480516 4.105248
v -3.594391 0.489859 4.109148
v -3.582007 0.480755 4.110293
v -3.585748 0.490503 4.114030
v -3.592349 0.497567 4.120634
v -3.599039 0.494832 4.113798
v -3.600000 0.500000 4.128284
v -3.606674 0.497191 4.120836
v 3.985857 0.020000 -4.485858
v 3.993027 0.020000 -4.489845
v 3.990912 0.010550 -4.484278
v 3.981577 0.010217 -4.477411
v 3.997749 0.020000 -4.487888
v 3.995309 0.010550 -4.482455
v 4.000000 0.020000 -4.480000
v 3.997055 0.010217 -4.470999
v 3.989784 0.002946 -4.460717
v 3.989651 0.005164 -4.475013
v 3.979999 0.000000 -4.451716
v 3.979446 0.002946 -4.464998
v 3.485857 0.020000 -4.985858
v 3.477409 0.010217 -4.981576
v 3.484277 0.010550 -4.990910
v 3.489844 0.020000 -4.993027
v 3.464998 0.002946 -4.979446
v 3.475014 0.005165 -4.989650
v 3.451715 0.000000 -4.980000
v 3.460716 0.002946 -4.989783
v 3.470999 0.010217 -4.997054
v 3.482454 0.010550 -4.995309
v 3.479999 0.020000 -5.000000
v 3.487888 0.020000 -4.997749
v 3.500000 0.500000 -4.971716
v 3.493059 0.497032 -4.978657
v 3.499138 0.500000 -4.986131
v 3.506941 0.502968 -4.978657
v 3.487958 0.489816 -4.983759
v 3.493307 0.494453 -4.990903
v 3.485857 0.480000 -4.985858
v 3.489836 0.486459 -4.992855
v 3.487761 0.493542 -4.997864
v 3.494577 0.499902 -4.995551
v 3.479999 0.500000 -5.000000
v 3.491833 0.506346 -4.997928
v 3.504309 0.513654 -4.992760
v 3.502760 0.505624 -4.990806
v 3.514143 0.520000 -4.985858
v 3.512042 0.510184 -4.983760
v 3.017992 0.019245 -4.489707
v 3.005057 0.009848 -4.494734
v 3.004625 0.010614 -4.499891
v 3.013466 0.020418 -4.499060
v 2.988167 0.002823 -4.498490
v 2.996619 0.005121 -4.501375
v 2.971716 0.000000 -4.500000
v 2.989053 0.002937 -4.503523
v 3.006189 0.010231 -4.510342
v 3.004967 0.010738 -4.504941
v 3.018698 0.020000 -4.518697
v 3.013721 0.020691 -4.509527
v 3.489706 0.019245 -4.017991
v 3.499060 0.020418 -4.013466
v 3.499890 0.010614 -4.004625
v 3.494734 0.009848 -4.005056
v 3.509528 0.020691 -4.013721
v 3.504941 0.010738 -4.004966
v 3.518698 0.020000 -4.018697
v 3.510342 0.010231 -4.006190
v 3.503523 0.002937 -3.989055
v 3.501375 0.005121 -3.996618
v 3.500000 0.000000 -3.971716
v 3.498489 0.002824 -3.988167
v 4.000000 0.500000 -4.480000
v 3.997864 0.493541 -4.487761
v 3.995551 0.499902 -4.494579
v 3.997928 0.506346 -4.491833
v 3.992856 0.486459 -4.489835
v 3.990904 0.494453 -4.493308
v 3.985857 0.480000 -4.485858
v 3.983759 0.489816 -4.487957
v 3.978656 0.497032 -4.493059
v 3.986131 0.500000 -4.499139
v 3.971716 0.500000 -4.500000
v 3.978656 0.502968 -4.506941
v 3.983759 0.510184 -4.512043
v 3.990807 0.505624 -4.502760
v 3.985857 0.520000 -4.514142
v 3.992760 0.513655 -4.504310
v 3.500000 1.020000 -4.272894
v 3.497926 1.020000 -4.284731
v 3.495746 1.010503 -4.287330
v 3.497043 1.010201 -4.278322
v 3.492761 1.020000 -4.297200
v 3.492279 1.010439 -4.295283
v 3.485857 1.020000 -4.307035
v 3.486142 1.010126 -4.303298
v 3.484009 1.002914 -4.297094
v 3.491327 1.005151 -4.291230
v 3.479999 1.000000 -4.289919
v 3.489799 1.002956 -4.284491
v 3.307036 1.020000 -4.485858
v 3.297198 1.020000 -4.492762
v 3.295854 1.010433 -4.491734
v 3.304330 1.010120 -4.485136
v 3.284731 1.020000 -4.497927
v 3.287729 1.010543 -4.495399
v 3.272894 1.020000 -4.500000
v 3.278792 1.010249 -4.496672
v 3.286043 1.002982 -4.488434
v 3.292290 1.005167 -4.490358
v 3.292892 1.000000 -4.477238
v 3.299207 1.002914 -4.482006
v 4.000000 1.480000 -4.480000
v 3.997926 1.480000 -4.491837
v 3.995761 1.489503 -4.493465
v 3.997040 1.489807 -4.483740
v 3.992761 1.480000 -4.504307
v 3.992383 1.489503 -4.501624
v 3.985857 1.480000 -4.514142
v 3.986407 1.489807 -4.509404
v 3.984290 1.497039 -4.501294
v 3.991434 1.494818 -4.496452
v 3.979999 1.500000 -4.491716
v 3.989807 1.497039 -4.487976
v 3.514143 1.480000 -4.985858
v 3.504306 1.480000 -4.992762
v 3.501625 1.489503 -4.992382
v 3.509406 1.489807 -4.986409
v 3.491837 1.480000 -4.997927
v 3.493466 1.489503 -4.995761
v 3.479999 1.480000 -5.000000
v 3.483740 1.489806 -4.997038
v 3.487976 1.497039 -4.989806
v 3.496452 1.494818 -4.991434
v 3.491716 1.500000 -4.980000
v 3.501295 1.497039 -4.984290
v 3.485857 1.480000 -4.307035
v 3.492761 1.480000 -4.297200
v 3.497795 1.489485 -4.295932
v 3.494307 1.489783 -4.302753
v 3.497926 1.480000 -4.284731
v 3.500589 1.489485 -4.289186
v 3.500000 1.480000 -4.272894
v 3.502945 1.489783 -4.281894
v 3.510216 1.497054 -4.292177
v 3.503513 1.494836 -4.294349
v 3.520001 1.500000 -4.301178
v 3.506717 1.497055 -4.300624
v 3.272894 1.480000 -4.500000
v 3.284731 1.480000 -4.497927
v 3.289186 1.489485 -4.500590
v 3.281894 1.489783 -4.502946
v 3.297198 1.480000 -4.492762
v 3.295932 1.489485 -4.497795
v 3.307036 1.480000 -4.485858
v 3.302753 1.489783 -4.494305
v 3.300626 1.497054 -4.506717
v 3.294348 1.494835 -4.503513
v 3.301178 1.500000 -4.520000
v 3.292177 1.497054 -4.510217
v 3.128284 0.500000 -4.600000
v 3.120634 0.497567 -4.592350
v 3.113799 0.494832 -4.599039
v 3.120836 0.497191 -4.606675
v 3.114030 0.490503 -4.585746
v 3.109148 0.489859 -4.594390
v 3.110292 0.480755 -4.582009
v 3.105247 0.480516 -4.591087
v 3.105396 0.480239 -4.601618
v 3.109253 0.489664 -4.601803
v 3.110696 0.480000 -4.610697
v 3.114380 0.489849 -4.610601
v 3.610696 0.480000 -4.110697
v 3.601617 0.480239 -4.105396
v 3.601804 0.489664 -4.109253
v 3.610602 0.489849 -4.114380
v 3.591087 0.480516 -4.105248
v 3.594391 0.489859 -4.109148
v 3.582008 0.480755 -4.110293
v 3.585747 0.490503 -4.114030
v 3.592349 0.497567 -4.120634
v 3.599039 0.494832 -4.113798
v 3.600000 0.500000 -4.128284
v 3.606676 0.497191 -4.120836
v -3.985858 0.020000 -4.485858
v -3.981573 0.010217 -4.477410
v -3.990909 0.010550 -4.484277
v -3.993027 0.020000 -4.489845
v -3.979446 0.002946 -4.464998
v -3.989651 0.005165 -4.475014
v -3.979999 0.000000 -4.451716
v -3.989783 0.002946 -4.460716
v -3.997055 0.010217 -4.470999
v -3.995306 0.010550 -4.482455
v -4.000000 0.020000 -4.480000
v -3.997748 0.020000 -4.487888
v -3.485858 0.020000 -4.985858
v -3.489844 0.020000 -4.993027
v -3.484277 0.010550 -4.990910
v -3.477411 0.010217 -4.981577
v -3.487888 0.020000 -4.997749
v -3.482455 0.010550 -4.995309
v -3.479999 0.020000 -5.000000
v -3.470999 0.010217 -4.997054
v -3.460718 0.002946 -4.989783
v -3.475012 0.005165 -4.989650
v -3.451715 0.000000 -4.980000
v -3.464999 0.002946 -4.979446
v -3.500000 0.500000 -4.971716
v -3.506940 0.502968 -4.978657
v -3.499139 0.500000 -4.986131
v -3.493060 0.497032 -4.978657
v -3.512042 0.510184 -4.983759
v -3.502759 0.505624 -4.990806
v -3.514142 0.520000 -4.985858
v -3.504309 0.513655 -4.992760
v -3.491833 0.506346 -4.997928
v -3.494580 0.499902 -4.995551
v -3.479999 0.500000 -5.000000
v -3.487759 0.493541 -4.997864
v -3.489835 0.486459 -4.992855
v -3.493307 0.494453 -4.990903
v -3.485858 0.480000 -4.985858
v -3.487958 0.489816 -4.983759
v -3.017990 0.019245 -4.489707
v -3.013464 0.020418 -4.499059
v -3.004626 0.010614 -4.499890
v -3.005057 0.009848 -4.494733
v -3.013721 0.020691 -4.509527
v -3.004968 0.010738 -4.504940
v -3.018698 0.020000 -4.518697
v -3.006192 0.010231 -4.510342
v -2.989056 0.002937 -4.503523
v -2.996619 0.005121 -4.501374
v -2.971716 0.000000 -4.500000
v -2.988165 0.002824 -4.498490
v -3.489709 0.019245 -4.017991
v -3.494733 0.009848 -4.005056
v -3.499890 0.010614 -4.004625
v -3.499057 0.020418 -4.013465
v -3.498489 0.002823 -3.988167
v -3.501376 0.005121 -3.996618
v -3.500000 0.000000 -3.971716
v -3.503522 0.002937 -3.989054
v -3.510342 0.010231 -4.006190
v -3.504941 0.010738 -4.004966
v -3.518698 0.020000 -4.018697
v -3.509528 0.020691 -4.013721
v -3.985858 0.520000 -4.514142
v -3.983762 0.510184 -4.512044
v -3.990808 0.505624 -4.502760
v -3.992761 0.513655 -4.504310
v -3.978656 0.502968 -4.506941
v -3.986133 0.500000 -4.499139
v -3.971716 0.500000 -4.500000
v -3.978656 0.497032 -4.493059
v -3.983762 0.489816 -4.487956
v -3.990903 0.494453 -4.493308
v -3.985858 0.480000 -4.485858
v -3.992856 0.486458 -4.489835
v -3.997864 0.493541 -4.487761
v -3.995551 0.499902 -4.494579
v -4.000000 0.500000 -4.480000
v -3.997928 0.506346 -4.491834
v -3.500000 1.020000 -4.272894
v -3.497043 1.010201 -4.278322
v -3.495746 1.010503 -4.287331
v -3.497928 1.020000 -4.284731
v -3.489801 1.002956 -4.284491
v -3.491327 1.005151 -4.291230
v -3.479999 1.000000 -4.289919
v -3.484009 1.002914 -4.297094
v -3.486142 1.010126 -4.303298
v -3.492279 1.010439 -4.295283
v -3.485858 1.020000 -4.307035
v -3.492761 1.020000 -4.297200
v -3.307034 1.020000 -4.485858
v -3.304330 1.010120 -4.485136
v -3.295856 1.010433 -4.491734
v -3.297198 1.020000 -4.492762
v -3.299207 1.002914 -4.482006
v -3.292291 1.005167 -4.490358
v -3.292892 1.000000 -4.477238
v -3.286044 1.002982 -4.488434
v -3.278790 1.010249 -4.496673
v -3.287729 1.010543 -4.495399
v -3.272894 1.020000 -4.500000
v -3.284732 1.020000 -4.497926
v -4.000000 1.480000 -4.480000
v -3.997040 1.489807 -4.483740
v -3.995761 1.489503 -4.493465
v -3.997928 1.480000 -4.491837
v -3.989807 1.497039 -4.487976
v -3.991431 1.494818 -4.496452
v -3.979999 1.500000 -4.491716
v -3.984290 1.497039 -4.501295
v -3.986407 1.489807 -4.509404
v -3.992383 1.489503 -4.501624
v -3.985858 1.480000 -4.514142
v -3.992761 1.480000 -4.504307
v -3.514142 1.480000 -4.985858
v -3.509402 1.489807 -4.986408
v -3.501624 1.489503 -4.992382
v -3.504306 1.480000 -4.992762
v -3.501294 1.497039 -4.984290
v -3.496454 1.494818 -4.991434
v -3.491718 1.500000 -4.980000
v -3.487976 1.497039 -4.989806
v -3.483740 1.489806 -4.997038
v -3.493466 1.489503 -4.995761
v -3.479999 1.480000 -5.000000
v -3.491837 1.480000 -4.997926
v -3.485858 1.480000 -4.307035
v -3.494305 1.489783 -4.302754
v -3.497797 1.489485 -4.295932
v -3.492761 1.480000 -4.297200
v -3.506717 1.497054 -4.300624
v -3.503513 1.494836 -4.294349
v -3.520001 1.500000 -4.301178
v -3.510217 1.497054 -4.292177
v -3.502945 1.489783 -4.281894
v -3.500589 1.489485 -4.289186
v -3.500000 1.480000 -4.272894
v -3.497928 1.480000 -4.284731
v -3.272894 1.480000 -4.500000
v -3.281894 1.489783 -4.502946
v -3.289188 1.489485 -4.500590
v -3.284732 1.480000 -4.497927
v -3.292178 1.497054 -4.510217
v -3.294348 1.494836 -4.503513
v -3.301178 1.500000 -4.520000
v -3.300626 1.497055 -4.506718
v -3.302753 1.489783 -4.494305
v -3.295932 1.489485 -4.497795
v -3.307034 1.480000 -4.485858
v -3.297198 1.480000 -4.492762
v -3.128284 0.500000 -4.600000
v -3.120837 0.497191 -4.606675
v -3.113797 0.494832 -4.599039
v -3.120633 0.497567 -4.592350
v -3.114380 0.489849 -4.610601
v -3.109253 0.489664 -4.601803
v -3.110696 0.480000 -4.610697
v -3.105396 0.480239 -4.601618
v -3.105249 0.480516 -4.591087
v -3.109149 0.489859 -4.594390
v -3.110294 0.480755 -4.582009
v -3.114032 0.490503 -4.585746
v -3.610696 0.480000 -4.110697
v -3.610602 0.489849 -4.114380
v -3.601804 0.489664 -4.109253
v -3.601617 0.480239 -4.105396
v -3.606674 0.497191 -4.120836
v -3.599039 0.494832 -4.113798
v -3.600000 0.500000 -4.128284
v -3.592349 0.497567 -4.120634
v -3.585748 0.490503 -4.114030
v -3.594391 0.489859 -4.109148
v -3.582007 0.480755 -4.110293
v -3.591089 0.480516 -4.105248
v 4.000000 1.000000 4.480000
v 3.998106 1.000000 4.491895
v 3.992929 1.000000 4.504392
v 3.985857 1.000000 4.514142
v 0.000000 0.000000 4.980000
v 0.000000 0.002679 4.990000
v 0.000000 0.010001 4.997320
v 0.000000 0.020000 5.000000
v 4.000000 0.020000 0.000000
v 3.997321 0.010001 0.000000
v 3.989999 0.002679 0.000000
v 3.979999 0.000000 0.000000
v 3.479999 1.000000 5.000000
v 3.491895 1.000000 4.998106
v 3.504391 1.000000 4.992929
v 3.514143 1.000000 4.985858
v 3.479999 1.000000 0.000000
v 3.489999 1.002679 0.000000
v 3.497321 1.010001 0.000000
v 3.500000 1.020000 0.000000
v 0.000000 1.000000 4.477345
v 0.000000 1.002679 4.488672
v 0.000000 1.010001 4.496964
v 0.000000 1.020000 4.500000
v 3.979999 1.500000 0.000000
v 3.989999 1.497321 0.000000
v 3.997321 1.489999 0.000000
v 4.000000 1.480000 0.000000
v 0.000000 1.500000 4.980000
v 0.000000 1.497321 4.990000
v 0.000000 1.489999 4.997320
v 0.000000 1.480000 5.000000
v 3.500000 1.480000 0.000000
v 3.502679 1.489999 0.000000
v 3.510001 1.497321 0.000000
v 3.520001 1.500000 0.000000
v 0.000000 1.480000 4.500000
v 0.000000 1.489999 4.502680
v 0.000000 1.497321 4.510000
v 0.000000 1.500000 4.520000
v -3.985858 1.000000 4.514142
v -3.992929 1.000000 4.504392
v -3.998105 1.000000 4.491895
v -4.000000 1.000000 4.480000
v -3.979999 0.000000 0.000000
v -3.989999 0.002679 0.000000
v -3.997321 0.010001 0.000000
v -4.000000 0.020000 0.000000
v -3.514142 1.000000 4.985858
v -3.504391 1.000000 4.992929
v -3.491895 1.000000 4.998106
v -3.479999 1.000000 5.000000
v -3.500000 1.020000 0.000000
v -3.497321 1.010001 0.000000
v -3.489999 1.002679 0.000000
v -3.479999 1.000000 0.000000
v -4.000000 1.480000 0.000000
v -3.997321 1.489999 0.000000
v -3.989999 1.497321 0.000000
v -3.979999 1.500000 0.000000
v -3.520001 1.500000 0.000000
v -3.510001 1.497321 0.000000
v -3.502679 1.489999 0.000000
v -3.500000 1.480000 0.000000
v 3.985857 1.000000 -4.514142
v 3.992929 1.000000 -4.504392
v 3.998106 1.000000 -4.491895
v 4.000000 1.000000 -4.480000
v 0.000000 0.020000 -5.000000
v 0.000000 0.010001 -4.997320
v 0.000000 0.002679 -4.990000
v 0.000000 0.000000 -4.980000
v 3.514143 1.000000 -4.985858
v 3.504391 1.000000 -4.992929
v 3.491895 1.000000 -4.998106
v 3.479999 1.000000 -5.000000
v 0.000000 1.020000 -4.500000
v 0.000000 1.010001 -4.496964
v 0.000000 1.002679 -4.488672
v 0.000000 1.000000 -4.477345
v 0.000000 1.480000 -5.000000
v 0.000000 1.489999 -4.997320
v 0.000000 1.497321 -4.990000
v 0.000000 1.500000 -4.980000
v 0.000000 1.500000 -4.520000
v 0.000000 1.497321 -4.510000
v 0.000000 1.489999 -4.502680
v 0.000000 1.480000 -4.500000
v -4.000000 1.000000 -4.480000
v -3.998105 1.000000 -4.491895
v -3.992929 1.000000 -4.504392
v -3.985858 1.000000 -4.514142
v -3.479999 1.000000 -5.000000
v -3.491895 1.000000 -4.998106
v -3.504391 1.000000 -4.992929
v -3.514142 1.000000 -4.985858
v 4.000000 0.500000 0.000000
v 3.500000 0.000000 0.000000
v 3.292892 1.000000 0.000000
v 4.000000 1.000000 0.000000
v 0.000000 0.500000 5.000000
v 0.000000 0.000000 4.500000
v 0.000000 1.000000 0.000000
v -3.292892 1.000000 0.000000
v 0.000000 1.000000 5.000000
v 0.000000 0.000000 4.000000
v 0.000000 0.000000 0.000000
v -4.000000 0.500000 0.000000
v -3.500000 0.000000 0.000000
v -4.000000 1.000000 0.000000
v 0.000000 0.500000 -5.000000
v 0.000000 0.000000 -4.500000
v 0.000000 1.000000 -5.000000
v 0.000000 0.000000 -4.000000
s 1
f 1 2 3
f 4 5 6
f 1 3 4
f 4 6 1
f 3 7 8
f 8 9 5
f 4 3 8
f 8 5 4
f 3 2 10
f 10 11 12
f 13 3 10
f 10 12 13
f 14 7 3
f 13 12 15
f 14 3 13
f 13 15 14
f 16 17 18
f 16 18 19
f 17 20 21
f 17 21 18
f 22 23 21
f 22 21 20
f 23 24 25
f 23 25 21
f 26 27 25
f 26 25 24
f 27 19 18
f 27 18 25
f 18 21 25
f 28 29 30
f 28 30 31
f 29 32 33
f 29 33 30
f 34 35 33
f 34 33 32
f 35 36 37
f 35 37 33
f 38 39 37
f 38 37 36
f 39 31 30
f 39 30 37
f 30 33 37
f 40 41 42
f 40 42 43
f 41 44 45
f 41 45 42
f 46 47 45
f 46 45 44
f 47 48 49
f 47 49 45
f 50 51 49
f 50 49 48
f 51 52 53
f 51 53 49
f 54 55 53
f 54 53 52
f 55 43 42
f 55 42 53
f 42 45 49
f 42 49 53
f 56 57 58
f 56 58 59
f 57 60 61
f 57 61 58
f 62 63 61
f 62 61 60
f 63 64 65
f 63 65 61
f 66 67 65
f 66 65 64
f 67 59 58
f 67 58 65
f 58 61 65
f 68 69 70
f 68 70 71
f 69 72 73
f 69 73 70
f 74 75 73
f 74 73 72
f 75 76 77
f 75 77 73
f 78 79 77
f 78 77 76
f 79 71 70
f 79 70 77
f 70 73 77
f 80 81 82
f 80 82 83
f 81 84 85
f 81 85 82
f 86 87 85
f 86 85 84
f 87 88 89
f 87 89 85
f 90 91 89
f 90 89 88
f 91 92 93
f 91 93 89
f 94 95 93
f 94 93 92
f 95 83 82
f 95 82 93
f 82 85 89
f 82 89 93
f 96 97 98
f 96 98 99
f 97 100 101
f 97 101 98
f 102 103 101
f 102 101 100
f 103 104 105
f 103 105 101
f 106 107 105
f 106 105 104
f 107 99 98
f 107 98 105
f 98 101 105
f 108 109 110
f 108 110 111
f 109 112 113
f 109 113 110
f 114 115 113
f 114 113 112
f 115 116 117
f 115 117 113
f 118 119 117
f 118 117 116
f 119 111 110
f 119 110 117
f 110 113 117
f 120 121 122
f 120 122 123
f 121 124 125
f 121 125 122
f 126 127 125
f 126 125 124
f 127 128 129
f 127 129 125
f 130 131 129
f 130 129 128
f 131 123 122
f 131 122 129
f 122 125 129
f 132 133 134
f 132 134 135
f 133 136 137
f 133 137 134
f 138 139 137
f 138 137 136
f 139 140 141
f 139 141 137
f 142 143 141
f 142 141 140
f 143 135 134
f 143 134 141
f 134 137 141
f 144 145 146
f 144 146 147
f 145 148 149
f 145 149 146
f 150 151 149
f 150 149 148
f 151 152 153
f 151 153 149
f 154 155 153
f 154 153 152
f 155 147 146
f 155 146 153
f 146 149 153
f 156 157 158
f 156 158 159
f 157 160 161
f 157 161 158
f 162 163 161
f 162 161 160
f 163 164 165
f 163 165 161
f 166 167 165
f 166 165 164
f 167 159 158
f 167 158 165
f 158 161 165
f 168 169 170
f 168 170 171
f 169 172 173
f 169 173 170
f 174 175 173
f 174 173 172
f 175 176 177
f 175 177 173
f 178 179 177
f 178 177 176
f 179 171 170
f 179 170 177
f 170 173 177
f 180 181 182
f 180 182 183
f 181 184 185
f 181 185 182
f 186 187 185
f 186 185 184
f 187 188 189
f 187 189 185
f 190 191 189
f 190 189 188
f 191 183 182
f 191 182 189
f 182 185 189
f 192 193 194
f 192 194 195
f 193 196 197
f 193 197 194
f 198 199 197
f 198 197 196
f 199 200 201
f 199 201 197
f 202 203 201
f 202 201 200
f 203 195 194
f 203 194 201
f 194 197 201
f 204 205 206
f 204 206 207
f 205 208 209
f 205 209 206
f 210 211 209
f 210 209 208
f 211 212 213
f 211 213 209
f 214 215 213
f 214 213 212
f 215 207 206
f 215 206 213
f 206 209 213
f 216 217 218
f 216 218 219
f 217 220 221
f 217 221 218
f 222 223 221
f 222 221 220
f 223 224 225
f 223 225 221
f 226 227 225
f 226 225 224
f 227 228 229
f 227 229 225
f 230 231 229
f 230 229 228
f 231 219 218
f 231 218 229
f 218 221 225
f 218 225 229
f 232 233 234
f 232 234 235
f 233 236 237
f 233 237 234
f 238 239 237
f 238 237 236
f 239 240 241
f 239 241 237
f 242 243 241
f 242 241 240
f 243 235 234
f 243 234 241
f 234 237 241
f 244 245 246
f 244 246 247
f 245 248 249
f 245 249 246
f 250 251 249
f 250 249 248
f 251 252 253
f 251 253 249
f 254 255 253
f 254 253 252
f 255 247 246
f 255 246 253
f 246 249 253
f 256 257 258
f 256 258 259
f 257 260 261
f 257 261 258
f 262 263 261
f 262 261 260
f 263 264 265
f 263 265 261
f 266 267 265
f 266 265 264
f 267 268 269
f 267 269 265
f 270 271 269
f 270 269 268
f 271 259 258
f 271 258 269
f 258 261 265
f 258 265 269
f 272 273 274
f 272 274 275
f 273 276 277
f 273 277 274
f 278 279 277
f 278 277 276
f 279 280 281
f 279 281 277
f 282 283 281
f 282 281 280
f 283 275 274
f 283 274 281
f 274 277 281
f 284 285 286
f 284 286 287
f 285 288 289
f 285 289 286
f 290 291 289
f 290 289 288
f 291 292 293
f 291 293 289
f 294 295 293
f 294 293 292
f 295 287 286
f 295 286 293
f 286 289 293
f 296 297 298
f 296 298 299
f 297 300 301
f 297 301 298
f 302 303 301
f 302 301 300
f 303 304 305
f 303 305 301
f 306 307 305
f 306 305 304
f 307 299 298
f 307 298 305
f 298 301 305
f 308 309 310
f 308 310 311
f 309 312 313
f 309 313 310
f 314 315 313
f 314 313 312
f 315 316 317
f 315 317 313
f 318 319 317
f 318 317 316
f 319 311 310
f 319 310 317
f 310 313 317
f 320 321 322
f 320 322 323
f 321 324 325
f 321 325 322
f 326 327 325
f 326 325 324
f 327 328 329
f 327 329 325
f 330 331 329
f 330 329 328
f 331 323 322
f 331 322 329
f 322 325 329
f 332 333 334
f 332 334 335
f 333 336 337
f 333 337 334
f 338 339 337
f 338 337 336
f 339 340 341
f 339 341 337
f 342 343 341
f 342 341 340
f 343 335 334
f 343 334 341
f 334 337 341
f 344 345 346
f 344 346 347
f 345 348 349
f 345 349 346
f 350 351 349
f 350 349 348
f 351 352 353
f 351 353 349
f 354 355 353
f 354 353 352
f 355 347 346
f 355 346 353
f 346 349 353
f 356 357 358
f 356 358 359
f 357 360 361
f 357 361 358
f 362 363 361
f 362 361 360
f 363 364 365
f 363 365 361
f 366 367 365
f 366 365 364
f 367 359 358
f 367 358 365
f 358 361 365
f 368 369 370
f 368 370 371
f 369 372 373
f 369 373 370
f 374 375 373
f 374 373 372
f 375 376 377
f 375 377 373
f 378 379 377
f 378 377 376
f 379 371 370
f 379 370 377
f 370 373 377
f 380 381 382
f 380 382 383
f 381 384 385
f 381 385 382
f 386 387 385
f 386 385 384
f 387 388 389
f 387 389 385
f 390 391 389
f 390 389 388
f 391 383 382
f 391 382 389
f 382 385 389
f 392 393 394
f 392 394 395
f 393 396 397
f 393 397 394
f 398 399 397
f 398 397 396
f 399 400 401
f 399 401 397
f 402 403 401
f 402 401 400
f 403 404 405
f 403 405 401
f 406 407 405
f 406 405 404
f 407 395 394
f 407 394 405
f 394 397 401
f 394 401 405
f 408 409 410
f 408 410 411
f 409 412 413
f 409 413 410
f 414 415 413
f 414 413 412
f 415 416 417
f 415 417 413
f 418 419 417
f 418 417 416
f 419 411 410
f 419 410 417
f 410 413 417
f 420 421 422
f 420 422 423
f 421 424 425
f 421 425 422
f 426 427 425
f 426 425 424
f 427 428 429
f 427 429 425
f 430 431 429
f 430 429 428
f 431 423 422
f 431 422 429
f 422 425 429
f 432 433 434
f 432 434 435
f 433 436 437
f 433 437 434
f 438 439 437
f 438 437 436
f 439 440 441
f 439 441 437
f 442 443 441
f 442 441 440
f 443 444 445
f 443 445 441
f 446 447 445
f 446 445 444
f 447 435 434
f 447 434 445
f 434 437 441
f 434 441 445
f 448 449 450
f 448 450 451
f 449 452 453
f 449 453 450
f 454 455 453
f 454 453 452
f 455 456 457
f 455 457 453
f 458 459 457
f 458 457 456
f 459 451 450
f 459 450 457
f 450 453 457
f 460 461 462
f 460 462 463
f 461 464 465
f 461 465 462
f 466 467 465
f 466 465 464
f 467 468 469
f 467 469 465
f 470 471 469
f 470 469 468
f 471 463 462
f 471 462 469
f 462 465 469
f 472 473 474
f 472 474 475
f 473 476 477
f 473 477 474
f 478 479 477
f 478 477 476
f 479 480 481
f 479 481 477
f 482 483 481
f 482 481 480
f 483 475 474
f 483 474 481
f 474 477 481
f 484 485 486
f 484 486 487
f 485 488 489
f 485 489 486
f 490 491 489
f 490 489 488
f 491 492 493
f 491 493 489
f 494 495 493
f 494 493 492
f 495 487 486
f 495 486 493
f 486 489 493
f 496 497 498
f 496 498 499
f 497 500 501
f 497 501 498
f 502 503 501
f 502 501 500
f 503 504 505
f 503 505 501
f 506 507 505
f 506 505 504
f 507 499 498
f 507 498 505
f 498 501 505
f 508 509 510
f 508 510 511
f 509 512 513
f 509 513 510
f 514 515 513
f 514 513 512
f 515 516 517
f 515 517 513
f 518 519 517
f 518 517 516
f 519 511 510
f 519 510 517
f 510 513 517
f 520 521 522
f 520 522 523
f 521 524 525
f 521 525 522
f 526 527 525
f 526 525 524
f 527 528 529
f 527 529 525
f 530 531 529
f 530 529 528
f 531 523 522
f 531 522 529
f 522 525 529
f 532 533 534
f 532 534 535
f 533 536 537
f 533 537 534
f 538 539 537
f 538 537 536
f 539 540 541
f 539 541 537
f 542 543 541
f 542 541 540
f 543 535 534
f 543 534 541
f 534 537 541
f 544 545 546
f 544 546 547
f 545 548 549
f 545 549 546
f 550 551 549
f 550 549 548
f 551 552 553
f 551 553 549
f 554 555 553
f 554 553 552
f 555 547 546
f 555 546 553
f 546 549 553
f 556 557 558
f 556 558 559
f 557 560 561
f 557 561 558
f 562 563 561
f 562 561 560
f 563 564 565
f 563 565 561
f 566 567 565
f 566 565 564
f 567 559 558
f 567 558 565
f 558 561 565
f 568 569 570
f 568 570 571
f 569 572 573
f 569 573 570
f 574 575 573
f 574 573 572
f 575 576 577
f 575 577 573
f 578 579 577
f 578 577 576
f 579 580 581
f 579 581 577
f 582 583 581
f 582 581 580
f 583 571 570
f 583 570 581
f 570 573 577
f 570 577 581
f 584 585 586
f 584 586 587
f 585 588 589
f 585 589 586
f 590 591 589
f 590 589 588
f 591 592 593
f 591 593 589
f 594 595 593
f 594 593 592
f 595 587 586
f 595 586 593
f 586 589 593
f 596 597 598
f 596 598 599
f 597 600 601
f 597 601 598
f 602 603 601
f 602 601 600
f 603 604 605
f 603 605 601
f 606 607 605
f 606 605 604
f 607 599 598
f 607 598 605
f 598 601 605
f 608 609 610
f 608 610 611
f 609 612 613
f 609 613 610
f 614 615 613
f 614 613 612
f 615 616 617
f 615 617 613
f 618 619 617
f 618 617 616
f 619 620 621
f 619 621 617
f 622 623 621
f 622 621 620
f 623 611 610
f 623 610 621
f 610 613 617
f 610 617 621
f 624 625 626
f 624 626 627
f 625 628 629
f 625 629 626
f 630 631 629
f 630 629 628
f 631 632 633
f 631 633 629
f 634 635 633
f 634 633 632
f 635 627 626
f 635 626 633
f 626 629 633
f 636 637 638
f 636 638 639
f 637 640 641
f 637 641 638
f 642 643 641
f 642 641 640
f 643 644 645
f 643 645 641
f 646 647 645
f 646 645 644
f 647 639 638
f 647 638 645
f 638 641 645
f 648 649 650
f 648 650 651
f 649 652 653
f 649 653 650
f 654 655 653
f 654 653 652
f 655 656 657
f 655 657 653
f 658 659 657
f 658 657 656
f 659 651 650
f 659 650 657
f 650 653 657
f 660 661 662
f 660 662 663
f 661 664 665
f 661 665 662
f 666 667 665
f 666 665 664
f 667 668 669
f 667 669 665
f 670 671 669
f 670 669 668
f 671 663 662
f 671 662 669
f 662 665 669
f 672 673 674
f 672 674 675
f 673 676 677
f 673 677 674
f 678 679 677
f 678 677 676
f 679 680 681
f 679 681 677
f 682 683 681
f 682 681 680
f 683 675 674
f 683 674 681
f 674 677 681
f 684 685 686
f 684 686 687
f 685 688 689
f 685 689 686
f 690 691 689
f 690 689 688
f 691 692 693
f 691 693 689
f 694 695 693
f 694 693 692
f 695 687 686
f 695 686 693
f 686 689 693
f 696 697 698
f 696 698 699
f 697 700 701
f 697 701 698
f 702 703 701
f 702 701 700
f 703 704 705
f 703 705 701
f 706 707 705
f 706 705 704
f 707 699 698
f 707 698 705
f 698 701 705
f 708 709 710
f 708 710 711
f 709 712 713
f 709 713 710
f 714 715 713
f 714 713 712
f 715 716 717
f 715 717 713
f 718 719 717
f 718 717 716
f 719 711 710
f 719 710 717
f 710 713 717
f 94 720 721
f 94 721 95
f 95 721 722
f 95 722 83
f 83 722 723
f 83 723 80
f 80 46 44
f 80 44 81
f 81 44 41
f 81 41 84
f 84 41 40
f 84 40 86
f 50 34 32
f 50 32 51
f 51 32 29
f 51 29 52
f 52 29 28
f 52 28 54
f 26 94 92
f 26 92 27
f 27 92 91
f 27 91 19
f 19 91 90
f 19 90 16
f 724 38 36
f 724 36 725
f 725 36 35
f 725 35 726
f 726 35 34
f 726 34 727
f 728 26 24
f 728 24 729
f 729 24 23
f 729 23 730
f 730 23 22
f 730 22 731
f 732 50 48
f 732 48 733
f 733 48 47
f 733 47 734
f 734 47 46
f 734 46 735
f 68 56 59
f 68 59 69
f 69 59 67
f 69 67 72
f 72 67 66
f 72 66 74
f 62 28 31
f 62 31 63
f 63 31 39
f 63 39 64
f 64 39 38
f 64 38 66
f 74 22 20
f 74 20 75
f 75 20 17
f 75 17 76
f 76 17 16
f 76 16 78
f 736 102 100
f 736 100 737
f 737 100 97
f 737 97 738
f 738 97 96
f 738 96 739
f 102 114 112
f 102 112 103
f 103 112 109
f 103 109 104
f 104 109 108
f 104 108 106
f 114 740 741
f 114 741 115
f 115 741 742
f 115 742 116
f 116 742 743
f 116 743 118
f 154 96 99
f 154 99 155
f 155 99 107
f 155 107 147
f 147 107 106
f 147 106 144
f 118 156 159
f 118 159 119
f 119 159 167
f 119 167 111
f 111 167 166
f 111 166 108
f 744 126 124
f 744 124 745
f 745 124 121
f 745 121 746
f 746 121 120
f 746 120 747
f 126 138 136
f 126 136 127
f 127 136 133
f 127 133 128
f 128 133 132
f 128 132 130
f 138 748 749
f 138 749 139
f 139 749 750
f 139 750 140
f 140 750 751
f 140 751 142
f 752 154 152
f 752 152 753
f 753 152 151
f 753 151 754
f 754 151 150
f 754 150 755
f 144 166 164
f 144 164 145
f 145 164 163
f 145 163 148
f 148 163 162
f 148 162 150
f 156 756 757
f 156 757 157
f 157 757 758
f 157 758 160
f 160 758 759
f 160 759 162
f 130 723 722
f 130 722 131
f 131 722 721
f 131 721 123
f 123 721 720
f 123 720 120
f 142 732 733
f 142 733 143
f 143 733 734
f 143 734 135
f 135 734 735
f 135 735 132
f 86 186 184
f 86 184 87
f 87 184 181
f 87 181 88
f 88 181 180
f 88 180 90
f 54 174 172
f 54 172 55
f 55 172 169
f 55 169 43
f 43 169 168
f 43 168 40
f 174 62 60
f 174 60 175
f 175 60 57
f 175 57 176
f 176 57 56
f 176 56 178
f 178 190 188
f 178 188 179
f 179 188 187
f 179 187 171
f 171 187 186
f 171 186 168
f 190 68 71
f 190 71 191
f 191 71 79
f 191 79 183
f 183 79 78
f 183 78 180
f 270 760 761
f 270 761 271
f 271 761 762
f 271 762 259
f 259 762 763
f 259 763 256
f 266 216 219
f 266 219 267
f 267 219 231
f 267 231 268
f 268 231 230
f 268 230 270
f 222 204 207
f 222 207 223
f 223 207 215
f 223 215 224
f 224 215 214
f 224 214 226
f 192 262 260
f 192 260 193
f 193 260 257
f 193 257 196
f 196 257 256
f 196 256 198
f 727 214 212
f 727 212 726
f 726 212 211
f 726 211 725
f 725 211 210
f 725 210 724
f 764 202 200
f 764 200 765
f 765 200 199
f 765 199 766
f 766 199 198
f 766 198 767
f 768 230 228
f 768 228 769
f 769 228 227
f 769 227 770
f 770 227 226
f 770 226 771
f 254 238 236
f 254 236 255
f 255 236 233
f 255 233 247
f 247 233 232
f 247 232 244
f 238 210 208
f 238 208 239
f 239 208 205
f 239 205 240
f 240 205 204
f 240 204 242
f 250 192 195
f 250 195 251
f 251 195 203
f 251 203 252
f 252 203 202
f 252 202 254
f 772 272 275
f 772 275 773
f 773 275 283
f 773 283 774
f 774 283 282
f 774 282 775
f 278 284 287
f 278 287 279
f 279 287 295
f 279 295 280
f 280 295 294
f 280 294 282
f 290 743 742
f 290 742 291
f 291 742 741
f 291 741 292
f 292 741 740
f 292 740 294
f 320 278 276
f 320 276 321
f 321 276 273
f 321 273 324
f 324 273 272
f 324 272 326
f 284 338 336
f 284 336 285
f 285 336 333
f 285 333 288
f 288 333 332
f 288 332 290
f 776 296 299
f 776 299 777
f 777 299 307
f 777 307 778
f 778 307 306
f 778 306 779
f 302 308 311
f 302 311 303
f 303 311 319
f 303 319 304
f 304 319 318
f 304 318 306
f 314 751 750
f 314 750 315
f 315 750 749
f 315 749 316
f 316 749 748
f 316 748 318
f 780 330 328
f 780 328 781
f 781 328 327
f 781 327 782
f 782 327 326
f 782 326 783
f 330 342 340
f 330 340 331
f 331 340 339
f 331 339 323
f 323 339 338
f 323 338 320
f 342 759 758
f 342 758 343
f 343 758 757
f 343 757 335
f 335 757 756
f 335 756 332
f 296 763 762
f 296 762 297
f 297 762 761
f 297 761 300
f 300 761 760
f 300 760 302
f 308 768 769
f 308 769 309
f 309 769 770
f 309 770 312
f 312 770 771
f 312 771 314
f 262 356 359
f 262 359 263
f 263 359 367
f 263 367 264
f 264 367 366
f 264 366 266
f 216 344 347
f 216 347 217
f 217 347 355
f 217 355 220
f 220 355 354
f 220 354 222
f 350 232 235
f 350 235 351
f 351 235 243
f 351 243 352
f 352 243 242
f 352 242 354
f 344 366 364
f 344 364 345
f 345 364 363
f 345 363 348
f 348 363 362
f 348 362 350
f 356 250 248
f 356 248 357
f 357 248 245
f 357 245 360
f 360 245 244
f 360 244 362
f 446 784 785
f 446 785 447
f 447 785 786
f 447 786 435
f 435 786 787
f 435 787 432
f 442 392 395
f 442 395 443
f 443 395 407
f 443 407 444
f 444 407 406
f 444 406 446
f 398 380 383
f 398 383 399
f 399 383 391
f 399 391 400
f 400 391 390
f 400 390 402
f 368 438 436
f 368 436 369
f 369 436 433
f 369 433 372
f 372 433 432
f 372 432 374
f 788 390 388
f 788 388 789
f 789 388 387
f 789 387 790
f 790 387 386
f 790 386 791
f 731 378 376
f 731 376 730
f 730 376 375
f 730 375 729
f 729 375 374
f 729 374 728
f 792 406 404
f 792 404 793
f 793 404 403
f 793 403 794
f 794 403 402
f 794 402 795
f 430 414 412
f 430 412 431
f 431 412 409
f 431 409 423
f 423 409 408
f 423 408 420
f 414 386 384
f 414 384 415
f 415 384 381
f 415 381 416
f 416 381 380
f 416 380 418
f 426 368 371
f 426 371 427
f 427 371 379
f 427 379 428
f 428 379 378
f 428 378 430
f 739 448 451
f 739 451 738
f 738 451 459
f 738 459 737
f 737 459 458
f 737 458 736
f 454 460 463
f 454 463 455
f 455 463 471
f 455 471 456
f 456 471 470
f 456 470 458
f 466 796 797
f 466 797 467
f 467 797 798
f 467 798 468
f 468 798 799
f 468 799 470
f 496 454 452
f 496 452 497
f 497 452 449
f 497 449 500
f 500 449 448
f 500 448 502
f 460 514 512
f 460 512 461
f 461 512 509
f 461 509 464
f 464 509 508
f 464 508 466
f 747 472 475
f 747 475 746
f 746 475 483
f 746 483 745
f 745 483 482
f 745 482 744
f 478 484 487
f 478 487 479
f 479 487 495
f 479 495 480
f 480 495 494
f 480 494 482
f 490 800 801
f 490 801 491
f 491 801 802
f 491 802 492
f 492 802 803
f 492 803 494
f 755 506 504
f 755 504 754
f 754 504 503
f 754 503 753
f 753 503 502
f 753 502 752
f 506 518 516
f 506 516 507
f 507 516 515
f 507 515 499
f 499 515 514
f 499 514 496
f 518 804 805
f 518 805 519
f 519 805 806
f 519 806 511
f 511 806 807
f 511 807 508
f 472 787 786
f 472 786 473
f 473 786 785
f 473 785 476
f 476 785 784
f 476 784 478
f 484 792 793
f 484 793 485
f 485 793 794
f 485 794 488
f 488 794 795
f 488 795 490
f 438 532 535
f 438 535 439
f 439 535 543
f 439 543 440
f 440 543 542
f 440 542 442
f 392 520 523
f 392 523 393
f 393 523 531
f 393 531 396
f 396 531 530
f 396 530 398
f 526 408 411
f 526 411 527
f 527 411 419
f 527 419 528
f 528 419 418
f 528 418 530
f 520 542 540
f 520 540 521
f 521 540 539
f 521 539 524
f 524 539 538
f 524 538 526
f 532 426 424
f 532 424 533
f 533 424 421
f 533 421 536
f 536 421 420
f 536 420 538
f 622 808 809
f 622 809 623
f 623 809 810
f 623 810 611
f 611 810 811
f 611 811 608
f 608 574 572
f 608 572 609
f 609 572 569
f 609 569 612
f 612 569 568
f 612 568 614
f 578 562 560
f 578 560 579
f 579 560 557
f 579 557 580
f 580 557 556
f 580 556 582
f 554 622 620
f 554 620 555
f 555 620 619
f 555 619 547
f 547 619 618
f 547 618 544
f 791 566 564
f 791 564 790
f 790 564 563
f 790 563 789
f 789 563 562
f 789 562 788
f 767 554 552
f 767 552 766
f 766 552 551
f 766 551 765
f 765 551 550
f 765 550 764
f 812 578 576
f 812 576 813
f 813 576 575
f 813 575 814
f 814 575 574
f 814 574 815
f 596 584 587
f 596 587 597
f 597 587 595
f 597 595 600
f 600 595 594
f 600 594 602
f 590 556 559
f 590 559 591
f 591 559 567
f 591 567 592
f 592 567 566
f 592 566 594
f 602 550 548
f 602 548 603
f 603 548 545
f 603 545 604
f 604 545 544
f 604 544 606
f 775 630 628
f 775 628 774
f 774 628 625
f 774 625 773
f 773 625 624
f 773 624 772
f 630 642 640
f 630 640 631
f 631 640 637
f 631 637 632
f 632 637 636
f 632 636 634
f 642 799 798
f 642 798 643
f 643 798 797
f 643 797 644
f 644 797 796
f 644 796 646
f 682 624 627
f 682 627 683
f 683 627 635
f 683 635 675
f 675 635 634
f 675 634 672
f 646 684 687
f 646 687 647
f 647 687 695
f 647 695 639
f 639 695 694
f 639 694 636
f 779 654 652
f 779 652 778
f 778 652 649
f 778 649 777
f 777 649 648
f 777 648 776
f 654 666 664
f 654 664 655
f 655 664 661
f 655 661 656
f 656 661 660
f 656 660 658
f 666 803 802
f 666 802 667
f 667 802 801
f 667 801 668
f 668 801 800
f 668 800 670
f 783 682 680
f 783 680 782
f 782 680 679
f 782 679 781
f 781 679 678
f 781 678 780
f 672 694 692
f 672 692 673
f 673 692 691
f 673 691 676
f 676 691 690
f 676 690 678
f 684 807 806
f 684 806 685
f 685 806 805
f 685 805 688
f 688 805 804
f 688 804 690
f 658 811 810
f 658 810 659
f 659 810 809
f 659 809 651
f 651 809 808
f 651 808 648
f 670 812 813
f 670 813 671
f 671 813 814
f 671 814 663
f 663 814 815
f 663 815 660
f 614 714 712
f 614 712 615
f 615 712 709
f 615 709 616
f 616 709 708
f 616 708 618
f 582 702 700
f 582 700 583
f 583 700 697
f 583 697 571
f 571 697 696
f 571 696 568
f 702 590 588
f 702 588 703
f 703 588 585
f 703 585 704
f 704 585 584
f 704 584 706
f 706 718 716
f 706 716 707
f 707 716 715
f 707 715 699
f 699 715 714
f 699 714 696
f 718 596 599
f 718 599 719
f 719 599 607
f 719 607 711
f 711 607 606
f 711 606 708
f 728 374 432
f 728 432 816
f 728 816 94
f 728 94 26
f 378 731 817
f 378 817 430
f 22 74 817
f 22 817 731
f 818 736 458
f 818 458 470
f 818 114 102
f 818 102 736
f 739 752 502
f 739 502 448
f 739 96 154
f 739 154 752
f 755 744 482
f 755 482 506
f 755 150 126
f 755 126 744
f 787 472 747
f 787 747 819
f 720 819 747
f 720 747 120
f 214 727 820
f 214 820 226
f 821 66 38
f 821 38 724
f 34 50 820
f 34 820 727
f 821 724 210
f 821 210 238
f 740 822 823
f 740 823 294
f 118 743 756
f 118 756 156
f 740 114 818
f 740 818 822
f 290 332 756
f 290 756 743
f 342 318 748
f 342 748 759
f 824 732 142
f 824 142 751
f 162 759 748
f 162 748 138
f 824 751 314
f 824 314 771
f 16 90 180
f 16 180 78
f 28 62 174
f 28 174 54
f 186 86 40
f 186 40 168
f 46 80 723
f 46 723 735
f 820 50 732
f 820 732 824
f 68 190 178
f 68 178 56
f 825 74 66
f 825 66 821
f 826 817 74
f 826 74 825
f 94 816 819
f 94 819 720
f 106 108 166
f 106 166 144
f 735 723 130
f 735 130 132
f 150 162 138
f 150 138 126
f 767 827 622
f 767 622 554
f 202 764 828
f 202 828 254
f 767 198 256
f 767 256 827
f 550 602 828
f 550 828 764
f 823 642 630
f 823 630 775
f 772 783 326
f 772 326 272
f 823 775 282
f 823 282 294
f 772 624 682
f 772 682 783
f 780 678 654
f 780 654 779
f 763 296 776
f 763 776 829
f 780 779 306
f 780 306 330
f 808 829 776
f 808 776 648
f 192 250 356
f 192 356 262
f 204 222 354
f 204 354 242
f 366 344 216
f 366 216 266
f 820 824 771
f 820 771 226
f 230 768 760
f 230 760 270
f 244 232 350
f 244 350 362
f 825 821 238
f 825 238 254
f 826 825 254
f 826 254 828
f 256 763 829
f 256 829 827
f 278 320 338
f 278 338 284
f 768 308 302
f 768 302 760
f 330 306 318
f 330 318 342
f 562 578 830
f 562 830 788
f 390 788 830
f 390 830 402
f 831 594 566
f 831 566 791
f 831 791 386
f 831 386 414
f 799 642 823
f 799 823 822
f 799 822 818
f 799 818 470
f 646 796 807
f 646 807 684
f 466 508 807
f 466 807 796
f 690 804 803
f 690 803 666
f 518 494 803
f 518 803 804
f 832 812 670
f 832 670 800
f 832 800 490
f 832 490 795
f 368 426 532
f 368 532 438
f 380 398 530
f 380 530 418
f 542 520 392
f 542 392 442
f 830 832 795
f 830 795 402
f 406 792 784
f 406 784 446
f 420 408 526
f 420 526 538
f 833 831 414
f 833 414 430
f 826 833 430
f 826 430 817
f 432 787 819
f 432 819 816
f 454 496 514
f 454 514 460
f 792 484 478
f 792 478 784
f 506 482 494
f 506 494 518
f 544 618 708
f 544 708 606
f 556 590 702
f 556 702 582
f 714 614 568
f 714 568 696
f 574 608 811
f 574 811 815
f 830 578 812
f 830 812 832
f 596 718 706
f 596 706 584
f 833 602 594
f 833 594 831
f 826 828 602
f 826 602 833
f 622 827 829
f 622 829 808
f 634 636 694
f 634 694 672
f 815 811 658
f 815 658 660
f 678 690 666
f 678 666 654
