# Converted from a binary STL for the private Down Range Unity tactical resolver.
# Source: MOUT Medium Roof.stl
o MOUT Medium Roof
v 7.985858 0.020000 4.485858
v 7.981576 0.010217 4.477410
v 7.990910 0.010550 4.484277
v 7.993027 0.020000 4.489845
v 7.979446 0.002946 4.464998
v 7.989650 0.005165 4.475014
v 7.980000 0.000000 4.451716
v 7.989783 0.002946 4.460716
v 7.997054 0.010217 4.470999
v 7.995309 0.010550 4.482455
v 8.000000 0.020000 4.480000
v 7.997749 0.020000 4.487888
v 7.485858 0.020000 4.985858
v 7.489845 0.020000 4.993027
v 7.484277 0.010550 4.990910
v 7.477410 0.010217 4.981577
v 7.487888 0.020000 4.997749
v 7.482455 0.010550 4.995309
v 7.480000 0.020000 5.000000
v 7.470999 0.010217 4.997054
v 7.460716 0.002946 4.989783
v 7.475013 0.005164 4.989650
v 7.451716 0.000000 4.980000
v 7.464998 0.002946 4.979446
v 7.497387 0.500000 4.974329
v 7.505162 0.502967 4.980434
v 7.498331 0.500037 4.986945
v 7.491771 0.497082 4.979945
v 7.511209 0.510184 4.984595
v 7.502336 0.505626 4.991228
v 7.514142 0.520000 4.985858
v 7.504310 0.513655 4.992760
v 7.491833 0.506346 4.997928
v 7.494449 0.499902 4.995681
v 7.480000 0.500000 5.000000
v 7.487761 0.493541 4.997864
v 7.489836 0.486459 4.992855
v 7.493060 0.494502 4.991162
v 7.485858 0.480000 4.985858
v 7.487593 0.489879 4.984123
v 7.019849 0.019245 4.487850
v 7.014426 0.020552 4.498191
v 7.005280 0.010667 4.499283
v 7.006326 0.009849 4.493465
v 7.014030 0.020820 4.509332
v 7.005215 0.010780 4.504736
v 7.018697 0.020000 4.518697
v 7.006190 0.010231 4.510342
v 6.989055 0.002937 4.503523
v 6.996951 0.005131 4.501044
v 6.971716 0.000000 4.500000
v 6.988755 0.002823 4.497900
v 7.487809 0.019245 4.019889
v 7.493437 0.009849 4.006353
v 7.499269 0.010669 4.005293
v 7.498172 0.020554 4.014447
v 7.497887 0.002823 3.988767
v 7.501037 0.005131 3.996958
v 7.500000 0.000000 3.971716
v 7.503523 0.002937 3.989054
v 7.510342 0.010231 4.006190
v 7.504731 0.010781 4.005220
v 7.518697 0.020000 4.018697
v 7.509328 0.020822 4.014037
v 7.985858 0.520000 4.514142
v 7.984622 0.510184 4.511182
v 7.991242 0.505626 4.502323
v 7.992760 0.513655 4.504310
v 7.980492 0.502967 4.505105
v 7.986971 0.500038 4.498305
v 7.974413 0.500000 4.497303
v 7.979987 0.497084 4.491729
v 7.984135 0.489880 4.487580
v 7.991171 0.494504 4.493052
v 7.985858 0.480000 4.485858
v 7.992856 0.486458 4.489835
v 7.997864 0.493541 4.487761
v 7.995685 0.499902 4.494444
v 8.000000 0.500000 4.480000
v 7.997928 0.506346 4.491834
v 7.500000 1.020000 4.272894
v 7.497044 1.010201 4.278322
v 7.495746 1.010503 4.287331
v 7.497926 1.020000 4.284731
v 7.489799 1.002956 4.284491
v 7.491327 1.005151 4.291230
v 7.480000 1.000000 4.289919
v 7.484009 1.002914 4.297094
v 7.486142 1.010126 4.303298
v 7.492279 1.010439 4.295283
v 7.485858 1.020000 4.307035
v 7.492761 1.020000 4.297200
v 7.307036 1.020000 4.485858
v 7.304330 1.010120 4.485136
v 7.295856 1.010433 4.491734
v 7.297200 1.020000 4.492762
v 7.299206 1.002914 4.482006
v 7.292289 1.005167 4.490358
v 7.292893 1.000000 4.477238
v 7.286044 1.002982 4.488434
v 7.278792 1.010249 4.496673
v 7.287730 1.010543 4.495399
v 7.272894 1.020000 4.500000
v 7.284731 1.020000 4.497926
v 8.000000 1.480000 4.480000
v 7.997039 1.489807 4.483740
v 7.995761 1.489503 4.493465
v 7.997926 1.480000 4.491837
v 7.989806 1.497039 4.487976
v 7.991433 1.494818 4.496452
v 7.980000 1.500000 4.491716
v 7.984290 1.497039 4.501295
v 7.986409 1.489807 4.509404
v 7.992381 1.489503 4.501624
v 7.985858 1.480000 4.514142
v 7.992761 1.480000 4.504307
v 7.514142 1.480000 4.985858
v 7.509404 1.489807 4.986408
v 7.501624 1.489503 4.992382
v 7.504307 1.480000 4.992762
v 7.501295 1.497039 4.984290
v 7.496452 1.494818 4.991434
v 7.491716 1.500000 4.980000
v 7.487977 1.497039 4.989806
v 7.483740 1.489806 4.997038
v 7.493465 1.489503 4.995761
v 7.480000 1.480000 5.000000
v 7.491837 1.480000 4.997926
v 7.485858 1.480000 4.307035
v 7.494305 1.489783 4.302754
v 7.497796 1.489485 4.295932
v 7.492761 1.480000 4.297200
v 7.506718 1.497054 4.300624
v 7.503513 1.494836 4.294349
v 7.520000 1.500000 4.301178
v 7.510217 1.497054 4.292177
v 7.502946 1.489783 4.281894
v 7.500590 1.489485 4.289186
v 7.500000 1.480000 4.272894
v 7.497926 1.480000 4.284731
v 7.272894 1.480000 4.500000
v 7.281895 1.489783 4.502946
v 7.289186 1.489485 4.500590
v 7.284731 1.480000 4.497927
v 7.292177 1.497054 4.510217
v 7.294349 1.494836 4.503513
v 7.301177 1.500000 4.520000
v 7.300624 1.497055 4.506718
v 7.302753 1.489783 4.494305
v 7.295931 1.489485 4.497795
v 7.307036 1.480000 4.485858
v 7.297200 1.480000 4.492762
v -7.985858 0.020000 4.485858
v -7.993027 0.020000 4.489845
v -7.990910 0.010550 4.484278
v -7.981576 0.010217 4.477410
v -7.997749 0.020000 4.487888
v -7.995309 0.010550 4.482455
v -8.000000 0.020000 4.480000
v -7.997054 0.010217 4.470999
v -7.989783 0.002946 4.460716
v -7.989650 0.005165 4.475013
v -7.980000 0.000000 4.451716
v -7.979446 0.002946 4.464998
v -7.485858 0.020000 4.985858
v -7.477411 0.010217 4.981577
v -7.484277 0.010550 4.990910
v -7.489845 0.020000 4.993027
v -7.464998 0.002946 4.979446
v -7.475013 0.005164 4.989650
v -7.451716 0.000000 4.980000
v -7.460717 0.002946 4.989783
v -7.470999 0.010217 4.997054
v -7.482455 0.010550 4.995309
v -7.480000 0.020000 5.000000
v -7.487888 0.020000 4.997749
v -7.497387 0.500000 4.974329
v -7.491771 0.497082 4.979945
v -7.498330 0.500037 4.986945
v -7.505162 0.502967 4.980434
v -7.487593 0.489879 4.984123
v -7.493060 0.494502 4.991162
v -7.485858 0.480000 4.985858
v -7.489836 0.486459 4.992856
v -7.487761 0.493541 4.997864
v -7.494449 0.499902 4.995681
v -7.480000 0.500000 5.000000
v -7.491833 0.506346 4.997928
v -7.504310 0.513655 4.992760
v -7.502337 0.505626 4.991229
v -7.514142 0.520000 4.985858
v -7.511209 0.510184 4.984595
v -7.019849 0.019245 4.487850
v -7.006326 0.009848 4.493465
v -7.005280 0.010667 4.499283
v -7.014426 0.020552 4.498191
v -6.988754 0.002823 4.497900
v -6.996951 0.005131 4.501044
v -6.971716 0.000000 4.500000
v -6.989054 0.002937 4.503523
v -7.006190 0.010231 4.510342
v -7.005215 0.010780 4.504736
v -7.018697 0.020000 4.518697
v -7.014030 0.020820 4.509332
v -7.487809 0.019245 4.019889
v -7.498172 0.020554 4.014447
v -7.499268 0.010669 4.005293
v -7.493438 0.009849 4.006354
v -7.509328 0.020822 4.014037
v -7.504731 0.010781 4.005220
v -7.518697 0.020000 4.018697
v -7.510342 0.010231 4.006190
v -7.503523 0.002937 3.989054
v -7.501037 0.005131 3.996959
v -7.500000 0.000000 3.971716
v -7.497888 0.002823 3.988767
v -8.000000 0.500000 4.480000
v -7.997863 0.493541 4.487761
v -7.995685 0.499902 4.494444
v -7.997928 0.506346 4.491833
v -7.992856 0.486458 4.489835
v -7.991171 0.494503 4.493053
v -7.985858 0.480000 4.485858
v -7.984135 0.489880 4.487580
v -7.979987 0.497084 4.491729
v -7.986971 0.500038 4.498304
v -7.974413 0.500000 4.497303
v -7.980492 0.502967 4.505105
v -7.984622 0.510184 4.511182
v -7.991242 0.505626 4.502323
v -7.985858 0.520000 4.514142
v -7.992760 0.513655 4.504310
v -7.500000 1.020000 4.272894
v -7.497926 1.020000 4.284731
v -7.495746 1.010503 4.287331
v -7.497044 1.010201 4.278323
v -7.492761 1.020000 4.297200
v -7.492279 1.010439 4.295284
v -7.485858 1.020000 4.307035
v -7.486142 1.010126 4.303299
v -7.484009 1.002914 4.297094
v -7.491328 1.005151 4.291230
v -7.480000 1.000000 4.289919
v -7.489799 1.002956 4.284491
v -7.307036 1.020000 4.485858
v -7.297200 1.020000 4.492762
v -7.295856 1.010433 4.491734
v -7.304330 1.010120 4.485136
v -7.284731 1.020000 4.497927
v -7.287730 1.010543 4.495399
v -7.272894 1.020000 4.500000
v -7.278792 1.010249 4.496672
v -7.286043 1.002982 4.488434
v -7.292289 1.005167 4.490358
v -7.292893 1.000000 4.477238
v -7.299206 1.002914 4.482006
v -8.000000 1.480000 4.480000
v -7.997926 1.480000 4.491837
v -7.995761 1.489503 4.493465
v -7.997039 1.489806 4.483740
v -7.992761 1.480000 4.504307
v -7.992381 1.489503 4.501624
v -7.985858 1.480000 4.514142
v -7.986409 1.489807 4.509404
v -7.984290 1.497039 4.501295
v -7.991433 1.494818 4.496452
v -7.980000 1.500000 4.491716
v -7.989806 1.497039 4.487976
v -7.514142 1.480000 4.985858
v -7.504306 1.480000 4.992762
v -7.501624 1.489503 4.992382
v -7.509404 1.489807 4.986409
v -7.491837 1.480000 4.997927
v -7.493465 1.489503 4.995761
v -7.480000 1.480000 5.000000
v -7.483740 1.489807 4.997038
v -7.487976 1.497039 4.989806
v -7.496452 1.494818 4.991434
v -7.491716 1.500000 4.980000
v -7.501295 1.497039 4.984290
v -7.485858 1.480000 4.307035
v -7.492761 1.480000 4.297200
v -7.497796 1.489485 4.295932
v -7.494305 1.489783 4.302754
v -7.497926 1.480000 4.284731
v -7.500590 1.489485 4.289187
v -7.500000 1.480000 4.272894
v -7.502946 1.489783 4.281895
v -7.510217 1.497055 4.292177
v -7.503513 1.494836 4.294349
v -7.520000 1.500000 4.301178
v -7.506718 1.497055 4.300624
v -7.272894 1.480000 4.500000
v -7.284731 1.480000 4.497926
v -7.289186 1.489485 4.500590
v -7.281895 1.489783 4.502946
v -7.297200 1.480000 4.492762
v -7.295932 1.489485 4.497795
v -7.307036 1.480000 4.485858
v -7.302754 1.489783 4.494305
v -7.300624 1.497054 4.506718
v -7.294348 1.494836 4.503513
v -7.301177 1.500000 4.520000
v -7.292177 1.497054 4.510217
v 7.985858 0.020000 -4.485858
v 7.993027 0.020000 -4.489845
v 7.990910 0.010550 -4.484278
v 7.981576 0.010217 -4.477410
v 7.997749 0.020000 -4.487888
v 7.995309 0.010550 -4.482455
v 8.000000 0.020000 -4.480000
v 7.997054 0.010217 -4.470999
v 7.989783 0.002946 -4.460716
v 7.989650 0.005165 -4.475013
v 7.980000 0.000000 -4.451716
v 7.979446 0.002946 -4.464998
v 7.485858 0.020000 -4.985858
v 7.477411 0.010217 -4.981577
v 7.484277 0.010550 -4.990910
v 7.489845 0.020000 -4.993027
v 7.464998 0.002946 -4.979446
v 7.475013 0.005164 -4.989650
v 7.451716 0.000000 -4.980000
v 7.460717 0.002946 -4.989783
v 7.470999 0.010217 -4.997054
v 7.482455 0.010550 -4.995309
v 7.480000 0.020000 -5.000000
v 7.487888 0.020000 -4.997749
v 7.497387 0.500000 -4.974329
v 7.491771 0.497082 -4.979945
v 7.498330 0.500037 -4.986945
v 7.505162 0.502967 -4.980434
v 7.487593 0.489879 -4.984123
v 7.493060 0.494502 -4.991162
v 7.485858 0.480000 -4.985858
v 7.489836 0.486459 -4.992856
v 7.487761 0.493541 -4.997864
v 7.494449 0.499902 -4.995681
v 7.480000 0.500000 -5.000000
v 7.491833 0.506346 -4.997928
v 7.504310 0.513655 -4.992760
v 7.502337 0.505626 -4.991229
v 7.514142 0.520000 -4.985858
v 7.511209 0.510184 -4.984595
v 7.019849 0.019245 -4.487850
v 7.006326 0.009848 -4.493465
v 7.005280 0.010667 -4.499283
v 7.014426 0.020552 -4.498191
v 6.988754 0.002823 -4.497900
v 6.996951 0.005131 -4.501044
v 6.971716 0.000000 -4.500000
v 6.989054 0.002937 -4.503523
v 7.006190 0.010231 -4.510342
v 7.005215 0.010780 -4.504736
v 7.018697 0.020000 -4.518697
v 7.014030 0.020820 -4.509332
v 7.487809 0.019245 -4.019889
v 7.498172 0.020554 -4.014447
v 7.499268 0.010669 -4.005293
v 7.493438 0.009849 -4.006354
v 7.509328 0.020822 -4.014037
v 7.504731 0.010781 -4.005220
v 7.518697 0.020000 -4.018697
v 7.510342 0.010231 -4.006190
v 7.503523 0.002937 -3.989054
v 7.501037 0.005131 -3.996959
v 7.500000 0.000000 -3.971716
v 7.497888 0.002823 -3.988767
v 8.000000 0.500000 -4.480000
v 7.997863 0.493541 -4.487761
v 7.995685 0.499902 -4.494444
v 7.997928 0.506346 -4.491833
v 7.992856 0.486458 -4.489835
v 7.991171 0.494503 -4.493053
v 7.985858 0.480000 -4.485858
v 7.984135 0.489880 -4.487580
v 7.979987 0.497084 -4.491729
v 7.986971 0.500038 -4.498304
v 7.974413 0.500000 -4.497303
v 7.980492 0.502967 -4.505105
v 7.984622 0.510184 -4.511182
v 7.991242 0.505626 -4.502323
v 7.985858 0.520000 -4.514142
v 7.992760 0.513655 -4.504310
v 7.500000 1.020000 -4.272894
v 7.497926 1.020000 -4.284731
v 7.495746 1.010503 -4.287331
v 7.497044 1.010201 -4.278323
v 7.492761 1.020000 -4.297200
v 7.492279 1.010439 -4.295284
v 7.485858 1.020000 -4.307035
v 7.486142 1.010126 -4.303299
v 7.484009 1.002914 -4.297094
v 7.491328 1.005151 -4.291230
v 7.480000 1.000000 -4.289919
v 7.489799 1.002956 -4.284491
v 7.307036 1.020000 -4.485858
v 7.297200 1.020000 -4.492762
v 7.295856 1.010433 -4.491734
v 7.304330 1.010120 -4.485136
v 7.284731 1.020000 -4.497927
v 7.287730 1.010543 -4.495399
v 7.272894 1.020000 -4.500000
v 7.278792 1.010249 -4.496672
v 7.286043 1.002982 -4.488434
v 7.292289 1.005167 -4.490358
v 7.292893 1.000000 -4.477238
v 7.299206 1.002914 -4.482006
v 8.000000 1.480000 -4.480000
v 7.997926 1.480000 -4.491837
v 7.995761 1.489503 -4.493465
v 7.997039 1.489806 -4.483740
v 7.992761 1.480000 -4.504307
v 7.992381 1.489503 -4.501624
v 7.985858 1.480000 -4.514142
v 7.986409 1.489807 -4.509404
v 7.984290 1.497039 -4.501295
v 7.991433 1.494818 -4.496452
v 7.980000 1.500000 -4.491716
v 7.989806 1.497039 -4.487976
v 7.514142 1.480000 -4.985858
v 7.504306 1.480000 -4.992762
v 7.501624 1.489503 -4.992382
v 7.509404 1.489807 -4.986409
v 7.491837 1.480000 -4.997927
v 7.493465 1.489503 -4.995761
v 7.480000 1.480000 -5.000000
v 7.483740 1.489807 -4.997038
v 7.487976 1.497039 -4.989806
v 7.496452 1.494818 -4.991434
v 7.491716 1.500000 -4.980000
v 7.501295 1.497039 -4.984290
v 7.485858 1.480000 -4.307035
v 7.492761 1.480000 -4.297200
v 7.497796 1.489485 -4.295932
v 7.494305 1.489783 -4.302754
v 7.497926 1.480000 -4.284731
v 7.500590 1.489485 -4.289187
v 7.500000 1.480000 -4.272894
v 7.502946 1.489783 -4.281895
v 7.510217 1.497055 -4.292177
v 7.503513 1.494836 -4.294349
v 7.520000 1.500000 -4.301178
v 7.506718 1.497055 -4.300624
v 7.272894 1.480000 -4.500000
v 7.284731 1.480000 -4.497926
v 7.289186 1.489485 -4.500590
v 7.281895 1.489783 -4.502946
v 7.297200 1.480000 -4.492762
v 7.295932 1.489485 -4.497795
v 7.307036 1.480000 -4.485858
v 7.302754 1.489783 -4.494305
v 7.300624 1.497054 -4.506718
v 7.294348 1.494836 -4.503513
v 7.301177 1.500000 -4.520000
v 7.292177 1.497054 -4.510217
v -7.985858 0.020000 -4.485858
v -7.981576 0.010217 -4.477410
v -7.990910 0.010550 -4.484277
v -7.993027 0.020000 -4.489845
v -7.979446 0.002946 -4.464998
v -7.989650 0.005165 -4.475014
v -7.980000 0.000000 -4.451716
v -7.989783 0.002946 -4.460716
v -7.997054 0.010217 -4.470999
v -7.995309 0.010550 -4.482455
v -8.000000 0.020000 -4.480000
v -7.997749 0.020000 -4.487888
v -7.485858 0.020000 -4.985858
v -7.489845 0.020000 -4.993027
v -7.484277 0.010550 -4.990910
v -7.477410 0.010217 -4.981577
v -7.487888 0.020000 -4.997749
v -7.482455 0.010550 -4.995309
v -7.480000 0.020000 -5.000000
v -7.470999 0.010217 -4.997054
v -7.460716 0.002946 -4.989783
v -7.475013 0.005164 -4.989650
v -7.451716 0.000000 -4.980000
v -7.464998 0.002946 -4.979446
v -7.497387 0.500000 -4.974329
v -7.505162 0.502967 -4.980434
v -7.498331 0.500037 -4.986945
v -7.491771 0.497082 -4.979945
v -7.511209 0.510184 -4.984595
v -7.502336 0.505626 -4.991228
v -7.514142 0.520000 -4.985858
v -7.504310 0.513655 -4.992760
v -7.491833 0.506346 -4.997928
v -7.494449 0.499902 -4.995681
v -7.480000 0.500000 -5.000000
v -7.487761 0.493541 -4.997864
v -7.489836 0.486459 -4.992855
v -7.493060 0.494502 -4.991162
v -7.485858 0.480000 -4.985858
v -7.487593 0.489879 -4.984123
v -7.019849 0.019245 -4.487850
v -7.014426 0.020552 -4.498191
v -7.005280 0.010667 -4.499283
v -7.006326 0.009849 -4.493465
v -7.014030 0.020820 -4.509332
v -7.005215 0.010780 -4.504736
v -7.018697 0.020000 -4.518697
v -7.006190 0.010231 -4.510342
v -6.989055 0.002937 -4.503523
v -6.996951 0.005131 -4.501044
v -6.971716 0.000000 -4.500000
v -6.988755 0.002823 -4.497900
v -7.487809 0.019245 -4.019889
v -7.493437 0.009849 -4.006353
v -7.499269 0.010669 -4.005293
v -7.498172 0.020554 -4.014447
v -7.497887 0.002823 -3.988767
v -7.501037 0.005131 -3.996958
v -7.500000 0.000000 -3.971716
v -7.503523 0.002937 -3.989054
v -7.510342 0.010231 -4.006190
v -7.504731 0.010781 -4.005220
v -7.518697 0.020000 -4.018697
v -7.509328 0.020822 -4.014037
v -7.985858 0.520000 -4.514142
v -7.984622 0.510184 -4.511182
v -7.991242 0.505626 -4.502323
v -7.992760 0.513655 -4.504310
v -7.980492 0.502967 -4.505105
v -7.986971 0.500038 -4.498305
v -7.974413 0.500000 -4.497303
v -7.979987 0.497084 -4.491729
v -7.984135 0.489880 -4.487580
v -7.991171 0.494504 -4.493052
v -7.985858 0.480000 -4.485858
v -7.992856 0.486458 -4.489835
v -7.997864 0.493541 -4.487761
v -7.995685 0.499902 -4.494444
v -8.000000 0.500000 -4.480000
v -7.997928 0.506346 -4.491834
v -7.500000 1.020000 -4.272894
v -7.497044 1.010201 -4.278322
v -7.495746 1.010503 -4.287331
v -7.497926 1.020000 -4.284731
v -7.489799 1.002956 -4.284491
v -7.491327 1.005151 -4.291230
v -7.480000 1.000000 -4.289919
v -7.484009 1.002914 -4.297094
v -7.486142 1.010126 -4.303298
v -7.492279 1.010439 -4.295283
v -7.485858 1.020000 -4.307035
v -7.492761 1.020000 -4.297200
v -7.307036 1.020000 -4.485858
v -7.304330 1.010120 -4.485136
v -7.295856 1.010433 -4.491734
v -7.297200 1.020000 -4.492762
v -7.299206 1.002914 -4.482006
v -7.292289 1.005167 -4.490358
v -7.292893 1.000000 -4.477238
v -7.286044 1.002982 -4.488434
v -7.278792 1.010249 -4.496673
v -7.287730 1.010543 -4.495399
v -7.272894 1.020000 -4.500000
v -7.284731 1.020000 -4.497926
v -8.000000 1.480000 -4.480000
v -7.997039 1.489807 -4.483740
v -7.995761 1.489503 -4.493465
v -7.997926 1.480000 -4.491837
v -7.989806 1.497039 -4.487976
v -7.991433 1.494818 -4.496452
v -7.980000 1.500000 -4.491716
v -7.984290 1.497039 -4.501295
v -7.986409 1.489807 -4.509404
v -7.992381 1.489503 -4.501624
v -7.985858 1.480000 -4.514142
v -7.992761 1.480000 -4.504307
v -7.514142 1.480000 -4.985858
v -7.509404 1.489807 -4.986408
v -7.501624 1.489503 -4.992382
v -7.504307 1.480000 -4.992762
v -7.501295 1.497039 -4.984290
v -7.496452 1.494818 -4.991434
v -7.491716 1.500000 -4.980000
v -7.487977 1.497039 -4.989806
v -7.483740 1.489806 -4.997038
v -7.493465 1.489503 -4.995761
v -7.480000 1.480000 -5.000000
v -7.491837 1.480000 -4.997926
v -7.485858 1.480000 -4.307035
v -7.494305 1.489783 -4.302754
v -7.497796 1.489485 -4.295932
v -7.492761 1.480000 -4.297200
v -7.506718 1.497054 -4.300624
v -7.503513 1.494836 -4.294349
v -7.520000 1.500000 -4.301178
v -7.510217 1.497054 -4.292177
v -7.502946 1.489783 -4.281894
v -7.500590 1.489485 -4.289186
v -7.500000 1.480000 -4.272894
v -7.497926 1.480000 -4.284731
v -7.272894 1.480000 -4.500000
v -7.281895 1.489783 -4.502946
v -7.289186 1.489485 -4.500590
v -7.284731 1.480000 -4.497927
v -7.292177 1.497054 -4.510217
v -7.294349 1.494836 -4.503513
v -7.301177 1.500000 -4.520000
v -7.300624 1.497055 -4.506718
v -7.302753 1.489783 -4.494305
v -7.295931 1.489485 -4.497795
v -7.307036 1.480000 -4.485858
v -7.297200 1.480000 -4.492762
v 8.000000 1.000000 4.480000
v 7.998106 1.000000 4.491895
v 7.992929 1.000000 4.504392
v 7.985858 1.000000 4.514142
v 0.000000 0.000000 4.980000
v 0.000000 0.002679 4.990000
v 0.000000 0.010001 4.997320
v 0.000000 0.020000 5.000000
v 8.000000 0.020000 0.000000
v 7.997321 0.010001 0.000000
v 7.989999 0.002679 0.000000
v 7.980000 0.000000 0.000000
v 7.480000 1.000000 5.000000
v 7.491895 1.000000 4.998106
v 7.504392 1.000000 4.992929
v 7.514142 1.000000 4.985858
v 7.110696 0.480000 4.610697
v 7.102243 0.489999 4.605305
v 7.089845 0.497321 4.601270
v 7.076825 0.500000 4.599673
v 7.599433 0.500000 4.076760
v 7.601150 0.497321 4.089812
v 7.605272 0.489999 4.102234
v 7.610696 0.480000 4.110697
v 7.480000 1.000000 0.000000
v 7.489999 1.002679 0.000000
v 7.497321 1.010001 0.000000
v 7.500000 1.020000 0.000000
v 0.000000 1.000000 4.477345
v 0.000000 1.002679 4.488672
v 0.000000 1.010001 4.496964
v 0.000000 1.020000 4.500000
v 7.980000 1.500000 0.000000
v 7.989999 1.497321 0.000000
v 7.997321 1.489999 0.000000
v 8.000000 1.480000 0.000000
v 0.000000 1.500000 4.980000
v 0.000000 1.497321 4.990000
v 0.000000 1.489999 4.997320
v 0.000000 1.480000 5.000000
v 7.500000 1.480000 0.000000
v 7.502679 1.489999 0.000000
v 7.510001 1.497321 0.000000
v 7.520000 1.500000 0.000000
v 0.000000 1.480000 4.500000
v 0.000000 1.489999 4.502680
v 0.000000 1.497321 4.510000
v 0.000000 1.500000 4.520000
v -7.985858 1.000000 4.514142
v -7.992929 1.000000 4.504392
v -7.998106 1.000000 4.491895
v -8.000000 1.000000 4.480000
v -7.980000 0.000000 0.000000
v -7.989999 0.002679 0.000000
v -7.997321 0.010001 0.000000
v -8.000000 0.020000 0.000000
v -7.514142 1.000000 4.985858
v -7.504392 1.000000 4.992929
v -7.491895 1.000000 4.998106
v -7.480000 1.000000 5.000000
v -7.076825 0.500000 4.599673
v -7.089845 0.497321 4.601270
v -7.102243 0.489999 4.605305
v -7.110696 0.480000 4.610697
v -7.610696 0.480000 4.110697
v -7.605272 0.489999 4.102234
v -7.601150 0.497321 4.089812
v -7.599433 0.500000 4.076760
v -7.500000 1.020000 0.000000
v -7.497321 1.010001 0.000000
v -7.489999 1.002679 0.000000
v -7.480000 1.000000 0.000000
v -8.000000 1.480000 0.000000
v -7.997321 1.489999 0.000000
v -7.989999 1.497321 0.000000
v -7.980000 1.500000 0.000000
v -7.520000 1.500000 0.000000
v -7.510001 1.497321 0.000000
v -7.502679 1.489999 0.000000
v -7.500000 1.480000 0.000000
v 7.985858 1.000000 -4.514142
v 7.992929 1.000000 -4.504392
v 7.998106 1.000000 -4.491895
v 8.000000 1.000000 -4.480000
v 0.000000 0.020000 -5.000000
v 0.000000 0.010001 -4.997320
v 0.000000 0.002679 -4.990000
v 0.000000 0.000000 -4.980000
v 7.514142 1.000000 -4.985858
v 7.504392 1.000000 -4.992929
v 7.491895 1.000000 -4.998106
v 7.480000 1.000000 -5.000000
v 7.076825 0.500000 -4.599673
v 7.089845 0.497321 -4.601270
v 7.102243 0.489999 -4.605305
v 7.110696 0.480000 -4.610697
v 7.610696 0.480000 -4.110697
v 7.605272 0.489999 -4.102234
v 7.601150 0.497321 -4.089812
v 7.599433 0.500000 -4.076760
v 0.000000 1.020000 -4.500000
v 0.000000 1.010001 -4.496964
v 0.000000 1.002679 -4.488672
v 0.000000 1.000000 -4.477345
v 0.000000 1.480000 -5.000000
v 0.000000 1.489999 -4.997320
v 0.000000 1.497321 -4.990000
v 0.000000 1.500000 -4.980000
v 0.000000 1.500000 -4.520000
v 0.000000 1.497321 -4.510000
v 0.000000 1.489999 -4.502680
v 0.000000 1.480000 -4.500000
v -8.000000 1.000000 -4.480000
v -7.998106 1.000000 -4.491895
v -7.992929 1.000000 -4.504392
v -7.985858 1.000000 -4.514142
v -7.480000 1.000000 -5.000000
v -7.491895 1.000000 -4.998106
v -7.504392 1.000000 -4.992929
v -7.514142 1.000000 -4.985858
v -7.110696 0.480000 -4.610697
v -7.102243 0.489999 -4.605305
v -7.089845 0.497321 -4.601270
v -7.076825 0.500000 -4.599673
v -7.599433 0.500000 -4.076760
v -7.601150 0.497321 -4.089812
v -7.605272 0.489999 -4.102234
v -7.610696 0.480000 -4.110697
v 8.000000 0.500000 0.000000
v 7.500000 0.000000 0.000000
v 0.000000 0.500000 5.000000
v 0.000000 0.000000 4.500000
v 0.000000 1.000000 5.000000
v 7.500000 0.500000 0.000000
v 0.000000 0.500000 0.000000
v 0.000000 0.500000 4.500000
v 0.000000 0.000000 0.000000
v 8.000000 1.000000 0.000000
v 7.292893 1.000000 0.000000
v 0.000000 1.000000 0.000000
v -7.292893 1.000000 0.000000
v -8.000000 0.500000 0.000000
v -7.500000 0.000000 0.000000
v -7.500000 0.500000 0.000000
v -8.000000 1.000000 0.000000
v 0.000000 0.500000 -5.000000
v 0.000000 0.000000 -4.500000
v 0.000000 1.000000 -5.000000
v 0.000000 0.500000 -4.500000
s 1
f 1 2 3
f 1 3 4
f 2 5 6
f 2 6 3
f 7 8 6
f 7 6 5
f 8 9 10
f 8 10 6
f 11 12 10
f 11 10 9
f 12 4 3
f 12 3 10
f 3 6 10
f 13 14 15
f 13 15 16
f 14 17 18
f 14 18 15
f 19 20 18
f 19 18 17
f 20 21 22
f 20 22 18
f 23 24 22
f 23 22 21
f 24 16 15
f 24 15 22
f 15 18 22
f 25 26 27
f 25 27 28
f 26 29 30
f 26 30 27
f 31 32 30
f 31 30 29
f 32 33 34
f 32 34 30
f 35 36 34
f 35 34 33
f 36 37 38
f 36 38 34
f 39 40 38
f 39 38 37
f 40 28 27
f 40 27 38
f 27 30 34
f 27 34 38
f 41 42 43
f 41 43 44
f 42 45 46
f 42 46 43
f 47 48 46
f 47 46 45
f 48 49 50
f 48 50 46
f 51 52 50
f 51 50 49
f 52 44 43
f 52 43 50
f 43 46 50
f 53 54 55
f 53 55 56
f 54 57 58
f 54 58 55
f 59 60 58
f 59 58 57
f 60 61 62
f 60 62 58
f 63 64 62
f 63 62 61
f 64 56 55
f 64 55 62
f 55 58 62
f 65 66 67
f 65 67 68
f 66 69 70
f 66 70 67
f 71 72 70
f 71 70 69
f 72 73 74
f 72 74 70
f 75 76 74
f 75 74 73
f 76 77 78
f 76 78 74
f 79 80 78
f 79 78 77
f 80 68 67
f 80 67 78
f 67 70 74
f 67 74 78
f 81 82 83
f 81 83 84
f 82 85 86
f 82 86 83
f 87 88 86
f 87 86 85
f 88 89 90
f 88 90 86
f 91 92 90
f 91 90 89
f 92 84 83
f 92 83 90
f 83 86 90
f 93 94 95
f 93 95 96
f 94 97 98
f 94 98 95
f 99 100 98
f 99 98 97
f 100 101 102
f 100 102 98
f 103 104 102
f 103 102 101
f 104 96 95
f 104 95 102
f 95 98 102
f 105 106 107
f 105 107 108
f 106 109 110
f 106 110 107
f 111 112 110
f 111 110 109
f 112 113 114
f 112 114 110
f 115 116 114
f 115 114 113
f 116 108 107
f 116 107 114
f 107 110 114
f 117 118 119
f 117 119 120
f 118 121 122
f 118 122 119
f 123 124 122
f 123 122 121
f 124 125 126
f 124 126 122
f 127 128 126
f 127 126 125
f 128 120 119
f 128 119 126
f 119 122 126
f 129 130 131
f 129 131 132
f 130 133 134
f 130 134 131
f 135 136 134
f 135 134 133
f 136 137 138
f 136 138 134
f 139 140 138
f 139 138 137
f 140 132 131
f 140 131 138
f 131 134 138
f 141 142 143
f 141 143 144
f 142 145 146
f 142 146 143
f 147 148 146
f 147 146 145
f 148 149 150
f 148 150 146
f 151 152 150
f 151 150 149
f 152 144 143
f 152 143 150
f 143 146 150
f 153 154 155
f 153 155 156
f 154 157 158
f 154 158 155
f 159 160 158
f 159 158 157
f 160 161 162
f 160 162 158
f 163 164 162
f 163 162 161
f 164 156 155
f 164 155 162
f 155 158 162
f 165 166 167
f 165 167 168
f 166 169 170
f 166 170 167
f 171 172 170
f 171 170 169
f 172 173 174
f 172 174 170
f 175 176 174
f 175 174 173
f 176 168 167
f 176 167 174
f 167 170 174
f 177 178 179
f 177 179 180
f 178 181 182
f 178 182 179
f 183 184 182
f 183 182 181
f 184 185 186
f 184 186 182
f 187 188 186
f 187 186 185
f 188 189 190
f 188 190 186
f 191 192 190
f 191 190 189
f 192 180 179
f 192 179 190
f 179 182 186
f 179 186 190
f 193 194 195
f 193 195 196
f 194 197 198
f 194 198 195
f 199 200 198
f 199 198 197
f 200 201 202
f 200 202 198
f 203 204 202
f 203 202 201
f 204 196 195
f 204 195 202
f 195 198 202
f 205 206 207
f 205 207 208
f 206 209 210
f 206 210 207
f 211 212 210
f 211 210 209
f 212 213 214
f 212 214 210
f 215 216 214
f 215 214 213
f 216 208 207
f 216 207 214
f 207 210 214
f 217 218 219
f 217 219 220
f 218 221 222
f 218 222 219
f 223 224 222
f 223 222 221
f 224 225 226
f 224 226 222
f 227 228 226
f 227 226 225
f 228 229 230
f 228 230 226
f 231 232 230
f 231 230 229
f 232 220 219
f 232 219 230
f 219 222 226
f 219 226 230
f 233 234 235
f 233 235 236
f 234 237 238
f 234 238 235
f 239 240 238
f 239 238 237
f 240 241 242
f 240 242 238
f 243 244 242
f 243 242 241
f 244 236 235
f 244 235 242
f 235 238 242
f 245 246 247
f 245 247 248
f 246 249 250
f 246 250 247
f 251 252 250
f 251 250 249
f 252 253 254
f 252 254 250
f 255 256 254
f 255 254 253
f 256 248 247
f 256 247 254
f 247 250 254
f 257 258 259
f 257 259 260
f 258 261 262
f 258 262 259
f 263 264 262
f 263 262 261
f 264 265 266
f 264 266 262
f 267 268 266
f 267 266 265
f 268 260 259
f 268 259 266
f 259 262 266
f 269 270 271
f 269 271 272
f 270 273 274
f 270 274 271
f 275 276 274
f 275 274 273
f 276 277 278
f 276 278 274
f 279 280 278
f 279 278 277
f 280 272 271
f 280 271 278
f 271 274 278
f 281 282 283
f 281 283 284
f 282 285 286
f 282 286 283
f 287 288 286
f 287 286 285
f 288 289 290
f 288 290 286
f 291 292 290
f 291 290 289
f 292 284 283
f 292 283 290
f 283 286 290
f 293 294 295
f 293 295 296
f 294 297 298
f 294 298 295
f 299 300 298
f 299 298 297
f 300 301 302
f 300 302 298
f 303 304 302
f 303 302 301
f 304 296 295
f 304 295 302
f 295 298 302
f 305 306 307
f 305 307 308
f 306 309 310
f 306 310 307
f 311 312 310
f 311 310 309
f 312 313 314
f 312 314 310
f 315 316 314
f 315 314 313
f 316 308 307
f 316 307 314
f 307 310 314
f 317 318 319
f 317 319 320
f 318 321 322
f 318 322 319
f 323 324 322
f 323 322 321
f 324 325 326
f 324 326 322
f 327 328 326
f 327 326 325
f 328 320 319
f 328 319 326
f 319 322 326
f 329 330 331
f 329 331 332
f 330 333 334
f 330 334 331
f 335 336 334
f 335 334 333
f 336 337 338
f 336 338 334
f 339 340 338
f 339 338 337
f 340 341 342
f 340 342 338
f 343 344 342
f 343 342 341
f 344 332 331
f 344 331 342
f 331 334 338
f 331 338 342
f 345 346 347
f 345 347 348
f 346 349 350
f 346 350 347
f 351 352 350
f 351 350 349
f 352 353 354
f 352 354 350
f 355 356 354
f 355 354 353
f 356 348 347
f 356 347 354
f 347 350 354
f 357 358 359
f 357 359 360
f 358 361 362
f 358 362 359
f 363 364 362
f 363 362 361
f 364 365 366
f 364 366 362
f 367 368 366
f 367 366 365
f 368 360 359
f 368 359 366
f 359 362 366
f 369 370 371
f 369 371 372
f 370 373 374
f 370 374 371
f 375 376 374
f 375 374 373
f 376 377 378
f 376 378 374
f 379 380 378
f 379 378 377
f 380 381 382
f 380 382 378
f 383 384 382
f 383 382 381
f 384 372 371
f 384 371 382
f 371 374 378
f 371 378 382
f 385 386 387
f 385 387 388
f 386 389 390
f 386 390 387
f 391 392 390
f 391 390 389
f 392 393 394
f 392 394 390
f 395 396 394
f 395 394 393
f 396 388 387
f 396 387 394
f 387 390 394
f 397 398 399
f 397 399 400
f 398 401 402
f 398 402 399
f 403 404 402
f 403 402 401
f 404 405 406
f 404 406 402
f 407 408 406
f 407 406 405
f 408 400 399
f 408 399 406
f 399 402 406
f 409 410 411
f 409 411 412
f 410 413 414
f 410 414 411
f 415 416 414
f 415 414 413
f 416 417 418
f 416 418 414
f 419 420 418
f 419 418 417
f 420 412 411
f 420 411 418
f 411 414 418
f 421 422 423
f 421 423 424
f 422 425 426
f 422 426 423
f 427 428 426
f 427 426 425
f 428 429 430
f 428 430 426
f 431 432 430
f 431 430 429
f 432 424 423
f 432 423 430
f 423 426 430
f 433 434 435
f 433 435 436
f 434 437 438
f 434 438 435
f 439 440 438
f 439 438 437
f 440 441 442
f 440 442 438
f 443 444 442
f 443 442 441
f 444 436 435
f 444 435 442
f 435 438 442
f 445 446 447
f 445 447 448
f 446 449 450
f 446 450 447
f 451 452 450
f 451 450 449
f 452 453 454
f 452 454 450
f 455 456 454
f 455 454 453
f 456 448 447
f 456 447 454
f 447 450 454
f 457 458 459
f 457 459 460
f 458 461 462
f 458 462 459
f 463 464 462
f 463 462 461
f 464 465 466
f 464 466 462
f 467 468 466
f 467 466 465
f 468 460 459
f 468 459 466
f 459 462 466
f 469 470 471
f 469 471 472
f 470 473 474
f 470 474 471
f 475 476 474
f 475 474 473
f 476 477 478
f 476 478 474
f 479 480 478
f 479 478 477
f 480 472 471
f 480 471 478
f 471 474 478
f 481 482 483
f 481 483 484
f 482 485 486
f 482 486 483
f 487 488 486
f 487 486 485
f 488 489 490
f 488 490 486
f 491 492 490
f 491 490 489
f 492 493 494
f 492 494 490
f 495 496 494
f 495 494 493
f 496 484 483
f 496 483 494
f 483 486 490
f 483 490 494
f 497 498 499
f 497 499 500
f 498 501 502
f 498 502 499
f 503 504 502
f 503 502 501
f 504 505 506
f 504 506 502
f 507 508 506
f 507 506 505
f 508 500 499
f 508 499 506
f 499 502 506
f 509 510 511
f 509 511 512
f 510 513 514
f 510 514 511
f 515 516 514
f 515 514 513
f 516 517 518
f 516 518 514
f 519 520 518
f 519 518 517
f 520 512 511
f 520 511 518
f 511 514 518
f 521 522 523
f 521 523 524
f 522 525 526
f 522 526 523
f 527 528 526
f 527 526 525
f 528 529 530
f 528 530 526
f 531 532 530
f 531 530 529
f 532 533 534
f 532 534 530
f 535 536 534
f 535 534 533
f 536 524 523
f 536 523 534
f 523 526 530
f 523 530 534
f 537 538 539
f 537 539 540
f 538 541 542
f 538 542 539
f 543 544 542
f 543 542 541
f 544 545 546
f 544 546 542
f 547 548 546
f 547 546 545
f 548 540 539
f 548 539 546
f 539 542 546
f 549 550 551
f 549 551 552
f 550 553 554
f 550 554 551
f 555 556 554
f 555 554 553
f 556 557 558
f 556 558 554
f 559 560 558
f 559 558 557
f 560 552 551
f 560 551 558
f 551 554 558
f 561 562 563
f 561 563 564
f 562 565 566
f 562 566 563
f 567 568 566
f 567 566 565
f 568 569 570
f 568 570 566
f 571 572 570
f 571 570 569
f 572 564 563
f 572 563 570
f 563 566 570
f 573 574 575
f 573 575 576
f 574 577 578
f 574 578 575
f 579 580 578
f 579 578 577
f 580 581 582
f 580 582 578
f 583 584 582
f 583 582 581
f 584 576 575
f 584 575 582
f 575 578 582
f 585 586 587
f 585 587 588
f 586 589 590
f 586 590 587
f 591 592 590
f 591 590 589
f 592 593 594
f 592 594 590
f 595 596 594
f 595 594 593
f 596 588 587
f 596 587 594
f 587 590 594
f 597 598 599
f 597 599 600
f 598 601 602
f 598 602 599
f 603 604 602
f 603 602 601
f 604 605 606
f 604 606 602
f 607 608 606
f 607 606 605
f 608 600 599
f 608 599 606
f 599 602 606
f 79 609 610
f 79 610 80
f 80 610 611
f 80 611 68
f 68 611 612
f 68 612 65
f 65 31 29
f 65 29 66
f 66 29 26
f 66 26 69
f 69 26 25
f 69 25 71
f 35 19 17
f 35 17 36
f 36 17 14
f 36 14 37
f 37 14 13
f 37 13 39
f 11 79 77
f 11 77 12
f 12 77 76
f 12 76 4
f 4 76 75
f 4 75 1
f 613 23 21
f 613 21 614
f 614 21 20
f 614 20 615
f 615 20 19
f 615 19 616
f 617 11 9
f 617 9 618
f 618 9 8
f 618 8 619
f 619 8 7
f 619 7 620
f 621 35 33
f 621 33 622
f 622 33 32
f 622 32 623
f 623 32 31
f 623 31 624
f 53 41 44
f 53 44 54
f 54 44 52
f 54 52 57
f 57 52 51
f 57 51 59
f 47 13 16
f 47 16 48
f 48 16 24
f 48 24 49
f 49 24 23
f 49 23 51
f 59 7 5
f 59 5 60
f 60 5 2
f 60 2 61
f 61 2 1
f 61 1 63
f 625 47 45
f 625 45 626
f 626 45 42
f 626 42 627
f 627 42 628
f 42 41 628
f 629 53 630
f 53 56 630
f 630 56 64
f 630 64 631
f 631 64 63
f 631 63 632
f 71 629 72
f 629 630 72
f 72 630 631
f 72 631 73
f 73 631 632
f 73 632 75
f 39 625 626
f 39 626 40
f 40 626 627
f 40 627 28
f 28 627 25
f 627 628 25
f 633 87 85
f 633 85 634
f 634 85 82
f 634 82 635
f 635 82 81
f 635 81 636
f 87 99 97
f 87 97 88
f 88 97 94
f 88 94 89
f 89 94 93
f 89 93 91
f 99 637 638
f 99 638 100
f 100 638 639
f 100 639 101
f 101 639 640
f 101 640 103
f 139 81 84
f 139 84 140
f 140 84 92
f 140 92 132
f 132 92 91
f 132 91 129
f 103 141 144
f 103 144 104
f 104 144 152
f 104 152 96
f 96 152 151
f 96 151 93
f 641 111 109
f 641 109 642
f 642 109 106
f 642 106 643
f 643 106 105
f 643 105 644
f 111 123 121
f 111 121 112
f 112 121 118
f 112 118 113
f 113 118 117
f 113 117 115
f 123 645 646
f 123 646 124
f 124 646 647
f 124 647 125
f 125 647 648
f 125 648 127
f 649 139 137
f 649 137 650
f 650 137 136
f 650 136 651
f 651 136 135
f 651 135 652
f 129 151 149
f 129 149 130
f 130 149 148
f 130 148 133
f 133 148 147
f 133 147 135
f 141 653 654
f 141 654 142
f 142 654 655
f 142 655 145
f 145 655 656
f 145 656 147
f 115 612 611
f 115 611 116
f 116 611 610
f 116 610 108
f 108 610 609
f 108 609 105
f 127 621 622
f 127 622 128
f 128 622 623
f 128 623 120
f 120 623 624
f 120 624 117
f 231 657 658
f 231 658 232
f 232 658 659
f 232 659 220
f 220 659 660
f 220 660 217
f 227 177 180
f 227 180 228
f 228 180 192
f 228 192 229
f 229 192 191
f 229 191 231
f 183 165 168
f 183 168 184
f 184 168 176
f 184 176 185
f 185 176 175
f 185 175 187
f 153 223 221
f 153 221 154
f 154 221 218
f 154 218 157
f 157 218 217
f 157 217 159
f 616 175 173
f 616 173 615
f 615 173 172
f 615 172 614
f 614 172 171
f 614 171 613
f 661 163 161
f 661 161 662
f 662 161 160
f 662 160 663
f 663 160 159
f 663 159 664
f 665 191 189
f 665 189 666
f 666 189 188
f 666 188 667
f 667 188 187
f 667 187 668
f 215 199 197
f 215 197 216
f 216 197 194
f 216 194 208
f 208 194 193
f 208 193 205
f 199 171 169
f 199 169 200
f 200 169 166
f 200 166 201
f 201 166 165
f 201 165 203
f 211 153 156
f 211 156 212
f 212 156 164
f 212 164 213
f 213 164 163
f 213 163 215
f 669 193 670
f 193 196 670
f 670 196 204
f 670 204 671
f 671 204 203
f 671 203 672
f 673 211 209
f 673 209 674
f 674 209 206
f 674 206 675
f 675 206 676
f 206 205 676
f 223 673 674
f 223 674 224
f 224 674 675
f 224 675 225
f 225 675 227
f 675 676 227
f 177 669 178
f 669 670 178
f 178 670 671
f 178 671 181
f 181 671 672
f 181 672 183
f 677 233 236
f 677 236 678
f 678 236 244
f 678 244 679
f 679 244 243
f 679 243 680
f 239 245 248
f 239 248 240
f 240 248 256
f 240 256 241
f 241 256 255
f 241 255 243
f 251 640 639
f 251 639 252
f 252 639 638
f 252 638 253
f 253 638 637
f 253 637 255
f 281 239 237
f 281 237 282
f 282 237 234
f 282 234 285
f 285 234 233
f 285 233 287
f 245 299 297
f 245 297 246
f 246 297 294
f 246 294 249
f 249 294 293
f 249 293 251
f 681 257 260
f 681 260 682
f 682 260 268
f 682 268 683
f 683 268 267
f 683 267 684
f 263 269 272
f 263 272 264
f 264 272 280
f 264 280 265
f 265 280 279
f 265 279 267
f 275 648 647
f 275 647 276
f 276 647 646
f 276 646 277
f 277 646 645
f 277 645 279
f 685 291 289
f 685 289 686
f 686 289 288
f 686 288 687
f 687 288 287
f 687 287 688
f 291 303 301
f 291 301 292
f 292 301 300
f 292 300 284
f 284 300 299
f 284 299 281
f 303 656 655
f 303 655 304
f 304 655 654
f 304 654 296
f 296 654 653
f 296 653 293
f 257 660 659
f 257 659 258
f 258 659 658
f 258 658 261
f 261 658 657
f 261 657 263
f 269 665 666
f 269 666 270
f 270 666 667
f 270 667 273
f 273 667 668
f 273 668 275
f 383 689 690
f 383 690 384
f 384 690 691
f 384 691 372
f 372 691 692
f 372 692 369
f 379 329 332
f 379 332 380
f 380 332 344
f 380 344 381
f 381 344 343
f 381 343 383
f 335 317 320
f 335 320 336
f 336 320 328
f 336 328 337
f 337 328 327
f 337 327 339
f 305 375 373
f 305 373 306
f 306 373 370
f 306 370 309
f 309 370 369
f 309 369 311
f 693 327 325
f 693 325 694
f 694 325 324
f 694 324 695
f 695 324 323
f 695 323 696
f 620 315 313
f 620 313 619
f 619 313 312
f 619 312 618
f 618 312 311
f 618 311 617
f 697 343 341
f 697 341 698
f 698 341 340
f 698 340 699
f 699 340 339
f 699 339 700
f 367 351 349
f 367 349 368
f 368 349 346
f 368 346 360
f 360 346 345
f 360 345 357
f 351 323 321
f 351 321 352
f 352 321 318
f 352 318 353
f 353 318 317
f 353 317 355
f 363 305 308
f 363 308 364
f 364 308 316
f 364 316 365
f 365 316 315
f 365 315 367
f 701 345 702
f 345 348 702
f 702 348 356
f 702 356 703
f 703 356 355
f 703 355 704
f 705 363 361
f 705 361 706
f 706 361 358
f 706 358 707
f 707 358 708
f 358 357 708
f 375 705 706
f 375 706 376
f 376 706 707
f 376 707 377
f 377 707 379
f 707 708 379
f 329 701 330
f 701 702 330
f 330 702 703
f 330 703 333
f 333 703 704
f 333 704 335
f 636 385 388
f 636 388 635
f 635 388 396
f 635 396 634
f 634 396 395
f 634 395 633
f 391 397 400
f 391 400 392
f 392 400 408
f 392 408 393
f 393 408 407
f 393 407 395
f 403 709 710
f 403 710 404
f 404 710 711
f 404 711 405
f 405 711 712
f 405 712 407
f 433 391 389
f 433 389 434
f 434 389 386
f 434 386 437
f 437 386 385
f 437 385 439
f 397 451 449
f 397 449 398
f 398 449 446
f 398 446 401
f 401 446 445
f 401 445 403
f 644 409 412
f 644 412 643
f 643 412 420
f 643 420 642
f 642 420 419
f 642 419 641
f 415 421 424
f 415 424 416
f 416 424 432
f 416 432 417
f 417 432 431
f 417 431 419
f 427 713 714
f 427 714 428
f 428 714 715
f 428 715 429
f 429 715 716
f 429 716 431
f 652 443 441
f 652 441 651
f 651 441 440
f 651 440 650
f 650 440 439
f 650 439 649
f 443 455 453
f 443 453 444
f 444 453 452
f 444 452 436
f 436 452 451
f 436 451 433
f 455 717 718
f 455 718 456
f 456 718 719
f 456 719 448
f 448 719 720
f 448 720 445
f 409 692 691
f 409 691 410
f 410 691 690
f 410 690 413
f 413 690 689
f 413 689 415
f 421 697 698
f 421 698 422
f 422 698 699
f 422 699 425
f 425 699 700
f 425 700 427
f 535 721 722
f 535 722 536
f 536 722 723
f 536 723 524
f 524 723 724
f 524 724 521
f 521 487 485
f 521 485 522
f 522 485 482
f 522 482 525
f 525 482 481
f 525 481 527
f 491 475 473
f 491 473 492
f 492 473 470
f 492 470 493
f 493 470 469
f 493 469 495
f 467 535 533
f 467 533 468
f 468 533 532
f 468 532 460
f 460 532 531
f 460 531 457
f 696 479 477
f 696 477 695
f 695 477 476
f 695 476 694
f 694 476 475
f 694 475 693
f 664 467 465
f 664 465 663
f 663 465 464
f 663 464 662
f 662 464 463
f 662 463 661
f 725 491 489
f 725 489 726
f 726 489 488
f 726 488 727
f 727 488 487
f 727 487 728
f 509 497 500
f 509 500 510
f 510 500 508
f 510 508 513
f 513 508 507
f 513 507 515
f 503 469 472
f 503 472 504
f 504 472 480
f 504 480 505
f 505 480 479
f 505 479 507
f 515 463 461
f 515 461 516
f 516 461 458
f 516 458 517
f 517 458 457
f 517 457 519
f 729 503 501
f 729 501 730
f 730 501 498
f 730 498 731
f 731 498 732
f 498 497 732
f 733 509 734
f 509 512 734
f 734 512 520
f 734 520 735
f 735 520 519
f 735 519 736
f 527 733 528
f 733 734 528
f 528 734 735
f 528 735 529
f 529 735 736
f 529 736 531
f 495 729 730
f 495 730 496
f 496 730 731
f 496 731 484
f 484 731 481
f 731 732 481
f 680 543 541
f 680 541 679
f 679 541 538
f 679 538 678
f 678 538 537
f 678 537 677
f 543 555 553
f 543 553 544
f 544 553 550
f 544 550 545
f 545 550 549
f 545 549 547
f 555 712 711
f 555 711 556
f 556 711 710
f 556 710 557
f 557 710 709
f 557 709 559
f 595 537 540
f 595 540 596
f 596 540 548
f 596 548 588
f 588 548 547
f 588 547 585
f 559 597 600
f 559 600 560
f 560 600 608
f 560 608 552
f 552 608 607
f 552 607 549
f 684 567 565
f 684 565 683
f 683 565 562
f 683 562 682
f 682 562 561
f 682 561 681
f 567 579 577
f 567 577 568
f 568 577 574
f 568 574 569
f 569 574 573
f 569 573 571
f 579 716 715
f 579 715 580
f 580 715 714
f 580 714 581
f 581 714 713
f 581 713 583
f 688 595 593
f 688 593 687
f 687 593 592
f 687 592 686
f 686 592 591
f 686 591 685
f 585 607 605
f 585 605 586
f 586 605 604
f 586 604 589
f 589 604 603
f 589 603 591
f 597 720 719
f 597 719 598
f 598 719 718
f 598 718 601
f 601 718 717
f 601 717 603
f 571 724 723
f 571 723 572
f 572 723 722
f 572 722 564
f 564 722 721
f 564 721 561
f 583 725 726
f 583 726 584
f 584 726 727
f 584 727 576
f 576 727 728
f 576 728 573
f 617 311 369
f 617 369 737
f 617 737 79
f 617 79 11
f 7 59 738
f 7 738 620
f 315 620 738
f 315 738 367
f 1 75 632
f 1 632 63
f 13 47 625
f 13 625 39
f 19 35 739
f 19 739 616
f 740 51 23
f 740 23 613
f 629 71 25
f 629 25 628
f 31 65 612
f 31 612 624
f 739 35 621
f 739 621 741
f 629 742 743
f 743 744 628
f 743 628 629
f 629 628 41
f 629 41 53
f 175 616 739
f 175 739 187
f 740 613 171
f 740 171 199
f 740 745 738
f 738 59 51
f 738 51 740
f 79 737 746
f 79 746 609
f 636 81 139
f 636 139 649
f 747 99 87
f 747 87 633
f 91 93 151
f 91 151 129
f 624 612 115
f 624 115 117
f 741 621 127
f 741 127 648
f 747 633 395
f 747 395 407
f 636 649 439
f 636 439 385
f 637 748 749
f 637 749 255
f 637 99 747
f 637 747 748
f 103 640 653
f 103 653 141
f 251 293 653
f 251 653 640
f 609 746 644
f 609 644 105
f 652 135 111
f 652 111 641
f 692 409 644
f 692 644 746
f 652 641 419
f 652 419 443
f 135 147 123
f 135 123 111
f 147 656 645
f 147 645 123
f 741 648 275
f 741 275 668
f 303 279 645
f 303 645 656
f 664 750 535
f 664 535 467
f 664 159 217
f 664 217 750
f 163 661 751
f 163 751 215
f 463 515 751
f 463 751 661
f 153 211 673
f 153 673 223
f 165 183 672
f 165 672 203
f 676 669 177
f 676 177 227
f 739 741 668
f 739 668 187
f 191 665 657
f 191 657 231
f 676 205 193
f 676 193 669
f 743 752 676
f 676 669 744
f 676 744 743
f 751 745 740
f 740 199 215
f 740 215 751
f 217 660 753
f 217 753 750
f 677 688 287
f 677 287 233
f 749 680 243
f 749 243 255
f 239 281 299
f 239 299 245
f 665 269 263
f 665 263 657
f 749 555 543
f 749 543 680
f 677 537 595
f 677 595 688
f 660 257 681
f 660 681 753
f 721 753 681
f 721 681 561
f 685 684 267
f 685 267 291
f 685 591 567
f 685 567 684
f 291 267 279
f 291 279 303
f 305 363 705
f 305 705 375
f 317 335 704
f 317 704 355
f 327 693 754
f 327 754 339
f 755 696 323
f 755 323 351
f 708 701 329
f 708 329 379
f 754 756 700
f 754 700 339
f 343 697 689
f 343 689 383
f 708 357 345
f 708 345 701
f 743 742 708
f 708 701 757
f 708 757 743
f 475 491 754
f 475 754 693
f 755 507 479
f 755 479 696
f 738 745 755
f 755 351 367
f 755 367 738
f 369 692 746
f 369 746 737
f 391 433 451
f 391 451 397
f 697 421 415
f 697 415 689
f 756 713 427
f 756 427 700
f 712 555 749
f 712 749 748
f 712 748 747
f 712 747 407
f 403 445 720
f 403 720 709
f 559 709 720
f 559 720 597
f 443 419 431
f 443 431 455
f 455 431 716
f 455 716 717
f 756 725 583
f 756 583 713
f 603 717 716
f 603 716 579
f 457 531 736
f 457 736 519
f 469 503 729
f 469 729 495
f 733 527 481
f 733 481 732
f 487 521 724
f 487 724 728
f 754 491 725
f 754 725 756
f 733 752 743
f 743 757 732
f 743 732 733
f 733 732 497
f 733 497 509
f 755 745 751
f 751 515 507
f 751 507 755
f 535 750 753
f 535 753 721
f 547 549 607
f 547 607 585
f 728 724 571
f 728 571 573
f 591 603 579
f 591 579 567
