# Converted from a binary STL for the private Down Range Unity tactical resolver.
# Source: MOUT Small Ground Floor.stl
o MOUT Small Ground Floor
v -0.500000 0.000000 1.000000
v -2.500000 0.000000 1.000000
v -2.500000 0.000000 0.000000
v -0.500000 0.000000 0.000000
v -0.500000 0.000000 4.500000
v -2.500000 0.000000 4.500000
v -2.500000 0.500000 0.000000
v -2.500000 0.500000 1.000000
v -0.500000 0.500000 1.000000
v -0.500000 0.500000 0.000000
v 3.500000 0.000000 0.000000
v 3.500000 0.000000 1.000000
v -3.500000 0.000000 1.000000
v -3.500000 0.000000 0.000000
v -0.500000 0.000000 -1.000000
v -2.500000 0.000000 -1.000000
v -0.500000 0.000000 -4.500000
v -2.500000 0.000000 -4.500000
v -0.500000 0.500000 -1.000000
v -2.500000 0.500000 -1.000000
v 3.500000 0.000000 -1.000000
v -3.500000 0.000000 -1.000000
v 1.979999 1.000000 4.520000
v 1.989816 1.002968 4.520000
v 1.999234 1.000888 4.510455
v 1.998289 0.997877 4.510139
v 1.997032 1.010183 4.520000
v 2.001183 1.005160 4.510625
v 2.000000 1.020000 4.520000
v 2.004056 1.011247 4.510340
v 2.014328 0.998815 4.503013
v 2.007265 0.999453 4.505153
v 2.028323 0.985838 4.500000
v 2.015938 0.992672 4.502858
v 0.020001 1.000000 4.520000
v 0.007065 0.997811 4.510136
v 0.003587 1.000554 4.510453
v 0.010184 1.002968 4.520000
v -0.005551 0.992459 4.502867
v -0.002240 0.997761 4.505075
v -0.014595 0.985405 4.500000
v -0.007541 0.994451 4.502868
v -0.002190 1.007064 4.510136
v 0.000552 1.003588 4.510453
v 0.000000 1.020000 4.520000
v 0.002968 1.010183 4.520000
v 1.979999 3.000000 4.980000
v 1.989816 2.997032 4.980000
v 2.000424 2.998567 4.989602
v 2.001283 3.001502 4.989927
v 1.997032 2.989817 4.980000
v 2.001508 2.994093 4.989364
v 2.000000 2.980000 4.980000
v 2.004228 2.987440 4.989647
v 2.014961 2.998304 4.996977
v 2.008649 2.999053 4.994883
v 2.029625 3.009875 5.000000
v 2.019432 3.005165 4.997216
v 0.020001 3.000000 4.980000
v 0.007117 3.001617 4.989929
v 0.003851 2.999028 4.989604
v 0.010184 2.997032 4.980000
v -0.004065 3.005547 4.997204
v -0.001337 3.001337 4.995007
v -0.010623 3.010625 5.000000
v -0.005547 3.004065 4.997205
v -0.001617 2.992884 4.989930
v 0.000970 2.996149 4.989604
v 0.000000 2.980000 4.980000
v 0.002968 2.989816 4.980000
v 2.000000 1.020000 4.980000
v 1.997032 1.010183 4.980000
v 2.001508 1.005906 4.989364
v 2.004228 1.012560 4.989647
v 1.989816 1.002968 4.980000
v 2.000426 1.001433 4.989602
v 1.979999 1.000000 4.980000
v 2.001283 0.998498 4.989927
v 2.019432 0.994836 4.997216
v 2.008649 1.000947 4.994883
v 2.029625 0.990125 5.000000
v 2.014961 1.001696 4.996977
v 0.000000 1.020000 4.980000
v -0.001617 1.007116 4.989930
v 0.000970 1.003851 4.989603
v 0.002968 1.010183 4.980000
v -0.005547 0.995935 4.997204
v -0.001337 0.998663 4.995007
v -0.010623 0.989375 5.000000
v -0.004065 0.994453 4.997205
v 0.007117 0.998383 4.989930
v 0.003851 1.000972 4.989604
v 0.020001 1.000000 4.980000
v 0.010184 1.002968 4.980000
v 2.000000 2.980000 4.520000
v 1.997032 2.989816 4.520000
v 2.001183 2.994840 4.510625
v 2.004056 2.988753 4.510340
v 1.989816 2.997032 4.520000
v 1.999234 2.999112 4.510454
v 1.979999 3.000000 4.520000
v 1.998289 3.002123 4.510139
v 2.015938 3.007328 4.502858
v 2.007266 3.000546 4.505153
v 2.028323 3.014162 4.500000
v 2.014328 3.001185 4.503013
v 0.000000 2.980000 4.520000
v -0.002190 2.992936 4.510136
v 0.000552 2.996412 4.510452
v 0.002968 2.989817 4.520000
v -0.007541 3.005549 4.502867
v -0.002240 3.002239 4.505075
v -0.014595 3.014595 4.500000
v -0.005548 3.007541 4.502867
v 0.007065 3.002189 4.510136
v 0.003589 2.999446 4.510453
v 0.020001 3.000000 4.520000
v 0.010184 2.997032 4.520000
v 3.500000 0.520000 1.020000
v 3.502968 0.520000 1.010184
v 3.500017 0.510529 1.003342
v 3.497061 0.510227 1.007288
v 3.510184 0.520000 1.002968
v 3.503342 0.510529 1.000018
v 3.520001 0.520000 1.000000
v 3.507288 0.510227 0.997062
v 3.492712 0.502939 0.989773
v 3.496643 0.505157 0.996643
v 3.479999 0.500000 0.980000
v 3.489774 0.502939 0.992712
v 3.979999 3.500000 0.980000
v 3.989774 3.502938 0.992712
v 3.989471 3.499982 0.996659
v 3.979999 3.497033 0.989817
v 3.997061 3.510227 1.007288
v 3.994843 3.503357 1.003357
v 4.000000 3.520000 1.020000
v 3.997061 3.507288 1.010227
v 3.989774 3.492712 1.002939
v 3.989471 3.496658 0.999982
v 3.979999 3.480000 1.000000
v 3.979999 3.489817 0.997033
v 3.979999 0.500000 0.980000
v 3.979999 0.502968 0.989817
v 3.989471 0.500018 0.996658
v 3.989774 0.497061 0.992712
v 3.979999 0.510184 0.997033
v 3.989471 0.503342 0.999982
v 3.979999 0.520000 1.000000
v 3.989774 0.507288 1.002939
v 3.997061 0.492712 1.010227
v 3.994843 0.496643 1.003357
v 4.000000 0.480000 1.020000
v 3.997061 0.489773 1.007288
v 3.520001 3.500000 0.980000
v 3.520001 3.497033 0.989817
v 3.510529 3.499982 0.996659
v 3.510226 3.502939 0.992712
v 3.520001 3.489816 0.997033
v 3.510529 3.496659 0.999982
v 3.520001 3.480000 1.000000
v 3.510226 3.492712 1.002939
v 3.502939 3.507288 1.010227
v 3.505157 3.503357 1.003357
v 3.500000 3.520000 1.020000
v 3.502939 3.510227 1.007288
v -0.479999 0.520000 4.500000
v -0.492712 0.510227 4.497061
v -0.496658 0.510529 4.500018
v -0.489815 0.520000 4.502968
v -0.507288 0.502939 4.489773
v -0.503357 0.505157 4.496643
v -0.520001 0.500000 4.480000
v -0.510226 0.502939 4.492711
v -0.502939 0.510227 4.507288
v -0.499982 0.510529 4.503342
v -0.500000 0.520000 4.520000
v -0.497032 0.520000 4.510184
v -0.500000 3.480000 4.520000
v -0.502968 3.489816 4.520000
v -0.500018 3.496658 4.510529
v -0.497061 3.492712 4.510227
v -0.510184 3.497033 4.520000
v -0.503342 3.499982 4.510529
v -0.520001 3.500000 4.520000
v -0.507288 3.502939 4.510227
v -0.492712 3.510227 4.502939
v -0.496643 3.503357 4.505157
v -0.479999 3.520000 4.500000
v -0.489774 3.507288 4.502939
v -0.479999 3.520000 5.000000
v -0.492712 3.510227 4.997061
v -0.496643 3.503357 4.994843
v -0.489774 3.507288 4.997061
v -0.507291 3.502938 4.989773
v -0.503342 3.499982 4.989471
v -0.520001 3.500000 4.980000
v -0.510184 3.497032 4.980000
v -0.502968 3.489816 4.980000
v -0.500017 3.496658 4.989471
v -0.500000 3.480000 4.980000
v -0.497061 3.492712 4.989773
v -0.500000 0.520000 4.980000
v -0.502968 0.510184 4.980000
v -0.500017 0.503342 4.989471
v -0.497061 0.507288 4.989773
v -0.510184 0.502968 4.980000
v -0.503342 0.500018 4.989471
v -0.520001 0.500000 4.980000
v -0.507288 0.497061 4.989773
v -0.492712 0.489773 4.997061
v -0.496643 0.496643 4.994843
v -0.479999 0.480000 5.000000
v -0.489774 0.492712 4.997061
v 3.985857 0.020000 4.485858
v 3.981577 0.010217 4.477411
v 3.990912 0.010550 4.484278
v 3.993027 0.020000 4.489845
v 3.979446 0.002945 4.464999
v 3.989651 0.005165 4.475014
v 3.979999 0.000000 4.451716
v 3.989784 0.002945 4.460717
v 3.997055 0.010217 4.470999
v 3.995309 0.010550 4.482455
v 4.000000 0.020000 4.480000
v 3.997749 0.020000 4.487888
v 3.485857 0.020000 4.985858
v 3.489844 0.020000 4.993027
v 3.484277 0.010550 4.990910
v 3.477409 0.010216 4.981577
v 3.487888 0.020000 4.997749
v 3.482454 0.010550 4.995309
v 3.479999 0.020000 5.000000
v 3.470999 0.010217 4.997054
v 3.460716 0.002946 4.989783
v 3.475014 0.005165 4.989650
v 3.451715 0.000000 4.980000
v 3.464998 0.002946 4.979446
v 3.971716 0.500000 4.500000
v 3.978656 0.497033 4.493059
v 3.988727 0.500179 4.495207
v 3.985185 0.502932 4.498872
v 3.983759 0.489816 4.487957
v 3.991493 0.497784 4.492586
v 3.985857 0.480000 4.485858
v 3.993619 0.495740 4.490592
v 4.000581 0.510300 4.490212
v 3.995741 0.504452 4.494150
v 4.004999 0.520000 4.485000
v 3.997269 0.510178 4.493440
v 3.500000 0.500000 4.971716
v 3.498872 0.502932 4.985185
v 3.495207 0.500179 4.988727
v 3.493059 0.497033 4.978657
v 3.493440 0.510178 4.997269
v 3.494150 0.504452 4.995741
v 3.485001 0.520000 5.005000
v 3.490211 0.510301 5.000583
v 3.490591 0.495741 4.993618
v 3.492586 0.497784 4.991494
v 3.485857 0.480000 4.985858
v 3.487958 0.489816 4.983760
v 3.500000 4.011547 4.016330
v 3.520001 4.000000 4.020000
v 3.510001 3.997321 4.010000
v 3.502679 3.990000 4.002679
v 3.500000 3.980000 4.000000
v 3.485857 4.000000 4.014142
v 3.014143 4.000000 4.485858
v 3.000000 3.980000 4.500000
v 3.002679 3.990000 4.502680
v 3.010001 3.997321 4.510000
v 3.020001 4.000000 4.520000
v 3.016330 4.011547 4.500000
v 3.145735 4.455000 4.610380
v 3.149591 4.464819 4.610456
v 3.144434 4.464685 4.601628
v 3.140411 4.455291 4.601277
v 3.156161 4.472160 4.606647
v 3.149060 4.469853 4.598946
v 3.163638 4.475000 4.600000
v 3.155923 4.472619 4.592284
v 3.149178 4.465615 4.585537
v 3.144310 4.464923 4.594196
v 3.145258 4.455920 4.581618
v 3.140236 4.455628 4.590720
v 3.502121 4.455000 4.966765
v 3.512012 4.455000 4.972158
v 3.513577 4.464507 4.970621
v 3.504671 4.464817 4.965119
v 3.523085 4.455000 4.972308
v 3.521593 4.464508 4.970706
v 3.532806 4.455000 4.967193
v 3.530394 4.464816 4.965410
v 3.524934 4.472033 4.960664
v 3.517601 4.469811 4.967052
v 3.517677 4.475000 4.954038
v 3.510284 4.472033 4.960526
v 3.610381 4.455000 4.145735
v 3.601276 4.455291 4.140412
v 3.601630 4.464685 4.144433
v 3.610457 4.464819 4.149590
v 3.590720 4.455628 4.140236
v 3.594196 4.464923 4.144310
v 3.581618 4.455920 4.145258
v 3.585538 4.465615 4.149177
v 3.592285 4.472619 4.155924
v 3.598946 4.469853 4.149060
v 3.600000 4.475000 4.163639
v 3.606645 4.472160 4.156163
v 3.966501 4.455000 4.501857
v 3.964938 4.464816 4.504492
v 3.970547 4.464506 4.513479
v 3.972043 4.455000 4.511873
v 3.960442 4.472034 4.510201
v 3.967024 4.469810 4.517535
v 3.954039 4.475000 4.517678
v 3.960696 4.472033 4.524902
v 3.965482 4.464817 4.530323
v 3.970705 4.464509 4.521531
v 3.967297 4.455000 4.532704
v 3.972321 4.455000 4.523004
v 3.018698 0.020000 4.518697
v 3.006189 0.010231 4.510342
v 3.004967 0.010737 4.504941
v 3.013721 0.020691 4.509527
v 2.989053 0.002936 4.503523
v 2.996619 0.005122 4.501375
v 2.971716 0.000000 4.500000
v 2.988167 0.002823 4.498490
v 3.005057 0.009847 4.494734
v 3.004625 0.010614 4.499891
v 3.017992 0.019245 4.489707
v 3.013466 0.020418 4.499060
v 3.489706 0.019245 4.017991
v 3.494734 0.009847 4.005056
v 3.499890 0.010614 4.004624
v 3.499060 0.020418 4.013465
v 3.498489 0.002823 3.988167
v 3.501375 0.005122 3.996618
v 3.500000 0.000000 3.971716
v 3.503523 0.002936 3.989054
v 3.510342 0.010231 4.006190
v 3.504941 0.010737 4.004966
v 3.518698 0.020000 4.018697
v 3.509528 0.020691 4.013721
v 3.050180 4.025000 4.514824
v 3.044662 4.025000 4.505517
v 3.019026 4.013453 4.500000
v 3.044412 4.025000 4.494915
v 3.049498 4.025000 4.485858
v 3.485857 4.025000 4.049498
v 3.494916 4.025000 4.044413
v 3.500000 4.013453 4.019026
v 3.505518 4.025000 4.044662
v 3.514824 4.025000 4.050179
v -3.500000 0.520000 1.020000
v -3.497061 0.510227 1.007288
v -3.500018 0.510529 1.003342
v -3.502966 0.520000 1.010184
v -3.489774 0.502939 0.992712
v -3.496643 0.505157 0.996643
v -3.479999 0.500000 0.980000
v -3.492712 0.502939 0.989773
v -3.507288 0.510227 0.997062
v -3.503342 0.510529 1.000018
v -3.520001 0.520000 1.000000
v -3.510187 0.520000 1.002968
v -3.979999 3.500000 0.980000
v -3.979999 3.497033 0.989817
v -3.989471 3.499982 0.996659
v -3.989774 3.502939 0.992712
v -3.979999 3.489816 0.997033
v -3.989471 3.496658 0.999982
v -3.979999 3.480000 1.000000
v -3.989774 3.492712 1.002939
v -3.997061 3.507288 1.010227
v -3.994843 3.503357 1.003357
v -4.000000 3.520000 1.020000
v -3.997061 3.510227 1.007288
v -3.979999 0.500000 0.980000
v -3.989774 0.497061 0.992711
v -3.989468 0.500018 0.996658
v -3.979999 0.502968 0.989817
v -3.997061 0.489773 1.007288
v -3.994843 0.496643 1.003357
v -4.000000 0.480000 1.020000
v -3.997061 0.492712 1.010227
v -3.989774 0.507289 1.002939
v -3.989471 0.503342 0.999982
v -3.979999 0.520000 1.000000
v -3.979999 0.510184 0.997033
v -3.520001 3.500000 0.980000
v -3.510226 3.502938 0.992712
v -3.510529 3.499982 0.996659
v -3.520001 3.497033 0.989817
v -3.502939 3.510227 1.007288
v -3.505157 3.503357 1.003357
v -3.500000 3.520000 1.020000
v -3.502939 3.507288 1.010227
v -3.510226 3.492711 1.002939
v -3.510529 3.496659 0.999982
v -3.520001 3.480000 1.000000
v -3.520001 3.489817 0.997033
v -2.520001 0.520000 4.500000
v -2.510184 0.520000 4.502968
v -2.503342 0.510529 4.500018
v -2.507288 0.510227 4.497061
v -2.502966 0.520000 4.510184
v -2.500018 0.510529 4.503342
v -2.500000 0.520000 4.520000
v -2.497061 0.510227 4.507288
v -2.489774 0.502939 4.492711
v -2.496643 0.505157 4.496643
v -2.479999 0.500000 4.480000
v -2.492709 0.502939 4.489773
v -2.520001 3.520000 4.500000
v -2.507288 3.510227 4.502939
v -2.503357 3.503357 4.505157
v -2.510226 3.507288 4.502939
v -2.492709 3.502938 4.510227
v -2.496658 3.499982 4.510529
v -2.479999 3.500000 4.520000
v -2.489813 3.497032 4.520000
v -2.497034 3.489816 4.520000
v -2.499982 3.496658 4.510529
v -2.500000 3.480000 4.520000
v -2.502939 3.492712 4.510228
v -2.500000 3.480000 4.980000
v -2.497034 3.489816 4.980000
v -2.499982 3.496658 4.989471
v -2.502939 3.492712 4.989773
v -2.489816 3.497033 4.980000
v -2.496658 3.499982 4.989471
v -2.479999 3.500000 4.980000
v -2.492712 3.502939 4.989773
v -2.507288 3.510227 4.997061
v -2.503357 3.503357 4.994843
v -2.520001 3.520000 5.000000
v -2.510226 3.507288 4.997061
v -2.520001 0.480000 5.000000
v -2.507288 0.489773 4.997061
v -2.503357 0.496643 4.994843
v -2.510226 0.492712 4.997061
v -2.492709 0.497061 4.989773
v -2.496658 0.500018 4.989471
v -2.479999 0.500000 4.980000
v -2.489813 0.502968 4.980000
v -2.497034 0.510184 4.980000
v -2.499982 0.503342 4.989471
v -2.500000 0.520000 4.980000
v -2.502939 0.507288 4.989773
v -3.985858 0.020000 4.485858
v -3.993027 0.020000 4.489845
v -3.990909 0.010550 4.484278
v -3.981573 0.010216 4.477410
v -3.997748 0.020000 4.487888
v -3.995306 0.010550 4.482455
v -4.000000 0.020000 4.480000
v -3.997055 0.010217 4.470999
v -3.989783 0.002946 4.460717
v -3.989651 0.005165 4.475013
v -3.979999 0.000000 4.451716
v -3.979446 0.002945 4.464998
v -3.485858 0.020000 4.985858
v -3.477411 0.010216 4.981577
v -3.484277 0.010550 4.990910
v -3.489844 0.020000 4.993027
v -3.464999 0.002945 4.979446
v -3.475012 0.005165 4.989650
v -3.451715 0.000000 4.980000
v -3.460718 0.002946 4.989783
v -3.470999 0.010217 4.997054
v -3.482455 0.010550 4.995309
v -3.479999 0.020000 5.000000
v -3.487888 0.020000 4.997749
v -3.971716 0.500000 4.500000
v -3.985187 0.502932 4.498872
v -3.988727 0.500179 4.495206
v -3.978656 0.497033 4.493059
v -3.997269 0.510178 4.493440
v -3.995740 0.504452 4.494150
v -4.005002 0.520000 4.485000
v -4.000583 0.510301 4.490212
v -3.993619 0.495741 4.490591
v -3.991492 0.497784 4.492586
v -3.985858 0.480000 4.485858
v -3.983759 0.489816 4.487956
v -3.500000 0.500000 4.971716
v -3.493060 0.497033 4.978657
v -3.495206 0.500179 4.988728
v -3.498871 0.502932 4.985185
v -3.487958 0.489816 4.983759
v -3.492587 0.497784 4.991494
v -3.485858 0.480000 4.985858
v -3.490594 0.495740 4.993618
v -3.490210 0.510300 5.000583
v -3.494150 0.504452 4.995741
v -3.485001 0.520000 5.005000
v -3.493439 0.510178 4.997269
v -3.485858 4.000000 4.014142
v -3.500000 3.980000 4.000000
v -3.502679 3.990000 4.002680
v -3.510001 3.997321 4.010000
v -3.520001 4.000000 4.020000
v -3.500000 4.011547 4.016330
v -3.016330 4.011547 4.500000
v -3.020001 4.000000 4.520000
v -3.010001 3.997321 4.510000
v -3.002679 3.990000 4.502680
v -3.000000 3.980000 4.500000
v -3.014142 4.000000 4.485858
v -3.145734 4.455000 4.610380
v -3.140411 4.455291 4.601277
v -3.144434 4.464685 4.601628
v -3.149591 4.464819 4.610456
v -3.140234 4.455628 4.590720
v -3.144312 4.464923 4.594196
v -3.145258 4.455920 4.581618
v -3.149176 4.465615 4.585537
v -3.155923 4.472619 4.592284
v -3.149060 4.469853 4.598946
v -3.163638 4.475000 4.600000
v -3.156161 4.472160 4.606647
v -3.502121 4.455000 4.966765
v -3.504672 4.464817 4.965119
v -3.513577 4.464507 4.970621
v -3.512012 4.455000 4.972158
v -3.510284 4.472033 4.960527
v -3.517603 4.469810 4.967052
v -3.517676 4.475000 4.954038
v -3.524936 4.472033 4.960664
v -3.530392 4.464817 4.965410
v -3.521594 4.464508 4.970707
v -3.532806 4.455000 4.967193
v -3.523083 4.455000 4.972308
v -3.610379 4.455000 4.145735
v -3.610455 4.464819 4.149590
v -3.601627 4.464685 4.144433
v -3.601276 4.455291 4.140412
v -3.606647 4.472160 4.156163
v -3.598944 4.469853 4.149060
v -3.600000 4.475000 4.163639
v -3.592285 4.472619 4.155924
v -3.585538 4.465615 4.149177
v -3.594196 4.464923 4.144310
v -3.581616 4.455920 4.145258
v -3.590723 4.455628 4.140236
v -3.966501 4.455000 4.501857
v -3.972043 4.455000 4.511874
v -3.970547 4.464506 4.513479
v -3.964938 4.464816 4.504491
v -3.972321 4.455000 4.523004
v -3.970706 4.464509 4.521531
v -3.967297 4.455000 4.532704
v -3.965482 4.464817 4.530323
v -3.960696 4.472033 4.524902
v -3.967023 4.469811 4.517535
v -3.954037 4.475000 4.517678
v -3.960443 4.472034 4.510201
v -3.018698 0.020000 4.518697
v -3.013721 0.020691 4.509527
v -3.004968 0.010737 4.504941
v -3.006192 0.010231 4.510342
v -3.013464 0.020418 4.499059
v -3.004626 0.010614 4.499890
v -3.017990 0.019245 4.489707
v -3.005057 0.009847 4.494734
v -2.988165 0.002823 4.498490
v -2.996619 0.005122 4.501375
v -2.971716 0.000000 4.500000
v -2.989053 0.002936 4.503523
v -3.489709 0.019245 4.017991
v -3.499057 0.020418 4.013465
v -3.499890 0.010614 4.004624
v -3.494733 0.009847 4.005056
v -3.509528 0.020691 4.013721
v -3.504941 0.010737 4.004966
v -3.518698 0.020000 4.018697
v -3.510342 0.010231 4.006190
v -3.503522 0.002936 3.989054
v -3.501373 0.005122 3.996617
v -3.500000 0.000000 3.971716
v -3.498489 0.002823 3.988167
v -3.049496 4.025000 4.485858
v -3.044412 4.025000 4.494915
v -3.019025 4.013453 4.500000
v -3.044662 4.025000 4.505518
v -3.050177 4.025000 4.514824
v -3.514825 4.025000 4.050179
v -3.505518 4.025000 4.044662
v -3.500000 4.013453 4.019026
v -3.494916 4.025000 4.044413
v -3.485858 4.025000 4.049498
v 3.110696 0.480000 4.610697
v 3.105396 0.480239 4.601618
v 3.109253 0.489664 4.601803
v 3.114380 0.489849 4.610601
v 3.105249 0.480516 4.591087
v 3.109148 0.489859 4.594390
v 3.110292 0.480755 4.582009
v 3.114030 0.490503 4.585746
v 3.120634 0.497567 4.592350
v 3.113799 0.494832 4.599039
v 3.128284 0.500000 4.600000
v 3.120836 0.497190 4.606675
v 3.600000 0.500000 4.128284
v 3.592349 0.497567 4.120634
v 3.599039 0.494832 4.113798
v 3.606676 0.497190 4.120836
v 3.585747 0.490503 4.114030
v 3.594391 0.489859 4.109148
v 3.582008 0.480755 4.110293
v 3.591087 0.480516 4.105248
v 3.601617 0.480239 4.105396
v 3.601804 0.489664 4.109253
v 3.610696 0.480000 4.110697
v 3.610602 0.489849 4.114380
v -3.110696 0.480000 4.610697
v -3.114380 0.489849 4.610601
v -3.109253 0.489664 4.601803
v -3.105396 0.480239 4.601618
v -3.120837 0.497190 4.606675
v -3.113797 0.494832 4.599039
v -3.128284 0.500000 4.600000
v -3.120633 0.497567 4.592350
v -3.114032 0.490503 4.585746
v -3.109149 0.489859 4.594390
v -3.110294 0.480755 4.582009
v -3.105249 0.480516 4.591087
v -3.600000 0.500000 4.128284
v -3.606674 0.497190 4.120836
v -3.599039 0.494832 4.113798
v -3.592349 0.497567 4.120634
v -3.610602 0.489849 4.114380
v -3.601804 0.489664 4.109253
v -3.610696 0.480000 4.110697
v -3.601617 0.480239 4.105396
v -3.591089 0.480516 4.105248
v -3.594391 0.489859 4.109148
v -3.582007 0.480755 4.110293
v -3.585748 0.490503 4.114030
v 2.028323 0.985838 -4.500000
v 2.014328 0.998815 -4.503013
v 2.007265 0.999453 -4.505154
v 2.015938 0.992672 -4.502858
v 2.004056 1.011247 -4.510340
v 2.001183 1.005160 -4.510625
v 2.000000 1.020000 -4.520000
v 1.997032 1.010183 -4.520000
v 1.989816 1.002968 -4.520000
v 1.999234 1.000888 -4.510454
v 1.979999 1.000000 -4.520000
v 1.998289 0.997877 -4.510139
v 0.020001 1.000000 -4.520000
v 0.010184 1.002968 -4.520000
v 0.003587 1.000554 -4.510452
v 0.007065 0.997811 -4.510136
v 0.002968 1.010183 -4.520000
v 0.000552 1.003588 -4.510452
v 0.000000 1.020000 -4.520000
v -0.002190 1.007064 -4.510136
v -0.007541 0.994451 -4.502868
v -0.002240 0.997761 -4.505074
v -0.014595 0.985405 -4.500000
v -0.005551 0.992459 -4.502867
v 2.029625 3.009875 -5.000000
v 2.014961 2.998304 -4.996977
v 2.008649 2.999053 -4.994883
v 2.019432 3.005165 -4.997216
v 2.004228 2.987440 -4.989647
v 2.001508 2.994094 -4.989364
v 2.000000 2.980000 -4.980000
v 1.997032 2.989816 -4.980000
v 1.989816 2.997032 -4.980000
v 2.000426 2.998567 -4.989602
v 1.979999 3.000000 -4.980000
v 2.001283 3.001503 -4.989928
v 0.020001 3.000000 -4.980000
v 0.010184 2.997032 -4.980000
v 0.003851 2.999028 -4.989604
v 0.007117 3.001616 -4.989929
v 0.002968 2.989817 -4.980000
v 0.000970 2.996149 -4.989604
v 0.000000 2.980000 -4.980000
v -0.001617 2.992884 -4.989930
v -0.005547 3.004065 -4.997204
v -0.001337 3.001337 -4.995007
v -0.010623 3.010625 -5.000000
v -0.004065 3.005547 -4.997205
v 2.029625 0.990125 -5.000000
v 2.019432 0.994836 -4.997216
v 2.008649 1.000947 -4.994883
v 2.014961 1.001696 -4.996977
v 2.001283 0.998498 -4.989927
v 2.000426 1.001433 -4.989602
v 1.979999 1.000000 -4.980000
v 1.989816 1.002968 -4.980000
v 1.997032 1.010183 -4.980000
v 2.001508 1.005906 -4.989364
v 2.000000 1.020000 -4.980000
v 2.004228 1.012560 -4.989647
v 0.000000 1.020000 -4.980000
v 0.002968 1.010183 -4.980000
v 0.000970 1.003851 -4.989604
v -0.001617 1.007116 -4.989930
v 0.010184 1.002968 -4.980000
v 0.003851 1.000971 -4.989603
v 0.020001 1.000000 -4.980000
v 0.007117 0.998383 -4.989930
v -0.004065 0.994453 -4.997204
v -0.001337 0.998663 -4.995007
v -0.010623 0.989375 -5.000000
v -0.005547 0.995935 -4.997204
v 2.028323 3.014162 -4.500000
v 2.015938 3.007328 -4.502858
v 2.007265 3.000547 -4.505154
v 2.014328 3.001185 -4.503013
v 1.998289 3.002123 -4.510139
v 1.999234 2.999112 -4.510455
v 1.979999 3.000000 -4.520000
v 1.989816 2.997032 -4.520000
v 1.997032 2.989817 -4.520000
v 2.001183 2.994840 -4.510625
v 2.000000 2.980000 -4.520000
v 2.004056 2.988753 -4.510340
v 0.000000 2.980000 -4.520000
v 0.002968 2.989816 -4.520000
v 0.000552 2.996412 -4.510452
v -0.002190 2.992936 -4.510136
v 0.010184 2.997032 -4.520000
v 0.003587 2.999446 -4.510452
v 0.020001 3.000000 -4.520000
v 0.007065 3.002189 -4.510136
v -0.005551 3.007541 -4.502867
v -0.002240 3.002239 -4.505075
v -0.014595 3.014595 -4.500000
v -0.007541 3.005549 -4.502868
v 3.500000 0.520000 -1.020000
v 3.497061 0.510227 -1.007288
v 3.500017 0.510529 -1.003342
v 3.502968 0.520000 -1.010184
v 3.489774 0.502939 -0.992712
v 3.496643 0.505157 -0.996643
v 3.479999 0.500000 -0.980000
v 3.492712 0.502939 -0.989773
v 3.507288 0.510227 -0.997062
v 3.503342 0.510529 -1.000018
v 3.520001 0.520000 -1.000000
v 3.510184 0.520000 -1.002968
v 3.979999 3.500000 -0.980000
v 3.979999 3.497033 -0.989817
v 3.989471 3.499982 -0.996659
v 3.989774 3.502939 -0.992712
v 3.979999 3.489816 -0.997033
v 3.989471 3.496658 -0.999982
v 3.979999 3.480000 -1.000000
v 3.989774 3.492712 -1.002939
v 3.997061 3.507288 -1.010227
v 3.994843 3.503357 -1.003357
v 4.000000 3.520000 -1.020000
v 3.997061 3.510227 -1.007288
v 3.979999 0.500000 -0.980000
v 3.989774 0.497061 -0.992712
v 3.989471 0.500018 -0.996659
v 3.979999 0.502968 -0.989817
v 3.997061 0.489773 -1.007288
v 3.994843 0.496643 -1.003357
v 4.000000 0.480000 -1.020000
v 3.997061 0.492712 -1.010227
v 3.989774 0.507288 -1.002939
v 3.989471 0.503342 -0.999982
v 3.979999 0.520000 -1.000000
v 3.979999 0.510184 -0.997033
v 3.520001 3.500000 -0.980000
v 3.510226 3.502939 -0.992712
v 3.510529 3.499982 -0.996659
v 3.520001 3.497033 -0.989817
v 3.502939 3.510227 -1.007288
v 3.505157 3.503357 -1.003357
v 3.500000 3.520000 -1.020000
v 3.502939 3.507288 -1.010227
v 3.510226 3.492712 -1.002939
v 3.510529 3.496659 -0.999982
v 3.520001 3.480000 -1.000000
v 3.520001 3.489817 -0.997033
v -0.500000 0.520000 -4.520000
v -0.502939 0.510227 -4.507288
v -0.499983 0.510529 -4.503342
v -0.497032 0.520000 -4.510184
v -0.510226 0.502939 -4.492711
v -0.503357 0.505157 -4.496643
v -0.520001 0.500000 -4.480000
v -0.507288 0.502939 -4.489773
v -0.492712 0.510227 -4.497061
v -0.496658 0.510529 -4.500018
v -0.479999 0.520000 -4.500000
v -0.489816 0.520000 -4.502968
v -0.479999 3.520000 -4.500000
v -0.492712 3.510227 -4.502939
v -0.496643 3.503357 -4.505157
v -0.489774 3.507288 -4.502939
v -0.507291 3.502938 -4.510227
v -0.503342 3.499982 -4.510529
v -0.520001 3.500000 -4.520000
v -0.510184 3.497032 -4.520000
v -0.502968 3.489816 -4.520000
v -0.500017 3.496658 -4.510529
v -0.500000 3.480000 -4.520000
v -0.497061 3.492712 -4.510228
v -0.500000 3.480000 -4.980000
v -0.502968 3.489816 -4.980000
v -0.500018 3.496658 -4.989471
v -0.497061 3.492712 -4.989773
v -0.510184 3.497033 -4.980000
v -0.503342 3.499982 -4.989471
v -0.520001 3.500000 -4.980000
v -0.507288 3.502939 -4.989773
v -0.492712 3.510227 -4.997061
v -0.496643 3.503357 -4.994843
v -0.479999 3.520000 -5.000000
v -0.489774 3.507288 -4.997061
v -0.479999 0.480000 -5.000000
v -0.492712 0.489773 -4.997061
v -0.496643 0.496643 -4.994843
v -0.489774 0.492712 -4.997061
v -0.507288 0.497061 -4.989773
v -0.503342 0.500018 -4.989471
v -0.520001 0.500000 -4.980000
v -0.510184 0.502968 -4.980000
v -0.502968 0.510184 -4.980000
v -0.500017 0.503342 -4.989471
v -0.500000 0.520000 -4.980000
v -0.497061 0.507288 -4.989773
v 3.985857 0.020000 -4.485858
v 3.993027 0.020000 -4.489845
v 3.990912 0.010550 -4.484278
v 3.981577 0.010217 -4.477411
v 3.997749 0.020000 -4.487888
v 3.995309 0.010550 -4.482456
v 4.000000 0.020000 -4.480000
v 3.997055 0.010217 -4.471000
v 3.989784 0.002945 -4.460716
v 3.989651 0.005165 -4.475013
v 3.979999 0.000000 -4.451716
v 3.979446 0.002945 -4.464998
v 3.485857 0.020000 -4.985858
v 3.477409 0.010216 -4.981576
v 3.484277 0.010550 -4.990910
v 3.489844 0.020000 -4.993027
v 3.464998 0.002946 -4.979446
v 3.475014 0.005165 -4.989650
v 3.451715 0.000000 -4.980000
v 3.460716 0.002946 -4.989783
v 3.470999 0.010217 -4.997054
v 3.482454 0.010550 -4.995309
v 3.479999 0.020000 -5.000000
v 3.487888 0.020000 -4.997749
v 3.971716 0.500000 -4.500000
v 3.985185 0.502932 -4.498872
v 3.988727 0.500179 -4.495207
v 3.978656 0.497033 -4.493059
v 3.997269 0.510178 -4.493441
v 3.995741 0.504452 -4.494151
v 4.005002 0.520000 -4.485000
v 4.000581 0.510300 -4.490212
v 3.993619 0.495740 -4.490591
v 3.991493 0.497784 -4.492586
v 3.985857 0.480000 -4.485858
v 3.983759 0.489816 -4.487957
v 3.500000 0.500000 -4.971716
v 3.493059 0.497033 -4.978657
v 3.495207 0.500179 -4.988727
v 3.498872 0.502932 -4.985185
v 3.487958 0.489816 -4.983759
v 3.492586 0.497784 -4.991494
v 3.485857 0.480000 -4.985858
v 3.490591 0.495741 -4.993618
v 3.490211 0.510301 -5.000583
v 3.494150 0.504452 -4.995741
v 3.485001 0.520000 -5.005000
v 3.493440 0.510178 -4.997269
v 3.485857 4.000000 -4.014142
v 3.500000 3.980000 -4.000000
v 3.502679 3.990000 -4.002679
v 3.510001 3.997321 -4.010000
v 3.520001 4.000000 -4.020000
v 3.500000 4.011547 -4.016330
v 3.016330 4.011547 -4.500000
v 3.020001 4.000000 -4.520000
v 3.010001 3.997321 -4.510000
v 3.002679 3.990000 -4.502680
v 3.000000 3.980000 -4.500000
v 3.014143 4.000000 -4.485858
v 3.145735 4.455000 -4.610380
v 3.140411 4.455291 -4.601277
v 3.144434 4.464685 -4.601628
v 3.149591 4.464819 -4.610456
v 3.140236 4.455628 -4.590720
v 3.144310 4.464923 -4.594196
v 3.145258 4.455920 -4.581618
v 3.149178 4.465615 -4.585537
v 3.155923 4.472619 -4.592284
v 3.149060 4.469853 -4.598946
v 3.163638 4.475000 -4.600000
v 3.156161 4.472160 -4.606647
v 3.502121 4.455000 -4.966765
v 3.504671 4.464817 -4.965119
v 3.513577 4.464507 -4.970621
v 3.512012 4.455000 -4.972158
v 3.510284 4.472033 -4.960526
v 3.517601 4.469811 -4.967052
v 3.517677 4.475000 -4.954038
v 3.524934 4.472033 -4.960664
v 3.530394 4.464816 -4.965410
v 3.521593 4.464508 -4.970707
v 3.532806 4.455000 -4.967193
v 3.523085 4.455000 -4.972308
v 3.610381 4.455000 -4.145735
v 3.610457 4.464819 -4.149590
v 3.601630 4.464685 -4.144433
v 3.601276 4.455291 -4.140412
v 3.606645 4.472160 -4.156163
v 3.598946 4.469853 -4.149060
v 3.600000 4.475000 -4.163639
v 3.592285 4.472619 -4.155924
v 3.585538 4.465615 -4.149177
v 3.594196 4.464923 -4.144310
v 3.581618 4.455920 -4.145258
v 3.590720 4.455628 -4.140236
v 3.966501 4.455000 -4.501857
v 3.972043 4.455000 -4.511873
v 3.970547 4.464506 -4.513479
v 3.964938 4.464816 -4.504492
v 3.972321 4.455000 -4.523004
v 3.970705 4.464509 -4.521531
v 3.967297 4.455000 -4.532704
v 3.965482 4.464817 -4.530323
v 3.960696 4.472033 -4.524902
v 3.967024 4.469811 -4.517536
v 3.954039 4.475000 -4.517678
v 3.960442 4.472034 -4.510201
v 3.018698 0.020000 -4.518697
v 3.013721 0.020691 -4.509527
v 3.004967 0.010737 -4.504941
v 3.006189 0.010231 -4.510342
v 3.013466 0.020418 -4.499059
v 3.004625 0.010614 -4.499890
v 3.017992 0.019245 -4.489707
v 3.005057 0.009847 -4.494734
v 2.988167 0.002823 -4.498490
v 2.996619 0.005122 -4.501374
v 2.971716 0.000000 -4.500000
v 2.989053 0.002936 -4.503523
v 3.489706 0.019245 -4.017991
v 3.499060 0.020418 -4.013465
v 3.499890 0.010614 -4.004625
v 3.494734 0.009847 -4.005056
v 3.509528 0.020691 -4.013721
v 3.504941 0.010737 -4.004967
v 3.518698 0.020000 -4.018697
v 3.510342 0.010231 -4.006190
v 3.503523 0.002936 -3.989054
v 3.501375 0.005122 -3.996618
v 3.500000 0.000000 -3.971716
v 3.498489 0.002823 -3.988167
v 3.049498 4.025000 -4.485858
v 3.044412 4.025000 -4.494915
v 3.019026 4.013453 -4.500000
v 3.044662 4.025000 -4.505517
v 3.050180 4.025000 -4.514824
v 3.514824 4.025000 -4.050179
v 3.505518 4.025000 -4.044662
v 3.500000 4.013453 -4.019026
v 3.494916 4.025000 -4.044413
v 3.485857 4.025000 -4.049498
v -3.500000 0.520000 -1.020000
v -3.502966 0.520000 -1.010184
v -3.500018 0.510529 -1.003342
v -3.497061 0.510227 -1.007288
v -3.510184 0.520000 -1.002968
v -3.503342 0.510529 -1.000018
v -3.520001 0.520000 -1.000000
v -3.507288 0.510227 -0.997062
v -3.492712 0.502939 -0.989773
v -3.496643 0.505157 -0.996643
v -3.479999 0.500000 -0.980000
v -3.489774 0.502939 -0.992712
v -3.979999 3.500000 -0.980000
v -3.989774 3.502938 -0.992712
v -3.989468 3.499982 -0.996659
v -3.979999 3.497033 -0.989817
v -3.997061 3.510227 -1.007288
v -3.994843 3.503357 -1.003357
v -4.000000 3.520000 -1.020000
v -3.997061 3.507288 -1.010227
v -3.989774 3.492711 -1.002939
v -3.989471 3.496659 -0.999982
v -3.979999 3.480000 -1.000000
v -3.979999 3.489817 -0.997033
v -3.979999 0.500000 -0.980000
v -3.979999 0.502968 -0.989817
v -3.989471 0.500018 -0.996658
v -3.989774 0.497061 -0.992711
v -3.979999 0.510184 -0.997033
v -3.989471 0.503342 -0.999982
v -3.979999 0.520000 -1.000000
v -3.989774 0.507289 -1.002939
v -3.997061 0.492712 -1.010227
v -3.994843 0.496643 -1.003357
v -4.000000 0.480000 -1.020000
v -3.997061 0.489773 -1.007288
v -3.520001 3.500000 -0.980000
v -3.520001 3.497033 -0.989817
v -3.510529 3.499982 -0.996659
v -3.510226 3.502939 -0.992712
v -3.520001 3.489816 -0.997033
v -3.510529 3.496658 -0.999982
v -3.520001 3.480000 -1.000000
v -3.510226 3.492712 -1.002939
v -3.502939 3.507288 -1.010227
v -3.505157 3.503357 -1.003357
v -3.500000 3.520000 -1.020000
v -3.502939 3.510227 -1.007288
v -2.520001 0.520000 -4.500000
v -2.507288 0.510227 -4.497061
v -2.503342 0.510529 -4.500018
v -2.510187 0.520000 -4.502968
v -2.492709 0.502939 -4.489773
v -2.496643 0.505157 -4.496643
v -2.479999 0.500000 -4.480000
v -2.489774 0.502939 -4.492711
v -2.497061 0.510227 -4.507288
v -2.500018 0.510529 -4.503342
v -2.500000 0.520000 -4.520000
v -2.502966 0.520000 -4.510184
v -2.500000 3.480000 -4.520000
v -2.497034 3.489816 -4.520000
v -2.499982 3.496658 -4.510529
v -2.502939 3.492712 -4.510227
v -2.489816 3.497033 -4.520000
v -2.496658 3.499982 -4.510529
v -2.479999 3.500000 -4.520000
v -2.492712 3.502939 -4.510227
v -2.507288 3.510227 -4.502939
v -2.503357 3.503357 -4.505157
v -2.520001 3.520000 -4.500000
v -2.510226 3.507288 -4.502939
v -2.520001 3.520000 -5.000000
v -2.507288 3.510227 -4.997061
v -2.503357 3.503357 -4.994843
v -2.510226 3.507288 -4.997061
v -2.492709 3.502938 -4.989773
v -2.496658 3.499982 -4.989471
v -2.479999 3.500000 -4.980000
v -2.489813 3.497032 -4.980000
v -2.497034 3.489816 -4.980000
v -2.499982 3.496658 -4.989471
v -2.500000 3.480000 -4.980000
v -2.502939 3.492712 -4.989773
v -2.500000 0.520000 -4.980000
v -2.497034 0.510184 -4.980000
v -2.499982 0.503342 -4.989471
v -2.502939 0.507288 -4.989773
v -2.489816 0.502968 -4.980000
v -2.496658 0.500018 -4.989471
v -2.479999 0.500000 -4.980000
v -2.492709 0.497061 -4.989773
v -2.507288 0.489773 -4.997061
v -2.503357 0.496643 -4.994843
v -2.520001 0.480000 -5.000000
v -2.510226 0.492712 -4.997061
v -3.985858 0.020000 -4.485858
v -3.981573 0.010216 -4.477410
v -3.990909 0.010550 -4.484277
v -3.993027 0.020000 -4.489845
v -3.979446 0.002945 -4.464998
v -3.989651 0.005165 -4.475014
v -3.979999 0.000000 -4.451716
v -3.989783 0.002946 -4.460716
v -3.997055 0.010217 -4.470999
v -3.995306 0.010550 -4.482455
v -4.000000 0.020000 -4.480000
v -3.997748 0.020000 -4.487888
v -3.485858 0.020000 -4.985858
v -3.489844 0.020000 -4.993027
v -3.484277 0.010550 -4.990910
v -3.477411 0.010216 -4.981577
v -3.487888 0.020000 -4.997749
v -3.482455 0.010550 -4.995309
v -3.479999 0.020000 -5.000000
v -3.470999 0.010217 -4.997054
v -3.460718 0.002946 -4.989783
v -3.475012 0.005165 -4.989650
v -3.451715 0.000000 -4.980000
v -3.464999 0.002945 -4.979446
v -3.971716 0.500000 -4.500000
v -3.978656 0.497033 -4.493059
v -3.988727 0.500179 -4.495207
v -3.985187 0.502932 -4.498872
v -3.983762 0.489816 -4.487956
v -3.991492 0.497784 -4.492586
v -3.985858 0.480000 -4.485858
v -3.993619 0.495741 -4.490592
v -4.000583 0.510301 -4.490212
v -3.995740 0.504452 -4.494151
v -4.005002 0.520000 -4.485000
v -3.997269 0.510178 -4.493440
v -3.500000 0.500000 -4.971716
v -3.498871 0.502932 -4.985185
v -3.495206 0.500179 -4.988727
v -3.493060 0.497033 -4.978657
v -3.493442 0.510178 -4.997269
v -3.494153 0.504452 -4.995741
v -3.485001 0.520000 -5.005000
v -3.490210 0.510300 -5.000583
v -3.490594 0.495740 -4.993618
v -3.492587 0.497784 -4.991493
v -3.485858 0.480000 -4.985858
v -3.487958 0.489816 -4.983759
v -3.500000 4.011547 -4.016330
v -3.520001 4.000000 -4.020000
v -3.510001 3.997321 -4.010000
v -3.502679 3.990000 -4.002680
v -3.500000 3.980000 -4.000000
v -3.485858 4.000000 -4.014142
v -3.014142 4.000000 -4.485858
v -3.000000 3.980000 -4.500000
v -3.002679 3.990000 -4.502680
v -3.010001 3.997321 -4.510000
v -3.020001 4.000000 -4.520000
v -3.016330 4.011547 -4.500000
v -3.145734 4.455000 -4.610380
v -3.149591 4.464819 -4.610456
v -3.144434 4.464685 -4.601628
v -3.140411 4.455291 -4.601277
v -3.156161 4.472160 -4.606647
v -3.149060 4.469853 -4.598946
v -3.163638 4.475000 -4.600000
v -3.155923 4.472619 -4.592284
v -3.149176 4.465615 -4.585537
v -3.144312 4.464923 -4.594196
v -3.145258 4.455920 -4.581618
v -3.140234 4.455628 -4.590720
v -3.502121 4.455000 -4.966765
v -3.512012 4.455000 -4.972158
v -3.513577 4.464506 -4.970621
v -3.504672 4.464816 -4.965119
v -3.523083 4.455000 -4.972308
v -3.521594 4.464508 -4.970706
v -3.532806 4.455000 -4.967193
v -3.530392 4.464816 -4.965410
v -3.524936 4.472033 -4.960664
v -3.517603 4.469810 -4.967052
v -3.517676 4.475000 -4.954038
v -3.510284 4.472033 -4.960527
v -3.610379 4.455000 -4.145735
v -3.601276 4.455291 -4.140412
v -3.601627 4.464685 -4.144433
v -3.610455 4.464819 -4.149590
v -3.590723 4.455628 -4.140236
v -3.594196 4.464923 -4.144310
v -3.581616 4.455920 -4.145258
v -3.585538 4.465615 -4.149177
v -3.592285 4.472619 -4.155924
v -3.598944 4.469853 -4.149060
v -3.600000 4.475000 -4.163639
v -3.606647 4.472160 -4.156163
v -3.966501 4.455000 -4.501857
v -3.964938 4.464816 -4.504491
v -3.970547 4.464506 -4.513479
v -3.972043 4.455000 -4.511874
v -3.960443 4.472033 -4.510201
v -3.967023 4.469811 -4.517535
v -3.954037 4.475000 -4.517678
v -3.960696 4.472033 -4.524902
v -3.965482 4.464817 -4.530323
v -3.970706 4.464509 -4.521531
v -3.967297 4.455000 -4.532704
v -3.972321 4.455000 -4.523005
v -3.018698 0.020000 -4.518697
v -3.006192 0.010231 -4.510342
v -3.004968 0.010737 -4.504940
v -3.013721 0.020691 -4.509527
v -2.989056 0.002936 -4.503523
v -2.996619 0.005122 -4.501375
v -2.971716 0.000000 -4.500000
v -2.988165 0.002823 -4.498490
v -3.005057 0.009847 -4.494733
v -3.004626 0.010614 -4.499890
v -3.017990 0.019245 -4.489707
v -3.013464 0.020418 -4.499059
v -3.489709 0.019245 -4.017991
v -3.494733 0.009847 -4.005056
v -3.499890 0.010614 -4.004625
v -3.499057 0.020418 -4.013465
v -3.498489 0.002823 -3.988167
v -3.501376 0.005122 -3.996618
v -3.500000 0.000000 -3.971716
v -3.503522 0.002936 -3.989054
v -3.510342 0.010231 -4.006190
v -3.504941 0.010737 -4.004966
v -3.518698 0.020000 -4.018697
v -3.509528 0.020691 -4.013721
v -3.050177 4.025000 -4.514824
v -3.044662 4.025000 -4.505518
v -3.019025 4.013453 -4.500000
v -3.044412 4.025000 -4.494915
v -3.049496 4.025000 -4.485858
v -3.485858 4.025000 -4.049498
v -3.494916 4.025000 -4.044413
v -3.500000 4.013453 -4.019026
v -3.505518 4.025000 -4.044662
v -3.514825 4.025000 -4.050179
v 3.110696 0.480000 -4.610697
v 3.114380 0.489849 -4.610601
v 3.109253 0.489664 -4.601803
v 3.105396 0.480239 -4.601618
v 3.120836 0.497190 -4.606675
v 3.113799 0.494832 -4.599039
v 3.128284 0.500000 -4.600000
v 3.120634 0.497567 -4.592350
v 3.114030 0.490503 -4.585746
v 3.109148 0.489859 -4.594390
v 3.110292 0.480755 -4.582009
v 3.105249 0.480516 -4.591087
v 3.600000 0.500000 -4.128284
v 3.606676 0.497190 -4.120836
v 3.599039 0.494832 -4.113798
v 3.592349 0.497567 -4.120634
v 3.610602 0.489849 -4.114380
v 3.601805 0.489664 -4.109253
v 3.610696 0.480000 -4.110697
v 3.601617 0.480239 -4.105396
v 3.591087 0.480516 -4.105248
v 3.594391 0.489859 -4.109148
v 3.582008 0.480755 -4.110293
v 3.585747 0.490503 -4.114030
v -3.110696 0.480000 -4.610697
v -3.105396 0.480239 -4.601618
v -3.109253 0.489664 -4.601803
v -3.114380 0.489849 -4.610601
v -3.105249 0.480516 -4.591087
v -3.109149 0.489859 -4.594390
v -3.110294 0.480755 -4.582009
v -3.114032 0.490503 -4.585746
v -3.120633 0.497567 -4.592350
v -3.113797 0.494832 -4.599039
v -3.128284 0.500000 -4.600000
v -3.120837 0.497190 -4.606675
v -3.600000 0.500000 -4.128284
v -3.592349 0.497567 -4.120634
v -3.599039 0.494832 -4.113798
v -3.606674 0.497190 -4.120836
v -3.585748 0.490503 -4.114030
v -3.594391 0.489859 -4.109148
v -3.582007 0.480755 -4.110293
v -3.591089 0.480516 -4.105248
v -3.601617 0.480239 -4.105396
v -3.601804 0.489664 -4.109253
v -3.610696 0.480000 -4.110697
v -3.610602 0.489849 -4.114380
v 3.979999 0.000000 1.000000
v 3.979999 0.000000 0.000000
v 3.989999 0.002679 0.000000
v 3.989999 0.002679 1.000000
v 3.997321 0.010000 0.000000
v 3.997321 0.010000 1.000000
v 4.000000 0.020000 0.000000
v 4.000000 0.020000 1.000000
v 3.983356 4.000000 0.000000
v 3.983492 4.000000 1.000000
v 3.991745 3.997174 1.000000
v 3.991678 3.997179 0.000000
v 3.997787 3.989452 1.000000
v 3.997771 3.989473 0.000000
v 4.000000 3.978904 1.000000
v 4.000000 3.978946 0.000000
v 3.500000 3.980000 0.000000
v 3.500000 3.980000 1.000000
v 3.502679 3.990000 1.000000
v 3.502679 3.990000 0.000000
v 3.510001 3.997321 1.000000
v 3.510001 3.997321 0.000000
v 3.520001 4.000000 1.000000
v 3.520001 4.000000 0.000000
v 4.000000 3.520000 0.000000
v 3.997321 3.510000 0.000000
v 3.989999 3.502679 0.000000
v 3.979999 3.500000 0.000000
v 3.979999 0.500000 0.000000
v 3.989999 0.497321 0.000000
v 3.997321 0.490000 0.000000
v 4.000000 0.480000 0.000000
v 3.520001 3.500000 0.000000
v 3.510001 3.502679 0.000000
v 3.502679 3.510000 0.000000
v 3.500000 3.520000 0.000000
v -0.500000 0.000000 4.980000
v -0.500000 0.002679 4.990000
v -0.500000 0.010000 4.997320
v -0.500000 0.020000 5.000000
v 4.000000 3.978775 4.500000
v 3.997845 3.989387 4.497844
v 3.991953 3.997156 4.491953
v 3.983905 4.000000 4.483905
v -0.500000 3.978698 5.000000
v 3.500000 3.978594 5.000000
v 3.497885 3.989297 4.997884
v -0.500000 3.989349 4.997843
v 3.492105 3.997132 4.992105
v -0.500000 3.997146 4.991950
v 3.484210 4.000000 4.984211
v -0.500000 4.000000 4.983900
v -0.500000 4.000000 4.520000
v -0.500000 3.997321 4.510000
v -0.500000 3.990000 4.502680
v -0.500000 3.980000 4.500000
v 3.966434 4.025000 4.501790
v 3.972360 4.025000 4.511752
v 3.972662 4.025000 4.523080
v 3.967261 4.025000 4.532740
v 3.502063 4.025000 4.966708
v 3.511903 4.025000 4.972484
v 3.523170 4.025000 4.972647
v 3.532846 4.025000 4.967154
v 3.000000 0.520000 4.500000
v 2.998889 0.510000 4.497320
v 2.995857 0.502679 4.490000
v 2.991716 0.500000 4.480000
v -2.500000 0.020000 5.000000
v -2.500000 0.010000 4.997320
v -2.500000 0.002679 4.990000
v -2.500000 0.000000 4.980000
v -2.500000 3.978698 5.000000
v -2.500000 3.989349 4.997843
v -2.500000 3.997146 4.991950
v -2.500000 4.000000 4.983900
v -2.500000 4.000000 4.520000
v -2.500000 3.997321 4.510000
v -2.500000 3.990000 4.502680
v -2.500000 3.980000 4.500000
v -4.000000 0.020000 1.000000
v -4.000000 0.020000 0.000000
v -3.997321 0.010000 0.000000
v -3.997321 0.010000 1.000000
v -3.989999 0.002679 0.000000
v -3.989999 0.002679 1.000000
v -3.979999 0.000000 0.000000
v -3.979999 0.000000 1.000000
v -4.000000 3.978946 0.000000
v -4.000000 3.978904 1.000000
v -3.997791 3.989452 1.000000
v -3.997769 3.989473 0.000000
v -3.991745 3.997174 1.000000
v -3.991678 3.997179 0.000000
v -3.983493 4.000000 1.000000
v -3.983356 4.000000 0.000000
v -3.520001 4.000000 0.000000
v -3.520001 4.000000 1.000000
v -3.510001 3.997321 1.000000
v -3.510001 3.997321 0.000000
v -3.502679 3.990000 1.000000
v -3.502679 3.990000 0.000000
v -3.500000 3.980000 1.000000
v -3.500000 3.980000 0.000000
v -3.979999 3.500000 0.000000
v -3.989999 3.502679 0.000000
v -3.997321 3.510000 0.000000
v -4.000000 3.520000 0.000000
v -4.000000 0.480000 0.000000
v -3.997321 0.490000 0.000000
v -3.989999 0.497321 0.000000
v -3.979999 0.500000 0.000000
v -3.500000 3.520000 0.000000
v -3.502679 3.510000 0.000000
v -3.510001 3.502679 0.000000
v -3.520001 3.500000 0.000000
v -3.983905 4.000000 4.483905
v -3.991953 3.997156 4.491953
v -3.997845 3.989387 4.497844
v -4.000000 3.978775 4.500000
v -3.484210 4.000000 4.984211
v -3.492105 3.997132 4.992105
v -3.497885 3.989297 4.997884
v -3.500000 3.978594 5.000000
v -3.500000 0.520000 4.000000
v -3.497321 0.510000 3.998890
v -3.489999 0.502679 3.995858
v -3.479999 0.500000 3.991716
v -3.967261 4.025000 4.532740
v -3.972662 4.025000 4.523080
v -3.972360 4.025000 4.511752
v -3.966434 4.025000 4.501790
v -3.532846 4.025000 4.967154
v -3.523169 4.025000 4.972647
v -3.511905 4.025000 4.972484
v -3.502063 4.025000 4.966708
v -2.991718 0.500000 4.480000
v -2.995856 0.502679 4.490000
v -2.998889 0.510000 4.497320
v -3.000000 0.520000 4.500000
v 3.500000 0.520000 4.000000
v 3.497321 0.510000 3.998890
v 3.489999 0.502679 3.995858
v 3.479999 0.500000 3.991716
v 4.000000 0.020000 -1.000000
v 3.997321 0.010000 -1.000000
v 3.989999 0.002679 -1.000000
v 3.979999 0.000000 -1.000000
v 4.000000 3.978904 -1.000000
v 3.997787 3.989452 -1.000000
v 3.991745 3.997174 -1.000000
v 3.983492 4.000000 -1.000000
v 3.520001 4.000000 -1.000000
v 3.510001 3.997321 -1.000000
v 3.502679 3.990000 -1.000000
v 3.500000 3.980000 -1.000000
v -0.500000 0.020000 -5.000000
v -0.500000 0.010000 -4.997320
v -0.500000 0.002679 -4.990000
v -0.500000 0.000000 -4.980000
v 3.983905 4.000000 -4.483905
v 3.991953 3.997156 -4.491953
v 3.997845 3.989387 -4.497844
v 4.000000 3.978775 -4.500000
v -0.500000 4.000000 -4.983900
v 3.484210 4.000000 -4.984211
v 3.492105 3.997132 -4.992105
v -0.500000 3.997146 -4.991950
v 3.497885 3.989297 -4.997884
v -0.500000 3.989349 -4.997843
v 3.500000 3.978594 -5.000000
v -0.500000 3.978698 -5.000000
v -0.500000 3.980000 -4.500000
v -0.500000 3.990000 -4.502680
v -0.500000 3.997321 -4.510000
v -0.500000 4.000000 -4.520000
v 3.967261 4.025000 -4.532740
v 3.972662 4.025000 -4.523080
v 3.972360 4.025000 -4.511752
v 3.966434 4.025000 -4.501790
v 3.532846 4.025000 -4.967154
v 3.523170 4.025000 -4.972647
v 3.511903 4.025000 -4.972484
v 3.502063 4.025000 -4.966708
v 2.991716 0.500000 -4.480000
v 2.995857 0.502679 -4.490000
v 2.998889 0.510000 -4.497320
v 3.000000 0.520000 -4.500000
v -2.500000 0.000000 -4.980000
v -2.500000 0.002679 -4.990000
v -2.500000 0.010000 -4.997320
v -2.500000 0.020000 -5.000000
v -2.500000 4.000000 -4.983900
v -2.500000 3.997146 -4.991950
v -2.500000 3.989349 -4.997843
v -2.500000 3.978698 -5.000000
v -2.500000 3.980000 -4.500000
v -2.500000 3.990000 -4.502680
v -2.500000 3.997321 -4.510000
v -2.500000 4.000000 -4.520000
v -3.979999 0.000000 -1.000000
v -3.989999 0.002679 -1.000000
v -3.997321 0.010000 -1.000000
v -4.000000 0.020000 -1.000000
v -3.983493 4.000000 -1.000000
v -3.991745 3.997174 -1.000000
v -3.997791 3.989452 -1.000000
v -4.000000 3.978904 -1.000000
v -3.500000 3.980000 -1.000000
v -3.502679 3.990000 -1.000000
v -3.510001 3.997321 -1.000000
v -3.520001 4.000000 -1.000000
v -4.000000 3.978775 -4.500000
v -3.997845 3.989387 -4.497844
v -3.991953 3.997156 -4.491953
v -3.983905 4.000000 -4.483905
v -3.500000 3.978594 -5.000000
v -3.497885 3.989297 -4.997884
v -3.492105 3.997132 -4.992105
v -3.484210 4.000000 -4.984211
v -3.479999 0.500000 -3.991716
v -3.489999 0.502679 -3.995858
v -3.497321 0.510000 -3.998890
v -3.500000 0.520000 -4.000000
v -3.966434 4.025000 -4.501790
v -3.972360 4.025000 -4.511752
v -3.972662 4.025000 -4.523080
v -3.967261 4.025000 -4.532740
v -3.502063 4.025000 -4.966708
v -3.511905 4.025000 -4.972484
v -3.523169 4.025000 -4.972647
v -3.532846 4.025000 -4.967154
v -3.000000 0.520000 -4.500000
v -2.998889 0.510000 -4.497320
v -2.995856 0.502679 -4.490000
v -2.991718 0.500000 -4.480000
v 3.479999 0.500000 -3.991716
v 3.489999 0.502679 -3.995858
v 3.497321 0.510000 -3.998890
v 3.500000 0.520000 -4.000000
v 3.000000 3.500000 4.500000
v 3.500000 3.500000 5.000000
v 3.500000 0.500000 0.000000
v 4.000000 3.500000 4.500000
v 3.500000 3.500000 4.000000
v -3.500000 3.500000 5.000000
v -3.000000 3.500000 4.500000
v -3.500000 0.500000 0.000000
v -4.000000 3.500000 4.500000
v -3.500000 3.500000 4.000000
v 3.000000 3.500000 -4.500000
v 3.500000 3.500000 -5.000000
v 4.000000 3.500000 -4.500000
v 3.500000 3.500000 -4.000000
v -3.500000 3.500000 -5.000000
v -3.000000 3.500000 -4.500000
v -4.000000 3.500000 -4.500000
v -3.500000 3.500000 -4.000000
s 1
f 1 2 3
f 1 3 4
f 5 6 2
f 5 2 1
f 7 8 9
f 7 9 10
f 4 11 12
f 4 12 1
f 3 2 13
f 3 13 14
f 15 4 3
f 15 3 16
f 17 15 16
f 17 16 18
f 7 10 19
f 7 19 20
f 4 15 21
f 4 21 11
f 3 14 22
f 3 22 16
f 23 24 25
f 23 25 26
f 24 27 28
f 24 28 25
f 29 30 28
f 29 28 27
f 30 31 32
f 30 32 28
f 33 34 32
f 33 32 31
f 34 26 25
f 34 25 32
f 25 28 32
f 35 36 37
f 35 37 38
f 36 39 40
f 36 40 37
f 41 42 40
f 41 40 39
f 42 43 44
f 42 44 40
f 45 46 44
f 45 44 43
f 46 38 37
f 46 37 44
f 37 40 44
f 47 48 49
f 47 49 50
f 48 51 52
f 48 52 49
f 53 54 52
f 53 52 51
f 54 55 56
f 54 56 52
f 57 58 56
f 57 56 55
f 58 50 49
f 58 49 56
f 49 52 56
f 59 60 61
f 59 61 62
f 60 63 64
f 60 64 61
f 65 66 64
f 65 64 63
f 66 67 68
f 66 68 64
f 69 70 68
f 69 68 67
f 70 62 61
f 70 61 68
f 61 64 68
f 71 72 73
f 71 73 74
f 72 75 76
f 72 76 73
f 77 78 76
f 77 76 75
f 78 79 80
f 78 80 76
f 81 82 80
f 81 80 79
f 82 74 73
f 82 73 80
f 73 76 80
f 83 84 85
f 83 85 86
f 84 87 88
f 84 88 85
f 89 90 88
f 89 88 87
f 90 91 92
f 90 92 88
f 93 94 92
f 93 92 91
f 94 86 85
f 94 85 92
f 85 88 92
f 95 96 97
f 95 97 98
f 96 99 100
f 96 100 97
f 101 102 100
f 101 100 99
f 102 103 104
f 102 104 100
f 105 106 104
f 105 104 103
f 106 98 97
f 106 97 104
f 97 100 104
f 107 108 109
f 107 109 110
f 108 111 112
f 108 112 109
f 113 114 112
f 113 112 111
f 114 115 116
f 114 116 112
f 117 118 116
f 117 116 115
f 118 110 109
f 118 109 116
f 109 112 116
f 119 120 121
f 119 121 122
f 120 123 124
f 120 124 121
f 125 126 124
f 125 124 123
f 126 127 128
f 126 128 124
f 129 130 128
f 129 128 127
f 130 122 121
f 130 121 128
f 121 124 128
f 131 132 133
f 131 133 134
f 132 135 136
f 132 136 133
f 137 138 136
f 137 136 135
f 138 139 140
f 138 140 136
f 141 142 140
f 141 140 139
f 142 134 133
f 142 133 140
f 133 136 140
f 143 144 145
f 143 145 146
f 144 147 148
f 144 148 145
f 149 150 148
f 149 148 147
f 150 151 152
f 150 152 148
f 153 154 152
f 153 152 151
f 154 146 145
f 154 145 152
f 145 148 152
f 155 156 157
f 155 157 158
f 156 159 160
f 156 160 157
f 161 162 160
f 161 160 159
f 162 163 164
f 162 164 160
f 165 166 164
f 165 164 163
f 166 158 157
f 166 157 164
f 157 160 164
f 167 168 169
f 167 169 170
f 168 171 172
f 168 172 169
f 173 174 172
f 173 172 171
f 174 175 176
f 174 176 172
f 177 178 176
f 177 176 175
f 178 170 169
f 178 169 176
f 169 172 176
f 179 180 181
f 179 181 182
f 180 183 184
f 180 184 181
f 185 186 184
f 185 184 183
f 186 187 188
f 186 188 184
f 189 190 188
f 189 188 187
f 190 182 181
f 190 181 188
f 181 184 188
f 191 192 193
f 191 193 194
f 192 195 196
f 192 196 193
f 197 198 196
f 197 196 195
f 198 199 200
f 198 200 196
f 201 202 200
f 201 200 199
f 202 194 193
f 202 193 200
f 193 196 200
f 203 204 205
f 203 205 206
f 204 207 208
f 204 208 205
f 209 210 208
f 209 208 207
f 210 211 212
f 210 212 208
f 213 214 212
f 213 212 211
f 214 206 205
f 214 205 212
f 205 208 212
f 215 216 217
f 215 217 218
f 216 219 220
f 216 220 217
f 221 222 220
f 221 220 219
f 222 223 224
f 222 224 220
f 225 226 224
f 225 224 223
f 226 218 217
f 226 217 224
f 217 220 224
f 227 228 229
f 227 229 230
f 228 231 232
f 228 232 229
f 233 234 232
f 233 232 231
f 234 235 236
f 234 236 232
f 237 238 236
f 237 236 235
f 238 230 229
f 238 229 236
f 229 232 236
f 239 240 241
f 239 241 242
f 240 243 244
f 240 244 241
f 245 246 244
f 245 244 243
f 246 247 248
f 246 248 244
f 249 250 248
f 249 248 247
f 250 242 241
f 250 241 248
f 241 244 248
f 251 252 253
f 251 253 254
f 252 255 256
f 252 256 253
f 257 258 256
f 257 256 255
f 258 259 260
f 258 260 256
f 261 262 260
f 261 260 259
f 262 254 253
f 262 253 260
f 253 256 260
f 263 264 265
f 266 267 268
f 263 265 266
f 266 268 263
f 269 270 271
f 272 273 274
f 269 271 272
f 272 274 269
f 275 276 277
f 275 277 278
f 276 279 280
f 276 280 277
f 281 282 280
f 281 280 279
f 282 283 284
f 282 284 280
f 285 286 284
f 285 284 283
f 286 278 277
f 286 277 284
f 277 280 284
f 287 288 289
f 287 289 290
f 288 291 292
f 288 292 289
f 293 294 292
f 293 292 291
f 294 295 296
f 294 296 292
f 297 298 296
f 297 296 295
f 298 290 289
f 298 289 296
f 289 292 296
f 299 300 301
f 299 301 302
f 300 303 304
f 300 304 301
f 305 306 304
f 305 304 303
f 306 307 308
f 306 308 304
f 309 310 308
f 309 308 307
f 310 302 301
f 310 301 308
f 301 304 308
f 311 312 313
f 311 313 314
f 312 315 316
f 312 316 313
f 317 318 316
f 317 316 315
f 318 319 320
f 318 320 316
f 321 322 320
f 321 320 319
f 322 314 313
f 322 313 320
f 313 316 320
f 323 324 325
f 323 325 326
f 324 327 328
f 324 328 325
f 329 330 328
f 329 328 327
f 330 331 332
f 330 332 328
f 333 334 332
f 333 332 331
f 334 326 325
f 334 325 332
f 325 328 332
f 335 336 337
f 335 337 338
f 336 339 340
f 336 340 337
f 341 342 340
f 341 340 339
f 342 343 344
f 342 344 340
f 345 346 344
f 345 344 343
f 346 338 337
f 346 337 344
f 337 340 344
f 347 348 349
f 348 350 349
f 350 351 349
f 352 353 354
f 353 355 354
f 355 356 354
f 357 358 359
f 357 359 360
f 358 361 362
f 358 362 359
f 363 364 362
f 363 362 361
f 364 365 366
f 364 366 362
f 367 368 366
f 367 366 365
f 368 360 359
f 368 359 366
f 359 362 366
f 369 370 371
f 369 371 372
f 370 373 374
f 370 374 371
f 375 376 374
f 375 374 373
f 376 377 378
f 376 378 374
f 379 380 378
f 379 378 377
f 380 372 371
f 380 371 378
f 371 374 378
f 381 382 383
f 381 383 384
f 382 385 386
f 382 386 383
f 387 388 386
f 387 386 385
f 388 389 390
f 388 390 386
f 391 392 390
f 391 390 389
f 392 384 383
f 392 383 390
f 383 386 390
f 393 394 395
f 393 395 396
f 394 397 398
f 394 398 395
f 399 400 398
f 399 398 397
f 400 401 402
f 400 402 398
f 403 404 402
f 403 402 401
f 404 396 395
f 404 395 402
f 395 398 402
f 405 406 407
f 405 407 408
f 406 409 410
f 406 410 407
f 411 412 410
f 411 410 409
f 412 413 414
f 412 414 410
f 415 416 414
f 415 414 413
f 416 408 407
f 416 407 414
f 407 410 414
f 417 418 419
f 417 419 420
f 418 421 422
f 418 422 419
f 423 424 422
f 423 422 421
f 424 425 426
f 424 426 422
f 427 428 426
f 427 426 425
f 428 420 419
f 428 419 426
f 419 422 426
f 429 430 431
f 429 431 432
f 430 433 434
f 430 434 431
f 435 436 434
f 435 434 433
f 436 437 438
f 436 438 434
f 439 440 438
f 439 438 437
f 440 432 431
f 440 431 438
f 431 434 438
f 441 442 443
f 441 443 444
f 442 445 446
f 442 446 443
f 447 448 446
f 447 446 445
f 448 449 450
f 448 450 446
f 451 452 450
f 451 450 449
f 452 444 443
f 452 443 450
f 443 446 450
f 453 454 455
f 453 455 456
f 454 457 458
f 454 458 455
f 459 460 458
f 459 458 457
f 460 461 462
f 460 462 458
f 463 464 462
f 463 462 461
f 464 456 455
f 464 455 462
f 455 458 462
f 465 466 467
f 465 467 468
f 466 469 470
f 466 470 467
f 471 472 470
f 471 470 469
f 472 473 474
f 472 474 470
f 475 476 474
f 475 474 473
f 476 468 467
f 476 467 474
f 467 470 474
f 477 478 479
f 477 479 480
f 478 481 482
f 478 482 479
f 483 484 482
f 483 482 481
f 484 485 486
f 484 486 482
f 487 488 486
f 487 486 485
f 488 480 479
f 488 479 486
f 479 482 486
f 489 490 491
f 489 491 492
f 490 493 494
f 490 494 491
f 495 496 494
f 495 494 493
f 496 497 498
f 496 498 494
f 499 500 498
f 499 498 497
f 500 492 491
f 500 491 498
f 491 494 498
f 501 502 503
f 504 505 506
f 501 503 504
f 504 506 501
f 507 508 509
f 510 511 512
f 507 509 510
f 510 512 507
f 513 514 515
f 513 515 516
f 514 517 518
f 514 518 515
f 519 520 518
f 519 518 517
f 520 521 522
f 520 522 518
f 523 524 522
f 523 522 521
f 524 516 515
f 524 515 522
f 515 518 522
f 525 526 527
f 525 527 528
f 526 529 530
f 526 530 527
f 531 532 530
f 531 530 529
f 532 533 534
f 532 534 530
f 535 536 534
f 535 534 533
f 536 528 527
f 536 527 534
f 527 530 534
f 537 538 539
f 537 539 540
f 538 541 542
f 538 542 539
f 543 544 542
f 543 542 541
f 544 545 546
f 544 546 542
f 547 548 546
f 547 546 545
f 548 540 539
f 548 539 546
f 539 542 546
f 549 550 551
f 549 551 552
f 550 553 554
f 550 554 551
f 555 556 554
f 555 554 553
f 556 557 558
f 556 558 554
f 559 560 558
f 559 558 557
f 560 552 551
f 560 551 558
f 551 554 558
f 561 562 563
f 561 563 564
f 562 565 566
f 562 566 563
f 567 568 566
f 567 566 565
f 568 569 570
f 568 570 566
f 571 572 570
f 571 570 569
f 572 564 563
f 572 563 570
f 563 566 570
f 573 574 575
f 573 575 576
f 574 577 578
f 574 578 575
f 579 580 578
f 579 578 577
f 580 581 582
f 580 582 578
f 583 584 582
f 583 582 581
f 584 576 575
f 584 575 582
f 575 578 582
f 585 586 587
f 586 588 587
f 588 589 587
f 590 591 592
f 591 593 592
f 593 594 592
f 595 596 597
f 595 597 598
f 596 599 600
f 596 600 597
f 601 602 600
f 601 600 599
f 602 603 604
f 602 604 600
f 605 606 604
f 605 604 603
f 606 598 597
f 606 597 604
f 597 600 604
f 607 608 609
f 607 609 610
f 608 611 612
f 608 612 609
f 613 614 612
f 613 612 611
f 614 615 616
f 614 616 612
f 617 618 616
f 617 616 615
f 618 610 609
f 618 609 616
f 609 612 616
f 619 620 621
f 619 621 622
f 620 623 624
f 620 624 621
f 625 626 624
f 625 624 623
f 626 627 628
f 626 628 624
f 629 630 628
f 629 628 627
f 630 622 621
f 630 621 628
f 621 624 628
f 631 632 633
f 631 633 634
f 632 635 636
f 632 636 633
f 637 638 636
f 637 636 635
f 638 639 640
f 638 640 636
f 641 642 640
f 641 640 639
f 642 634 633
f 642 633 640
f 633 636 640
f 643 644 645
f 643 645 646
f 644 647 648
f 644 648 645
f 649 650 648
f 649 648 647
f 650 651 652
f 650 652 648
f 653 654 652
f 653 652 651
f 654 646 645
f 654 645 652
f 645 648 652
f 655 656 657
f 655 657 658
f 656 659 660
f 656 660 657
f 661 662 660
f 661 660 659
f 662 663 664
f 662 664 660
f 665 666 664
f 665 664 663
f 666 658 657
f 666 657 664
f 657 660 664
f 667 668 669
f 667 669 670
f 668 671 672
f 668 672 669
f 673 674 672
f 673 672 671
f 674 675 676
f 674 676 672
f 677 678 676
f 677 676 675
f 678 670 669
f 678 669 676
f 669 672 676
f 679 680 681
f 679 681 682
f 680 683 684
f 680 684 681
f 685 686 684
f 685 684 683
f 686 687 688
f 686 688 684
f 689 690 688
f 689 688 687
f 690 682 681
f 690 681 688
f 681 684 688
f 691 692 693
f 691 693 694
f 692 695 696
f 692 696 693
f 697 698 696
f 697 696 695
f 698 699 700
f 698 700 696
f 701 702 700
f 701 700 699
f 702 694 693
f 702 693 700
f 693 696 700
f 703 704 705
f 703 705 706
f 704 707 708
f 704 708 705
f 709 710 708
f 709 708 707
f 710 711 712
f 710 712 708
f 713 714 712
f 713 712 711
f 714 706 705
f 714 705 712
f 705 708 712
f 715 716 717
f 715 717 718
f 716 719 720
f 716 720 717
f 721 722 720
f 721 720 719
f 722 723 724
f 722 724 720
f 725 726 724
f 725 724 723
f 726 718 717
f 726 717 724
f 717 720 724
f 727 728 729
f 727 729 730
f 728 731 732
f 728 732 729
f 733 734 732
f 733 732 731
f 734 735 736
f 734 736 732
f 737 738 736
f 737 736 735
f 738 730 729
f 738 729 736
f 729 732 736
f 739 740 741
f 739 741 742
f 740 743 744
f 740 744 741
f 745 746 744
f 745 744 743
f 746 747 748
f 746 748 744
f 749 750 748
f 749 748 747
f 750 742 741
f 750 741 748
f 741 744 748
f 751 752 753
f 751 753 754
f 752 755 756
f 752 756 753
f 757 758 756
f 757 756 755
f 758 759 760
f 758 760 756
f 761 762 760
f 761 760 759
f 762 754 753
f 762 753 760
f 753 756 760
f 763 764 765
f 763 765 766
f 764 767 768
f 764 768 765
f 769 770 768
f 769 768 767
f 770 771 772
f 770 772 768
f 773 774 772
f 773 772 771
f 774 766 765
f 774 765 772
f 765 768 772
f 775 776 777
f 775 777 778
f 776 779 780
f 776 780 777
f 781 782 780
f 781 780 779
f 782 783 784
f 782 784 780
f 785 786 784
f 785 784 783
f 786 778 777
f 786 777 784
f 777 780 784
f 787 788 789
f 787 789 790
f 788 791 792
f 788 792 789
f 793 794 792
f 793 792 791
f 794 795 796
f 794 796 792
f 797 798 796
f 797 796 795
f 798 790 789
f 798 789 796
f 789 792 796
f 799 800 801
f 799 801 802
f 800 803 804
f 800 804 801
f 805 806 804
f 805 804 803
f 806 807 808
f 806 808 804
f 809 810 808
f 809 808 807
f 810 802 801
f 810 801 808
f 801 804 808
f 811 812 813
f 811 813 814
f 812 815 816
f 812 816 813
f 817 818 816
f 817 816 815
f 818 819 820
f 818 820 816
f 821 822 820
f 821 820 819
f 822 814 813
f 822 813 820
f 813 816 820
f 823 824 825
f 823 825 826
f 824 827 828
f 824 828 825
f 829 830 828
f 829 828 827
f 830 831 832
f 830 832 828
f 833 834 832
f 833 832 831
f 834 826 825
f 834 825 832
f 825 828 832
f 835 836 837
f 835 837 838
f 836 839 840
f 836 840 837
f 841 842 840
f 841 840 839
f 842 843 844
f 842 844 840
f 845 846 844
f 845 844 843
f 846 838 837
f 846 837 844
f 837 840 844
f 847 848 849
f 847 849 850
f 848 851 852
f 848 852 849
f 853 854 852
f 853 852 851
f 854 855 856
f 854 856 852
f 857 858 856
f 857 856 855
f 858 850 849
f 858 849 856
f 849 852 856
f 859 860 861
f 859 861 862
f 860 863 864
f 860 864 861
f 865 866 864
f 865 864 863
f 866 867 868
f 866 868 864
f 869 870 868
f 869 868 867
f 870 862 861
f 870 861 868
f 861 864 868
f 871 872 873
f 871 873 874
f 872 875 876
f 872 876 873
f 877 878 876
f 877 876 875
f 878 879 880
f 878 880 876
f 881 882 880
f 881 880 879
f 882 874 873
f 882 873 880
f 873 876 880
f 883 884 885
f 886 887 888
f 883 885 886
f 886 888 883
f 889 890 891
f 892 893 894
f 889 891 892
f 892 894 889
f 895 896 897
f 895 897 898
f 896 899 900
f 896 900 897
f 901 902 900
f 901 900 899
f 902 903 904
f 902 904 900
f 905 906 904
f 905 904 903
f 906 898 897
f 906 897 904
f 897 900 904
f 907 908 909
f 907 909 910
f 908 911 912
f 908 912 909
f 913 914 912
f 913 912 911
f 914 915 916
f 914 916 912
f 917 918 916
f 917 916 915
f 918 910 909
f 918 909 916
f 909 912 916
f 919 920 921
f 919 921 922
f 920 923 924
f 920 924 921
f 925 926 924
f 925 924 923
f 926 927 928
f 926 928 924
f 929 930 928
f 929 928 927
f 930 922 921
f 930 921 928
f 921 924 928
f 931 932 933
f 931 933 934
f 932 935 936
f 932 936 933
f 937 938 936
f 937 936 935
f 938 939 940
f 938 940 936
f 941 942 940
f 941 940 939
f 942 934 933
f 942 933 940
f 933 936 940
f 943 944 945
f 943 945 946
f 944 947 948
f 944 948 945
f 949 950 948
f 949 948 947
f 950 951 952
f 950 952 948
f 953 954 952
f 953 952 951
f 954 946 945
f 954 945 952
f 945 948 952
f 955 956 957
f 955 957 958
f 956 959 960
f 956 960 957
f 961 962 960
f 961 960 959
f 962 963 964
f 962 964 960
f 965 966 964
f 965 964 963
f 966 958 957
f 966 957 964
f 957 960 964
f 967 968 969
f 968 970 969
f 970 971 969
f 972 973 974
f 973 975 974
f 975 976 974
f 977 978 979
f 977 979 980
f 978 981 982
f 978 982 979
f 983 984 982
f 983 982 981
f 984 985 986
f 984 986 982
f 987 988 986
f 987 986 985
f 988 980 979
f 988 979 986
f 979 982 986
f 989 990 991
f 989 991 992
f 990 993 994
f 990 994 991
f 995 996 994
f 995 994 993
f 996 997 998
f 996 998 994
f 999 1000 998
f 999 998 997
f 1000 992 991
f 1000 991 998
f 991 994 998
f 1001 1002 1003
f 1001 1003 1004
f 1002 1005 1006
f 1002 1006 1003
f 1007 1008 1006
f 1007 1006 1005
f 1008 1009 1010
f 1008 1010 1006
f 1011 1012 1010
f 1011 1010 1009
f 1012 1004 1003
f 1012 1003 1010
f 1003 1006 1010
f 1013 1014 1015
f 1013 1015 1016
f 1014 1017 1018
f 1014 1018 1015
f 1019 1020 1018
f 1019 1018 1017
f 1020 1021 1022
f 1020 1022 1018
f 1023 1024 1022
f 1023 1022 1021
f 1024 1016 1015
f 1024 1015 1022
f 1015 1018 1022
f 1025 1026 1027
f 1025 1027 1028
f 1026 1029 1030
f 1026 1030 1027
f 1031 1032 1030
f 1031 1030 1029
f 1032 1033 1034
f 1032 1034 1030
f 1035 1036 1034
f 1035 1034 1033
f 1036 1028 1027
f 1036 1027 1034
f 1027 1030 1034
f 1037 1038 1039
f 1037 1039 1040
f 1038 1041 1042
f 1038 1042 1039
f 1043 1044 1042
f 1043 1042 1041
f 1044 1045 1046
f 1044 1046 1042
f 1047 1048 1046
f 1047 1046 1045
f 1048 1040 1039
f 1048 1039 1046
f 1039 1042 1046
f 1049 1050 1051
f 1049 1051 1052
f 1050 1053 1054
f 1050 1054 1051
f 1055 1056 1054
f 1055 1054 1053
f 1056 1057 1058
f 1056 1058 1054
f 1059 1060 1058
f 1059 1058 1057
f 1060 1052 1051
f 1060 1051 1058
f 1051 1054 1058
f 1061 1062 1063
f 1061 1063 1064
f 1062 1065 1066
f 1062 1066 1063
f 1067 1068 1066
f 1067 1066 1065
f 1068 1069 1070
f 1068 1070 1066
f 1071 1072 1070
f 1071 1070 1069
f 1072 1064 1063
f 1072 1063 1070
f 1063 1066 1070
f 1073 1074 1075
f 1073 1075 1076
f 1074 1077 1078
f 1074 1078 1075
f 1079 1080 1078
f 1079 1078 1077
f 1080 1081 1082
f 1080 1082 1078
f 1083 1084 1082
f 1083 1082 1081
f 1084 1076 1075
f 1084 1075 1082
f 1075 1078 1082
f 1085 1086 1087
f 1085 1087 1088
f 1086 1089 1090
f 1086 1090 1087
f 1091 1092 1090
f 1091 1090 1089
f 1092 1093 1094
f 1092 1094 1090
f 1095 1096 1094
f 1095 1094 1093
f 1096 1088 1087
f 1096 1087 1094
f 1087 1090 1094
f 1097 1098 1099
f 1097 1099 1100
f 1098 1101 1102
f 1098 1102 1099
f 1103 1104 1102
f 1103 1102 1101
f 1104 1105 1106
f 1104 1106 1102
f 1107 1108 1106
f 1107 1106 1105
f 1108 1100 1099
f 1108 1099 1106
f 1099 1102 1106
f 1109 1110 1111
f 1109 1111 1112
f 1110 1113 1114
f 1110 1114 1111
f 1115 1116 1114
f 1115 1114 1113
f 1116 1117 1118
f 1116 1118 1114
f 1119 1120 1118
f 1119 1118 1117
f 1120 1112 1111
f 1120 1111 1118
f 1111 1114 1118
f 1121 1122 1123
f 1124 1125 1126
f 1121 1123 1124
f 1124 1126 1121
f 1127 1128 1129
f 1130 1131 1132
f 1127 1129 1130
f 1130 1132 1127
f 1133 1134 1135
f 1133 1135 1136
f 1134 1137 1138
f 1134 1138 1135
f 1139 1140 1138
f 1139 1138 1137
f 1140 1141 1142
f 1140 1142 1138
f 1143 1144 1142
f 1143 1142 1141
f 1144 1136 1135
f 1144 1135 1142
f 1135 1138 1142
f 1145 1146 1147
f 1145 1147 1148
f 1146 1149 1150
f 1146 1150 1147
f 1151 1152 1150
f 1151 1150 1149
f 1152 1153 1154
f 1152 1154 1150
f 1155 1156 1154
f 1155 1154 1153
f 1156 1148 1147
f 1156 1147 1154
f 1147 1150 1154
f 1157 1158 1159
f 1157 1159 1160
f 1158 1161 1162
f 1158 1162 1159
f 1163 1164 1162
f 1163 1162 1161
f 1164 1165 1166
f 1164 1166 1162
f 1167 1168 1166
f 1167 1166 1165
f 1168 1160 1159
f 1168 1159 1166
f 1159 1162 1166
f 1169 1170 1171
f 1169 1171 1172
f 1170 1173 1174
f 1170 1174 1171
f 1175 1176 1174
f 1175 1174 1173
f 1176 1177 1178
f 1176 1178 1174
f 1179 1180 1178
f 1179 1178 1177
f 1180 1172 1171
f 1180 1171 1178
f 1171 1174 1178
f 1181 1182 1183
f 1181 1183 1184
f 1182 1185 1186
f 1182 1186 1183
f 1187 1188 1186
f 1187 1186 1185
f 1188 1189 1190
f 1188 1190 1186
f 1191 1192 1190
f 1191 1190 1189
f 1192 1184 1183
f 1192 1183 1190
f 1183 1186 1190
f 1193 1194 1195
f 1193 1195 1196
f 1194 1197 1198
f 1194 1198 1195
f 1199 1200 1198
f 1199 1198 1197
f 1200 1201 1202
f 1200 1202 1198
f 1203 1204 1202
f 1203 1202 1201
f 1204 1196 1195
f 1204 1195 1202
f 1195 1198 1202
f 1205 1206 1207
f 1206 1208 1207
f 1208 1209 1207
f 1210 1211 1212
f 1211 1213 1212
f 1213 1214 1212
f 1215 1216 1217
f 1215 1217 1218
f 1216 1219 1220
f 1216 1220 1217
f 1221 1222 1220
f 1221 1220 1219
f 1222 1223 1224
f 1222 1224 1220
f 1225 1226 1224
f 1225 1224 1223
f 1226 1218 1217
f 1226 1217 1224
f 1217 1220 1224
f 1227 1228 1229
f 1227 1229 1230
f 1228 1231 1232
f 1228 1232 1229
f 1233 1234 1232
f 1233 1232 1231
f 1234 1235 1236
f 1234 1236 1232
f 1237 1238 1236
f 1237 1236 1235
f 1238 1230 1229
f 1238 1229 1236
f 1229 1232 1236
f 1239 1240 1241
f 1239 1241 1242
f 1240 1243 1244
f 1240 1244 1241
f 1245 1246 1244
f 1245 1244 1243
f 1246 1247 1248
f 1246 1248 1244
f 1249 1250 1248
f 1249 1248 1247
f 1250 1242 1241
f 1250 1241 1248
f 1241 1244 1248
f 1251 1252 1253
f 1251 1253 1254
f 1252 1255 1256
f 1252 1256 1253
f 1257 1258 1256
f 1257 1256 1255
f 1258 1259 1260
f 1258 1260 1256
f 1261 1262 1260
f 1261 1260 1259
f 1262 1254 1253
f 1262 1253 1260
f 1253 1256 1260
f 189 167 170
f 189 170 190
f 190 170 178
f 190 178 182
f 182 178 177
f 182 177 179
f 201 203 206
f 201 206 202
f 202 206 214
f 202 214 194
f 194 214 213
f 194 213 191
f 173 209 207
f 173 207 174
f 174 207 204
f 174 204 175
f 175 204 203
f 175 203 177
f 197 185 183
f 197 183 198
f 198 183 180
f 198 180 199
f 199 180 179
f 199 179 201
f 1263 1264 1265
f 1263 1265 1266
f 1266 1265 1267
f 1266 1267 1268
f 1268 1267 1269
f 1268 1269 1270
f 1271 1272 1273
f 1271 1273 1274
f 1274 1273 1275
f 1274 1275 1276
f 1276 1275 1277
f 1276 1277 1278
f 1279 1280 1281
f 1279 1281 1282
f 1282 1281 1283
f 1282 1283 1284
f 1284 1283 1285
f 1284 1285 1286
f 1287 137 135
f 1287 135 1288
f 1288 135 132
f 1288 132 1289
f 1289 132 131
f 1289 131 1290
f 1291 143 146
f 1291 146 1292
f 1292 146 154
f 1292 154 1293
f 1293 154 153
f 1293 153 1294
f 1295 155 158
f 1295 158 1296
f 1296 158 166
f 1296 166 1297
f 1297 166 165
f 1297 165 1298
f 161 125 123
f 161 123 162
f 162 123 120
f 162 120 163
f 163 120 119
f 163 119 165
f 137 153 151
f 137 151 138
f 138 151 150
f 138 150 139
f 139 150 149
f 139 149 141
f 125 149 147
f 125 147 126
f 126 147 144
f 126 144 127
f 127 144 143
f 127 143 129
f 155 131 134
f 155 134 156
f 156 134 142
f 156 142 159
f 159 142 141
f 159 141 161
f 33 41 39
f 33 39 34
f 34 39 36
f 34 36 26
f 26 36 35
f 26 35 23
f 107 45 43
f 107 43 108
f 108 43 42
f 108 42 111
f 111 42 41
f 111 41 113
f 57 65 63
f 57 63 58
f 58 63 60
f 58 60 50
f 50 60 59
f 50 59 47
f 53 71 74
f 53 74 54
f 54 74 82
f 54 82 55
f 55 82 81
f 55 81 57
f 65 89 87
f 65 87 66
f 66 87 84
f 66 84 67
f 67 84 83
f 67 83 69
f 77 93 91
f 77 91 78
f 78 91 90
f 78 90 79
f 79 90 89
f 79 89 81
f 29 95 98
f 29 98 30
f 30 98 106
f 30 106 31
f 31 106 105
f 31 105 33
f 101 117 115
f 101 115 102
f 102 115 114
f 102 114 103
f 103 114 113
f 103 113 105
f 23 77 75
f 23 75 24
f 24 75 72
f 24 72 27
f 27 72 71
f 27 71 29
f 47 101 99
f 47 99 48
f 48 99 96
f 48 96 51
f 51 96 95
f 51 95 53
f 69 107 110
f 69 110 70
f 70 110 118
f 70 118 62
f 62 118 117
f 62 117 59
f 93 35 38
f 93 38 94
f 94 38 46
f 94 46 86
f 86 46 45
f 86 45 83
f 249 257 255
f 249 255 250
f 250 255 252
f 250 252 242
f 242 252 251
f 242 251 239
f 257 233 231
f 257 231 258
f 258 231 228
f 258 228 259
f 259 228 227
f 259 227 261
f 595 323 326
f 595 326 596
f 596 326 334
f 596 334 599
f 599 334 333
f 599 333 601
f 225 249 247
f 225 247 226
f 226 247 246
f 226 246 218
f 218 246 245
f 218 245 215
f 1299 237 235
f 1299 235 1300
f 1300 235 234
f 1300 234 1301
f 1301 234 233
f 1301 233 1302
f 1270 225 223
f 1270 223 1268
f 1268 223 222
f 1268 222 1266
f 1266 222 221
f 1266 221 1263
f 1303 1277 1275
f 1303 1275 1304
f 1304 1275 1273
f 1304 1273 1305
f 1305 1273 1272
f 1305 1272 1306
f 1307 1308 1309
f 1307 1309 1310
f 1310 1309 1311
f 1310 1311 1312
f 1312 1311 1313
f 1312 1313 1314
f 601 613 611
f 601 611 602
f 602 611 608
f 602 608 603
f 603 608 607
f 603 607 605
f 1280 267 266
f 1280 266 1281
f 1281 266 265
f 1281 265 1283
f 1283 265 264
f 1283 264 1285
f 1315 273 272
f 1315 272 1316
f 1316 272 271
f 1316 271 1317
f 1317 271 270
f 1317 270 1318
f 275 287 290
f 275 290 276
f 276 290 298
f 276 298 279
f 279 298 297
f 279 297 281
f 309 317 315
f 309 315 310
f 310 315 312
f 310 312 302
f 302 312 311
f 302 311 299
f 317 297 295
f 317 295 318
f 318 295 294
f 318 294 319
f 319 294 293
f 319 293 321
f 305 285 283
f 305 283 306
f 306 283 282
f 306 282 307
f 307 282 281
f 307 281 309
f 1319 311 314
f 1319 314 1320
f 1320 314 322
f 1320 322 1321
f 1321 322 321
f 1321 321 1322
f 1323 1313 1311
f 1323 1311 1324
f 1324 1311 1309
f 1324 1309 1325
f 1325 1309 1308
f 1325 1308 1326
f 347 275 278
f 347 278 348
f 348 278 286
f 348 286 350
f 350 286 285
f 350 285 351
f 335 333 331
f 335 331 336
f 336 331 330
f 336 330 339
f 339 330 329
f 339 329 341
f 323 227 230
f 323 230 324
f 324 230 238
f 324 238 327
f 327 238 237
f 327 237 329
f 167 1327 1328
f 167 1328 168
f 168 1328 1329
f 168 1329 171
f 171 1329 1330
f 171 1330 173
f 341 221 219
f 341 219 342
f 342 219 216
f 342 216 343
f 343 216 215
f 343 215 345
f 1306 1319 1320
f 1306 1320 1305
f 1305 1320 1321
f 1305 1321 1304
f 1304 1321 1322
f 1304 1322 1303
f 287 1323 1324
f 287 1324 288
f 288 1324 1325
f 288 1325 291
f 291 1325 1326
f 291 1326 293
f 299 356 355
f 299 355 300
f 300 355 353
f 300 353 303
f 303 353 352
f 303 352 305
f 613 335 338
f 613 338 614
f 614 338 346
f 614 346 615
f 615 346 345
f 615 345 617
f 261 595 598
f 261 598 262
f 262 598 606
f 262 606 254
f 254 606 605
f 254 605 251
f 239 607 610
f 239 610 240
f 240 610 618
f 240 618 243
f 243 618 617
f 243 617 245
f 1302 1331 1332
f 1302 1332 1301
f 1301 1332 1333
f 1301 1333 1300
f 1300 1333 1334
f 1300 1334 1299
f 427 411 409
f 427 409 428
f 428 409 406
f 428 406 420
f 420 406 405
f 420 405 417
f 439 441 444
f 439 444 440
f 440 444 452
f 440 452 432
f 432 452 451
f 432 451 429
f 411 451 449
f 411 449 412
f 412 449 448
f 412 448 413
f 413 448 447
f 413 447 415
f 429 427 425
f 429 425 430
f 430 425 424
f 430 424 433
f 433 424 423
f 433 423 435
f 1335 1307 1310
f 1335 1310 1336
f 1336 1310 1312
f 1336 1312 1337
f 1337 1312 1314
f 1337 1314 1338
f 1339 1315 1316
f 1339 1316 1340
f 1340 1316 1317
f 1340 1317 1341
f 1341 1317 1318
f 1341 1318 1342
f 435 197 195
f 435 195 436
f 436 195 192
f 436 192 437
f 437 192 191
f 437 191 439
f 417 189 187
f 417 187 418
f 418 187 186
f 418 186 421
f 421 186 185
f 421 185 423
f 441 213 211
f 441 211 442
f 442 211 210
f 442 210 445
f 445 210 209
f 445 209 447
f 1343 1344 1345
f 1343 1345 1346
f 1346 1345 1347
f 1346 1347 1348
f 1348 1347 1349
f 1348 1349 1350
f 1351 1352 1353
f 1351 1353 1354
f 1354 1353 1355
f 1354 1355 1356
f 1356 1355 1357
f 1356 1357 1358
f 1359 1360 1361
f 1359 1361 1362
f 1362 1361 1363
f 1362 1363 1364
f 1364 1363 1365
f 1364 1365 1366
f 1367 369 372
f 1367 372 1368
f 1368 372 380
f 1368 380 1369
f 1369 380 379
f 1369 379 1370
f 1371 387 385
f 1371 385 1372
f 1372 385 382
f 1372 382 1373
f 1373 382 381
f 1373 381 1374
f 1375 399 397
f 1375 397 1376
f 1376 397 394
f 1376 394 1377
f 1377 394 393
f 1377 393 1378
f 399 357 360
f 399 360 400
f 400 360 368
f 400 368 401
f 401 368 367
f 401 367 403
f 375 391 389
f 375 389 376
f 376 389 388
f 376 388 377
f 377 388 387
f 377 387 379
f 363 381 384
f 363 384 364
f 364 384 392
f 364 392 365
f 365 392 391
f 365 391 367
f 403 375 373
f 403 373 404
f 404 373 370
f 404 370 396
f 396 370 369
f 396 369 393
f 477 489 492
f 477 492 478
f 478 492 500
f 478 500 481
f 481 500 499
f 481 499 483
f 495 465 468
f 495 468 496
f 496 468 476
f 496 476 497
f 497 476 475
f 497 475 499
f 629 567 565
f 629 565 630
f 630 565 562
f 630 562 622
f 622 562 561
f 622 561 619
f 453 487 485
f 453 485 454
f 454 485 484
f 454 484 457
f 457 484 483
f 457 483 459
f 1331 475 473
f 1331 473 1332
f 1332 473 472
f 1332 472 1333
f 1333 472 471
f 1333 471 1334
f 1350 463 461
f 1350 461 1348
f 1348 461 460
f 1348 460 1346
f 1346 460 459
f 1346 459 1343
f 1379 1357 1355
f 1379 1355 1380
f 1380 1355 1353
f 1380 1353 1381
f 1381 1353 1352
f 1381 1352 1382
f 1338 1383 1384
f 1338 1384 1337
f 1337 1384 1385
f 1337 1385 1336
f 1336 1385 1386
f 1336 1386 1335
f 625 631 634
f 625 634 626
f 626 634 642
f 626 642 627
f 627 642 641
f 627 641 629
f 1360 505 504
f 1360 504 1361
f 1361 504 503
f 1361 503 1363
f 1363 503 502
f 1363 502 1365
f 1342 511 510
f 1342 510 1341
f 1341 510 509
f 1341 509 1340
f 1340 509 508
f 1340 508 1339
f 357 1387 1388
f 357 1388 358
f 358 1388 1389
f 358 1389 361
f 361 1389 1390
f 361 1390 363
f 523 531 529
f 523 529 524
f 524 529 526
f 524 526 516
f 516 526 525
f 516 525 513
f 537 549 552
f 537 552 538
f 538 552 560
f 538 560 541
f 541 560 559
f 541 559 543
f 555 535 533
f 555 533 556
f 556 533 532
f 556 532 557
f 557 532 531
f 557 531 559
f 543 523 521
f 543 521 544
f 544 521 520
f 544 520 545
f 545 520 519
f 545 519 547
f 1391 555 553
f 1391 553 1392
f 1392 553 550
f 1392 550 1393
f 1393 550 549
f 1393 549 1394
f 1395 1386 1385
f 1395 1385 1396
f 1396 1385 1384
f 1396 1384 1397
f 1397 1384 1383
f 1397 1383 1398
f 585 519 517
f 585 517 586
f 586 517 514
f 586 514 588
f 588 514 513
f 588 513 589
f 583 571 569
f 583 569 584
f 584 569 568
f 584 568 576
f 576 568 567
f 576 567 573
f 571 471 469
f 571 469 572
f 572 469 466
f 572 466 564
f 564 466 465
f 564 465 561
f 415 1399 1400
f 415 1400 416
f 416 1400 1401
f 416 1401 408
f 408 1401 1402
f 408 1402 405
f 579 453 456
f 579 456 580
f 580 456 464
f 580 464 581
f 581 464 463
f 581 463 583
f 1382 1391 1392
f 1382 1392 1381
f 1381 1392 1393
f 1381 1393 1380
f 1380 1393 1394
f 1380 1394 1379
f 535 1395 1396
f 535 1396 536
f 536 1396 1397
f 536 1397 528
f 528 1397 1398
f 528 1398 525
f 547 594 593
f 547 593 548
f 548 593 591
f 548 591 540
f 540 591 590
f 540 590 537
f 637 579 577
f 637 577 638
f 638 577 574
f 638 574 639
f 639 574 573
f 639 573 641
f 489 625 623
f 489 623 490
f 490 623 620
f 490 620 493
f 493 620 619
f 493 619 495
f 487 637 635
f 487 635 488
f 488 635 632
f 488 632 480
f 480 632 631
f 480 631 477
f 1327 1403 1404
f 1327 1404 1328
f 1328 1404 1405
f 1328 1405 1329
f 1329 1405 1406
f 1329 1406 1330
f 129 1406 1405
f 129 1405 130
f 130 1405 1404
f 130 1404 122
f 122 1404 1403
f 122 1403 119
f 1399 1390 1389
f 1399 1389 1400
f 1400 1389 1388
f 1400 1388 1401
f 1401 1388 1387
f 1401 1387 1402
f 809 787 790
f 809 790 810
f 810 790 798
f 810 798 802
f 802 798 797
f 802 797 799
f 821 823 826
f 821 826 822
f 822 826 834
f 822 834 814
f 814 834 833
f 814 833 811
f 787 833 831
f 787 831 788
f 788 831 830
f 788 830 791
f 791 830 829
f 791 829 793
f 811 809 807
f 811 807 812
f 812 807 806
f 812 806 815
f 815 806 805
f 815 805 817
f 1407 1269 1267
f 1407 1267 1408
f 1408 1267 1265
f 1408 1265 1409
f 1409 1265 1264
f 1409 1264 1410
f 1278 1411 1412
f 1278 1412 1276
f 1276 1412 1413
f 1276 1413 1274
f 1274 1413 1414
f 1274 1414 1271
f 1286 1415 1416
f 1286 1416 1284
f 1284 1416 1417
f 1284 1417 1282
f 1282 1417 1418
f 1282 1418 1279
f 1290 751 754
f 1290 754 1289
f 1289 754 762
f 1289 762 1288
f 1288 762 761
f 1288 761 1287
f 1294 769 767
f 1294 767 1293
f 1293 767 764
f 1293 764 1292
f 1292 764 763
f 1292 763 1291
f 1298 781 779
f 1298 779 1297
f 1297 779 776
f 1297 776 1296
f 1296 776 775
f 1296 775 1295
f 781 739 742
f 781 742 782
f 782 742 750
f 782 750 783
f 783 750 749
f 783 749 785
f 757 773 771
f 757 771 758
f 758 771 770
f 758 770 759
f 759 770 769
f 759 769 761
f 745 763 766
f 745 766 746
f 746 766 774
f 746 774 747
f 747 774 773
f 747 773 749
f 785 757 755
f 785 755 786
f 786 755 752
f 786 752 778
f 778 752 751
f 778 751 775
f 653 655 658
f 653 658 654
f 654 658 666
f 654 666 646
f 646 666 665
f 646 665 643
f 737 665 663
f 737 663 738
f 738 663 662
f 738 662 730
f 730 662 661
f 730 661 727
f 677 679 682
f 677 682 678
f 678 682 690
f 678 690 670
f 670 690 689
f 670 689 667
f 667 691 694
f 667 694 668
f 668 694 702
f 668 702 671
f 671 702 701
f 671 701 673
f 685 703 706
f 685 706 686
f 686 706 714
f 686 714 687
f 687 714 713
f 687 713 689
f 691 713 711
f 691 711 692
f 692 711 710
f 692 710 695
f 695 710 709
f 695 709 697
f 643 715 718
f 643 718 644
f 644 718 726
f 644 726 647
f 647 726 725
f 647 725 649
f 715 737 735
f 715 735 716
f 716 735 734
f 716 734 719
f 719 734 733
f 719 733 721
f 649 701 699
f 649 699 650
f 650 699 698
f 650 698 651
f 651 698 697
f 651 697 653
f 673 725 723
f 673 723 674
f 674 723 722
f 674 722 675
f 675 722 721
f 675 721 677
f 679 733 731
f 679 731 680
f 680 731 728
f 680 728 683
f 683 728 727
f 683 727 685
f 703 661 659
f 703 659 704
f 704 659 656
f 704 656 707
f 707 656 655
f 707 655 709
f 859 871 874
f 859 874 860
f 860 874 882
f 860 882 863
f 863 882 881
f 863 881 865
f 877 847 850
f 877 850 878
f 878 850 858
f 878 858 879
f 879 858 857
f 879 857 881
f 1225 949 947
f 1225 947 1226
f 1226 947 944
f 1226 944 1218
f 1218 944 943
f 1218 943 1215
f 835 869 867
f 835 867 836
f 836 867 866
f 836 866 839
f 839 866 865
f 839 865 841
f 1419 857 855
f 1419 855 1420
f 1420 855 854
f 1420 854 1421
f 1421 854 853
f 1421 853 1422
f 1410 845 843
f 1410 843 1409
f 1409 843 842
f 1409 842 1408
f 1408 842 841
f 1408 841 1407
f 1423 1414 1413
f 1423 1413 1424
f 1424 1413 1412
f 1424 1412 1425
f 1425 1412 1411
f 1425 1411 1426
f 1427 1428 1429
f 1427 1429 1430
f 1430 1429 1431
f 1430 1431 1432
f 1432 1431 1433
f 1432 1433 1434
f 1221 1227 1230
f 1221 1230 1222
f 1222 1230 1238
f 1222 1238 1223
f 1223 1238 1237
f 1223 1237 1225
f 1415 887 886
f 1415 886 1416
f 1416 886 885
f 1416 885 1417
f 1417 885 884
f 1417 884 1418
f 1435 893 892
f 1435 892 1436
f 1436 892 891
f 1436 891 1437
f 1437 891 890
f 1437 890 1438
f 905 913 911
f 905 911 906
f 906 911 908
f 906 908 898
f 898 908 907
f 898 907 895
f 919 931 934
f 919 934 920
f 920 934 942
f 920 942 923
f 923 942 941
f 923 941 925
f 937 917 915
f 937 915 938
f 938 915 914
f 938 914 939
f 939 914 913
f 939 913 941
f 925 905 903
f 925 903 926
f 926 903 902
f 926 902 927
f 927 902 901
f 927 901 929
f 1439 937 935
f 1439 935 1440
f 1440 935 932
f 1440 932 1441
f 1441 932 931
f 1441 931 1442
f 1443 1433 1431
f 1443 1431 1444
f 1444 1431 1429
f 1444 1429 1445
f 1445 1429 1428
f 1445 1428 1446
f 967 901 899
f 967 899 968
f 968 899 896
f 968 896 970
f 970 896 895
f 970 895 971
f 965 953 951
f 965 951 966
f 966 951 950
f 966 950 958
f 958 950 949
f 958 949 955
f 953 853 851
f 953 851 954
f 954 851 848
f 954 848 946
f 946 848 847
f 946 847 943
f 793 1447 1448
f 793 1448 794
f 794 1448 1449
f 794 1449 795
f 795 1449 1450
f 795 1450 797
f 961 835 838
f 961 838 962
f 962 838 846
f 962 846 963
f 963 846 845
f 963 845 965
f 1426 1439 1440
f 1426 1440 1425
f 1425 1440 1441
f 1425 1441 1424
f 1424 1441 1442
f 1424 1442 1423
f 917 1443 1444
f 917 1444 918
f 918 1444 1445
f 918 1445 910
f 910 1445 1446
f 910 1446 907
f 929 976 975
f 929 975 930
f 930 975 973
f 930 973 922
f 922 973 972
f 922 972 919
f 1233 961 959
f 1233 959 1234
f 1234 959 956
f 1234 956 1235
f 1235 956 955
f 1235 955 1237
f 871 1221 1219
f 871 1219 872
f 872 1219 1216
f 872 1216 875
f 875 1216 1215
f 875 1215 877
f 869 1233 1231
f 869 1231 870
f 870 1231 1228
f 870 1228 862
f 862 1228 1227
f 862 1227 859
f 1422 1451 1452
f 1422 1452 1421
f 1421 1452 1453
f 1421 1453 1420
f 1420 1453 1454
f 1420 1454 1419
f 1047 1025 1028
f 1047 1028 1048
f 1048 1028 1036
f 1048 1036 1040
f 1040 1036 1035
f 1040 1035 1037
f 1059 1061 1064
f 1059 1064 1060
f 1060 1064 1072
f 1060 1072 1052
f 1052 1072 1071
f 1052 1071 1049
f 1031 1067 1065
f 1031 1065 1032
f 1032 1065 1062
f 1032 1062 1033
f 1033 1062 1061
f 1033 1061 1035
f 1055 1043 1041
f 1055 1041 1056
f 1056 1041 1038
f 1056 1038 1057
f 1057 1038 1037
f 1057 1037 1059
f 1455 1427 1430
f 1455 1430 1456
f 1456 1430 1432
f 1456 1432 1457
f 1457 1432 1434
f 1457 1434 1458
f 1459 1435 1436
f 1459 1436 1460
f 1460 1436 1437
f 1460 1437 1461
f 1461 1437 1438
f 1461 1438 1462
f 1049 821 819
f 1049 819 1050
f 1050 819 818
f 1050 818 1053
f 1053 818 817
f 1053 817 1055
f 1043 805 803
f 1043 803 1044
f 1044 803 800
f 1044 800 1045
f 1045 800 799
f 1045 799 1047
f 1067 829 827
f 1067 827 1068
f 1068 827 824
f 1068 824 1069
f 1069 824 823
f 1069 823 1071
f 1463 1349 1347
f 1463 1347 1464
f 1464 1347 1345
f 1464 1345 1465
f 1465 1345 1344
f 1465 1344 1466
f 1358 1467 1468
f 1358 1468 1356
f 1356 1468 1469
f 1356 1469 1354
f 1354 1469 1470
f 1354 1470 1351
f 1366 1471 1472
f 1366 1472 1364
f 1364 1472 1473
f 1364 1473 1362
f 1362 1473 1474
f 1362 1474 1359
f 1370 995 993
f 1370 993 1369
f 1369 993 990
f 1369 990 1368
f 1368 990 989
f 1368 989 1367
f 1374 1001 1004
f 1374 1004 1373
f 1373 1004 1012
f 1373 1012 1372
f 1372 1012 1011
f 1372 1011 1371
f 1378 1013 1016
f 1378 1016 1377
f 1377 1016 1024
f 1377 1024 1376
f 1376 1024 1023
f 1376 1023 1375
f 1019 983 981
f 1019 981 1020
f 1020 981 978
f 1020 978 1021
f 1021 978 977
f 1021 977 1023
f 995 1011 1009
f 995 1009 996
f 996 1009 1008
f 996 1008 997
f 997 1008 1007
f 997 1007 999
f 983 1007 1005
f 983 1005 984
f 984 1005 1002
f 984 1002 985
f 985 1002 1001
f 985 1001 987
f 1013 989 992
f 1013 992 1014
f 1014 992 1000
f 1014 1000 1017
f 1017 1000 999
f 1017 999 1019
f 1107 1115 1113
f 1107 1113 1108
f 1108 1113 1110
f 1108 1110 1100
f 1100 1110 1109
f 1100 1109 1097
f 1115 1091 1089
f 1115 1089 1116
f 1116 1089 1086
f 1116 1086 1117
f 1117 1086 1085
f 1117 1085 1119
f 1239 1181 1184
f 1239 1184 1240
f 1240 1184 1192
f 1240 1192 1243
f 1243 1192 1191
f 1243 1191 1245
f 1083 1107 1105
f 1083 1105 1084
f 1084 1105 1104
f 1084 1104 1076
f 1076 1104 1103
f 1076 1103 1073
f 1451 1095 1093
f 1451 1093 1452
f 1452 1093 1092
f 1452 1092 1453
f 1453 1092 1091
f 1453 1091 1454
f 1466 1083 1081
f 1466 1081 1465
f 1465 1081 1080
f 1465 1080 1464
f 1464 1080 1079
f 1464 1079 1463
f 1475 1470 1469
f 1475 1469 1476
f 1476 1469 1468
f 1476 1468 1477
f 1477 1468 1467
f 1477 1467 1478
f 1458 1479 1480
f 1458 1480 1457
f 1457 1480 1481
f 1457 1481 1456
f 1456 1481 1482
f 1456 1482 1455
f 1245 1257 1255
f 1245 1255 1246
f 1246 1255 1252
f 1246 1252 1247
f 1247 1252 1251
f 1247 1251 1249
f 1471 1125 1124
f 1471 1124 1472
f 1472 1124 1123
f 1472 1123 1473
f 1473 1123 1122
f 1473 1122 1474
f 1462 1131 1130
f 1462 1130 1461
f 1461 1130 1129
f 1461 1129 1460
f 1460 1129 1128
f 1460 1128 1459
f 987 1483 1484
f 987 1484 988
f 988 1484 1485
f 988 1485 980
f 980 1485 1486
f 980 1486 977
f 1133 1145 1148
f 1133 1148 1134
f 1134 1148 1156
f 1134 1156 1137
f 1137 1156 1155
f 1137 1155 1139
f 1167 1175 1173
f 1167 1173 1168
f 1168 1173 1170
f 1168 1170 1160
f 1160 1170 1169
f 1160 1169 1157
f 1175 1155 1153
f 1175 1153 1176
f 1176 1153 1152
f 1176 1152 1177
f 1177 1152 1151
f 1177 1151 1179
f 1163 1143 1141
f 1163 1141 1164
f 1164 1141 1140
f 1164 1140 1165
f 1165 1140 1139
f 1165 1139 1167
f 1487 1169 1172
f 1487 1172 1488
f 1488 1172 1180
f 1488 1180 1489
f 1489 1180 1179
f 1489 1179 1490
f 1491 1482 1481
f 1491 1481 1492
f 1492 1481 1480
f 1492 1480 1493
f 1493 1480 1479
f 1493 1479 1494
f 1205 1133 1136
f 1205 1136 1206
f 1206 1136 1144
f 1206 1144 1208
f 1208 1144 1143
f 1208 1143 1209
f 1193 1191 1189
f 1193 1189 1194
f 1194 1189 1188
f 1194 1188 1197
f 1197 1188 1187
f 1197 1187 1199
f 1181 1085 1088
f 1181 1088 1182
f 1182 1088 1096
f 1182 1096 1185
f 1185 1096 1095
f 1185 1095 1187
f 1025 1495 1496
f 1025 1496 1026
f 1026 1496 1497
f 1026 1497 1029
f 1029 1497 1498
f 1029 1498 1031
f 1199 1079 1077
f 1199 1077 1200
f 1200 1077 1074
f 1200 1074 1201
f 1201 1074 1073
f 1201 1073 1203
f 1478 1487 1488
f 1478 1488 1477
f 1477 1488 1489
f 1477 1489 1476
f 1476 1489 1490
f 1476 1490 1475
f 1145 1491 1492
f 1145 1492 1146
f 1146 1492 1493
f 1146 1493 1149
f 1149 1493 1494
f 1149 1494 1151
f 1157 1214 1213
f 1157 1213 1158
f 1158 1213 1211
f 1158 1211 1161
f 1161 1211 1210
f 1161 1210 1163
f 1257 1193 1196
f 1257 1196 1258
f 1258 1196 1204
f 1258 1204 1259
f 1259 1204 1203
f 1259 1203 1261
f 1119 1239 1242
f 1119 1242 1120
f 1120 1242 1250
f 1120 1250 1112
f 1112 1250 1249
f 1112 1249 1109
f 1097 1251 1254
f 1097 1254 1098
f 1098 1254 1262
f 1098 1262 1101
f 1101 1262 1261
f 1101 1261 1103
f 1447 1499 1500
f 1447 1500 1448
f 1448 1500 1501
f 1448 1501 1449
f 1449 1501 1502
f 1449 1502 1450
f 739 1502 1501
f 739 1501 740
f 740 1501 1500
f 740 1500 743
f 743 1500 1499
f 743 1499 745
f 1495 1486 1485
f 1495 1485 1496
f 1496 1485 1484
f 1496 1484 1497
f 1497 1484 1483
f 1497 1483 1498
f 41 33 1327
f 41 1327 167
f 93 77 23
f 93 23 35
f 33 105 1503
f 33 1503 1327
f 71 53 95
f 71 95 29
f 5 329 237
f 5 237 1299
f 1331 1302 213
f 1331 213 441
f 233 257 213
f 233 213 1302
f 1299 1334 6
f 1299 6 5
f 1339 1338 1314
f 1339 1314 1315
f 1504 1308 1307
f 1504 1307 191
f 1313 273 1315
f 1313 1315 1314
f 439 191 1307
f 439 1307 1335
f 189 417 1342
f 189 1342 1318
f 1318 270 1503
f 1318 1503 189
f 69 83 45
f 69 45 107
f 113 41 167
f 113 167 189
f 65 57 1504
f 65 1504 191
f 47 59 117
f 47 117 101
f 57 81 257
f 57 257 1504
f 89 65 191
f 89 191 213
f 81 89 213
f 81 213 257
f 105 113 189
f 105 189 1503
f 11 1264 1263
f 11 1263 12
f 1269 1294 153
f 1269 153 1270
f 11 21 1410
f 11 1410 1264
f 1269 1407 769
f 1269 769 1294
f 1286 1271 1414
f 1286 1414 1415
f 1286 1285 1272
f 1286 1272 1271
f 1287 761 1411
f 1287 1411 1278
f 1287 1278 1277
f 1287 1277 137
f 1418 781 1298
f 1418 1298 1279
f 1280 1279 1298
f 1280 1298 165
f 155 1295 1290
f 155 1290 131
f 775 751 1290
f 775 1290 1295
f 1505 129 143
f 1505 143 1291
f 1505 1291 763
f 1505 763 745
f 137 1277 1303
f 137 1303 1506
f 1285 264 1306
f 1285 1306 1272
f 267 1280 165
f 267 165 1507
f 1505 10 9
f 1505 9 129
f 125 161 141
f 125 141 149
f 1406 129 9
f 9 173 1330
f 9 1330 1406
f 1507 165 119
f 1507 119 1403
f 153 137 1506
f 153 1506 249
f 1270 153 249
f 1270 249 225
f 221 341 12
f 221 12 1263
f 8 415 173
f 8 173 9
f 203 201 179
f 203 179 177
f 173 415 447
f 173 447 209
f 435 423 185
f 435 185 197
f 215 245 617
f 215 617 345
f 227 323 595
f 227 595 261
f 349 274 273
f 273 1313 1323
f 1323 347 349
f 273 1323 349
f 1308 1303 1322
f 1308 1322 1326
f 1308 1504 1506
f 1308 1506 1303
f 1319 1306 264
f 264 263 354
f 354 356 1319
f 264 354 1319
f 239 251 605
f 239 605 607
f 1504 257 249
f 1504 249 1506
f 354 263 268
f 268 269 274
f 274 349 351
f 351 352 354
f 354 268 274
f 274 351 354
f 1507 1503 270
f 270 269 268
f 268 267 1507
f 270 268 1507
f 1327 1503 1507
f 1327 1507 1403
f 347 1323 287
f 347 287 275
f 309 281 297
f 309 297 317
f 352 351 285
f 352 285 305
f 1326 1322 321
f 1326 321 293
f 1319 356 299
f 1319 299 311
f 613 601 333
f 613 333 335
f 5 1 12
f 12 341 329
f 12 329 5
f 475 1331 441
f 475 441 499
f 6 1334 471
f 6 471 571
f 1383 1338 1339
f 1383 1339 508
f 1508 439 1335
f 1508 1335 1386
f 1342 417 1509
f 1342 1509 511
f 14 13 1350
f 14 1350 1349
f 14 1349 1463
f 14 1463 22
f 1344 1343 387
f 1344 387 1371
f 1344 1371 1011
f 1344 1011 1466
f 1359 1474 1467
f 1359 1467 1358
f 1370 379 1352
f 1370 1352 1351
f 1359 1358 1357
f 1359 1357 1360
f 1370 1351 1470
f 1370 1470 995
f 1471 1366 1375
f 1471 1375 1023
f 1365 399 1375
f 1365 1375 1366
f 393 369 1367
f 393 1367 1378
f 1013 1378 1367
f 1013 1367 989
f 1510 1374 381
f 1510 381 363
f 1510 987 1001
f 1510 1001 1374
f 379 1511 1382
f 379 1382 1352
f 1360 1357 1379
f 1360 1379 505
f 502 1512 399
f 502 399 1365
f 1510 363 8
f 1510 8 7
f 367 391 375
f 367 375 403
f 8 363 1390
f 1390 1399 415
f 1390 415 8
f 1512 1387 357
f 1512 357 399
f 387 483 1511
f 387 1511 379
f 1343 459 483
f 1343 483 387
f 463 1350 13
f 463 13 583
f 417 405 1402
f 417 1402 1509
f 451 411 427
f 451 427 429
f 439 1508 499
f 439 499 441
f 453 579 637
f 453 637 487
f 465 495 619
f 465 619 561
f 1383 508 507
f 507 587 589
f 589 1398 1383
f 507 589 1383
f 1386 1382 1511
f 1386 1511 1508
f 1386 1395 1391
f 1386 1391 1382
f 505 1379 1394
f 1394 590 592
f 592 506 505
f 1394 592 505
f 477 631 625
f 477 625 489
f 1508 1511 483
f 1508 483 499
f 511 1509 1512
f 1512 502 501
f 501 512 511
f 1512 501 511
f 512 501 506
f 506 592 594
f 594 585 587
f 587 507 512
f 512 506 594
f 594 587 512
f 589 513 525
f 589 525 1398
f 543 559 531
f 543 531 523
f 594 547 519
f 594 519 585
f 1395 535 555
f 1395 555 1391
f 1394 549 537
f 1394 537 590
f 641 573 567
f 641 567 629
f 13 2 6
f 6 571 583
f 6 583 13
f 1402 1387 1512
f 1402 1512 1509
f 665 797 1450
f 665 1450 643
f 701 649 725
f 701 725 673
f 709 655 653
f 709 653 697
f 643 1450 1513
f 643 1513 715
f 17 1422 853
f 17 853 953
f 1454 1071 823
f 1454 823 1419
f 1422 17 18
f 1422 18 1451
f 857 1419 823
f 857 823 881
f 1462 1438 1427
f 1462 1427 1455
f 1428 1427 1438
f 1428 1438 890
f 1049 1458 1434
f 1049 1434 821
f 1514 821 1434
f 1514 1434 1433
f 1435 799 1513
f 1435 1513 893
f 799 1435 1459
f 799 1459 1047
f 685 727 661
f 685 661 703
f 737 799 797
f 737 797 665
f 689 821 1514
f 689 1514 667
f 677 721 733
f 677 733 679
f 667 1514 881
f 667 881 691
f 713 823 821
f 713 821 689
f 691 881 823
f 691 823 713
f 715 1513 799
f 715 799 737
f 761 1515 1426
f 761 1426 1411
f 1415 1414 1423
f 1415 1423 887
f 884 1516 781
f 884 781 1418
f 1505 745 19
f 1505 19 10
f 749 773 757
f 749 757 785
f 19 745 1499
f 1499 1447 793
f 1499 793 19
f 1516 1502 739
f 1516 739 781
f 769 865 1515
f 769 1515 761
f 1407 841 865
f 1407 865 769
f 845 1410 21
f 845 21 965
f 20 19 793
f 20 793 1031
f 833 787 809
f 833 809 811
f 793 829 1067
f 793 1067 1031
f 1055 817 805
f 1055 805 1043
f 835 961 1233
f 835 1233 869
f 847 877 1215
f 847 1215 943
f 1428 890 889
f 889 969 971
f 971 1446 1428
f 889 971 1428
f 1433 1426 1515
f 1433 1515 1514
f 1433 1443 1439
f 1433 1439 1426
f 887 1423 1442
f 1442 972 974
f 974 888 887
f 1442 974 887
f 859 1227 1221
f 859 1221 871
f 1514 1515 865
f 1514 865 881
f 893 1513 1516
f 1516 884 883
f 883 894 893
f 1516 883 893
f 894 883 888
f 888 974 976
f 976 967 969
f 969 889 894
f 894 888 976
f 976 969 894
f 1450 1502 1516
f 1450 1516 1513
f 971 895 907
f 971 907 1446
f 925 941 913
f 925 913 905
f 976 929 901
f 976 901 967
f 1443 917 937
f 1443 937 1439
f 1442 931 919
f 1442 919 972
f 1237 955 949
f 1237 949 1225
f 21 15 17
f 17 953 965
f 17 965 21
f 18 1187 1095
f 18 1095 1451
f 1091 1115 1071
f 1091 1071 1454
f 1482 1131 1462
f 1482 1462 1455
f 1517 1479 1458
f 1517 1458 1049
f 1459 1128 1518
f 1459 1518 1047
f 995 1470 1475
f 995 1475 1519
f 1474 1122 1478
f 1474 1478 1467
f 1125 1471 1023
f 1125 1023 1520
f 1510 7 20
f 1510 20 987
f 983 1019 999
f 983 999 1007
f 1483 987 20
f 20 1031 1498
f 20 1498 1483
f 1520 1023 977
f 1520 977 1486
f 1011 995 1519
f 1011 1519 1107
f 1466 1011 1107
f 1466 1107 1083
f 1079 1199 22
f 1079 22 1463
f 1047 1518 1495
f 1047 1495 1025
f 1061 1059 1037
f 1061 1037 1035
f 1049 1071 1115
f 1049 1115 1517
f 1073 1103 1261
f 1073 1261 1203
f 1085 1181 1239
f 1085 1239 1119
f 1207 1132 1131
f 1131 1482 1491
f 1491 1205 1207
f 1131 1491 1207
f 1479 1475 1490
f 1479 1490 1494
f 1479 1517 1519
f 1479 1519 1475
f 1487 1478 1122
f 1122 1121 1212
f 1212 1214 1487
f 1122 1212 1487
f 1097 1109 1249
f 1097 1249 1251
f 1517 1115 1107
f 1517 1107 1519
f 1212 1121 1126
f 1126 1127 1132
f 1132 1207 1209
f 1209 1210 1212
f 1212 1126 1132
f 1132 1209 1212
f 1520 1518 1128
f 1128 1127 1126
f 1126 1125 1520
f 1128 1126 1520
f 1205 1491 1145
f 1205 1145 1133
f 1167 1139 1155
f 1167 1155 1175
f 1210 1209 1143
f 1210 1143 1163
f 1494 1490 1179
f 1494 1179 1151
f 1487 1214 1157
f 1487 1157 1169
f 1257 1245 1191
f 1257 1191 1193
f 18 16 22
f 22 1199 1187
f 22 1187 18
f 1495 1518 1520
f 1495 1520 1486
