# Blender 4.5.1 LTS
# www.blender.org
mtllib USMC Black Hornet.mtl
o Black_Hornet.002
v -0.158725 2.158314 0.282837
v -0.158724 2.638314 0.282837
v -0.158725 2.158314 -0.197163
v -0.158725 2.638314 -0.197163
v 0.177275 2.158314 0.282837
v 0.177276 2.638314 0.282836
v 0.177275 2.158314 -0.197163
v 0.177275 2.638314 -0.197164
v -0.230725 2.318314 0.282837
v -0.230724 2.478314 0.282837
v -0.230725 2.478313 -0.197163
v -0.230725 2.318314 -0.197163
v 0.249275 2.478313 -0.197163
v 0.249275 2.318313 -0.197163
v 0.249276 2.478314 0.282837
v 0.249275 2.318314 0.282837
v -0.145315 2.459982 0.529011
v -0.108190 2.560158 0.529011
v 0.163867 2.376646 0.529011
v 0.150234 2.356470 0.529011
v -0.131683 2.356470 0.529011
v 0.126741 2.560158 0.529011
v -0.145315 2.376646 0.529011
v 0.163867 2.459982 0.529011
v -0.086725 2.537833 -0.479666
v -0.057925 2.496873 -0.479667
v 0.076475 2.496873 -0.479667
v -0.057925 2.619753 -0.479667
v 0.076475 2.619753 -0.479667
v 0.105275 2.537833 -0.479667
v -0.086725 2.578793 -0.479666
v 0.105275 2.578793 -0.479667
v -0.086725 2.537833 -1.159667
v -0.057925 2.496873 -1.159667
v 0.076475 2.496873 -1.159667
v -0.057925 2.619753 -1.159667
v 0.076475 2.619753 -1.159667
v 0.105275 2.537833 -1.159667
v -0.086725 2.578793 -1.159667
v 0.105275 2.578793 -1.159667
v 0.009276 2.338217 0.484579
v -0.030524 2.333128 0.478514
v -0.064264 2.318637 0.461244
v -0.086808 2.296949 0.435398
v -0.094725 2.271367 0.404910
v -0.086808 2.245785 0.374422
v -0.064264 2.224097 0.348576
v -0.030524 2.209606 0.331306
v 0.009275 2.204517 0.325242
v 0.049075 2.209606 0.331306
v 0.082815 2.224097 0.348576
v 0.105359 2.245785 0.374422
v 0.113275 2.271367 0.404910
v 0.105359 2.296949 0.435398
v 0.082815 2.318637 0.461244
v 0.049075 2.333128 0.478514
v -0.030524 2.281344 0.521967
v 0.009276 2.286432 0.528031
v -0.064264 2.266852 0.504697
v -0.086808 2.245165 0.478851
v -0.094725 2.219582 0.448363
v -0.086808 2.194000 0.417875
v -0.064264 2.172312 0.392029
v -0.030524 2.157821 0.374758
v 0.009275 2.152732 0.368694
v 0.049075 2.157821 0.374758
v 0.082815 2.172312 0.392028
v 0.105359 2.194000 0.417875
v 0.113275 2.219582 0.448363
v 0.105359 2.245165 0.478850
v 0.082815 2.266852 0.504697
v 0.049075 2.281344 0.521967
v -0.110725 2.577391 -1.306076
v -0.110725 2.620251 -1.297551
v -0.110725 2.656587 -1.273272
v -0.110725 2.680866 -1.236937
v -0.110725 2.689391 -1.194076
v -0.110725 2.680866 -1.151216
v -0.110725 2.656587 -1.114880
v -0.110725 2.620252 -1.090602
v -0.110725 2.577391 -1.082076
v -0.110725 2.534530 -1.090602
v -0.110725 2.498195 -1.114880
v -0.110725 2.473917 -1.151216
v -0.110725 2.465391 -1.194076
v -0.110725 2.473917 -1.236937
v -0.110725 2.498195 -1.273272
v -0.110725 2.534530 -1.297551
v 0.129275 2.577391 -1.306076
v 0.129275 2.620251 -1.297551
v 0.129275 2.656587 -1.273272
v 0.129275 2.680866 -1.236937
v 0.129275 2.689391 -1.194076
v 0.129275 2.680866 -1.151216
v 0.129275 2.656587 -1.114880
v 0.129275 2.620251 -1.090602
v 0.129275 2.577391 -1.082076
v 0.129275 2.534530 -1.090602
v 0.129275 2.498195 -1.114880
v 0.129275 2.473916 -1.151216
v 0.129275 2.465391 -1.194076
v 0.129275 2.473916 -1.236937
v 0.129275 2.498195 -1.273272
v 0.129275 2.534530 -1.297551
v -0.186444 2.577391 -1.471892
v -0.186444 2.683706 -1.450745
v -0.186444 2.773836 -1.390522
v -0.186444 2.834059 -1.300392
v -0.186444 2.855207 -1.194076
v -0.186444 2.834060 -1.087761
v -0.186444 2.773837 -0.997631
v -0.186444 2.683707 -0.937408
v -0.186444 2.577391 -0.916260
v -0.186444 2.471076 -0.937407
v -0.186444 2.380945 -0.997630
v -0.186444 2.320722 -1.087760
v -0.186444 2.299575 -1.194076
v -0.186444 2.320722 -1.300391
v -0.186444 2.380945 -1.390522
v -0.186444 2.471075 -1.450745
v -0.115005 2.577391 -1.471892
v -0.115005 2.683706 -1.450745
v -0.115005 2.773836 -1.390522
v -0.115005 2.834059 -1.300392
v -0.115005 2.855207 -1.194076
v -0.115005 2.834059 -1.087761
v -0.115005 2.773836 -0.997631
v -0.115005 2.683707 -0.937408
v -0.115005 2.577391 -0.916260
v -0.115005 2.471076 -0.937407
v -0.115005 2.380945 -0.997631
v -0.115005 2.320722 -1.087761
v -0.115005 2.299575 -1.194076
v -0.115005 2.320722 -1.300391
v -0.115006 2.380945 -1.390522
v -0.115005 2.471075 -1.450745
v 0.009276 2.957392 -0.066076
v 0.052136 2.957392 -0.057551
v 0.088472 2.957392 -0.033272
v 0.112750 2.957392 0.003063
v 0.121276 2.957392 0.045924
v 0.112750 2.957392 0.088784
v 0.088472 2.957392 0.125120
v 0.052136 2.957392 0.149398
v 0.009276 2.957392 0.157924
v -0.033585 2.957392 0.149398
v -0.069920 2.957392 0.125120
v -0.094199 2.957392 0.088784
v -0.102724 2.957392 0.045924
v -0.094199 2.957392 0.003063
v -0.069920 2.957392 -0.033272
v -0.033585 2.957392 -0.057551
v 0.009275 2.497392 -0.066076
v 0.052136 2.497392 -0.057551
v 0.088471 2.497392 -0.033272
v 0.112750 2.497392 0.003063
v 0.121276 2.497392 0.045924
v 0.112750 2.497392 0.088784
v 0.088471 2.497392 0.125120
v 0.052136 2.497392 0.149398
v 0.009276 2.497392 0.157924
v -0.033585 2.497392 0.149398
v -0.069920 2.497392 0.125120
v -0.094199 2.497392 0.088784
v -0.102724 2.497392 0.045924
v -0.094199 2.497392 0.003063
v -0.069920 2.497392 -0.033272
v -0.033585 2.497392 -0.057551
v -0.077741 2.766314 0.124809
v -0.035807 2.930314 0.046781
v 0.031043 2.766314 -0.032888
v 0.005331 2.930314 -0.002246
v 0.502428 2.766314 0.811711
v 0.656697 2.930314 0.627860
v 0.723547 2.766314 0.548192
v 0.697836 2.930314 0.578834
v 0.096292 2.766314 -0.039136
v 0.054358 2.930314 0.038892
v -0.012492 2.766314 0.118561
v 0.013220 2.930314 0.087919
v -0.483877 2.766313 -0.726038
v -0.638146 2.930314 -0.542188
v -0.704996 2.766314 -0.462519
v -0.679285 2.930314 -0.493161
v 0.049276 2.718314 0.482837
v 0.049276 2.558314 0.482837
v 0.049275 2.718313 -0.797164
v 0.049275 2.558313 -0.797163
v -0.030724 2.718314 0.482837
v -0.030724 2.558314 0.482837
v -0.030725 2.718313 -0.797164
v -0.030725 2.558313 -0.797163
v 0.049275 2.718313 -0.733164
v 0.049275 2.558313 -0.733164
v -0.030724 2.718314 0.418837
v -0.030724 2.558314 0.418837
v 0.112750 2.921392 0.088784
v 0.088472 2.921392 0.125120
v -0.094199 2.921392 0.003063
v -0.069920 2.921392 -0.033272
v 0.052136 2.921392 0.149398
v -0.033585 2.921392 -0.057551
v 0.009276 2.921392 0.157924
v 0.009276 2.921392 -0.066076
v 0.052136 2.921392 -0.057551
v -0.033585 2.921392 0.149398
v 0.088472 2.921391 -0.033272
v -0.069920 2.921392 0.125120
v 0.112750 2.921391 0.003063
v -0.094199 2.921392 0.088784
v 0.121276 2.921392 0.045924
v -0.102724 2.921392 0.045924
v 0.091248 2.766314 0.129853
v 0.013220 2.930314 0.087919
v -0.066449 2.766314 0.021069
v -0.035807 2.930314 0.046780
v 0.778150 2.766314 -0.450317
v 0.594299 2.930314 -0.604586
v 0.514631 2.766314 -0.671435
v 0.545273 2.930314 -0.645724
v -0.072697 2.766314 -0.044181
v 0.005331 2.930314 -0.002246
v 0.085000 2.766314 0.064604
v 0.054358 2.930314 0.038892
v -0.759599 2.766313 0.535989
v -0.575749 2.930314 0.690258
v -0.496080 2.766314 0.757108
v -0.526722 2.930314 0.731396
v 0.009276 0.266219 -0.189953
v -0.063416 0.266219 -0.175494
v -0.125042 0.266219 -0.134317
v -0.166218 0.266219 -0.072692
v -0.180678 0.266219 0.000000
v -0.166218 0.266219 0.072692
v -0.125042 0.266219 0.134317
v -0.063416 0.266219 0.175494
v 0.009276 0.266219 0.189953
v 0.081968 0.266219 0.175494
v 0.143593 0.266219 0.134317
v 0.184770 0.266219 0.072692
v 0.199229 0.266219 0.000000
v 0.184770 0.266219 -0.072692
v 0.143593 0.266219 -0.134317
v 0.081968 0.266219 -0.175494
v 0.009276 2.168720 -0.177366
v -0.060167 2.168720 -0.163553
v -0.119038 2.168720 -0.124216
v -0.158375 2.168720 -0.065345
v -0.172188 2.168720 0.004098
v -0.158375 2.168720 0.073541
v -0.119038 2.168720 0.132412
v -0.060167 2.168720 0.171748
v 0.009276 2.168720 0.120000
v 0.078719 2.168720 0.171748
v 0.137590 2.168720 0.132412
v 0.176926 2.168720 0.073541
v 0.190739 2.168720 0.004098
v 0.176926 2.168720 -0.065345
v 0.137590 2.168720 -0.124216
v 0.078719 2.168720 -0.163553
v 0.009276 0.184120 -0.466549
v -0.169265 0.184120 -0.431035
v -0.320624 0.184120 -0.329900
v -0.421759 0.184120 -0.178541
v -0.457273 0.184120 0.000000
v -0.421759 0.184120 0.178541
v -0.320624 0.184120 0.329900
v -0.169265 0.184120 0.431035
v 0.009276 0.184120 0.466549
v 0.187816 0.184120 0.431035
v 0.339176 0.184120 0.329900
v 0.440311 0.184120 0.178541
v 0.475825 0.184120 0.000000
v 0.440311 0.184120 -0.178541
v 0.339176 0.184120 -0.329900
v 0.187816 0.184120 -0.431035
v 0.009276 0.184120 -0.989811
v -0.369509 0.184120 -0.914466
v -0.690626 0.184120 -0.699902
v -0.905190 0.184120 -0.378784
v -0.980535 0.184120 -0.000000
v -0.905190 0.184120 0.378784
v -0.690626 0.184120 0.699902
v -0.369509 0.184120 0.914466
v 0.009276 0.184120 0.989811
v 0.388060 0.184120 0.914466
v 0.709178 0.184120 0.699902
v 0.923742 0.184120 0.378784
v 0.999087 0.184120 -0.000000
v 0.923742 0.184120 -0.378784
v 0.709178 0.184120 -0.699902
v 0.388060 0.184120 -0.914466
v 0.009276 0.000000 -0.860159
v -0.319893 0.000000 -0.794683
v -0.598949 0.000000 -0.608224
v -0.785407 0.000000 -0.329169
v -0.850883 0.000000 -0.000000
v -0.785407 0.000000 0.329169
v -0.598949 0.000000 0.608224
v -0.319893 0.000000 0.794683
v 0.009276 0.000000 0.860159
v 0.338444 0.000000 0.794683
v 0.617500 0.000000 0.608224
v 0.803959 0.000000 0.329169
v 0.869435 0.000000 -0.000000
v 0.803959 0.000000 -0.329169
v 0.617500 0.000000 -0.608224
v 0.338444 0.000000 -0.794683
v -0.369509 0.000000 -0.914466
v 0.009276 0.000000 -0.989811
v -0.690626 0.000000 -0.699902
v -0.905190 0.000000 -0.378784
v -0.980535 0.000000 -0.000000
v -0.905190 0.000000 0.378784
v -0.690626 0.000000 0.699902
v -0.369509 0.000000 0.914466
v 0.009276 0.000000 0.989811
v 0.388060 0.000000 0.914466
v 0.709178 0.000000 0.699902
v 0.923742 0.000000 0.378784
v 0.999087 0.000000 -0.000000
v 0.923742 0.000000 -0.378784
v 0.709178 0.000000 -0.699902
v 0.388060 0.000000 -0.914466
v 0.120141 1.895738 -0.045922
v 0.094129 1.895738 -0.084853
v -0.075577 1.895738 0.084853
v -0.036646 1.895738 0.110866
v 0.055198 1.895738 -0.110866
v 0.009276 1.895738 0.120000
v 0.009276 1.895738 -0.120000
v -0.036646 1.895738 -0.110866
v 0.055198 1.895738 0.110866
v -0.075577 1.895738 -0.084853
v 0.094129 1.895738 0.084853
v -0.101590 1.895738 -0.045922
v 0.120141 1.895738 0.045922
v -0.110724 1.895738 0.000000
v 0.129276 1.895738 0.000000
v -0.101590 1.895738 0.045922
v 0.094129 0.363714 -0.084853
v -0.036646 0.363714 0.110866
v 0.055198 0.363714 -0.110866
v 0.009276 0.363714 0.120000
v -0.036646 0.363714 -0.110866
v 0.055198 0.363714 0.110866
v -0.075577 0.363714 -0.084853
v 0.094129 0.363714 0.084853
v -0.101590 0.363714 -0.045922
v 0.120141 0.363714 0.045922
v -0.110724 0.363714 0.000000
v 0.129276 0.363714 0.000000
v -0.101590 0.363714 0.045922
v 0.120141 0.363714 -0.045922
v -0.075577 0.363714 0.084853
v 0.009276 0.363714 -0.120000
vn -0.9777 0.2099 -0.0000
vn -0.9119 0.4104 -0.0000
vn 0.8608 0.4073 -0.3052
vn 0.8660 0.3272 -0.3781
vn 0.7769 0.5463 -0.3131
vn 0.9119 0.4104 -0.0000
vn 0.9777 0.2098 -0.0000
vn 0.9777 0.2099 -0.0000
vn -0.0000 -0.7790 0.6270
vn -0.0000 -1.0000 -0.0000
vn -0.0000 0.9996 -0.0288
vn -0.0000 0.9897 0.1431
vn -0.9262 0.1912 0.3249
vn -0.8796 0.3509 0.3212
vn -0.8692 0.3911 0.3026
vn -0.9027 -0.2155 0.3724
vn -0.7868 -0.4779 0.3906
vn -0.8947 -0.2506 0.3698
vn 0.9119 -0.4104 -0.0000
vn 0.9777 -0.2099 -0.0000
vn -0.8608 0.4073 -0.3052
vn -0.8660 0.3272 -0.3781
vn -0.9014 0.1475 -0.4070
vn -0.9777 -0.2099 -0.0000
vn -0.9119 -0.4104 -0.0000
vn -0.0000 -0.0000 1.0000
vn 0.9262 0.1912 0.3249
vn 0.8947 -0.2506 0.3698
vn 0.9027 -0.2155 0.3724
vn -0.9279 0.1651 0.3342
vn -0.0000 0.9531 0.3026
vn 0.7868 -0.4779 0.3906
vn 0.8376 -0.3769 0.3954
vn 0.8796 0.3509 0.3212
vn 0.9279 0.1651 0.3342
vn 0.6362 -0.4142 -0.6509
vn 0.7791 -0.2221 -0.5862
vn 0.7061 -0.3178 -0.6328
vn -0.8181 -0.1703 -0.5493
vn -0.7791 -0.2221 -0.5862
vn 0.8181 -0.1703 -0.5493
vn 0.9014 0.1475 -0.4070
vn -0.0000 0.9978 -0.0656
vn -0.0000 -0.6407 -0.7678
vn -0.4609 -0.8875 -0.0000
vn 0.4609 -0.8875 -0.0000
vn 0.9534 -0.3016 -0.0000
vn -0.9534 0.3016 -0.0000
vn -0.9534 -0.3016 -0.0000
vn 0.9534 0.3016 -0.0000
vn 0.8180 0.5752 -0.0000
vn -0.8180 0.5752 -0.0000
vn -0.0000 1.0000 -0.0000
vn -0.6362 -0.4142 -0.6509
vn -0.7061 -0.3178 -0.6328
vn -0.0000 -0.7660 0.6428
vn -0.9239 -0.2460 -0.2932
vn -1.0000 -0.0000 -0.0000
vn 0.9239 0.2460 0.2932
vn 1.0000 -0.0000 -0.0000
vn -0.7071 -0.4545 -0.5417
vn 0.7071 0.4545 0.5417
vn -0.3827 -0.5939 -0.7077
vn 0.3827 0.5939 0.7077
vn -0.0000 -0.6428 -0.7660
vn -0.3827 0.5939 0.7077
vn -0.0000 0.6428 0.7660
vn 0.3827 -0.5939 -0.7077
vn -0.7071 0.4545 0.5417
vn 0.7071 -0.4545 -0.5417
vn -0.9239 0.2460 0.2932
vn 0.9239 -0.2460 -0.2932
vn -0.0000 0.7071 0.7071
vn -0.0000 0.9239 0.3827
vn -0.0000 -0.7071 -0.7071
vn -0.0000 -0.9239 -0.3827
vn -0.0000 0.3827 0.9239
vn -0.0000 -0.3827 -0.9239
vn -0.0000 0.3827 -0.9239
vn -0.0000 -0.0000 -1.0000
vn -0.0000 -0.3827 0.9239
vn -0.0000 0.7071 -0.7071
vn -0.0000 -0.7071 0.7071
vn -0.0000 0.9239 -0.3827
vn -0.0000 -0.9239 0.3827
vn 0.7071 -0.0000 0.7071
vn 0.9239 -0.0000 0.3827
vn -0.9239 -0.0000 -0.3827
vn -0.7071 -0.0000 -0.7071
vn 0.3827 -0.0000 0.9239
vn -0.3827 -0.0000 -0.9239
vn 0.3827 -0.0000 -0.9239
vn -0.3827 -0.0000 0.9239
vn 0.7071 -0.0000 -0.7071
vn -0.7071 -0.0000 0.7071
vn 0.9239 -0.0000 -0.3827
vn -0.9239 -0.0000 0.3827
vn -0.7958 -0.0305 -0.6048
vn -0.8090 -0.0451 -0.5860
vn -0.8217 -0.0596 -0.5668
vn 0.6245 0.2370 -0.7442
vn 0.7660 -0.0000 0.6428
vn -0.4588 0.7866 0.4134
vn -0.5541 0.5414 0.6324
vn -0.4354 0.8217 0.3677
vn 0.7958 -0.0305 0.6048
vn 0.8090 -0.0451 0.5860
vn 0.8217 -0.0596 0.5668
vn -0.6245 0.2370 0.7442
vn -0.7660 -0.0000 -0.6428
vn 0.4588 0.7866 -0.4134
vn 0.5541 0.5414 -0.6324
vn 0.4354 0.8217 -0.3677
vn -0.6048 -0.0305 0.7958
vn -0.5860 -0.0451 0.8090
vn -0.5668 -0.0596 0.8217
vn -0.7442 0.2370 -0.6245
vn 0.6428 -0.0000 -0.7660
vn 0.4134 0.7866 0.4588
vn 0.6324 0.5414 0.5541
vn 0.3677 0.8217 0.4354
vn 0.6048 -0.0305 -0.7958
vn 0.5860 -0.0451 -0.8090
vn 0.5668 -0.0596 -0.8217
vn 0.7442 0.2370 0.6245
vn -0.6428 -0.0000 0.7660
vn -0.4134 0.7866 -0.4588
vn -0.6324 0.5414 -0.5541
vn -0.3677 0.8217 -0.4354
vn 0.5741 0.5851 -0.5727
vn 0.9180 -0.1092 -0.3812
vn 0.7026 -0.1069 -0.7035
vn -0.3471 -0.0660 0.9355
vn -0.5767 0.5772 0.5781
vn -0.7027 -0.1172 0.7018
vn 0.3105 0.5863 -0.7482
vn 0.3802 -0.1053 -0.9189
vn -0.0000 0.8369 0.5473
vn -0.3802 -0.1053 -0.9189
vn -0.0000 0.5868 -0.8098
vn -0.0000 -0.1047 -0.9945
vn 0.3471 -0.0660 0.9355
vn -0.7026 -0.1069 -0.7035
vn -0.3105 0.5863 -0.7482
vn 0.5767 0.5772 0.5781
vn 0.7027 -0.1172 0.7018
vn -0.9180 -0.1092 -0.3812
vn -0.5742 0.5851 -0.5727
vn 0.7528 0.5790 0.3132
vn 0.9181 -0.1148 0.3793
vn -0.9937 -0.1120 -0.0009
vn -0.7509 0.5833 -0.3096
vn 0.8138 0.5811 0.0014
vn 0.9937 -0.1120 -0.0009
vn -0.9181 -0.1148 0.3793
vn -0.8138 0.5811 0.0014
vn 0.7509 0.5833 -0.3096
vn -0.7528 0.5790 0.3132
vn -0.2111 0.8340 0.5097
vn -0.0000 0.9920 0.1261
vn -0.0000 0.8340 0.5517
vn 0.1261 0.9920 -0.0000
vn 0.1165 0.9920 0.0483
vn -0.0000 0.9920 -0.1261
vn -0.2111 0.8340 -0.5097
vn -0.0000 0.8340 -0.5517
vn 0.0482 0.9920 -0.1165
vn 0.2111 0.8340 -0.5097
vn 0.0483 0.9920 0.1165
vn 0.2111 0.8340 0.5097
vn -0.0482 0.9920 -0.1165
vn -0.3901 0.8340 -0.3901
vn 0.0892 0.9920 0.0892
vn 0.3901 0.8340 0.3901
vn -0.1165 0.9920 -0.0482
vn -0.5097 0.8340 -0.2111
vn 0.5097 0.8340 0.2111
vn -0.5517 0.8340 -0.0000
vn 0.5517 0.8340 -0.0000
vn -0.1261 0.9920 -0.0000
vn -0.5097 0.8340 0.2111
vn 0.1165 0.9920 -0.0483
vn 0.5097 0.8340 -0.2111
vn -0.1165 0.9920 0.0482
vn -0.3901 0.8340 0.3901
vn 0.0892 0.9920 -0.0892
vn 0.3901 0.8340 -0.3901
vn -0.0892 0.9920 0.0892
vn -0.0483 0.9920 0.1165
vn -0.0892 0.9920 -0.0892
vn -0.8760 0.3179 0.3628
vn -0.6704 0.3179 0.6704
vn 0.9481 0.3179 -0.0000
vn 0.8760 0.3179 -0.3628
vn -0.9481 0.3179 -0.0000
vn 0.8760 0.3179 0.3628
vn -0.8760 0.3179 -0.3628
vn 0.6704 0.3179 0.6704
vn -0.6704 0.3179 -0.6704
vn 0.3628 0.3179 0.8760
vn -0.3628 0.3179 -0.8760
vn -0.0000 0.3179 0.9481
vn 0.3628 0.3179 -0.8760
vn -0.0000 0.3179 -0.9481
vn -0.3628 0.3179 0.8760
vn 0.6704 0.3179 -0.6704
vn -0.8376 -0.3769 0.3954
vn -0.7769 0.5463 -0.3131
vn 0.8692 0.3911 0.3026
vn -0.0000 -0.7661 0.6428
vn -0.5682 0.4675 0.6772
vn 0.5682 0.4675 -0.6772
vn 0.6772 0.4675 0.5682
vn -0.6772 0.4675 -0.5682
vn -0.0032 0.5144 0.8575
vn 0.0032 0.5144 0.8575
vt 0.845272 0.538896
vt 0.813416 0.448664
vt 0.845935 0.451284
vt 0.906295 0.658531
vt 0.893280 0.602174
vt 0.902874 0.599995
vt 0.874439 0.748763
vt 0.873776 0.661150
vt 0.694095 0.063571
vt 0.751691 0.004659
vt 0.756732 0.063571
vt 0.694095 0.153052
vt 0.756732 0.153052
vt 0.860825 0.142289
vt 0.923462 0.052808
vt 0.923462 0.142289
vt 0.826193 0.589252
vt 0.812446 0.540167
vt 0.874492 0.538984
vt 0.869735 0.589252
vt 0.864100 0.588142
vt 0.812886 0.659145
vt 0.845219 0.748851
vt 0.812446 0.750361
vt 0.845105 0.661697
vt 0.826431 0.392308
vt 0.906825 0.449278
vt 0.907265 0.540495
vt 0.874606 0.451831
vt 0.976666 0.388703
vt 0.995341 0.439420
vt 0.976666 0.446341
vt 0.961131 0.388703
vt 0.957370 0.443799
vt 0.957370 0.391245
vt 0.961131 0.446341
vt 0.855611 0.798008
vt 0.847296 0.587974
vt 0.860825 0.052808
vt 0.914041 0.004659
vt 0.849976 0.799118
vt 0.893518 0.799118
vt 0.872415 0.797841
vt 0.874554 0.598570
vt 0.835274 0.392081
vt 0.884437 0.601948
vt 0.904671 0.195066
vt 0.879616 0.195066
vt 0.737941 0.235252
vt 0.838751 0.935201
vt 0.863805 0.808436
vt 0.863805 0.935201
vt 0.873140 0.808436
vt 0.873139 0.935201
vt 0.821781 0.935201
vt 0.829416 0.808436
vt 0.829416 0.935201
vt 0.880775 0.935201
vt 0.890109 0.808436
vt 0.890109 0.935201
vt 0.812446 0.935201
vt 0.821781 0.808436
vt 0.788493 0.371335
vt 0.813548 0.244570
vt 0.813548 0.371335
vt 0.838751 0.808436
vt 0.880775 0.808436
vt 0.845157 0.388703
vt 0.955627 0.939312
vt 0.958297 0.961929
vt 0.935550 0.963206
vt 0.931749 0.924234
vt 0.932880 0.940581
vt 0.920916 0.930532
vt 0.959426 0.978283
vt 0.970262 0.971987
vt 0.943205 0.922225
vt 0.937802 0.936846
vt 0.947299 0.967053
vt 0.953373 0.965666
vt 0.950101 0.936391
vt 0.943876 0.935460
vt 0.936956 0.978343
vt 0.947968 0.980288
vt 0.963754 0.929633
vt 0.954219 0.924166
vt 0.920397 0.964431
vt 0.927428 0.972873
vt 0.941074 0.966124
vt 0.959485 0.944233
vt 0.929732 0.952296
vt 0.931722 0.958268
vt 0.974608 0.948593
vt 0.970796 0.938074
vt 0.916583 0.942289
vt 0.916583 0.953920
vt 0.974604 0.960231
vt 0.961447 0.950213
vt 0.930050 0.946075
vt 0.961139 0.956447
vt 0.724958 0.323858
vt 0.779175 0.272426
vt 0.726561 0.326710
vt 0.694095 0.372755
vt 0.698842 0.341800
vt 0.697881 0.362519
vt 0.721584 0.323641
vt 0.774677 0.244570
vt 0.701881 0.365172
vt 0.707739 0.351095
vt 0.717301 0.325761
vt 0.747623 0.252577
vt 0.714938 0.350533
vt 0.733861 0.353697
vt 0.708991 0.358179
vt 0.719963 0.355108
vt 0.712779 0.329979
vt 0.725968 0.264740
vt 0.720204 0.343631
vt 0.747912 0.346899
vt 0.699246 0.296271
vt 0.709834 0.279739
vt 0.724077 0.337165
vt 0.760740 0.334967
vt 0.705300 0.344081
vt 0.708639 0.336223
vt 0.726255 0.331367
vt 0.771039 0.318249
vt 0.701578 0.352929
vt 0.694095 0.313020
vt 0.777577 0.297210
vt 0.694097 0.328647
vt 0.569864 0.939324
vt 0.594415 0.955729
vt 0.578010 0.980280
vt 0.527737 0.980280
vt 0.503186 0.963875
vt 0.519590 0.939324
vt 0.092890 0.832022
vt 0.077400 0.811170
vt 0.100347 0.820261
vt 0.060205 0.923228
vt 0.034745 0.927825
vt 0.042227 0.916049
vt 0.055397 0.825178
vt 0.074833 0.824968
vt 0.079634 0.923038
vt 0.057612 0.936994
vt 0.028604 0.820706
vt 0.052481 0.811170
vt 0.110374 0.900656
vt 0.106435 0.927536
vt 0.097552 0.915341
vt 0.082531 0.937049
vt 0.037492 0.832896
vt 0.012234 0.840525
vt 0.130390 0.883968
vt 0.122817 0.907703
vt 0.018569 0.866001
vt 0.024670 0.847570
vt 0.116467 0.882207
vt 0.128732 0.859365
vt 0.019807 0.885330
vt 0.004659 0.864240
vt 0.115223 0.862857
vt 0.118227 0.837140
vt 0.028092 0.902820
vt 0.006318 0.888826
vt 0.106942 0.845332
vt 0.016843 0.911018
vt 0.272638 0.905027
vt 0.258349 0.833192
vt 0.330184 0.818903
vt 0.200607 0.912760
vt 0.139708 0.872069
vt 0.180399 0.811170
vt 0.836370 0.161015
vt 0.844366 0.044175
vt 0.839272 0.146938
vt 0.794326 0.129459
vt 0.849587 0.021162
vt 0.850524 0.013584
vt 0.829178 0.176178
vt 0.843526 0.043172
vt 0.809669 0.114480
vt 0.801693 0.120056
vt 0.816581 0.189847
vt 0.842868 0.040832
vt 0.824968 0.113709
vt 0.848670 0.032698
vt 0.817606 0.112450
vt 0.848842 0.027543
vt 0.799456 0.195499
vt 0.842606 0.037024
vt 0.831280 0.118015
vt 0.847681 0.037023
vt 0.788418 0.180024
vt 0.843049 0.031578
vt 0.836091 0.125139
vt 0.846765 0.040397
vt 0.785696 0.160409
vt 0.844534 0.024328
vt 0.845244 0.043974
vt 0.846078 0.042679
vt 0.788495 0.142943
vt 0.847309 0.015347
vt 0.838935 0.134858
vt 0.851507 0.004659
vt 0.620138 0.980280
vt 0.603733 0.955729
vt 0.628284 0.939324
vt 0.470322 0.957042
vt 0.439695 0.976343
vt 0.439695 0.940629
vt 0.916583 0.557226
vt 0.948052 0.388703
vt 0.948052 0.557226
vt 0.293889 0.922078
vt 0.324462 0.941465
vt 0.293889 0.986206
vt 0.430098 0.620354
vt 0.395513 0.785515
vt 0.375925 0.619049
vt 0.932780 0.004659
vt 0.944711 0.173182
vt 0.932780 0.173182
vt 0.684634 0.955737
vt 0.654006 0.975038
vt 0.654006 0.939324
vt 0.948052 0.566544
vt 0.916583 0.735066
vt 0.916583 0.566544
vt 0.333779 0.922078
vt 0.364352 0.941465
vt 0.333779 0.986206
vt 0.860825 0.372907
vt 0.895410 0.207746
vt 0.914998 0.374212
vt 0.387855 0.966717
vt 0.375925 0.798195
vt 0.387855 0.798195
vt 0.657579 0.344478
vt 0.661146 0.364821
vt 0.657000 0.351982
vt 0.653207 0.357458
vt 0.630647 0.020501
vt 0.659206 0.021677
vt 0.658358 0.029143
vt 0.654091 0.004659
vt 0.663704 0.017473
vt 0.684777 0.351506
vt 0.632927 0.360583
vt 0.773738 0.137908
vt 0.851507 0.147252
vt 0.848869 0.132661
vt 0.766050 0.160431
vt 0.843712 0.121060
vt 0.766251 0.192103
vt 0.836493 0.112460
vt 0.788359 0.232295
vt 0.827610 0.107035
vt 0.827724 0.211622
vt 0.806542 0.106674
vt 0.817480 0.105019
vt 0.844667 0.186770
vt 0.795246 0.112315
vt 0.850804 0.165118
vt 0.784071 0.122424
vt 0.764524 0.955737
vt 0.733897 0.975038
vt 0.733897 0.939324
vt 0.916583 0.744384
vt 0.948052 0.912907
vt 0.916583 0.912907
vt 0.214107 0.922078
vt 0.244680 0.941465
vt 0.214107 0.986206
vt 0.375925 0.608427
vt 0.410509 0.443266
vt 0.430098 0.609731
vt 0.397173 0.966717
vt 0.409104 0.798195
vt 0.409104 0.966717
vt 0.724579 0.955737
vt 0.693952 0.975038
vt 0.693952 0.939324
vt 0.955785 0.204384
vt 0.924316 0.372907
vt 0.924316 0.204384
vt 0.253998 0.922078
vt 0.284571 0.941465
vt 0.253998 0.986206
vt 0.493868 0.762789
vt 0.459284 0.927950
vt 0.439695 0.761484
vt 0.965959 0.173182
vt 0.954029 0.004659
vt 0.965959 0.004659
vt 0.567314 0.930007
vt 0.531759 0.764845
vt 0.567314 0.761484
vt 0.612187 0.926645
vt 0.576632 0.761484
vt 0.640760 0.761484
vt 0.685633 0.926645
vt 0.650078 0.761484
vt 0.714206 0.761484
vt 0.723524 0.761484
vt 0.759080 0.926645
vt 0.723524 0.930006
vt 0.601084 0.367651
vt 0.579173 0.325822
vt 0.587777 0.324614
vt 0.522978 0.329190
vt 0.508288 0.378606
vt 0.513360 0.328526
vt 0.611373 0.364142
vt 0.596053 0.323324
vt 0.533523 0.377440
vt 0.532656 0.329105
vt 0.467827 0.322015
vt 0.439695 0.362209
vt 0.459575 0.320196
vt 0.621329 0.360029
vt 0.603958 0.321993
vt 0.542296 0.329242
vt 0.476435 0.323701
vt 0.450672 0.366892
vt 0.558287 0.377068
vt 0.551811 0.328649
vt 0.485338 0.325210
vt 0.462031 0.370846
vt 0.569146 0.375288
vt 0.561152 0.327867
vt 0.494495 0.326528
vt 0.473694 0.373649
vt 0.579913 0.373159
vt 0.570285 0.326916
vt 0.503851 0.327637
vt 0.485322 0.375814
vt 0.590573 0.370633
vt 0.496861 0.377439
vt 0.149355 0.955906
vt 0.170961 0.922078
vt 0.204789 0.955906
vt 0.654732 0.577093
vt 0.694024 0.618962
vt 0.649681 0.589361
vt 0.585267 0.752166
vt 0.572912 0.643044
vt 0.604386 0.656099
vt 0.548794 0.521892
vt 0.602591 0.542086
vt 0.593173 0.551443
vt 0.535743 0.553355
vt 0.588050 0.563699
vt 0.669906 0.643035
vt 0.640261 0.598712
vt 0.572896 0.497810
vt 0.614864 0.537050
vt 0.638449 0.656120
vt 0.628006 0.603834
vt 0.638469 0.484804
vt 0.628118 0.537098
vt 0.614716 0.603782
vt 0.640391 0.542141
vt 0.602465 0.598658
vt 0.669967 0.497789
vt 0.649747 0.551563
vt 0.548826 0.618933
vt 0.593114 0.589243
vt 0.694033 0.521889
vt 0.654781 0.563837
vt 0.535800 0.587429
vt 0.588083 0.576974
vt 0.707050 0.553376
vt 0.008062 0.264364
vt 0.039971 0.185922
vt 0.042805 0.256209
vt 0.775483 0.467487
vt 0.467358 0.673352
vt 0.439701 0.606550
vt 0.803128 0.534287
vt 0.707020 0.587462
vt 0.439695 0.534247
vt 0.803111 0.606587
vt 0.467368 0.467468
vt 0.724346 0.724481
vt 0.518491 0.416361
vt 0.604384 0.484782
vt 0.657560 0.752166
vt 0.657582 0.388705
vt 0.318959 0.709964
vt 0.096547 0.754204
vt 0.052307 0.531792
vt 0.427194 0.170890
vt 0.395027 0.249276
vt 0.392473 0.178980
vt 0.004659 0.180433
vt 0.064221 0.119701
vt 0.430377 0.254756
vt 0.371107 0.315549
vt 0.033226 0.100982
vt 0.112181 0.067664
vt 0.402091 0.334193
vt 0.323202 0.367602
vt 0.090442 0.036748
vt 0.177359 0.040144
vt 0.344948 0.398497
vt 0.258018 0.395098
vt 0.170231 0.004659
vt 0.247852 0.039780
vt 0.265140 0.430586
vt 0.187521 0.395431
vt 0.254605 0.004659
vt 0.313160 0.065991
vt 0.180759 0.430554
vt 0.122211 0.369203
vt 0.332539 0.036059
vt 0.363810 0.114777
vt 0.042384 0.340923
vt 0.071542 0.320417
vt 0.102832 0.399141
vt 0.392971 0.094299
vt 0.154350 0.463609
vt 0.083119 0.467456
vt 0.149635 0.439904
vt 0.096547 0.487552
vt 0.004659 0.584880
vt 0.032211 0.518364
vt 0.028364 0.652161
vt 0.028364 0.589595
vt 0.032211 0.723391
vt 0.004659 0.656876
vt 0.052307 0.709963
vt 0.154350 0.778147
vt 0.083119 0.774300
vt 0.221631 0.801852
vt 0.149635 0.801852
vt 0.274718 0.754204
vt 0.216916 0.778147
vt 0.339055 0.723391
vt 0.288146 0.774300
vt 0.342902 0.652161
vt 0.342902 0.589595
vt 0.366607 0.656876
vt 0.318959 0.531792
vt 0.366607 0.584880
vt 0.288146 0.467456
vt 0.339055 0.518364
vt 0.274718 0.487552
vt 0.221631 0.439904
vt 0.216915 0.463609
vt 0.516046 0.022756
vt 0.524636 0.022861
vt 0.576891 0.023215
vt 0.585788 0.023798
vt 0.507407 0.022679
vt 0.567962 0.023082
vt 0.498747 0.022716
vt 0.559175 0.022944
vt 0.490065 0.022840
vt 0.550444 0.022847
vt 0.481629 0.023354
vt 0.541778 0.022919
vt 0.602962 0.025908
vt 0.610874 0.027312
vt 0.473661 0.024118
vt 0.533196 0.022926
vt 0.594539 0.024697
vt 0.587388 0.005106
vt 0.597799 0.006250
vt 0.525599 0.006929
vt 0.533719 0.007255
vt 0.608301 0.008505
vt 0.541749 0.007157
vt 0.467877 0.008390
vt 0.478226 0.005723
vt 0.618246 0.011950
vt 0.549932 0.006606
vt 0.488724 0.004659
vt 0.558415 0.006181
vt 0.498801 0.005001
vt 0.567420 0.005557
vt 0.508276 0.005552
vt 0.577234 0.004659
vt 0.517175 0.006295
vt 0.907265 0.750034
vt 0.699136 0.004659
vt 0.816837 0.390129
vt 0.995341 0.395624
vt 0.870246 0.004659
vt 0.712886 0.235252
vt 0.812446 0.808436
vt 0.788493 0.244570
vt 0.569864 0.980280
vt 0.562338 0.977162
vt 0.556577 0.971402
vt 0.553460 0.963875
vt 0.553460 0.955729
vt 0.556577 0.948203
vt 0.562338 0.942442
vt 0.578011 0.939324
vt 0.585537 0.942442
vt 0.591298 0.948203
vt 0.594415 0.963876
vt 0.591297 0.971402
vt 0.585537 0.977162
vt 0.527737 0.939324
vt 0.535264 0.942442
vt 0.541024 0.948202
vt 0.544142 0.955729
vt 0.544142 0.963875
vt 0.541024 0.971402
vt 0.535264 0.977162
vt 0.519591 0.980280
vt 0.512064 0.977162
vt 0.506304 0.971402
vt 0.503186 0.955729
vt 0.506304 0.948203
vt 0.512064 0.942442
vt 0.344473 0.833192
vt 0.352206 0.851861
vt 0.352206 0.872069
vt 0.344473 0.890738
vt 0.330184 0.905027
vt 0.311515 0.912760
vt 0.291307 0.912760
vt 0.258349 0.890738
vt 0.250616 0.872068
vt 0.250616 0.851861
vt 0.272638 0.818903
vt 0.291307 0.811170
vt 0.311515 0.811170
vt 0.200607 0.811170
vt 0.219276 0.818903
vt 0.233565 0.833192
vt 0.241298 0.851861
vt 0.241298 0.872069
vt 0.233565 0.890738
vt 0.219276 0.905027
vt 0.180399 0.912760
vt 0.161730 0.905027
vt 0.147441 0.890738
vt 0.139708 0.851861
vt 0.147441 0.833192
vt 0.161730 0.818903
vt 0.635810 0.942442
vt 0.641571 0.948202
vt 0.644688 0.955729
vt 0.644688 0.963875
vt 0.641571 0.971402
vt 0.635810 0.977162
vt 0.628284 0.980280
vt 0.612611 0.977162
vt 0.606851 0.971402
vt 0.603733 0.963876
vt 0.606851 0.948203
vt 0.612611 0.942442
vt 0.620137 0.939324
vt 0.470289 0.968972
vt 0.916583 0.388703
vt 0.324461 0.929534
vt 0.430098 0.788877
vt 0.944711 0.004659
vt 0.684600 0.967668
vt 0.948052 0.735066
vt 0.364352 0.929535
vt 0.860825 0.204384
vt 0.375925 0.966717
vt 0.684777 0.005495
vt 0.764490 0.967668
vt 0.948052 0.744384
vt 0.244680 0.929535
vt 0.375925 0.439904
vt 0.397173 0.798195
vt 0.724545 0.967668
vt 0.955785 0.372907
vt 0.284571 0.929534
vt 0.493868 0.931311
vt 0.954029 0.173182
vt 0.503186 0.930007
vt 0.576632 0.930007
vt 0.650078 0.930007
vt 0.787652 0.761484
vt 0.519599 0.379385
vt 0.547332 0.378534
vt 0.202214 0.968851
vt 0.194881 0.979826
vt 0.183907 0.987159
vt 0.170961 0.989734
vt 0.158016 0.987159
vt 0.147041 0.979826
vt 0.139708 0.968851
vt 0.139708 0.942960
vt 0.147041 0.931986
vt 0.158016 0.924653
vt 0.183907 0.924653
vt 0.194881 0.931986
vt 0.202214 0.942960
vt 0.518469 0.724493
vt 0.724375 0.416354
vt 0.775454 0.673367
vt 0.585285 0.388703
s 1
usemtl USMC_Black_Hornet
f 10/1/1 4/2/2 11/3/1
f 8/4/3 32/5/4 29/6/5
f 8/4/6 15/7/7 13/8/8
f 5/9/9 21/10/9 1/11/9
f 7/12/10 1/11/10 3/13/10
f 4/14/11 6/15/12 8/16/11
f 10/1/13 18/17/14 2/18/15
f 9/19/16 21/20/17 23/21/18
f 7/22/19 16/23/20 5/24/19
f 13/8/8 16/23/20 14/25/20
f 4/2/21 31/26/22 11/3/23
f 9/19/24 3/27/25 1/28/25
f 9/19/24 11/3/1 12/29/24
f 24/30/26 18/31/26 17/32/26
f 19/33/26 21/34/26 20/35/26
f 24/30/26 23/36/26 19/33/26
f 15/7/27 19/37/28 16/23/29
f 10/1/13 23/21/18 17/38/30
f 2/39/12 22/40/31 6/15/12
f 16/23/29 20/41/32 5/24/33
f 15/7/27 22/42/34 24/43/35
f 27/44/36 14/25/37 7/22/38
f 11/3/23 25/45/39 12/29/40
f 30/46/41 13/8/42 14/25/37
f 4/14/11 29/47/43 28/48/43
f 26/49/44 7/12/44 3/13/44
f 26/50/45 35/51/46 27/52/46
f 27/52/46 38/53/47 30/54/47
f 31/55/48 33/56/49 25/57/49
f 32/58/50 37/59/51 29/60/51
f 28/61/52 39/62/48 31/55/48
f 29/63/53 36/64/53 28/65/53
f 26/50/45 33/56/49 34/66/45
f 32/58/50 38/53/47 40/67/50
f 12/29/40 26/68/54 3/27/55
f 65/69/56 69/70/56 58/71/56
f 46/72/57 61/73/58 45/74/58
f 54/75/59 69/70/60 53/76/60
f 47/77/61 62/78/57 46/72/57
f 54/75/59 71/79/62 70/80/59
f 47/77/61 64/81/63 63/82/61
f 56/83/64 71/79/62 55/84/62
f 49/85/65 64/81/63 48/86/63
f 42/87/66 58/71/67 41/88/67
f 56/83/64 58/71/67 72/89/64
f 49/85/65 66/90/68 65/69/65
f 42/87/66 59/91/69 57/92/66
f 51/93/70 66/90/68 50/94/68
f 44/95/71 59/91/69 43/96/69
f 52/97/72 67/98/70 51/93/70
f 44/95/71 61/73/58 60/99/71
f 52/97/72 69/70/60 68/100/72
f 79/101/73 94/102/74 78/103/74
f 87/104/75 102/105/76 86/106/76
f 80/107/77 95/108/73 79/101/73
f 88/109/78 103/110/75 87/104/75
f 81/111/26 96/112/77 80/107/77
f 74/113/79 89/114/80 73/115/80
f 73/115/80 104/116/78 88/109/78
f 82/117/81 97/118/26 81/111/26
f 75/119/82 90/120/79 74/113/79
f 82/117/81 99/121/83 98/122/81
f 76/123/84 91/124/82 75/119/82
f 84/125/85 99/121/83 83/126/83
f 77/127/53 92/128/84 76/123/84
f 85/129/10 100/130/85 84/125/85
f 78/103/74 93/131/53 77/127/53
f 85/129/10 102/105/76 101/132/10
f 97/133/60 101/134/60 89/135/60
f 83/136/58 79/137/58 75/138/58
f 110/139/74 127/140/73 126/141/74
f 119/142/75 134/143/76 118/144/76
f 112/145/77 127/140/73 111/146/73
f 120/147/78 135/148/75 119/142/75
f 112/145/77 129/149/26 128/150/77
f 106/151/79 121/152/80 105/153/80
f 120/147/78 121/152/80 136/154/78
f 113/155/26 130/156/81 129/149/26
f 106/151/79 123/157/82 122/158/79
f 115/159/83 130/156/81 114/160/81
f 107/161/82 124/162/84 123/157/82
f 116/163/85 131/164/83 115/159/83
f 108/165/84 125/166/53 124/162/84
f 117/167/10 132/168/85 116/163/85
f 109/169/53 126/141/74 125/166/53
f 118/144/76 133/170/10 117/167/10
f 129/171/60 133/172/60 121/173/60
f 115/174/58 111/175/58 107/176/58
f 198/177/86 158/178/87 197/179/87
f 199/180/88 167/181/89 166/182/88
f 201/183/90 159/184/86 198/177/86
f 202/185/91 167/181/89 200/186/89
f 203/187/26 160/188/90 201/183/90
f 205/189/92 153/190/80 204/191/80
f 204/191/80 168/192/91 202/185/91
f 206/193/93 161/194/26 203/187/26
f 207/195/94 154/196/92 205/189/92
f 208/197/95 162/198/93 206/193/93
f 209/199/96 155/200/94 207/195/94
f 210/201/97 163/202/95 208/197/95
f 209/199/96 157/203/60 156/204/96
f 212/205/58 164/206/97 210/201/97
f 197/179/87 157/203/60 211/207/60
f 199/180/88 165/208/58 212/205/58
f 147/209/53 143/210/53 139/211/53
f 170/212/98 171/213/99 169/214/100
f 172/215/101 175/216/101 171/217/101
f 175/218/102 174/219/102 173/220/102
f 174/221/103 169/222/104 173/223/105
f 172/224/53 174/225/53 176/226/53
f 178/227/106 179/228/107 177/229/108
f 180/230/109 183/231/109 179/232/109
f 183/233/110 182/234/110 181/235/110
f 182/236/111 177/237/112 181/238/113
f 180/239/53 182/240/53 184/241/53
f 193/242/60 188/243/94 187/244/94
f 188/243/94 191/245/89 187/244/94
f 196/246/58 189/247/95 195/248/58
f 190/249/95 185/250/86 189/247/95
f 185/250/86 194/251/60 193/242/60
f 192/252/89 195/248/58 191/245/89
f 149/253/58 199/180/88 212/205/58
f 142/254/87 211/207/60 141/255/60
f 148/256/97 212/205/58 210/201/97
f 140/257/96 211/207/60 209/199/96
f 147/258/95 210/201/97 208/197/95
f 140/257/96 207/195/94 139/259/94
f 147/258/95 206/193/93 146/260/93
f 139/259/94 205/189/92 138/261/92
f 146/260/93 203/187/26 145/262/26
f 152/263/91 204/191/80 202/185/91
f 137/264/80 205/189/92 204/191/80
f 145/262/26 201/183/90 144/265/90
f 151/266/89 202/185/91 200/186/89
f 144/265/90 198/177/86 143/267/86
f 150/268/88 200/186/89 199/180/88
f 143/267/86 197/179/87 142/254/87
f 214/269/114 215/270/115 213/271/116
f 215/272/117 220/273/117 219/274/117
f 219/275/118 218/276/118 217/277/118
f 218/278/119 213/279/120 217/280/121
f 220/281/53 214/282/53 218/283/53
f 222/284/122 223/285/123 221/286/124
f 224/287/125 227/288/125 223/289/125
f 227/290/126 226/291/126 225/292/126
f 226/293/127 221/294/128 225/295/129
f 224/296/53 226/297/53 228/298/53
f 175/299/10 169/300/10 171/301/10
f 213/302/10 219/303/10 217/304/10
f 221/305/10 227/306/10 225/307/10
f 183/308/10 177/309/10 179/310/10
f 259/311/130 325/312/131 326/313/132
f 328/314/133 251/315/134 327/316/135
f 260/317/136 326/313/132 329/318/137
f 253/319/138 328/314/133 330/320/26
f 332/321/139 245/322/140 331/323/141
f 245/324/140 329/318/137 331/325/141
f 333/326/142 253/319/138 330/320/26
f 334/327/143 246/328/144 332/321/139
f 255/329/145 333/326/142 335/330/146
f 336/331/147 247/332/148 334/327/143
f 256/333/149 335/330/146 337/334/150
f 338/335/151 248/336/152 336/331/147
f 257/337/153 337/334/150 339/338/154
f 340/339/155 249/340/156 338/335/151
f 258/341/157 339/338/154 325/312/131
f 327/316/135 250/342/158 340/339/155
f 253/343/138 257/344/153 245/345/140
f 236/346/159 269/347/160 237/348/161
f 288/349/53 273/350/162 272/351/163
f 261/352/164 230/353/165 229/354/166
f 276/355/167 229/354/166 244/356/168
f 237/348/161 270/357/169 238/358/170
f 262/359/171 231/360/172 230/353/165
f 238/358/170 271/361/173 239/362/174
f 231/360/172 264/363/175 232/364/176
f 271/361/173 240/365/177 239/362/174
f 264/363/175 233/366/178 232/364/176
f 272/351/163 241/367/179 240/365/177
f 265/368/180 234/369/181 233/366/178
f 241/367/179 274/370/182 242/371/183
f 266/372/184 235/373/185 234/369/181
f 242/371/183 275/374/186 243/375/187
f 267/376/188 236/346/159 235/373/185
f 243/375/187 276/355/167 244/356/168
f 309/377/91 279/378/89 278/379/91
f 265/368/180 282/380/53 266/372/184
f 273/350/162 290/381/53 274/370/182
f 282/380/53 267/376/188 266/372/184
f 274/370/182 291/382/53 275/374/186
f 283/383/53 268/384/189 267/376/188
f 275/374/186 292/385/53 276/355/167
f 284/386/53 269/347/160 268/384/189
f 277/387/53 262/359/171 261/352/164
f 292/385/53 261/352/164 276/355/167
f 269/347/160 286/388/53 270/357/169
f 278/389/53 263/390/190 262/359/171
f 270/357/169 287/391/53 271/361/173
f 263/390/190 280/392/53 264/363/175
f 287/391/53 272/351/163 271/361/173
f 280/392/53 265/368/180 264/363/175
f 303/393/10 299/394/10 295/395/10
f 318/396/90 287/397/86 286/398/90
f 311/399/89 280/400/88 279/378/89
f 319/401/86 288/402/87 287/397/86
f 312/403/88 281/404/58 280/400/88
f 320/405/87 289/406/60 288/402/87
f 313/407/58 282/408/97 281/404/58
f 321/409/60 290/410/96 289/406/60
f 314/411/97 283/412/95 282/408/97
f 322/413/96 291/414/94 290/410/96
f 315/415/95 284/416/93 283/412/95
f 323/417/94 292/418/92 291/414/94
f 316/419/93 285/420/26 284/416/93
f 310/421/80 278/379/91 277/422/80
f 324/423/92 277/422/80 292/418/92
f 317/424/26 286/398/90 285/420/26
f 293/425/10 309/426/10 310/427/10
f 295/395/10 309/426/10 294/428/10
f 295/395/10 312/429/10 311/430/10
f 297/431/10 312/429/10 296/432/10
f 297/431/10 314/433/10 313/434/10
f 299/394/10 314/433/10 298/435/10
f 300/436/10 315/437/10 299/394/10
f 300/436/10 317/438/10 316/439/10
f 302/440/10 317/438/10 301/441/10
f 302/440/10 319/442/10 318/443/10
f 304/444/10 319/442/10 303/393/10
f 305/445/10 320/446/10 304/444/10
f 306/447/10 321/448/10 305/445/10
f 306/447/10 323/449/10 322/450/10
f 307/451/10 324/452/10 323/449/10
f 293/425/10 324/452/10 308/453/10
f 327/316/135 353/454/191 355/455/192
f 325/312/131 352/456/193 354/457/194
f 340/339/155 351/458/195 353/454/191
f 339/338/154 350/459/196 352/456/193
f 338/335/151 349/460/197 351/458/195
f 337/334/150 348/461/198 350/459/196
f 336/331/147 347/462/199 349/460/197
f 335/330/146 346/463/200 348/461/198
f 334/327/143 345/464/201 347/462/199
f 333/326/142 344/465/202 346/463/200
f 331/325/141 343/466/203 356/467/204
f 332/321/139 356/468/204 345/464/201
f 330/320/26 342/469/205 344/465/202
f 329/318/137 341/470/206 343/466/203
f 328/314/133 355/455/192 342/469/205
f 326/313/132 354/457/194 341/470/206
f 341/470/206 242/471/183 243/472/187
f 342/469/205 235/473/185 236/474/159
f 343/466/203 243/472/187 244/475/168
f 344/465/202 236/474/159 237/476/161
f 345/464/201 229/477/166 230/478/165
f 356/467/204 244/475/168 229/479/166
f 346/463/200 237/476/161 238/480/170
f 347/462/199 230/478/165 231/481/172
f 239/482/174 346/463/200 238/480/170
f 232/483/176 347/462/199 231/481/172
f 350/459/196 239/482/174 240/484/177
f 351/458/195 232/483/176 233/485/178
f 352/456/193 240/484/177 241/486/179
f 353/454/191 233/485/178 234/487/181
f 242/471/183 352/456/193 241/486/179
f 235/473/185 353/454/191 234/487/181
f 10/1/1 2/18/2 4/2/2
f 8/4/3 13/8/42 32/5/4
f 8/4/6 6/488/6 15/7/7
f 5/9/9 20/489/9 21/10/9
f 7/12/10 5/9/10 1/11/10
f 4/14/11 2/39/12 6/15/12
f 10/1/13 17/38/30 18/17/14
f 9/19/16 1/28/207 21/20/17
f 7/22/19 14/25/20 16/23/20
f 13/8/8 15/7/7 16/23/20
f 4/2/21 28/490/208 31/26/22
f 9/19/24 12/29/24 3/27/25
f 9/19/24 10/1/1 11/3/1
f 24/30/26 22/491/26 18/31/26
f 19/33/26 23/36/26 21/34/26
f 24/30/26 17/32/26 23/36/26
f 15/7/27 24/43/35 19/37/28
f 10/1/13 9/19/16 23/21/18
f 2/39/12 18/492/31 22/40/31
f 16/23/29 19/37/28 20/41/32
f 15/7/27 6/488/209 22/42/34
f 27/44/36 30/46/41 14/25/37
f 11/3/23 31/26/22 25/45/39
f 30/46/41 32/5/4 13/8/42
f 4/14/11 8/16/11 29/47/43
f 26/49/44 27/493/44 7/12/44
f 26/50/45 34/66/45 35/51/46
f 27/52/46 35/51/46 38/53/47
f 31/55/48 39/62/48 33/56/49
f 32/58/50 40/67/50 37/59/51
f 28/61/52 36/494/52 39/62/48
f 29/63/53 37/495/53 36/64/53
f 26/50/45 25/57/49 33/56/49
f 32/58/50 30/54/47 38/53/47
f 12/29/40 25/45/39 26/68/54
f 58/71/56 57/92/56 59/91/56
f 59/91/56 60/99/56 61/73/56
f 61/73/56 62/78/56 63/82/56
f 63/82/56 64/81/210 65/69/56
f 65/69/56 66/90/210 67/98/56
f 67/98/56 68/100/56 69/70/56
f 69/70/56 70/80/56 71/79/56
f 71/79/56 72/89/56 58/71/56
f 58/71/56 59/91/56 61/73/56
f 61/73/56 63/82/56 65/69/56
f 65/69/56 67/98/56 69/70/56
f 69/70/56 71/79/56 58/71/56
f 58/71/56 61/73/56 65/69/56
f 46/72/57 62/78/57 61/73/58
f 54/75/59 70/80/59 69/70/60
f 47/77/61 63/82/61 62/78/57
f 54/75/59 55/84/62 71/79/62
f 47/77/61 48/86/63 64/81/63
f 56/83/64 72/89/64 71/79/62
f 49/85/65 65/69/65 64/81/63
f 42/87/66 57/92/66 58/71/67
f 56/83/64 41/88/67 58/71/67
f 49/85/65 50/94/68 66/90/68
f 42/87/66 43/96/69 59/91/69
f 51/93/70 67/98/70 66/90/68
f 44/95/71 60/99/71 59/91/69
f 52/97/72 68/100/72 67/98/70
f 44/95/71 45/74/58 61/73/58
f 52/97/72 53/76/60 69/70/60
f 79/101/73 95/108/73 94/102/74
f 87/104/75 103/110/75 102/105/76
f 80/107/77 96/112/77 95/108/73
f 88/109/78 104/116/78 103/110/75
f 81/111/26 97/118/26 96/112/77
f 74/113/79 90/120/79 89/114/80
f 73/115/80 89/114/80 104/116/78
f 82/117/81 98/122/81 97/118/26
f 75/119/82 91/124/82 90/120/79
f 82/117/81 83/126/83 99/121/83
f 76/123/84 92/128/84 91/124/82
f 84/125/85 100/130/85 99/121/83
f 77/127/53 93/131/53 92/128/84
f 85/129/10 101/132/10 100/130/85
f 78/103/74 94/102/74 93/131/53
f 85/129/10 86/106/76 102/105/76
f 89/135/60 90/496/60 91/497/60
f 91/497/60 92/498/60 93/499/60
f 93/499/60 94/500/60 95/501/60
f 95/501/60 96/502/60 97/133/60
f 97/133/60 98/503/60 99/504/60
f 99/504/60 100/505/60 101/134/60
f 101/134/60 102/506/60 103/507/60
f 103/507/60 104/508/60 89/135/60
f 89/135/60 91/497/60 93/499/60
f 93/499/60 95/501/60 97/133/60
f 97/133/60 99/504/60 101/134/60
f 101/134/60 103/507/60 89/135/60
f 89/135/60 93/499/60 97/133/60
f 75/138/58 74/509/58 73/510/58
f 73/510/58 88/511/58 87/512/58
f 87/512/58 86/513/58 85/514/58
f 85/514/58 84/515/58 83/136/58
f 83/136/58 82/516/58 81/517/58
f 81/517/58 80/518/58 79/137/58
f 79/137/58 78/519/58 77/520/58
f 77/520/58 76/521/58 75/138/58
f 75/138/58 73/510/58 87/512/58
f 87/512/58 85/514/58 83/136/58
f 83/136/58 81/517/58 79/137/58
f 79/137/58 77/520/58 75/138/58
f 75/138/58 87/512/58 83/136/58
f 110/139/74 111/146/73 127/140/73
f 119/142/75 135/148/75 134/143/76
f 112/145/77 128/150/77 127/140/73
f 120/147/78 136/154/78 135/148/75
f 112/145/77 113/155/26 129/149/26
f 106/151/79 122/158/79 121/152/80
f 120/147/78 105/153/80 121/152/80
f 113/155/26 114/160/81 130/156/81
f 106/151/79 107/161/82 123/157/82
f 115/159/83 131/164/83 130/156/81
f 107/161/82 108/165/84 124/162/84
f 116/163/85 132/168/85 131/164/83
f 108/165/84 109/169/53 125/166/53
f 117/167/10 133/170/10 132/168/85
f 109/169/53 110/139/74 126/141/74
f 118/144/76 134/143/76 133/170/10
f 121/173/60 122/522/60 123/523/60
f 123/523/60 124/524/60 125/525/60
f 125/525/60 126/526/60 127/527/60
f 127/527/60 128/528/60 129/171/60
f 129/171/60 130/529/60 131/530/60
f 131/530/60 132/531/60 133/172/60
f 133/172/60 134/532/60 135/533/60
f 135/533/60 136/534/60 121/173/60
f 121/173/60 123/523/60 125/525/60
f 125/525/60 127/527/60 129/171/60
f 129/171/60 131/530/60 133/172/60
f 133/172/60 135/533/60 121/173/60
f 121/173/60 125/525/60 129/171/60
f 107/176/58 106/535/58 105/536/58
f 105/536/58 120/537/58 119/538/58
f 119/538/58 118/539/58 117/540/58
f 117/540/58 116/541/58 115/174/58
f 115/174/58 114/542/58 113/543/58
f 113/543/58 112/544/58 111/175/58
f 111/175/58 110/545/58 109/546/58
f 109/546/58 108/547/58 107/176/58
f 107/176/58 105/536/58 119/538/58
f 119/538/58 117/540/58 115/174/58
f 115/174/58 113/543/58 111/175/58
f 111/175/58 109/546/58 107/176/58
f 107/176/58 119/538/58 115/174/58
f 198/177/86 159/184/86 158/178/87
f 199/180/88 200/186/89 167/181/89
f 201/183/90 160/188/90 159/184/86
f 202/185/91 168/192/91 167/181/89
f 203/187/26 161/194/26 160/188/90
f 205/189/92 154/196/92 153/190/80
f 204/191/80 153/190/80 168/192/91
f 206/193/93 162/198/93 161/194/26
f 207/195/94 155/200/94 154/196/92
f 208/197/95 163/202/95 162/198/93
f 209/199/96 156/204/96 155/200/94
f 210/201/97 164/206/97 163/202/95
f 209/199/96 211/207/60 157/203/60
f 212/205/58 165/208/58 164/206/97
f 197/179/87 158/178/87 157/203/60
f 199/180/88 166/182/88 165/208/58
f 139/211/53 138/548/53 137/549/53
f 137/549/53 152/550/53 151/551/53
f 151/551/53 150/552/53 149/553/53
f 149/553/53 148/554/53 147/209/53
f 147/209/53 146/555/53 145/556/53
f 145/556/53 144/557/53 143/210/53
f 143/210/53 142/558/53 141/559/53
f 141/559/53 140/560/53 139/211/53
f 139/211/53 137/549/53 151/551/53
f 151/551/53 149/553/53 147/209/53
f 147/209/53 145/556/53 143/210/53
f 143/210/53 141/559/53 139/211/53
f 139/211/53 151/551/53 147/209/53
f 170/212/98 172/561/110 171/213/99
f 172/215/101 176/562/101 175/216/101
f 175/218/102 176/563/102 174/219/102
f 174/221/103 170/564/211 169/222/104
f 172/224/53 170/565/53 174/225/53
f 178/227/106 180/566/102 179/228/107
f 180/230/109 184/567/109 183/231/109
f 183/233/110 184/568/110 182/234/110
f 182/236/111 178/569/212 177/237/112
f 180/239/53 178/570/53 182/240/53
f 193/242/60 194/251/60 188/243/94
f 188/243/94 192/252/89 191/245/89
f 196/246/58 190/249/95 189/247/95
f 190/249/95 186/571/86 185/250/86
f 185/250/86 186/571/86 194/251/60
f 192/252/89 196/246/58 195/248/58
f 149/253/58 150/268/88 199/180/88
f 142/254/87 197/179/87 211/207/60
f 148/256/97 149/253/58 212/205/58
f 140/257/96 141/255/60 211/207/60
f 147/258/95 148/256/97 210/201/97
f 140/257/96 209/199/96 207/195/94
f 147/258/95 208/197/95 206/193/93
f 139/259/94 207/195/94 205/189/92
f 146/260/93 206/193/93 203/187/26
f 152/263/91 137/264/80 204/191/80
f 137/264/80 138/261/92 205/189/92
f 145/262/26 203/187/26 201/183/90
f 151/266/89 152/263/91 202/185/91
f 144/265/90 201/183/90 198/177/86
f 150/268/88 151/266/89 200/186/89
f 143/267/86 198/177/86 197/179/87
f 214/269/114 216/572/126 215/270/115
f 215/272/117 216/573/117 220/273/117
f 219/275/118 220/574/118 218/276/118
f 218/278/119 214/575/213 213/279/120
f 220/281/53 216/576/53 214/282/53
f 222/284/122 224/577/118 223/285/123
f 224/287/125 228/578/125 227/288/125
f 227/290/126 228/579/126 226/291/126
f 226/293/127 222/580/214 221/294/128
f 224/296/53 222/581/53 226/297/53
f 175/299/10 173/582/10 169/300/10
f 213/302/10 215/583/10 219/303/10
f 221/305/10 223/584/10 227/306/10
f 183/308/10 181/585/10 177/309/10
f 259/311/130 258/341/157 325/312/131
f 328/314/133 252/586/215 251/315/134
f 260/317/136 259/311/130 326/313/132
f 253/319/138 252/586/215 328/314/133
f 332/321/139 246/328/144 245/322/140
f 245/324/140 260/317/136 329/318/137
f 333/326/142 254/587/216 253/319/138
f 334/327/143 247/332/148 246/328/144
f 255/329/145 254/587/216 333/326/142
f 336/331/147 248/336/152 247/332/148
f 256/333/149 255/329/145 335/330/146
f 338/335/151 249/340/156 248/336/152
f 257/337/153 256/333/149 337/334/150
f 340/339/155 250/342/158 249/340/156
f 258/341/157 257/337/153 339/338/154
f 327/316/135 251/315/134 250/342/158
f 245/345/140 246/588/144 247/589/148
f 247/589/148 248/590/152 249/591/156
f 249/591/156 250/592/158 251/593/134
f 251/593/134 252/594/215 253/343/138
f 253/343/138 254/595/216 255/596/145
f 255/596/145 256/597/149 257/344/153
f 257/344/153 258/598/157 259/599/130
f 259/599/130 260/600/136 245/345/140
f 245/345/140 247/589/148 249/591/156
f 249/591/156 251/593/134 253/343/138
f 253/343/138 255/596/145 257/344/153
f 257/344/153 259/599/130 245/345/140
f 245/345/140 249/591/156 253/343/138
f 236/346/159 268/384/189 269/347/160
f 288/349/53 289/601/53 273/350/162
f 261/352/164 262/359/171 230/353/165
f 276/355/167 261/352/164 229/354/166
f 237/348/161 269/347/160 270/357/169
f 262/359/171 263/390/190 231/360/172
f 238/358/170 270/357/169 271/361/173
f 231/360/172 263/390/190 264/363/175
f 271/361/173 272/351/163 240/365/177
f 264/363/175 265/368/180 233/366/178
f 272/351/163 273/350/162 241/367/179
f 265/368/180 266/372/184 234/369/181
f 241/367/179 273/350/162 274/370/182
f 266/372/184 267/376/188 235/373/185
f 242/371/183 274/370/182 275/374/186
f 267/376/188 268/384/189 236/346/159
f 243/375/187 275/374/186 276/355/167
f 309/377/91 311/399/89 279/378/89
f 265/368/180 281/602/53 282/380/53
f 273/350/162 289/601/53 290/381/53
f 282/380/53 283/383/53 267/376/188
f 274/370/182 290/381/53 291/382/53
f 283/383/53 284/386/53 268/384/189
f 275/374/186 291/382/53 292/385/53
f 284/386/53 285/603/53 269/347/160
f 277/387/53 278/389/53 262/359/171
f 292/385/53 277/387/53 261/352/164
f 269/347/160 285/603/53 286/388/53
f 278/389/53 279/604/53 263/390/190
f 270/357/169 286/388/53 287/391/53
f 263/390/190 279/604/53 280/392/53
f 287/391/53 288/349/53 272/351/163
f 280/392/53 281/602/53 265/368/180
f 295/395/10 294/428/10 293/425/10
f 293/425/10 308/453/10 307/451/10
f 307/451/10 306/447/10 305/445/10
f 305/445/10 304/444/10 303/393/10
f 303/393/10 302/440/10 301/441/10
f 301/441/10 300/436/10 299/394/10
f 299/394/10 298/435/10 297/431/10
f 297/431/10 296/432/10 295/395/10
f 295/395/10 293/425/10 307/451/10
f 307/451/10 305/445/10 303/393/10
f 303/393/10 301/441/10 299/394/10
f 299/394/10 297/431/10 295/395/10
f 295/395/10 307/451/10 303/393/10
f 318/396/90 319/401/86 287/397/86
f 311/399/89 312/403/88 280/400/88
f 319/401/86 320/405/87 288/402/87
f 312/403/88 313/407/58 281/404/58
f 320/405/87 321/409/60 289/406/60
f 313/407/58 314/411/97 282/408/97
f 321/409/60 322/413/96 290/410/96
f 314/411/97 315/415/95 283/412/95
f 322/413/96 323/417/94 291/414/94
f 315/415/95 316/419/93 284/416/93
f 323/417/94 324/423/92 292/418/92
f 316/419/93 317/424/26 285/420/26
f 310/421/80 309/377/91 278/379/91
f 324/423/92 310/421/80 277/422/80
f 317/424/26 318/396/90 286/398/90
f 293/425/10 294/428/10 309/426/10
f 295/395/10 311/430/10 309/426/10
f 295/395/10 296/432/10 312/429/10
f 297/431/10 313/434/10 312/429/10
f 297/431/10 298/435/10 314/433/10
f 299/394/10 315/437/10 314/433/10
f 300/436/10 316/439/10 315/437/10
f 300/436/10 301/441/10 317/438/10
f 302/440/10 318/443/10 317/438/10
f 302/440/10 303/393/10 319/442/10
f 304/444/10 320/446/10 319/442/10
f 305/445/10 321/448/10 320/446/10
f 306/447/10 322/450/10 321/448/10
f 306/447/10 307/451/10 323/449/10
f 307/451/10 308/453/10 324/452/10
f 293/425/10 310/427/10 324/452/10
f 327/316/135 340/339/155 353/454/191
f 325/312/131 339/338/154 352/456/193
f 340/339/155 338/335/151 351/458/195
f 339/338/154 337/334/150 350/459/196
f 338/335/151 336/331/147 349/460/197
f 337/334/150 335/330/146 348/461/198
f 336/331/147 334/327/143 347/462/199
f 335/330/146 333/326/142 346/463/200
f 334/327/143 332/321/139 345/464/201
f 333/326/142 330/320/26 344/465/202
f 331/325/141 329/318/137 343/466/203
f 332/321/139 331/323/141 356/468/204
f 330/320/26 328/314/133 342/469/205
f 329/318/137 326/313/132 341/470/206
f 328/314/133 327/316/135 355/455/192
f 326/313/132 325/312/131 354/457/194
f 341/470/206 354/457/194 242/471/183
f 342/469/205 355/455/192 235/473/185
f 343/466/203 341/470/206 243/472/187
f 344/465/202 342/469/205 236/474/159
f 345/464/201 356/468/204 229/477/166
f 356/467/204 343/466/203 244/475/168
f 346/463/200 344/465/202 237/476/161
f 347/462/199 345/464/201 230/478/165
f 239/482/174 348/461/198 346/463/200
f 232/483/176 349/460/197 347/462/199
f 350/459/196 348/461/198 239/482/174
f 351/458/195 349/460/197 232/483/176
f 352/456/193 350/459/196 240/484/177
f 353/454/191 351/458/195 233/485/178
f 242/471/183 354/457/194 352/456/193
f 235/473/185 355/455/192 353/454/191
